<svg width="86" height="85" viewBox="0 0 86 85" version="1.1" xmlns="http://www.w3.org/2000/svg" xmlns:xlink="http://www.w3.org/1999/xlink">
<title>100</title>
<desc>Created using Figma</desc>
<g id="Canvas" transform="translate(-22334 2828)">
<g id="100">
<g id="Group">
<g id="Group">
<g id="Vector">
<use xlink:href="#path0_fill" transform="translate(22394.5 -2798.36)" fill="#FFFFFF"/>
</g>
</g>
<g id="Group">
<g id="Vector">
<use xlink:href="#path1_fill" transform="translate(22407 -2792.33)" fill="#FFFFFF"/>
</g>
</g>
<g id="Group">
<g id="Vector">
<use xlink:href="#path2_fill" transform="translate(22343.6 -2798.36)" fill="#FFFFFF"/>
</g>
</g>
<g id="Group">
<g id="Vector">
<use xlink:href="#path3_fill" transform="translate(22334 -2792.4)" fill="#FFFFFF"/>
</g>
</g>
<g id="Group">
<g id="Vector">
<use xlink:href="#path4_fill" transform="translate(22396.9 -2811.62)" fill="#FFFFFF"/>
</g>
</g>
<g id="Group">
<g id="Vector">
<use xlink:href="#path5_fill" transform="translate(22349.5 -2811.57)" fill="#FFFFFF"/>
</g>
</g>
<g id="Group">
<g id="Vector">
<use xlink:href="#path6_fill" transform="translate(22349.6 -2828)" fill="#FFFFFF"/>
</g>
</g>
<g id="Group">
<g id="Vector">
<use xlink:href="#path7_fill" transform="translate(22379.8 -2766.23)" fill="#FFFFFF"/>
</g>
</g>
<g id="Group">
<g id="Vector">
<use xlink:href="#path8_fill" transform="translate(22372.1 -2753.31)" fill="#FFFFFF"/>
</g>
</g>
<g id="Group">
<g id="Vector">
<use xlink:href="#path9_fill" transform="translate(22350.2 -2790.79)" fill="#FFFFFF"/>
</g>
</g>
<g id="Group">
<g id="Vector">
<use xlink:href="#path10_fill" transform="translate(22401.4 -2790.79)" fill="#FFFFFF"/>
</g>
</g>
<g id="Group">
<g id="Vector">
<use xlink:href="#path11_fill" transform="translate(22334.7 -2781.62)" fill="#FFFFFF"/>
</g>
</g>
<g id="Group">
<g id="Vector">
<use xlink:href="#path12_fill" transform="translate(22411.4 -2781.62)" fill="#FFFFFF"/>
</g>
</g>
</g>
</g>
</g>
<defs>
<path id="path0_fill" d="M 7.58394 34.8073C 3.35572 34.8073 -1.02409e-06 31.3935 -1.02409e-06 27.2434L -1.02409e-06 7.56389C -1.02409e-06 3.41379 3.42284 -5.1069e-07 7.58394 -5.1069e-07C 11.8121 -5.1069e-07 15.1679 3.41379 15.1679 7.56389L 15.1679 27.3103C 15.1679 31.3935 11.745 34.8073 7.58394 34.8073ZM 7.58394 2.67748C 4.89936 2.67748 2.68458 4.88641 2.68458 7.56389L 2.68458 27.3103C 2.68458 29.9878 4.89936 32.1967 7.58394 32.1967C 10.2685 32.1967 12.4833 29.9878 12.4833 27.3103L 12.4833 7.56389C 12.4833 4.88641 10.2685 2.67748 7.58394 2.67748Z"/>
<path id="path1_fill" d="M 5.1007 22.8256L 1.34229 22.8256C 0.604028 22.8256 -2.04817e-06 22.2231 -2.04817e-06 21.4868L -2.04817e-06 1.33874C -2.04817e-06 0.602433 0.604028 -5.1069e-07 1.34229 -5.1069e-07L 5.1007 -5.1069e-07C 9.06045 -5.1069e-07 12.2819 3.21298 12.2819 7.16227L 12.2819 15.7302C 12.2819 19.6126 9.06045 22.8256 5.1007 22.8256ZM 2.68458 20.1481L 5.1007 20.1481C 7.58394 20.1481 9.59737 18.14 9.59737 15.6633L 9.59737 7.09533C 9.59737 4.61866 7.58394 2.61055 5.1007 2.61055L 2.68458 2.61055L 2.68458 20.1481Z"/>
<path id="path2_fill" d="M 7.58393 34.8073C 3.35572 34.8073 1.28011e-07 31.3935 1.28011e-07 27.2434L 1.28011e-07 7.56389C 1.28011e-07 3.41379 3.42284 -5.1069e-07 7.58393 -5.1069e-07C 11.8121 -5.1069e-07 15.1679 3.41379 15.1679 7.56389L 15.1679 27.3103C 15.1679 31.3935 11.745 34.8073 7.58393 34.8073ZM 7.58393 2.67748C 4.89936 2.67748 2.68458 4.88641 2.68458 7.56389L 2.68458 27.3103C 2.68458 29.9878 4.89936 32.1967 7.58393 32.1967C 10.2685 32.1967 12.4833 29.9878 12.4833 27.3103L 12.4833 7.56389C 12.4833 4.88641 10.2685 2.67748 7.58393 2.67748Z"/>
<path id="path3_fill" d="M 10.9397 22.8925L 7.18125 22.8925C 3.22149 22.8925 -1.19219e-15 19.6795 -1.19219e-15 15.7302L -1.19219e-15 7.16227C -1.19219e-15 3.21298 3.22149 5.10689e-07 7.18125 5.10689e-07L 10.9397 5.10689e-07C 11.6779 5.10689e-07 12.2819 0.602434 12.2819 1.33874L 12.2819 21.4868C 12.2819 22.2901 11.6779 22.8925 10.9397 22.8925ZM 7.18125 2.74442C 4.69801 2.74442 2.68458 4.75253 2.68458 7.22921L 2.68458 15.7972C 2.68458 18.2738 4.69801 20.2819 7.18125 20.2819L 9.59737 20.2819L 9.59737 2.74442L 7.18125 2.74442Z"/>
<path id="path4_fill" d="M 5.10597 15.9363C 4.36771 15.9363 3.76368 15.3338 3.76368 14.5975C 3.76368 10.1797 2.55562 5.82878 0.206612 2.08031C -0.196074 1.47787 0.00527212 0.607689 0.676417 0.206067C 1.34756 -0.195556 2.15293 0.00525611 2.48851 0.674627C 5.03885 4.89166 6.44826 9.71113 6.44826 14.5975C 6.44826 15.3338 5.84423 15.9363 5.10597 15.9363Z"/>
<path id="path5_fill" d="M 1.34229 15.8914C 0.60403 15.8914 2.56021e-07 15.289 2.56021e-07 14.5527C 2.56021e-07 9.59936 1.34229 4.77989 3.95975 0.629789C 4.36244 0.0273551 5.16781 -0.173457 5.83896 0.161229C 6.44299 0.562851 6.64433 1.3661 6.30876 2.03547C 3.95975 5.78394 2.75169 10.1349 2.75169 14.5527C 2.68458 15.289 2.08055 15.8914 1.34229 15.8914Z"/>
<path id="path6_fill" d="M 8.61698 21.2759C 8.34852 21.2759 8.14718 21.209 7.94583 21.0751L 0.63036 16.5903C 0.294788 16.3895 0.0934433 16.1218 0.0263288 15.7871C -0.0407856 15.4524 0.0263293 15.0508 0.160558 14.783C 4.523 7.75462 11.7042 2.6674 19.9593 0.793159C 28.3486 -1.08108 36.805 0.391536 43.8521 4.94326C 47.7447 7.48687 51.1004 10.9007 53.5166 14.783C 53.7179 15.1177 53.785 15.4524 53.6508 15.7871C 53.5165 16.1218 53.3152 16.4564 53.0468 16.5903L 45.7313 21.0751C 45.1272 21.4767 44.2548 21.2759 43.9192 20.6065C 42.3755 18.0629 40.2279 15.9209 37.7447 14.3145C 33.248 11.4362 27.8788 10.499 22.5097 11.7039C 17.1405 12.9088 12.6438 16.0548 9.82504 20.6065C 9.55658 21.0751 9.08678 21.2759 8.61698 21.2759ZM 27.0735 8.55786C 31.3688 8.55786 35.5299 9.76273 39.1541 12.1055C 41.6373 13.712 43.785 15.7871 45.4628 18.1299L 50.4964 15.0508C 48.3487 11.9047 45.597 9.22723 42.3756 7.15218C 35.9326 3.00208 28.2144 1.66334 20.5634 3.40371C 13.4492 5.0102 7.20758 9.22723 3.18071 15.0508L 8.21429 18.1299C 11.4358 13.5781 16.2009 10.3652 21.8385 9.09336C 23.5835 8.75867 25.3285 8.55786 27.0735 8.55786Z"/>
<path id="path7_fill" d="M 5.1007 19.8134L 1.34229 19.8134C 0.604028 19.8134 -2.04817e-06 19.2109 -2.04817e-06 18.4746C -2.04817e-06 17.7383 0.604028 17.1359 1.34229 17.1359L 5.1007 17.1359C 13.8256 17.1359 20.9397 10.0406 20.9397 1.33874C 20.9397 0.602436 21.5437 2.04276e-06 22.282 2.04276e-06C 23.0203 2.04276e-06 23.6243 0.602436 23.6243 1.33874C 23.6243 11.5132 15.3021 19.8134 5.1007 19.8134Z"/>
<path id="path8_fill" d="M 5.23493 10.3083C 2.349 10.3083 -5.12043e-07 7.96552 -5.12043e-07 5.15416C -5.12043e-07 2.27586 2.349 -1.02138e-06 5.23493 -1.02138e-06C 8.12085 -1.02138e-06 10.4699 2.3428 10.4699 5.15416C 10.4027 7.96552 8.12085 10.3083 5.23493 10.3083ZM 5.23493 2.61055C 3.82552 2.61055 2.68458 3.74848 2.68458 5.08722C 2.68458 6.4929 3.82552 7.56389 5.23493 7.56389C 6.64433 7.56389 7.78528 6.42596 7.78528 5.08722C 7.71816 3.74848 6.57722 2.61055 5.23493 2.61055Z"/>
<path id="path9_fill" d="M 0.671145 26.574C 0.268458 26.574 5.12043e-07 26.3063 5.12043e-07 25.9047L 5.12043e-07 0.66937C 5.12043e-07 0.267747 0.268458 -1.02138e-06 0.671145 -1.02138e-06C 1.07383 -1.02138e-06 1.34229 0.267747 1.34229 0.66937L 1.34229 25.9047C 1.34229 26.3063 1.00672 26.574 0.671145 26.574Z"/>
<path id="path10_fill" d="M 0.671146 26.574C 0.268459 26.574 1.02409e-06 26.3063 1.02409e-06 25.9047L 1.02409e-06 0.66937C 1.02409e-06 0.267747 0.268459 -1.02138e-06 0.671146 -1.02138e-06C 1.07383 -1.02138e-06 1.34229 0.267747 1.34229 0.66937L 1.34229 25.9047C 1.34229 26.3063 1.07383 26.574 0.671146 26.574Z"/>
<path id="path11_fill" d="M 6.37587 1.33874L 0.671145 1.33874C 0.268458 1.33874 0 1.071 0 0.669373C 0 0.26775 0.268458 2.04276e-06 0.671145 2.04276e-06L 6.37587 2.04276e-06C 6.77856 2.04276e-06 7.04702 0.26775 7.04702 0.669373C 7.04702 1.071 6.71145 1.33874 6.37587 1.33874Z"/>
<path id="path12_fill" d="M 6.37588 1.33874L 0.671147 1.33874C 0.26846 1.33874 2.04817e-06 1.071 2.04817e-06 0.669373C 2.04817e-06 0.26775 0.26846 2.04276e-06 0.671147 2.04276e-06L 6.37588 2.04276e-06C 6.77856 2.04276e-06 7.04702 0.26775 7.04702 0.669373C 7.04702 1.071 6.77856 1.33874 6.37588 1.33874Z"/>
</defs>
</svg>
