<svg width="60" height="60" viewBox="0 0 60 60" version="1.1" xmlns="http://www.w3.org/2000/svg" xmlns:xlink="http://www.w3.org/1999/xlink">
<title>Group 39</title>
<desc>Created using Figma</desc>
<g id="Canvas" transform="translate(-4661 1445)">
<g id="Group 39">
<g id="Group 31.7">
<g id="Ellipse">
<use xlink:href="#path0_fill" transform="translate(4661 -1445)" fill="#FFFFFF"/>
<mask id="mask0_outline_ins">
<use xlink:href="#path0_fill" fill="white" transform="translate(4661 -1445)"/>
</mask>
<g mask="url(#mask0_outline_ins)">
<use xlink:href="#path1_stroke_2x" transform="translate(4661 -1445)"/>
</g>
</g>
</g>
<g id="noun_645988_cc">
<g id="Group">
<g id="Vector">
<use xlink:href="#path2_fill" transform="translate(4676 -1433)"/>
</g>
<g id="Vector">
<use xlink:href="#path3_fill" transform="translate(4679 -1427)"/>
</g>
<g id="Vector">
<use xlink:href="#path4_fill" transform="translate(4679 -1424)"/>
</g>
<g id="Vector">
<use xlink:href="#path4_fill" transform="translate(4679 -1421.75)"/>
</g>
<g id="Vector">
<use xlink:href="#path4_fill" transform="translate(4679 -1419.5)"/>
</g>
<g id="Vector">
<use xlink:href="#path4_fill" transform="translate(4679 -1417.25)"/>
</g>
<g id="Vector">
<use xlink:href="#path4_fill" transform="translate(4679 -1415)"/>
</g>
<g id="Vector">
<use xlink:href="#path4_fill" transform="translate(4679 -1412.75)"/>
</g>
<g id="Vector">
<use xlink:href="#path4_fill" transform="translate(4679 -1410.5)"/>
</g>
<g id="Vector">
<use xlink:href="#path4_fill" transform="translate(4679 -1408.25)"/>
</g>
<g id="Vector">
<use xlink:href="#path4_fill" transform="translate(4679 -1406)"/>
</g>
<g id="Vector">
<use xlink:href="#path4_fill" transform="translate(4679 -1403.75)"/>
</g>
<g id="Vector">
<use xlink:href="#path5_fill" transform="translate(4693.25 -1427)"/>
</g>
<g id="Vector">
<use xlink:href="#path6_fill" transform="translate(4693.25 -1424)"/>
</g>
<g id="Vector">
<use xlink:href="#path6_fill" transform="translate(4693.25 -1421.75)"/>
</g>
<g id="Vector">
<use xlink:href="#path6_fill" transform="translate(4693.25 -1419.5)"/>
</g>
<g id="Vector">
<use xlink:href="#path6_fill" transform="translate(4693.25 -1417.25)"/>
</g>
<g id="Vector">
<use xlink:href="#path6_fill" transform="translate(4693.25 -1415)"/>
</g>
<g id="Vector">
<use xlink:href="#path6_fill" transform="translate(4693.25 -1412.75)"/>
</g>
<g id="Vector">
<use xlink:href="#path6_fill" transform="translate(4693.25 -1410.5)"/>
</g>
<g id="Vector">
<use xlink:href="#path6_fill" transform="translate(4693.25 -1408.25)"/>
</g>
<g id="Vector">
<use xlink:href="#path6_fill" transform="translate(4693.25 -1406)"/>
</g>
<g id="Vector">
<use xlink:href="#path6_fill" transform="translate(4693.25 -1403.75)"/>
</g>
<g id="Vector">
<use xlink:href="#path5_fill" transform="translate(4698.5 -1427)"/>
</g>
<g id="Vector">
<use xlink:href="#path6_fill" transform="translate(4698.5 -1424)"/>
</g>
<g id="Vector">
<use xlink:href="#path6_fill" transform="translate(4698.5 -1421.75)"/>
</g>
<g id="Vector">
<use xlink:href="#path6_fill" transform="translate(4698.5 -1419.5)"/>
</g>
<g id="Vector">
<use xlink:href="#path6_fill" transform="translate(4698.5 -1417.25)"/>
</g>
<g id="Vector">
<use xlink:href="#path6_fill" transform="translate(4698.5 -1415)"/>
</g>
<g id="Vector">
<use xlink:href="#path6_fill" transform="translate(4698.5 -1412.75)"/>
</g>
<g id="Vector">
<use xlink:href="#path6_fill" transform="translate(4698.5 -1410.5)"/>
</g>
<g id="Vector">
<use xlink:href="#path6_fill" transform="translate(4698.5 -1408.25)"/>
</g>
<g id="Vector">
<use xlink:href="#path6_fill" transform="translate(4698.5 -1406)"/>
</g>
<g id="Vector">
<use xlink:href="#path6_fill" transform="translate(4698.5 -1403.75)"/>
</g>
<g id="Vector">
<use xlink:href="#path5_fill" transform="translate(4688 -1427)"/>
</g>
<g id="Vector">
<use xlink:href="#path6_fill" transform="translate(4688 -1424)"/>
</g>
<g id="Vector">
<use xlink:href="#path6_fill" transform="translate(4688 -1421.75)"/>
</g>
<g id="Vector">
<use xlink:href="#path6_fill" transform="translate(4688 -1419.5)"/>
</g>
<g id="Vector">
<use xlink:href="#path6_fill" transform="translate(4688 -1417.25)"/>
</g>
<g id="Vector">
<use xlink:href="#path6_fill" transform="translate(4688 -1415)"/>
</g>
<g id="Vector">
<use xlink:href="#path6_fill" transform="translate(4688 -1412.75)"/>
</g>
<g id="Vector">
<use xlink:href="#path6_fill" transform="translate(4688 -1410.5)"/>
</g>
<g id="Vector">
<use xlink:href="#path6_fill" transform="translate(4688 -1408.25)"/>
</g>
<g id="Vector">
<use xlink:href="#path6_fill" transform="translate(4688 -1406)"/>
</g>
<g id="Vector">
<use xlink:href="#path6_fill" transform="translate(4688 -1403.75)"/>
</g>
<g id="Vector">
<use xlink:href="#path7_fill" transform="translate(4687.25 -1400.75)"/>
</g>
<g id="Vector">
<use xlink:href="#path7_fill" transform="translate(4689.5 -1400.75)"/>
</g>
<g id="Vector">
<use xlink:href="#path7_fill" transform="translate(4691.75 -1400.75)"/>
</g>
<g id="Vector">
<use xlink:href="#path7_fill" transform="translate(4694 -1400.75)"/>
</g>
</g>
</g>
</g>
</g>
<defs>
<path id="path0_fill" d="M 60 30C 60 46.5685 46.5685 60 30 60C 13.4315 60 0 46.5685 0 30C 0 13.4315 13.4315 0 30 0C 46.5685 0 60 13.4315 60 30Z"/>
<path id="path1_stroke_2x" d="M 59 30C 59 46.0163 46.0163 59 30 59L 30 61C 47.1208 61 61 47.1208 61 30L 59 30ZM 30 59C 13.9837 59 1 46.0163 1 30L -1 30C -1 47.1208 12.8792 61 30 61L 30 59ZM 1 30C 1 13.9837 13.9837 1 30 1L 30 -1C 12.8792 -1 -1 12.8792 -1 30L 1 30ZM 30 1C 46.0163 1 59 13.9837 59 30L 61 30C 61 12.8792 47.1208 -1 30 -1L 30 1Z"/>
<path id="path2_fill" d="M 0 0L 0 36L 3.75 36L 13.5 36L 30 36L 30 0L 0 0ZM 6 0.75C 6.41475 0.75 6.75 1.08525 6.75 1.5C 6.75 1.91475 6.41475 2.25 6 2.25C 5.58525 2.25 5.25 1.91475 5.25 1.5C 5.25 1.08525 5.58525 0.75 6 0.75ZM 3.75 0.75C 4.16475 0.75 4.5 1.08525 4.5 1.5C 4.5 1.91475 4.16475 2.25 3.75 2.25C 3.33525 2.25 3 1.91475 3 1.5C 3 1.08525 3.33525 0.75 3.75 0.75ZM 1.5 0.75C 1.91475 0.75 2.25 1.08525 2.25 1.5C 2.25 1.91475 1.91475 2.25 1.5 2.25C 1.08525 2.25 0.75 1.91475 0.75 1.5C 0.75 1.08525 1.08525 0.75 1.5 0.75ZM 29.25 35.25L 13.5 35.25L 3.75 35.25L 0.75 35.25L 0.75 3L 29.25 3L 29.25 35.25Z"/>
<path id="path3_fill" d="M 7.5 0L 0 0L 0 1.5L 7.5 1.5L 7.5 0Z"/>
<path id="path4_fill" d="M 7.5 0L 0 0L 0 0.75L 7.5 0.75L 7.5 0Z"/>
<path id="path5_fill" d="M 3.75 0L 0 0L 0 1.5L 3.75 1.5L 3.75 0Z"/>
<path id="path6_fill" d="M 3.75 0L 0 0L 0 0.75L 3.75 0.75L 3.75 0Z"/>
<path id="path7_fill" d="M 0.75 1.5C 1.16421 1.5 1.5 1.16421 1.5 0.75C 1.5 0.335786 1.16421 0 0.75 0C 0.335786 0 0 0.335786 0 0.75C 0 1.16421 0.335786 1.5 0.75 1.5Z"/>
</defs>
</svg>
