<svg width="76" height="76" viewBox="0 0 76 76" version="1.1" xmlns="http://www.w3.org/2000/svg" xmlns:xlink="http://www.w3.org/1999/xlink">
<title>db</title>
<desc>Created using Figma</desc>
<g id="Canvas" transform="translate(-8864 4659)">
<g id="db">
<g id="Ellipse">
<use xlink:href="#path0_fill" transform="translate(8864 -4659)" fill="#F2F8FA"/>
</g>
<g id="noun_645988_cc">
<g id="Group">
<g id="Vector">
<use xlink:href="#path1_fill" transform="translate(8887 -4639)"/>
</g>
<g id="Vector">
<use xlink:href="#path2_fill" transform="translate(8890 -4633)"/>
</g>
<g id="Vector">
<use xlink:href="#path3_fill" transform="translate(8890 -4630)"/>
</g>
<g id="Vector">
<use xlink:href="#path3_fill" transform="translate(8890 -4627.75)"/>
</g>
<g id="Vector">
<use xlink:href="#path3_fill" transform="translate(8890 -4625.5)"/>
</g>
<g id="Vector">
<use xlink:href="#path3_fill" transform="translate(8890 -4623.25)"/>
</g>
<g id="Vector">
<use xlink:href="#path3_fill" transform="translate(8890 -4621)"/>
</g>
<g id="Vector">
<use xlink:href="#path3_fill" transform="translate(8890 -4618.75)"/>
</g>
<g id="Vector">
<use xlink:href="#path3_fill" transform="translate(8890 -4616.5)"/>
</g>
<g id="Vector">
<use xlink:href="#path3_fill" transform="translate(8890 -4614.25)"/>
</g>
<g id="Vector">
<use xlink:href="#path3_fill" transform="translate(8890 -4612)"/>
</g>
<g id="Vector">
<use xlink:href="#path3_fill" transform="translate(8890 -4609.75)"/>
</g>
<g id="Vector">
<use xlink:href="#path4_fill" transform="translate(8904.25 -4633)"/>
</g>
<g id="Vector">
<use xlink:href="#path5_fill" transform="translate(8904.25 -4630)"/>
</g>
<g id="Vector">
<use xlink:href="#path5_fill" transform="translate(8904.25 -4627.75)"/>
</g>
<g id="Vector">
<use xlink:href="#path5_fill" transform="translate(8904.25 -4625.5)"/>
</g>
<g id="Vector">
<use xlink:href="#path5_fill" transform="translate(8904.25 -4623.25)"/>
</g>
<g id="Vector">
<use xlink:href="#path5_fill" transform="translate(8904.25 -4621)"/>
</g>
<g id="Vector">
<use xlink:href="#path5_fill" transform="translate(8904.25 -4618.75)"/>
</g>
<g id="Vector">
<use xlink:href="#path5_fill" transform="translate(8904.25 -4616.5)"/>
</g>
<g id="Vector">
<use xlink:href="#path5_fill" transform="translate(8904.25 -4614.25)"/>
</g>
<g id="Vector">
<use xlink:href="#path5_fill" transform="translate(8904.25 -4612)"/>
</g>
<g id="Vector">
<use xlink:href="#path5_fill" transform="translate(8904.25 -4609.75)"/>
</g>
<g id="Vector">
<use xlink:href="#path4_fill" transform="translate(8909.5 -4633)"/>
</g>
<g id="Vector">
<use xlink:href="#path5_fill" transform="translate(8909.5 -4630)"/>
</g>
<g id="Vector">
<use xlink:href="#path5_fill" transform="translate(8909.5 -4627.75)"/>
</g>
<g id="Vector">
<use xlink:href="#path5_fill" transform="translate(8909.5 -4625.5)"/>
</g>
<g id="Vector">
<use xlink:href="#path5_fill" transform="translate(8909.5 -4623.25)"/>
</g>
<g id="Vector">
<use xlink:href="#path5_fill" transform="translate(8909.5 -4621)"/>
</g>
<g id="Vector">
<use xlink:href="#path5_fill" transform="translate(8909.5 -4618.75)"/>
</g>
<g id="Vector">
<use xlink:href="#path5_fill" transform="translate(8909.5 -4616.5)"/>
</g>
<g id="Vector">
<use xlink:href="#path5_fill" transform="translate(8909.5 -4614.25)"/>
</g>
<g id="Vector">
<use xlink:href="#path5_fill" transform="translate(8909.5 -4612)"/>
</g>
<g id="Vector">
<use xlink:href="#path5_fill" transform="translate(8909.5 -4609.75)"/>
</g>
<g id="Vector">
<use xlink:href="#path4_fill" transform="translate(8899 -4633)"/>
</g>
<g id="Vector">
<use xlink:href="#path5_fill" transform="translate(8899 -4630)"/>
</g>
<g id="Vector">
<use xlink:href="#path5_fill" transform="translate(8899 -4627.75)"/>
</g>
<g id="Vector">
<use xlink:href="#path5_fill" transform="translate(8899 -4625.5)"/>
</g>
<g id="Vector">
<use xlink:href="#path5_fill" transform="translate(8899 -4623.25)"/>
</g>
<g id="Vector">
<use xlink:href="#path5_fill" transform="translate(8899 -4621)"/>
</g>
<g id="Vector">
<use xlink:href="#path5_fill" transform="translate(8899 -4618.75)"/>
</g>
<g id="Vector">
<use xlink:href="#path5_fill" transform="translate(8899 -4616.5)"/>
</g>
<g id="Vector">
<use xlink:href="#path5_fill" transform="translate(8899 -4614.25)"/>
</g>
<g id="Vector">
<use xlink:href="#path5_fill" transform="translate(8899 -4612)"/>
</g>
<g id="Vector">
<use xlink:href="#path5_fill" transform="translate(8899 -4609.75)"/>
</g>
<g id="Vector">
<use xlink:href="#path6_fill" transform="translate(8898.25 -4606.75)"/>
</g>
<g id="Vector">
<use xlink:href="#path6_fill" transform="translate(8900.5 -4606.75)"/>
</g>
<g id="Vector">
<use xlink:href="#path6_fill" transform="translate(8902.75 -4606.75)"/>
</g>
<g id="Vector">
<use xlink:href="#path6_fill" transform="translate(8905 -4606.75)"/>
</g>
</g>
</g>
</g>
</g>
<defs>
<path id="path0_fill" d="M 76 38C 76 58.9868 58.9868 76 38 76C 17.0132 76 0 58.9868 0 38C 0 17.0132 17.0132 0 38 0C 58.9868 0 76 17.0132 76 38Z"/>
<path id="path1_fill" d="M 0 0L 0 36L 3.75 36L 13.5 36L 30 36L 30 0L 0 0ZM 6 0.75C 6.41475 0.75 6.75 1.08525 6.75 1.5C 6.75 1.91475 6.41475 2.25 6 2.25C 5.58525 2.25 5.25 1.91475 5.25 1.5C 5.25 1.08525 5.58525 0.75 6 0.75ZM 3.75 0.75C 4.16475 0.75 4.5 1.08525 4.5 1.5C 4.5 1.91475 4.16475 2.25 3.75 2.25C 3.33525 2.25 3 1.91475 3 1.5C 3 1.08525 3.33525 0.75 3.75 0.75ZM 1.5 0.75C 1.91475 0.75 2.25 1.08525 2.25 1.5C 2.25 1.91475 1.91475 2.25 1.5 2.25C 1.08525 2.25 0.75 1.91475 0.75 1.5C 0.75 1.08525 1.08525 0.75 1.5 0.75ZM 29.25 35.25L 13.5 35.25L 3.75 35.25L 0.75 35.25L 0.75 3L 29.25 3L 29.25 35.25Z"/>
<path id="path2_fill" d="M 7.5 0L 0 0L 0 1.5L 7.5 1.5L 7.5 0Z"/>
<path id="path3_fill" d="M 7.5 0L 0 0L 0 0.75L 7.5 0.75L 7.5 0Z"/>
<path id="path4_fill" d="M 3.75 0L 0 0L 0 1.5L 3.75 1.5L 3.75 0Z"/>
<path id="path5_fill" d="M 3.75 0L 0 0L 0 0.75L 3.75 0.75L 3.75 0Z"/>
<path id="path6_fill" d="M 0.75 1.5C 1.16421 1.5 1.5 1.16421 1.5 0.75C 1.5 0.335786 1.16421 0 0.75 0C 0.335786 0 0 0.335786 0 0.75C 0 1.16421 0.335786 1.5 0.75 1.5Z"/>
</defs>
</svg>
