<svg width="60" height="60" viewBox="0 0 60 60" version="1.1" xmlns="http://www.w3.org/2000/svg" xmlns:xlink="http://www.w3.org/1999/xlink">
<title>Group 31</title>
<desc>Created using Figma</desc>
<g id="Canvas" transform="translate(-4661 2559)">
<g id="Group 31">
<g id="Ellipse">
<use xlink:href="#path0_fill" transform="translate(4661 -2559)" fill="#FFFFFF"/>
<mask id="mask0_outline_ins">
<use xlink:href="#path0_fill" fill="white" transform="translate(4661 -2559)"/>
</mask>
<g mask="url(#mask0_outline_ins)">
<use xlink:href="#path1_stroke_2x" transform="translate(4661 -2559)"/>
</g>
</g>
<g id="Vector">
<mask id="mask1_outline_ins">
<use xlink:href="#path2_fill" fill="white" transform="matrix(1 -5.37504e-17 5.73296e-17 1 4681.18 -2546)"/>
</mask>
<g mask="url(#mask1_outline_ins)">
<use xlink:href="#path3_stroke_2x" transform="matrix(1 -5.37504e-17 5.73296e-17 1 4681.18 -2546)"/>
</g>
</g>
<g id="Vector">
<use xlink:href="#path4_fill" transform="translate(4675 -2534.04)" fill="#1A1A1A"/>
</g>
</g>
</g>
<defs>
<path id="path0_fill" d="M 60 30C 60 46.5685 46.5685 60 30 60C 13.4315 60 0 46.5685 0 30C 0 13.4315 13.4315 0 30 0C 46.5685 0 60 13.4315 60 30Z"/>
<path id="path1_stroke_2x" d="M 59 30C 59 46.0163 46.0163 59 30 59L 30 61C 47.1208 61 61 47.1208 61 30L 59 30ZM 30 59C 13.9837 59 1 46.0163 1 30L -1 30C -1 47.1208 12.8792 61 30 61L 30 59ZM 1 30C 1 13.9837 13.9837 1 30 1L 30 -1C 12.8792 -1 -1 12.8792 -1 30L 1 30ZM 30 1C 46.0163 1 59 13.9837 59 30L 61 30C 61 12.8792 47.1208 -1 30 -1L 30 1Z"/>
<path id="path2_fill" d="M 17.5143 15.5863C 16.1256 12.6197 16.6059 10.1631 16.6059 10.1631C 16.6059 10.1631 13.8861 12.6475 14.3089 16.2942C 14.4511 17.5212 14.9641 18.9137 15.4233 20.2907C 14.9507 21.3844 14.1168 22.4816 12.6986 22.2348C 10.0068 21.7663 10.9412 19.6093 11.5072 17.7444C 12.0732 15.8792 10.6705 14.3895 10.6705 14.3895C 10.6705 14.3895 9.40605 17.6261 8.32774 15.1055C 7.24942 12.5849 12.8145 9.97976 12.1642 6.23277C 11.5142 2.48579 8.93273 2.55123e-08 8.93273 2.55123e-08C 8.93273 2.55123e-08 10.6016 2.32915 9.52262 5.27218C 8.44361 8.21521 6.34386 7.9491 4.39089 11.524C 2.43791 15.0988 5.33261 18.3206 3.95373 19.0999C 1.11205 20.7064 1.64717 14.8911 1.64717 14.8911C 1.64717 14.8911 -1.89676 19.1981 1.41192 25.9522C 4.97973 33.2357 13.3225 31.537 13.7516 31.444C 16.2815 31.1339 18.6836 29.4412 19.9736 26.1923C 22.4287 20.0077 18.903 18.5529 17.5143 15.5863Z"/>
<path id="path3_stroke_2x" d="M 16.6059 10.1631L 17.5873 10.355L 18.1688 7.38116L 15.9315 9.4248L 16.6059 10.1631ZM 14.3089 16.2942L 15.3022 16.1791L 15.3022 16.179L 14.3089 16.2942ZM 15.4233 20.2907L 16.3413 20.6874L 16.4928 20.3367L 16.372 19.9743L 15.4233 20.2907ZM 12.6986 22.2348L 12.5271 23.22L 12.5272 23.22L 12.6986 22.2348ZM 11.5072 17.7444L 12.4641 18.0348L 12.4641 18.0348L 11.5072 17.7444ZM 10.6705 14.3895L 11.3985 13.704L 10.3144 12.5528L 9.73902 14.0257L 10.6705 14.3895ZM 8.32774 15.1055L 7.40833 15.4988L 8.32774 15.1055ZM 12.1642 6.23277L 11.1789 6.40368L 11.1789 6.40376L 12.1642 6.23277ZM 8.93273 2.55123e-08L 9.62636 -0.720334L 8.11986 0.582447L 8.93273 2.55123e-08ZM 3.95373 19.0999L 3.4617 18.2294L 3.4616 18.2294L 3.95373 19.0999ZM 1.64717 14.8911L 2.64296 14.9828L 2.9409 11.745L 0.874977 14.2558L 1.64717 14.8911ZM 1.41192 25.9522L 2.30996 25.5123L 2.30995 25.5123L 1.41192 25.9522ZM 13.7516 31.444L 13.6299 30.4515L 13.5846 30.457L 13.5399 30.4667L 13.7516 31.444ZM 19.9736 26.1923L 20.903 26.5613L 20.903 26.5612L 19.9736 26.1923ZM 18.42 15.1624C 17.7747 13.8057 17.5868 12.6373 17.5379 11.708C 17.5126 11.2634 17.5273 10.9328 17.549 10.6774C 17.5589 10.5586 17.5688 10.4797 17.578 10.4159C 17.5819 10.3882 17.5843 10.3734 17.5868 10.3589C 17.5876 10.3537 17.5878 10.3528 17.5883 10.3502C 17.5883 10.3498 17.5882 10.3507 17.5882 10.3509C 17.5882 10.3505 17.5878 10.3527 17.5878 10.3525C 17.5879 10.3522 17.5876 10.3538 17.5876 10.3537C 17.5876 10.3539 17.5875 10.3542 17.5875 10.3543C 17.5874 10.3547 17.5873 10.355 16.6059 10.1631C 15.6245 9.97125 15.6244 9.97163 15.6244 9.97201C 15.6243 9.97216 15.6243 9.97256 15.6242 9.97284C 15.6241 9.97316 15.624 9.97402 15.6239 9.97467C 15.6237 9.97546 15.6233 9.97741 15.623 9.979C 15.6226 9.9812 15.6217 9.98602 15.6209 9.99041C 15.6197 9.9972 15.6173 10.0105 15.615 10.024C 15.6111 10.047 15.6046 10.0878 15.5981 10.1331C 15.5864 10.2152 15.5696 10.3514 15.5561 10.5093C 15.5312 10.8072 15.5126 11.2761 15.5408 11.8165C 15.5989 12.8571 15.8652 14.4003 16.6086 16.0103L 18.42 15.1624ZM 16.6059 10.1631C 15.9315 9.4248 15.9312 9.42508 15.9309 9.42536C 15.9308 9.42547 15.9305 9.42577 15.9302 9.42598C 15.9299 9.42624 15.9292 9.42689 15.9287 9.4274C 15.9279 9.42806 15.9263 9.42961 15.9248 9.43094C 15.9227 9.43288 15.9184 9.43691 15.9142 9.44081C 15.9075 9.44714 15.895 9.45899 15.8818 9.47167C 15.8586 9.49401 15.8193 9.53264 15.7756 9.57713C 15.6948 9.65967 15.5675 9.79545 15.4282 9.95766C 15.163 10.2677 14.7824 10.765 14.4347 11.358C 13.7682 12.5095 13.1048 14.3496 13.3155 16.4093L 15.3022 16.179C 15.0901 14.5921 15.5753 13.3667 16.163 12.3644C 16.4424 11.8805 16.7154 11.5287 16.9469 11.259C 17.056 11.1313 17.1379 11.0445 17.2041 10.9769C 17.234 10.9463 17.2527 10.928 17.2692 10.9122C 17.2758 10.9058 17.2785 10.9032 17.282 10.9C 17.283 10.899 17.2836 10.8985 17.2831 10.899C 17.2832 10.8989 17.2821 10.8999 17.2822 10.8998C 17.2824 10.8996 17.2813 10.9006 17.2814 10.9005C 17.2812 10.9007 17.281 10.9009 17.2809 10.901C 17.2806 10.9012 17.2804 10.9015 16.6059 10.1631ZM 13.3155 16.4093C 13.4784 17.7533 14.0205 19.2448 14.4747 20.6071L 16.372 19.9743C 15.9077 18.5827 15.4238 17.2892 15.3022 16.1791L 13.3155 16.4093ZM 14.5054 19.894C 14.0555 20.9352 13.5284 21.3642 12.87 21.2496L 12.5272 23.22C 14.7051 23.5989 15.846 21.8336 16.3413 20.6874L 14.5054 19.894ZM 12.8701 21.2496C 12.3241 21.1546 12.1069 20.9982 12.0226 20.9094C 11.8764 20.7923 11.8824 20.7568 11.8805 20.4746C 11.8568 19.8627 12.142 19.0962 12.4641 18.0348L 10.5503 17.454C 10.3064 18.2575 9.84138 19.5019 9.88197 20.5519C 9.91219 21.1007 10.1539 21.8088 10.5719 22.2861C 11.0518 22.7918 11.7272 23.0808 12.5271 23.22L 12.8701 21.2496ZM 12.4641 18.0348C 12.7899 16.8369 12.5242 15.6408 12.2088 14.9479C 12.0373 14.5828 11.8285 14.2551 11.6898 14.0636C 11.614 13.9599 11.5397 13.867 11.4955 13.8142C 11.4704 13.7843 11.4457 13.7561 11.4324 13.7412C 11.4242 13.732 11.4157 13.7226 11.4115 13.718C 11.4087 13.7149 11.4054 13.7114 11.404 13.7098C 11.4029 13.7087 11.4015 13.7072 11.401 13.7066C 11.4005 13.7061 11.3999 13.7055 11.3997 13.7052C 11.3994 13.705 11.3992 13.7047 11.3991 13.7046C 11.3988 13.7043 11.3985 13.704 10.6705 14.3895C 9.94244 15.0751 9.94217 15.0748 9.94191 15.0745C 9.94182 15.0744 9.94156 15.0742 9.9414 15.074C 9.94154 15.0741 9.94019 15.0727 9.94048 15.073C 9.94068 15.0732 9.93858 15.071 9.939 15.0714C 9.93908 15.0715 9.93725 15.0695 9.93745 15.0697C 9.93635 15.0685 9.93779 15.0701 9.93974 15.0723C 9.94668 15.0801 9.95165 15.0857 9.96372 15.1001C 9.99404 15.1362 10.0249 15.1742 10.0718 15.2393C 10.1785 15.3854 10.2849 15.5467 10.3934 15.7871C 10.6378 16.3054 10.7905 16.7867 10.5503 17.454L 12.4641 18.0348ZM 10.6705 14.3895C 9.73902 14.0257 9.73911 14.0254 9.7392 14.0252C 9.73922 14.0251 9.73931 14.0249 9.73936 14.0248C 9.73933 14.0249 9.73964 14.0241 9.73958 14.0242C 9.7396 14.0242 9.73974 14.0238 9.73971 14.0239C 9.73938 14.0247 9.73931 14.0249 9.73867 14.0265C 9.73684 14.0311 9.73506 14.0355 9.73155 14.044C 9.72337 14.0638 9.71362 14.0871 9.69833 14.1218C 9.66518 14.1974 9.62433 14.2868 9.5662 14.3996C 9.44446 14.638 9.32434 14.8519 9.16482 15.0187C 8.98371 15.2171 9.05756 15.0221 9.33431 15.0744C 9.59289 15.1232 9.49471 15.2909 9.24714 14.7122L 7.40833 15.4988C 7.69992 16.1804 8.16416 16.8887 8.96309 17.0397C 9.78019 17.194 10.3723 16.6625 10.6421 16.3669C 10.9335 16.0396 11.1969 15.6019 11.3459 15.3121C 11.4232 15.161 11.4895 15.0171 11.5297 14.9256C 11.5511 14.8767 11.5696 14.8329 11.5804 14.8066C 11.5865 14.792 11.5919 14.7785 11.5949 14.771C 11.5967 14.7665 11.5985 14.7621 11.5994 14.7599C 11.6 14.7584 11.6006 14.7568 11.6009 14.756C 11.6011 14.7555 11.6013 14.7549 11.6015 14.7546C 11.6015 14.7544 11.6017 14.7541 11.6017 14.754C 11.6018 14.7537 11.6019 14.7534 10.6705 14.3895ZM 9.24714 14.7122C 9.15039 14.486 9.15021 14.1936 9.4408 13.663C 9.74813 13.0913 10.2665 12.4861 10.859 11.7627C 11.9741 10.4014 13.5651 8.4566 13.1494 6.06178L 11.1789 6.40376C 11.4136 7.75593 10.5472 8.98718 9.31183 10.4954C 8.72923 11.2067 8.09914 11.9596 7.68662 12.7023C 7.25737 13.4862 6.96592 14.4647 7.40833 15.4988L 9.24714 14.7122ZM 13.1494 6.06187C 12.7868 4.03995 11.8925 2.29281 11.1367 1.15653C 10.7483 0.575658 10.3668 0.098603 10.1026 -0.207179C 9.96547 -0.365561 9.84552 -0.495374 9.76832 -0.576298C 9.72728 -0.619263 9.69158 -0.65561 9.67001 -0.677254C 9.65802 -0.689268 9.64706 -0.700117 9.64094 -0.70613C 9.63728 -0.709718 9.63363 -0.713288 9.63178 -0.715079C 9.63057 -0.716261 9.62921 -0.71758 9.6286 -0.71817C 9.62815 -0.718607 9.62759 -0.719149 9.62736 -0.719368C 9.62717 -0.719548 9.62692 -0.71979 9.62683 -0.71988C 9.62659 -0.720111 9.62636 -0.720334 8.93273 2.55123e-08C 8.2391 0.720334 8.23889 0.720131 8.23869 0.719937C 8.23864 0.719885 8.23844 0.7197 8.23834 0.719595C 8.2384 0.719662 8.23766 0.718944 8.2378 0.719079C 8.23778 0.719063 8.23739 0.718684 8.23742 0.718711C 8.23807 0.719338 8.23812 0.71939 8.23937 0.720621C 8.24306 0.724243 8.24667 0.727809 8.25375 0.734917C 8.27031 0.751515 8.29071 0.772233 8.32152 0.804557C 8.38804 0.874211 8.47485 0.967873 8.58986 1.10108C 8.82999 1.37848 9.13452 1.75705 9.47269 2.266C 10.1701 3.30936 10.8916 4.67861 11.1789 6.40368L 13.1494 6.06187ZM 8.93273 2.55123e-08C 8.11986 0.582447 8.11961 0.582097 8.11936 0.581755C 8.11929 0.581652 8.11905 0.581318 8.11891 0.581113C 8.11903 0.581283 8.11786 0.57964 8.1181 0.579982C 8.11824 0.580185 8.11663 0.577912 8.11693 0.578326C 8.11683 0.578182 8.11612 0.577174 8.11629 0.577419C 8.118 0.579879 8.11836 0.580376 8.1215 0.585069C 8.13056 0.598509 8.13913 0.611462 8.15505 0.636964C 8.19247 0.69654 8.23473 0.767067 8.29237 0.8769C 8.41889 1.11557 8.55473 1.40829 8.67374 1.8173C 8.93462 2.68142 9.06932 3.68096 8.58374 4.92795L 10.4615 5.61641C 11.0549 3.92037 10.8947 2.28382 10.5909 1.2476C 10.4275 0.706452 10.2136 0.23294 10.0609 -0.0570712C 9.97894 -0.211581 9.89925 -0.346011 9.84962 -0.425306C 9.82201 -0.46924 9.79578 -0.509202 9.78092 -0.531317C 9.7721 -0.544402 9.76322 -0.557343 9.75868 -0.563876C 9.75572 -0.568128 9.75244 -0.572809 9.75094 -0.574927C 9.74985 -0.576472 9.74851 -0.578361 9.74796 -0.579131C 9.74752 -0.579756 9.74693 -0.580588 9.7467 -0.5809C 9.74651 -0.581176 9.74623 -0.581563 9.74613 -0.581701C 9.74586 -0.582079 9.7456 -0.582447 8.93273 2.55123e-08ZM 8.58374 4.92795C 8.16413 6.16988 7.54753 6.64529 6.64686 7.39079C 5.74552 8.13685 4.59808 9.09763 3.51331 11.0445L 5.26847 12.0034C 6.13667 10.3754 7.01558 9.68183 7.92212 8.93147C 8.82932 8.18055 9.8021 7.3175 10.4615 5.61641L 8.58374 4.92795ZM 3.51331 11.0445C 2.43076 13.1312 2.66612 15.1903 2.98196 16.5822C 3.14269 17.2864 3.30055 17.8136 3.33412 18.1901C 3.35308 18.3551 3.31842 18.4127 3.33974 18.3807C 3.32924 18.3667 3.45049 18.2134 3.4617 18.2294L 4.44577 19.9705C 4.77927 19.7597 5.11312 19.3392 5.23687 19.0139C 5.3288 18.7065 5.35211 18.2926 5.32411 17.9902C 5.26376 17.4317 5.07855 16.7839 4.93209 16.1384C 4.63354 14.8308 4.39803 13.4916 5.26847 12.0034L 3.51331 11.0445ZM 3.4616 18.2294C 3.20478 18.3746 3.08076 18.381 3.05921 18.3805C 3.00105 18.3995 3.11838 18.444 3.06901 18.3818C 2.98083 18.3012 2.82449 18.0177 2.71956 17.424C 2.61874 16.868 2.60214 16.2841 2.6079 15.7858C 2.61046 15.5424 2.61933 15.345 2.62804 15.196C 2.6322 15.1243 2.63594 15.0716 2.63895 15.0323C 2.64035 15.0139 2.64135 15.0016 2.64217 14.992C 2.64253 14.9878 2.64272 14.9855 2.64292 14.9833C 2.64298 14.9826 2.643 14.9824 2.64303 14.982C 2.64304 14.982 2.64302 14.9821 2.64302 14.9821C 2.64302 14.9822 2.643 14.9824 2.643 14.9824C 2.64298 14.9826 2.64296 14.9828 1.64717 14.8911C 0.651379 14.7995 0.651356 14.7998 0.651332 14.8C 0.651321 14.8001 0.651294 14.8004 0.651272 14.8007C 0.651242 14.801 0.651177 14.8017 0.651118 14.8024C 0.651028 14.8034 0.650851 14.8053 0.650674 14.8074C 0.650372 14.8108 0.649846 14.8168 0.649276 14.8236C 0.648241 14.8358 0.646587 14.856 0.644764 14.8798C 0.641325 14.9249 0.636342 14.9956 0.631422 15.0797C 0.621961 15.2425 0.611228 15.4869 0.608022 15.7636C 0.602251 16.3054 0.629473 17.0749 0.75008 17.772C 0.866589 18.4313 1.10928 19.3003 1.71998 19.8583C 2.02006 20.1154 2.5618 20.3507 3.01829 20.3801C 3.51139 20.3902 3.99226 20.2269 4.44587 19.9705L 3.4616 18.2294ZM 1.64717 14.8911C 0.874977 14.2558 0.874582 14.2562 0.874174 14.2567C 0.87402 14.2569 0.873598 14.2574 0.87329 14.2578C 0.872927 14.2583 0.872002 14.2594 0.871278 14.2603C 0.870339 14.2614 0.868164 14.2641 0.866295 14.2664C 0.863575 14.2698 0.85796 14.2768 0.852595 14.2836C 0.843906 14.2946 0.827861 14.3152 0.811105 14.3373C 0.781684 14.3762 0.732274 14.4435 0.678507 14.5211C 0.579183 14.6652 0.426731 14.9025 0.269221 15.1872C -0.0294761 15.731 -0.419983 16.6012 -0.682281 17.6501C -1.20754 19.7861 -1.24934 22.7928 0.513883 26.3921L 2.30995 25.5123C 0.764495 22.3575 0.840315 19.8338 1.25986 18.1277C 1.46996 17.2556 1.75864 16.6269 2.02104 16.1521C 2.14407 15.9275 2.24264 15.7755 2.3242 15.6577C 2.36088 15.6044 2.38438 15.5726 2.40525 15.545C 2.41365 15.5339 2.4171 15.5295 2.42162 15.5238C 2.42286 15.5222 2.4236 15.5213 2.42294 15.5222C 2.42311 15.5219 2.42169 15.5237 2.42178 15.5236C 2.42207 15.5232 2.42058 15.525 2.42073 15.5249C 2.42053 15.5251 2.42019 15.5255 2.42009 15.5256C 2.41973 15.5261 2.41937 15.5265 1.64717 14.8911ZM 0.513872 26.3921C 2.47353 30.3927 5.7723 31.9332 8.5784 32.4479C 11.3542 32.9384 13.743 32.4691 13.9633 32.4214L 13.5399 30.4667C 13.3312 30.5119 11.3341 30.9385 8.93918 30.4807C 6.57466 30.047 3.91811 28.7953 2.30996 25.5123L 0.513872 26.3921ZM 13.8733 32.4366C 16.7972 32.0782 19.49 30.12 20.903 26.5613L 19.0442 25.8232C 17.8772 28.7623 15.7658 30.1897 13.6299 30.4515L 13.8733 32.4366ZM 20.903 26.5612C 22.2158 23.2543 21.977 21.0434 21.0812 19.2381C 20.6617 18.4026 20.1159 17.674 19.6298 17.0255C 19.1437 16.3771 18.72 15.8153 18.42 15.1624L 16.6086 16.0103C 17.0029 16.8407 17.5408 17.5732 18.0296 18.2252C 18.5183 18.8771 18.961 19.455 19.2896 20.1271C 19.89 21.3369 20.1865 22.9458 19.0442 25.8233L 20.903 26.5612Z"/>
<path id="path4_fill" fill-rule="evenodd" d="M 8.84808 7.87156C 9.89462 6.86552 10.3703 5.76801 9.70434 4.94488C 8.37237 3.11571 5.51816 -2.09745 2.94936 0.920695C 1.80767 2.20112 0.570844 3.93884 0.570844 3.93884C 0.570844 3.93884 0 4.48759 0 5.58509C 0.285422 13.8164 14.7468 24.5171 22.9289 22.8708C 23.9754 22.5964 24.4511 21.8648 24.4511 21.8648C 24.4511 21.8648 25.8782 20.31 26.9248 18.9381C 29.3984 15.8285 23.4046 14.4566 21.2164 13.6335C 20.2649 13.1762 19.2184 13.9078 18.4573 15.0968C 16.6496 17.8406 6.5647 10.2495 8.84808 7.87156Z"/>
</defs>
</svg>
