<svg width="60" height="60" viewBox="0 0 60 60" version="1.1" xmlns="http://www.w3.org/2000/svg" xmlns:xlink="http://www.w3.org/1999/xlink">
<title>Group 37</title>
<desc>Created using Figma</desc>
<g id="Canvas" transform="translate(-4661 1725)">
<g id="Group 37">
<g id="Ellipse">
<use xlink:href="#path0_fill" transform="translate(4661 -1725)" fill="#FFFFFF"/>
<mask id="mask0_outline_ins">
<use xlink:href="#path0_fill" fill="white" transform="translate(4661 -1725)"/>
</mask>
<g mask="url(#mask0_outline_ins)">
<use xlink:href="#path1_stroke_2x" transform="translate(4661 -1725)"/>
</g>
</g>
<g id="Group 35">
<g id="Group 31.5">
<g id="Vector">
<use xlink:href="#path2_fill" transform="translate(4678.95 -1707)"/>
</g>
<g id="Vector">
<use xlink:href="#path3_fill" transform="translate(4672 -1707)"/>
</g>
<g id="Vector">
<use xlink:href="#path4_fill" transform="translate(4678.95 -1688.37)"/>
</g>
</g>
<g id="Group 34">
<g id="Vector">
<use xlink:href="#path5_fill" transform="translate(4685 -1711)"/>
</g>
<g id="Vector">
<use xlink:href="#path6_fill" transform="translate(4690.33 -1694.47)"/>
</g>
<g id="Vector">
<use xlink:href="#path6_fill" transform="translate(4690.33 -1689.13)"/>
</g>
<g id="Vector">
<use xlink:href="#path7_fill" transform="translate(4697.27 -1704.6)"/>
</g>
<g id="Vector">
<use xlink:href="#path7_fill" transform="translate(4697.27 -1702.47)"/>
</g>
<g id="Vector">
<use xlink:href="#path7_fill" transform="translate(4697.27 -1699.27)"/>
</g>
<g id="Vector">
<use xlink:href="#path7_fill" transform="translate(4697.27 -1697.13)"/>
</g>
<g id="Vector">
<use xlink:href="#path7_fill" transform="translate(4697.27 -1693.93)"/>
</g>
<g id="Vector">
<use xlink:href="#path7_fill" transform="translate(4697.27 -1691.8)"/>
</g>
<g id="Vector">
<use xlink:href="#path7_fill" transform="translate(4697.27 -1688.6)"/>
</g>
<g id="Vector">
<use xlink:href="#path7_fill" transform="translate(4697.27 -1686.47)"/>
</g>
<g id="Vector">
<use xlink:href="#path8_fill" transform="translate(4690.49 -1704.98)"/>
</g>
<g id="Vector">
<use xlink:href="#path6_fill" transform="translate(4690.33 -1699.8)"/>
</g>
</g>
</g>
</g>
</g>
<defs>
<path id="path0_fill" d="M 60 30C 60 46.5685 46.5685 60 30 60C 13.4315 60 0 46.5685 0 30C 0 13.4315 13.4315 0 30 0C 46.5685 0 60 13.4315 60 30Z"/>
<path id="path1_stroke_2x" d="M 59 30C 59 46.0163 46.0163 59 30 59L 30 61C 47.1208 61 61 47.1208 61 30L 59 30ZM 30 59C 13.9837 59 1 46.0163 1 30L -1 30C -1 47.1208 12.8792 61 30 61L 30 59ZM 1 30C 1 13.9837 13.9837 1 30 1L 30 -1C 12.8792 -1 -1 12.8792 -1 30L 1 30ZM 30 1C 46.0163 1 59 13.9837 59 30L 61 30C 61 12.8792 47.1208 -1 30 -1L 30 1Z"/>
<path id="path2_fill" fill-rule="evenodd" d="M 1.2524 7.99982L 1.73954 7.58944C 1.93954 7.42077 2.04507 7.19199 2.04507 6.92689L 2.04507 1.46662C 2.04507 1.24118 1.97063 1.04788 1.82052 0.882978L 1.26876 0.275122C 1.10352 0.0930991 0.894514 4.45921e-08 0.651559 4.45921e-08L 0 4.45921e-08L 0 8.19604C 0.217186 8.19604 0.454005 8.19604 0.716183 8.19562C 0.920281 8.19604 1.09534 8.13217 1.2524 7.99982Z"/>
<path id="path3_fill" fill-rule="evenodd" d="M 0.000817998 13.2004L 0.000817998 13.2054L 2.9645e-08 13.3749C 2.9645e-08 18.7283 2.53793 26.9983 5.39162 26.9983L 6.13603 26.9987L 6.13603 18.6319C 5.97937 18.6315 5.84072 18.6315 5.72497 18.6315C 5.42802 18.6306 5.17362 18.487 5.01492 18.2311L 4.62431 17.5999C 4.53515 17.4562 4.49425 17.311 4.49425 17.1406L 4.49425 13.4801L 4.49547 13.4801L 4.49547 9.52406C 4.49547 9.32951 4.55069 9.16168 4.66562 9.00638L 5.01165 8.53838C 5.17566 8.31628 5.41003 8.19729 5.68202 8.19688C 5.80718 8.19688 5.96015 8.19646 6.13644 8.19604L 6.13644 3.82218e-07L 5.39326 3.82218e-07C 2.53875 3.82218e-07 0.000817998 7.84744 0.000817998 13.2004Z"/>
<path id="path4_fill" fill-rule="evenodd" d="M 1.26426 0.24882C 1.10107 0.0834963 0.903103 0.000418083 0.673237 0.000418083C 0.427829 0.000418083 0.204916 -7.64436e-07 3.30776e-07 -7.64436e-07L 3.30776e-07 8.36637L 0.651968 8.36679C 0.894923 8.36679 1.10393 8.27286 1.26917 8.09125L 1.82093 7.48465C 1.97104 7.31933 2.04548 7.12561 2.04548 6.90017L 2.04548 1.3944C 2.04548 1.15643 1.96163 0.950609 1.79557 0.783616L 1.26426 0.24882Z"/>
<path id="path5_fill" d="M 0.533333 28.8L 2.66667 28.8L 2.66667 31.4667C 2.66667 31.7611 2.90507 32 3.2 32L 23.4667 32C 23.7616 32 24 31.7611 24 31.4667L 24 3.73333C 24 3.43893 23.7616 3.2 23.4667 3.2L 21.3333 3.2L 21.3333 0.533333C 21.3333 0.238933 21.0949 0 20.8 0L 0.533333 0C 0.2384 0 0 0.238933 0 0.533333L 0 28.2667C 0 28.5611 0.2384 28.8 0.533333 28.8ZM 22.9333 30.9333L 3.73333 30.9333L 3.73333 28.2667L 3.73333 4.26667L 20.8 4.26667L 22.9333 4.26667L 22.9333 30.9333ZM 1.06667 1.06667L 20.2667 1.06667L 20.2667 3.2L 3.2 3.2C 2.90507 3.2 2.66667 3.43893 2.66667 3.73333L 2.66667 27.7333L 1.06667 27.7333L 1.06667 1.06667Z"/>
<path id="path6_fill" d="M 3.73333 0L 0.533333 0C 0.2384 0 0 0.238933 0 0.533333L 0 3.73333C 0 4.02773 0.2384 4.26667 0.533333 4.26667L 3.73333 4.26667C 4.02827 4.26667 4.26667 4.02773 4.26667 3.73333L 4.26667 0.533333C 4.26667 0.238933 4.02827 0 3.73333 0ZM 3.2 3.2L 1.06667 3.2L 1.06667 1.06667L 3.2 1.06667L 3.2 3.2Z"/>
<path id="path7_fill" d="M 8.53333 0L 0 0L 0 1.06667L 8.53333 1.06667L 8.53333 0Z"/>
<path id="path8_fill" d="M 1.44373 2.2896L 0.754133 1.6L 1.18001e-07 2.35413L 1.06667 3.4208C 1.17067 3.5248 1.3072 3.57707 1.44373 3.57707C 1.58027 3.57707 1.7168 3.5248 1.8208 3.4208L 4.48747 0.754133L 3.73333 1.18001e-07L 1.44373 2.2896Z"/>
</defs>
</svg>
