<svg width="20" height="20" viewBox="0 0 20 20" version="1.1" xmlns="http://www.w3.org/2000/svg" xmlns:xlink="http://www.w3.org/1999/xlink">
<title>linkedin</title>
<desc>Created using Figma</desc>
<g id="Canvas" transform="translate(-23320 732)">
<g id="linkedin">
<g id="Group">
<g id="Vector">
<use xlink:href="#path0_fill" transform="translate(23320 -732)"/>
</g>
</g>
</g>
</g>
<defs>
<path id="path0_fill" d="M 16.6406 0L 3.35938 0C 1.51172 0 0 1.51172 0 3.35938L 0 16.6406C 0 18.4883 1.51172 20 3.35938 20L 16.6406 20C 18.4883 20 20 18.4883 20 16.6406L 20 3.35938C 20 1.51172 18.4883 0 16.6406 0ZM 7.5 16.25L 5 16.25L 5 7.5L 7.5 7.5L 7.5 16.25ZM 6.25 6.25C 5.55965 6.25 5 5.69035 5 5C 5 4.30965 5.55965 3.75 6.25 3.75C 6.94035 3.75 7.5 4.30965 7.5 5C 7.5 5.69035 6.94035 6.25 6.25 6.25ZM 16.25 16.25L 13.75 16.25L 13.75 11.25C 13.75 10.5596 13.1904 10 12.5 10C 11.8096 10 11.25 10.5596 11.25 11.25L 11.25 16.25L 8.75 16.25L 8.75 7.5L 11.25 7.5L 11.25 9.05219C 11.7656 8.34391 12.5538 7.5 13.4375 7.5C 14.9909 7.5 16.25 8.8991 16.25 10.625L 16.25 16.25Z"/>
</defs>
</svg>
