<?xml version="1.0" encoding="utf-8"?>
<!-- Generator: Adobe Illustrator 17.0.0, SVG Export Plug-In . SVG Version: 6.00 Build 0)  -->
<!DOCTYPE svg PUBLIC "-//W3C//DTD SVG 1.1//EN" "http://www.w3.org/Graphics/SVG/1.1/DTD/svg11.dtd">
<svg version="1.1" id="Слой_1" xmlns="http://www.w3.org/2000/svg" xmlns:xlink="http://www.w3.org/1999/xlink" x="0px" y="0px"
	 width="250px" height="66px" viewBox="0 0 250 66" enable-background="new 0 0 250 66" xml:space="preserve">
<title>Group 46</title>
<desc>Created using Figma</desc>
<g id="Canvas" transform="translate(-4966 -1387)">
	<g id="Group_46">
		<g id="noun_1146595_cc">
			<g id="Vector">
				<g transform="translate(5066 1389)">
					<path id="path0_fill" fill="#D0021B" d="M5111.696,1399.8c-4.7-6.9-12.2-10.8-20.6-10.8c-8.4,0-15.9,3.9-20.6,10.8
						c-4.7,6.8-5.8,15.4-2.9,23c0.8,2,2,4.1,3.6,6l19.9,23.3l19.8-23.3c1.6-1.9,2.9-3.9,3.6-6
						C5117.497,1415.2,5116.396,1406.6,5111.696,1399.8z M5091.097,1422c-5.6,0-10.2-4.5-10.2-10s4.6-10,10.2-10
						c5.6,0,10.2,4.5,10.2,10S5096.696,1422,5091.097,1422z"/>
				</g>
			</g>
		</g>
		<g id="Group_45">
			<g id="Group">
				<g id="Rectangle_5">
					<g transform="translate(4966 1387)">
						<path id="path1_fill" fill="#D0021B" d="M4966,1390c0-1.657,1.343-3,3-3h244c1.657,0,3,1.343,3,3v44c0,1.657-1.343,3-3,3h-244
							c-1.657,0-3-1.343-3-3V1390z"/>
					</g>
				</g>
			</g>
			<text transform="matrix(1 0 0 1 4982.7422 1415.1655)" fill="#FFFFFF" font-family="'OpenSans-Bold'" font-size="12">г. Днепр, ул. Симферопольская, 21</text>
		</g>
	</g>
</g>
</svg>
