<svg width="60" height="60" viewBox="0 0 60 60" version="1.1" xmlns="http://www.w3.org/2000/svg" xmlns:xlink="http://www.w3.org/1999/xlink">
<title>Group 31.3</title>
<desc>Created using Figma</desc>
<g id="Canvas" transform="translate(-4661 2139)">
<g id="Group 31.3">
<g id="Ellipse">
<use xlink:href="#path0_fill" transform="translate(4661 -2139)" fill="#FFFFFF"/>
<mask id="mask0_outline_ins">
<use xlink:href="#path0_fill" fill="white" transform="translate(4661 -2139)"/>
</mask>
<g mask="url(#mask0_outline_ins)">
<use xlink:href="#path1_stroke_2x" transform="translate(4661 -2139)"/>
</g>
</g>
<g id="Group 28">
<g id="Vector">
<use xlink:href="#path2_fill" transform="translate(4694.36 -2097.66)"/>
</g>
<g id="Vector">
<use xlink:href="#path3_fill" transform="translate(4689.52 -2097.66)"/>
</g>
<g id="Vector">
<use xlink:href="#path2_fill" transform="translate(4684.68 -2097.66)"/>
</g>
<g id="Vector">
<use xlink:href="#path4_fill" transform="translate(4679.84 -2097.66)"/>
</g>
<g id="Vector">
<use xlink:href="#path5_fill" transform="translate(4675 -2097.66)"/>
</g>
<g id="Vector">
<use xlink:href="#path6_fill" transform="translate(4698.08 -2102.75)"/>
</g>
<g id="Vector">
<use xlink:href="#path7_fill" transform="translate(4681 -2124)"/>
</g>
<g id="Vector">
<use xlink:href="#path8_fill" transform="translate(4679.15 -2122.64)"/>
</g>
<g id="Vector">
<use xlink:href="#path9_fill" transform="translate(4694.82 -2109.97)"/>
</g>
</g>
</g>
</g>
<defs>
<path id="path0_fill" d="M 60 30C 60 46.5685 46.5685 60 30 60C 13.4315 60 0 46.5685 0 30C 0 13.4315 13.4315 0 30 0C 46.5685 0 60 13.4315 60 30Z"/>
<path id="path1_stroke_2x" d="M 59 30C 59 46.0163 46.0163 59 30 59L 30 61C 47.1208 61 61 47.1208 61 30L 59 30ZM 30 59C 13.9837 59 1 46.0163 1 30L -1 30C -1 47.1208 12.8792 61 30 61L 30 59ZM 1 30C 1 13.9837 13.9837 1 30 1L 30 -1C 12.8792 -1 -1 12.8792 -1 30L 1 30ZM 30 1C 46.0163 1 59 13.9837 59 30L 61 30C 61 12.8792 47.1208 -1 30 -1L 30 1Z"/>
<path id="path2_fill" fill-rule="evenodd" d="M 1.50068 0.260628C 1.15845 -0.0866514 0.598908 -0.0870984 0.256674 0.260628C -0.085559 0.608354 -0.085559 1.17732 0.256674 1.52504L 2.74512 4.05299C 3.08692 4.40027 3.6469 4.40072 3.98913 4.05299C 4.33092 3.70571 4.33092 3.1363 3.98913 2.78902L 1.50068 0.260628Z"/>
<path id="path3_fill" fill-rule="evenodd" d="M 1.50068 0.260628C 1.15889 -0.0866514 0.598908 -0.0870984 0.256674 0.260628C -0.085559 0.608354 -0.085559 1.17732 0.256674 1.52504L 2.74512 4.05299C 3.08692 4.40027 3.6469 4.40072 3.98913 4.05299C 4.33092 3.70571 4.33092 3.1363 3.98913 2.78902L 1.50068 0.260628Z"/>
<path id="path4_fill" fill-rule="evenodd" d="M 1.50068 0.260628C 1.15889 -0.0866514 0.598909 -0.0870984 0.256675 0.260628C -0.0855581 0.608354 -0.0855581 1.17732 0.256675 1.52504L 2.74513 4.05299C 3.08692 4.40027 3.6469 4.40072 3.98913 4.05299C 4.33136 3.70571 4.33136 3.1363 3.98913 2.78902L 1.50068 0.260628Z"/>
<path id="path5_fill" fill-rule="evenodd" d="M 1.50079 0.260628C 1.15856 -0.0866514 0.598579 -0.0870984 0.256785 0.260628L 0.256345 0.260628C -0.0854484 0.608354 -0.0854484 1.17732 0.256345 1.52504L 2.7448 4.05299C 3.08703 4.40027 3.64701 4.40072 3.9888 4.05299L 3.98924 4.05299C 4.33103 3.70571 4.33103 3.1363 3.98924 2.78902L 1.50079 0.260628Z"/>
<path id="path6_fill" fill-rule="evenodd" d="M 8.01554 4.09215L 4.24569 0.261801C 3.90214 -0.0872659 3.34524 -0.0872659 3.00169 0.261801C 2.65814 0.610421 2.65814 1.1767 3.00169 1.52577L 6.7711 5.35612C 7.02403 5.61267 7.16392 5.95638 7.16392 6.32243C 7.16392 6.68893 7.02491 7.03174 6.77154 7.28873L 6.49661 7.56808C 5.99073 8.08207 5.09996 8.08207 4.59409 7.56808L 1.50167 4.42647C 1.15812 4.0774 0.601219 4.0774 0.257666 4.42647C -0.0858867 4.77509 -0.0858867 5.34137 0.257666 5.69044L 3.35008 8.83205C 3.93513 9.42649 4.71506 9.7541 5.54513 9.7541C 6.3752 9.7541 7.15512 9.42693 7.74061 8.83205L 8.01554 8.5527C 8.60103 7.95826 8.92303 7.16627 8.92303 6.32243C 8.92259 5.47859 8.60059 4.6866 8.01554 4.09215Z"/>
<path id="path7_fill" fill-rule="evenodd" d="M 6.75009 6.67483C 6.93396 6.48801 7.02326 6.25783 7.0149 5.99502L 6.98675 5.10023C 6.97883 4.85754 6.89129 4.65105 6.72194 4.47897L 2.60766 0.298658C 2.4383 0.126583 2.23551 0.0376396 1.99665 0.0295945L 1.11644 0.000543008C 0.856903 -0.00794902 0.6308 0.0832284 0.446927 0.270053L 1.87941e-07 0.724154L 6.3036 7.12893C 6.44261 6.9877 6.58909 6.83886 6.75009 6.67483Z"/>
<path id="path8_fill" fill-rule="evenodd" d="M 6.66163 14.7989L 6.78743 14.9281C 10.7759 18.9806 18.5184 23.3155 20.7117 21.0866L 21.3495 20.439L 15.0459 14.0333C 14.8831 14.1982 14.738 14.3453 14.628 14.4566C 14.4195 14.6675 14.1512 14.7583 13.86 14.7158L 13.1223 14.6076C 12.9204 14.5772 12.7554 14.4937 12.6111 14.3471L 9.98147 11.6752L 9.98235 11.6748L 7.22996 8.87775C 7.08568 8.73204 7.00298 8.56444 6.97395 8.35929L 6.86749 7.6093C 6.82526 7.31342 6.91412 7.04034 7.12219 6.82893C 7.23172 6.71675 7.37601 6.5697 7.53789 6.40478L 1.23384 2.86436e-07L 0.596883 0.647182C -1.5964 2.87567 2.66964 10.7424 6.65811 14.7954L 6.66163 14.7989Z"/>
<path id="path9_fill" fill-rule="evenodd" d="M 6.75097 6.67444C 6.93441 6.48761 7.02414 6.25699 7.01578 5.99374L 6.98719 5.09984C 6.97927 4.85714 6.89174 4.6511 6.72238 4.47947L 2.60766 0.298712C 2.43874 0.126189 2.23595 0.0372462 1.99709 0.0292011L 1.11644 0.000596743C 0.856903 -0.00834224 0.630801 0.0832828 0.447367 0.269661C 0.285928 0.433691 0.139004 0.582524 -5.77246e-07 0.72376L 6.3036 7.12898L 6.75097 6.67444Z"/>
</defs>
</svg>
