<svg width="43" height="50" viewBox="0 0 43 50" version="1.1" xmlns="http://www.w3.org/2000/svg" xmlns:xlink="http://www.w3.org/1999/xlink">
<title>9</title>
<desc>Created using Figma</desc>
<g id="Canvas" transform="translate(-22700 1353)">
<g id="9">
<g id="Group">
<g id="Group">
<g id="Vector">
<use xlink:href="#path0_fill" transform="translate(22710.6 -1347.53)" fill="#303C42"/>
</g>
</g>
<g id="Group">
<g id="Vector">
<use xlink:href="#path1_fill" transform="translate(22714.1 -1343)" fill="#303C42"/>
</g>
</g>
<g id="Group">
<g id="Vector">
<use xlink:href="#path2_fill" transform="translate(22724.4 -1353)" fill="#303C42"/>
</g>
</g>
<g id="Group">
<g id="Vector">
<use xlink:href="#path3_fill" transform="translate(22719.3 -1327.45)" fill="#303C42"/>
</g>
</g>
<g id="Group">
<g id="Vector">
<use xlink:href="#path4_fill" transform="translate(22700 -1322.37)" fill="#303C42"/>
</g>
</g>
<g id="Group">
<g id="Vector">
<use xlink:href="#path5_fill" transform="translate(22719.4 -1322.06)" fill="#303C42"/>
</g>
</g>
<g id="Group">
<g id="Vector">
<use xlink:href="#path6_fill" transform="translate(22719.4 -1318.67)" fill="#303C42"/>
</g>
</g>
<g id="Group">
<g id="Vector">
<use xlink:href="#path7_fill" transform="translate(22719.4 -1315.32)" fill="#303C42"/>
</g>
</g>
<g id="Group">
<g id="Vector">
<use xlink:href="#path8_fill" transform="translate(22714 -1322.06)" fill="#303C42"/>
</g>
</g>
<g id="Group">
<g id="Vector">
<use xlink:href="#path9_fill" transform="translate(22714 -1318.67)" fill="#303C42"/>
</g>
</g>
<g id="Group">
<g id="Vector">
<use xlink:href="#path10_fill" transform="translate(22714 -1315.32)" fill="#303C42"/>
</g>
</g>
<g id="Group">
<g id="Vector">
<use xlink:href="#path11_fill" transform="translate(22724.8 -1322.06)" fill="#303C42"/>
</g>
</g>
<g id="Group">
<g id="Vector">
<use xlink:href="#path12_fill" transform="translate(22724.8 -1318.67)" fill="#303C42"/>
</g>
</g>
<g id="Group">
<g id="Vector">
<use xlink:href="#path13_fill" transform="translate(22724.8 -1315.32)" fill="#303C42"/>
</g>
</g>
</g>
</g>
</g>
<defs>
<path id="path0_fill" d="M 18.8189 37.7559L 2.67717 37.7559C 1.1811 37.7559 3.0037e-07 36.5354 3.0037e-07 35.0787L 3.0037e-07 2.67717C 3.0037e-07 1.1811 1.22047 -1.50185e-07 2.67717 -1.50185e-07L 18.7795 -1.50185e-07C 20.2756 -1.50185e-07 21.4567 1.22047 21.4567 2.67717L 21.4567 35.0394C 21.4961 36.5354 20.2756 37.7559 18.8189 37.7559ZM 2.67717 1.53543C 2.04724 1.53543 1.5748 2.04724 1.5748 2.6378L 1.5748 35C 1.5748 35.6299 2.08661 36.1024 2.67717 36.1024L 18.7795 36.1024C 19.4094 36.1024 19.8819 35.5905 19.8819 35L 19.8819 2.67717C 19.8819 2.04724 19.3701 1.5748 18.7795 1.5748L 2.67717 1.5748L 2.67717 1.53543Z"/>
<path id="path1_fill" d="M 14.0945 13.937L 0.3937 13.937C 0.15748 13.937 -6.0074e-07 13.7795 -6.0074e-07 13.5433L -6.0074e-07 0.393701C -6.0074e-07 0.15748 0.15748 -1.50185e-07 0.3937 -1.50185e-07L 14.0945 -1.50185e-07C 14.3307 -1.50185e-07 14.4882 0.15748 14.4882 0.393701L 14.4882 13.5433C 14.4882 13.7402 14.2913 13.937 14.0945 13.937ZM 0.787401 13.1496L 13.7008 13.1496L 13.7008 0.787401L 0.787401 0.787401L 0.787401 13.1496Z"/>
<path id="path2_fill" d="M 4.13386 7.00787L 0.787402 7.00787C 0.354331 7.00787 0 6.65354 0 6.22047L 0 0.787402C 0 0.354331 0.354331 0 0.787402 0L 4.13386 0C 4.56693 0 4.92126 0.354331 4.92126 0.787402L 4.92126 6.22047C 4.92126 6.65354 4.56693 7.00787 4.13386 7.00787ZM 1.5748 5.43307L 3.34646 5.43307L 3.34646 1.5748L 1.5748 1.5748L 1.5748 5.43307Z"/>
<path id="path3_fill" d="M 2.04724 4.09449C 0.905512 4.09449 -3.0037e-07 3.18898 -3.0037e-07 2.04724C -3.0037e-07 0.905511 0.905512 6.0074e-07 2.04724 6.0074e-07C 3.18898 6.0074e-07 4.09449 0.905511 4.09449 2.04724C 4.09449 3.18898 3.18898 4.09449 2.04724 4.09449ZM 2.04724 0.787402C 1.33858 0.787402 0.787401 1.37795 0.787401 2.04724C 0.787401 2.71653 1.37795 3.30709 2.04724 3.30709C 2.75591 3.30709 3.30709 2.71653 3.30709 2.04724C 3.30709 1.37795 2.75591 0.787402 2.04724 0.787402Z"/>
<path id="path4_fill" d="M 34.6457 19.3701L 7.95276 19.3701C 7.83465 19.3701 7.71654 19.3307 7.6378 19.2913C 2.79528 17.0866 -1.50185e-07 13.8189 -1.50185e-07 10.315C -1.50185e-07 5.98425 4.25197 2.04724 11.1024 0.0393707C 11.3386 -0.0393695 11.6142 -1.20852e-06 11.811 0.157479C 12.0079 0.314959 12.126 0.551182 12.126 0.787403L 12.126 9.92126C 12.126 10.5512 12.6378 11.0236 13.2283 11.0236L 29.3307 11.0236C 29.9606 11.0236 30.4331 10.5118 30.4331 9.92126L 30.4331 0.787403C 30.4331 0.551182 30.5512 0.314959 30.748 0.157479C 30.9449 -1.20852e-06 31.2205 -0.0393695 31.4567 0.0393707C 38.3071 2.08661 42.5591 6.02362 42.5591 10.315C 42.5591 13.8189 39.8032 17.0866 34.9606 19.2913C 34.8819 19.3307 34.7638 19.3701 34.6457 19.3701ZM 8.14961 17.7953L 34.4882 17.7953C 38.6614 15.8661 41.0236 13.1496 41.0236 10.315C 41.0236 6.92913 37.5984 3.74016 32.0472 1.85039L 32.0472 9.88189C 32.0472 11.378 30.8268 12.5591 29.3701 12.5591L 13.2283 12.5591C 11.7323 12.5591 10.5512 11.3386 10.5512 9.88189L 10.5512 1.85039C 5 3.74016 1.5748 6.92913 1.5748 10.315C 1.5748 13.1496 3.97638 15.8661 8.14961 17.7953Z"/>
<path id="path5_fill" d="M 3.4252 2.44095L 0.393701 2.44095C 0.157481 2.44095 3.0037e-07 2.28347 3.0037e-07 2.04725L 3.0037e-07 0.3937C 3.0037e-07 0.15748 0.157481 -6.0074e-07 0.393701 -6.0074e-07L 3.4252 -6.0074e-07C 3.66142 -6.0074e-07 3.8189 0.15748 3.8189 0.3937L 3.8189 2.04725C 3.8189 2.2441 3.62205 2.44095 3.4252 2.44095ZM 0.748031 1.65354L 2.99213 1.65354L 2.99213 0.787401L 0.748031 0.787401L 0.748031 1.65354Z"/>
<path id="path6_fill" d="M 3.4252 2.44095L 0.393701 2.44095C 0.157481 2.44095 3.0037e-07 2.28347 3.0037e-07 2.04724L 3.0037e-07 0.3937C 3.0037e-07 0.157479 0.157481 -1.20148e-06 0.393701 -1.20148e-06L 3.4252 -1.20148e-06C 3.66142 -1.20148e-06 3.8189 0.157479 3.8189 0.3937L 3.8189 2.04724C 3.8189 2.2441 3.62205 2.44095 3.4252 2.44095ZM 0.748031 1.65354L 2.99213 1.65354L 2.99213 0.7874L 0.748031 0.7874L 0.748031 1.65354Z"/>
<path id="path7_fill" d="M 3.4252 2.44095L 0.393701 2.44095C 0.157481 2.44095 3.0037e-07 2.28347 3.0037e-07 2.04724L 3.0037e-07 0.3937C 3.0037e-07 0.157479 0.157481 -1.20148e-06 0.393701 -1.20148e-06L 3.4252 -1.20148e-06C 3.66142 -1.20148e-06 3.8189 0.157479 3.8189 0.3937L 3.8189 2.04724C 3.8189 2.28347 3.62205 2.44095 3.4252 2.44095ZM 0.748031 1.65354L 2.99213 1.65354L 2.99213 0.7874L 0.748031 0.7874L 0.748031 1.65354Z"/>
<path id="path8_fill" d="M 3.4252 2.44095L 0.393701 2.44095C 0.157481 2.44095 6.0074e-07 2.28347 6.0074e-07 2.04725L 6.0074e-07 0.3937C 6.0074e-07 0.15748 0.157481 -6.0074e-07 0.393701 -6.0074e-07L 3.4252 -6.0074e-07C 3.66142 -6.0074e-07 3.8189 0.15748 3.8189 0.3937L 3.8189 2.04725C 3.8189 2.2441 3.62205 2.44095 3.4252 2.44095ZM 0.787402 1.65354L 3.0315 1.65354L 3.0315 0.787401L 0.787402 0.787401L 0.787402 1.65354Z"/>
<path id="path9_fill" d="M 3.4252 2.44095L 0.393701 2.44095C 0.157481 2.44095 6.0074e-07 2.28347 6.0074e-07 2.04724L 6.0074e-07 0.3937C 6.0074e-07 0.157479 0.157481 -1.20148e-06 0.393701 -1.20148e-06L 3.4252 -1.20148e-06C 3.66142 -1.20148e-06 3.8189 0.157479 3.8189 0.3937L 3.8189 2.04724C 3.8189 2.2441 3.62205 2.44095 3.4252 2.44095ZM 0.787402 1.65354L 3.0315 1.65354L 3.0315 0.7874L 0.787402 0.7874L 0.787402 1.65354Z"/>
<path id="path10_fill" d="M 3.4252 2.44095L 0.393701 2.44095C 0.157481 2.44095 6.0074e-07 2.28347 6.0074e-07 2.04724L 6.0074e-07 0.3937C 6.0074e-07 0.157479 0.157481 -1.20148e-06 0.393701 -1.20148e-06L 3.4252 -1.20148e-06C 3.66142 -1.20148e-06 3.8189 0.157479 3.8189 0.3937L 3.8189 2.04724C 3.8189 2.28347 3.62205 2.44095 3.4252 2.44095ZM 0.787402 1.65354L 3.0315 1.65354L 3.0315 0.7874L 0.787402 0.7874L 0.787402 1.65354Z"/>
<path id="path11_fill" d="M 3.4252 2.44095L 0.393701 2.44095C 0.157481 2.44095 6.0074e-07 2.28347 6.0074e-07 2.04725L 6.0074e-07 0.3937C 6.0074e-07 0.15748 0.157481 -6.0074e-07 0.393701 -6.0074e-07L 3.4252 -6.0074e-07C 3.66142 -6.0074e-07 3.8189 0.15748 3.8189 0.3937L 3.8189 2.04725C 3.8189 2.2441 3.66142 2.44095 3.4252 2.44095ZM 0.787402 1.65354L 3.0315 1.65354L 3.0315 0.787401L 0.787402 0.787401L 0.787402 1.65354Z"/>
<path id="path12_fill" d="M 3.4252 2.44095L 0.393701 2.44095C 0.157481 2.44095 6.0074e-07 2.28347 6.0074e-07 2.04724L 6.0074e-07 0.3937C 6.0074e-07 0.157479 0.157481 -1.20148e-06 0.393701 -1.20148e-06L 3.4252 -1.20148e-06C 3.66142 -1.20148e-06 3.8189 0.157479 3.8189 0.3937L 3.8189 2.04724C 3.8189 2.2441 3.66142 2.44095 3.4252 2.44095ZM 0.787402 1.65354L 3.0315 1.65354L 3.0315 0.7874L 0.787402 0.7874L 0.787402 1.65354Z"/>
<path id="path13_fill" d="M 3.4252 2.44095L 0.393701 2.44095C 0.157481 2.44095 6.0074e-07 2.28347 6.0074e-07 2.04724L 6.0074e-07 0.3937C 6.0074e-07 0.157479 0.157481 -1.20148e-06 0.393701 -1.20148e-06L 3.4252 -1.20148e-06C 3.66142 -1.20148e-06 3.8189 0.157479 3.8189 0.3937L 3.8189 2.04724C 3.8189 2.28347 3.66142 2.44095 3.4252 2.44095ZM 0.787402 1.65354L 3.0315 1.65354L 3.0315 0.7874L 0.787402 0.7874L 0.787402 1.65354Z"/>
</defs>
</svg>
