<svg width="35" height="50" viewBox="0 0 35 50" version="1.1" xmlns="http://www.w3.org/2000/svg" xmlns:xlink="http://www.w3.org/1999/xlink">
<title>15</title>
<desc>Created using Figma</desc>
<g id="Canvas" transform="translate(-23039 1353)">
<g id="15">
<g id="Group">
<g id="Group">
<g id="Vector">
<use xlink:href="#path0_fill" transform="translate(23039 -1353)" fill="#313C42"/>
</g>
</g>
<g id="Group">
<g id="Vector">
<use xlink:href="#path1_fill" transform="translate(23045.7 -1346.27)" fill="#313C42"/>
</g>
</g>
</g>
</g>
</g>
<defs>
<path id="path0_fill" d="M 17.4409 50C 17.2441 50 17.0472 49.9213 16.8898 49.7638C 16.1811 49.0945 3.0037e-07 33.3858 3.0037e-07 17.4016C 3.0037e-07 7.83465 7.83465 0 17.4409 0C 27.0472 0 34.8819 7.83465 34.8819 17.4409C 34.8819 33.4252 18.7008 49.1339 17.9921 49.8032C 17.8346 49.9213 17.6378 50 17.4409 50ZM 17.4409 1.5748C 8.70079 1.5748 1.5748 8.70079 1.5748 17.4409C 1.5748 31.1417 14.5669 45.1968 17.4409 48.1102C 20.2756 45.1968 33.3071 31.1417 33.3071 17.4409C 33.3071 8.70079 26.1811 1.5748 17.4409 1.5748Z"/>
<path id="path1_fill" d="M 10.7087 21.4173C 4.80315 21.4173 -3.0037e-07 16.6142 -3.0037e-07 10.7087C -3.0037e-07 4.80315 4.80315 1.50185e-07 10.7087 1.50185e-07C 16.6142 1.50185e-07 21.4173 4.80315 21.4173 10.7087C 21.4173 16.6142 16.6142 21.4173 10.7087 21.4173ZM 10.7087 0.787402C 5.23622 0.787402 0.787401 5.23622 0.787401 10.7087C 0.787401 16.1811 5.23622 20.6299 10.7087 20.6299C 16.1811 20.6299 20.6299 16.1811 20.6299 10.7087C 20.6299 5.23622 16.1811 0.787402 10.7087 0.787402Z"/>
</defs>
</svg>
