<svg width="76" height="76" viewBox="0 0 76 76" version="1.1" xmlns="http://www.w3.org/2000/svg" xmlns:xlink="http://www.w3.org/1999/xlink">
<title>presentation</title>
<desc>Created using Figma</desc>
<g id="Canvas" transform="translate(-8734 4659)">
<g id="presentation">
<g id="Ellipse">
<use xlink:href="#path0_fill" transform="translate(8734 -4659)" fill="#F2F8FA"/>
</g>
<g id="noun_295951_cc">
<g id="Group">
<g id="Group">
<g id="Vector">
<use xlink:href="#path1_fill" transform="translate(8760 -4641)"/>
</g>
</g>
<g id="Group">
<g id="Vector">
<use xlink:href="#path2_fill" transform="translate(8762.56 -4635.74)"/>
</g>
</g>
<g id="Group">
<g id="Vector">
<use xlink:href="#path3_fill" transform="translate(8766.67 -4638.37)"/>
</g>
</g>
<g id="Group">
<g id="Vector">
<use xlink:href="#path4_fill" transform="translate(8770 -4607.05)"/>
</g>
</g>
<g id="Group">
<g id="Vector">
<use xlink:href="#path5_fill" transform="translate(8766.15 -4628.89)"/>
</g>
<g id="Vector">
<use xlink:href="#path6_fill" transform="translate(8768.15 -4626.89)"/>
</g>
</g>
</g>
</g>
</g>
</g>
<defs>
<path id="path0_fill" d="M 76 38C 76 58.9868 58.9868 76 38 76C 17.0132 76 0 58.9868 0 38C 0 17.0132 17.0132 0 38 0C 58.9868 0 76 17.0132 76 38Z"/>
<path id="path1_fill" d="M 19.4872 40L 4.10256 40C 1.84615 40 0 38.1053 0 35.7895L 0 4.21053C 0 1.89474 1.84615 0 4.10256 0L 19.4872 0C 21.7436 0 23.5897 1.89474 23.5897 4.21053L 23.5897 35.7895C 23.5897 38.1053 21.7436 40 19.4872 40ZM 4.10256 1.05263C 2.41026 1.05263 1.02564 2.47368 1.02564 4.21053L 1.02564 35.7895C 1.02564 37.5263 2.41026 38.9474 4.10256 38.9474L 19.4872 38.9474C 21.1795 38.9474 22.5641 37.5263 22.5641 35.7895L 22.5641 4.21053C 22.5641 2.47368 21.1795 1.05263 19.4872 1.05263L 4.10256 1.05263Z"/>
<path id="path2_fill" d="M 15.3846 27.3684L 3.07692 27.3684C 1.38462 27.3684 0 25.9474 0 24.2105L 0 3.15789C 0 1.42105 1.38462 0 3.07692 0L 15.3846 0C 17.0769 0 18.4615 1.42105 18.4615 3.15789L 18.4615 24.2105C 18.4615 25.9474 17.0769 27.3684 15.3846 27.3684ZM 3.07692 1.05263C 1.94872 1.05263 1.02564 2 1.02564 3.15789L 1.02564 24.2105C 1.02564 25.3684 1.94872 26.3158 3.07692 26.3158L 15.3846 26.3158C 16.5128 26.3158 17.4359 25.3684 17.4359 24.2105L 17.4359 3.15789C 17.4359 2 16.5128 1.05263 15.3846 1.05263L 3.07692 1.05263Z"/>
<path id="path3_fill" d="M 9.74359 1.05263L 0.512821 1.05263C 0.205128 1.05263 0 0.842105 0 0.526316C 0 0.210526 0.205128 0 0.512821 0L 9.74359 0C 10.0513 0 10.2564 0.210526 10.2564 0.526316C 10.2564 0.842105 10.0513 1.05263 9.74359 1.05263Z"/>
<path id="path4_fill" d="M 1.79487 3.68421C 0.820513 3.68421 0 2.84211 0 1.84211C 0 0.842105 0.820513 0 1.79487 0C 2.76923 0 3.58974 0.842105 3.58974 1.84211C 3.58974 2.84211 2.76923 3.68421 1.79487 3.68421ZM 1.79487 1.05263C 1.38462 1.05263 1.02564 1.42105 1.02564 1.84211C 1.02564 2.26316 1.38462 2.63158 1.79487 2.63158C 2.20513 2.63158 2.5641 2.26316 2.5641 1.84211C 2.5641 1.42105 2.20513 1.05263 1.79487 1.05263Z"/>
<path id="path5_fill" d="M 9.23077 0L 2.05128 0C 0.923077 0 0 0.947368 0 2.10526L 0 6.57895C 0 7.73684 0.923077 8.94737 2.05128 8.94737L 4.41026 8.94737L 1.17949 12.1053C 0.974359 12.3158 0.974359 12.5789 1.17949 12.7895C 1.28205 12.8947 1.4359 12.8947 1.53846 12.8947C 1.64103 12.8947 1.79487 12.8421 1.89744 12.7368L 5.12821 9.42105L 5.12821 13.1579C 5.12821 13.4737 5.33333 13.6842 5.64103 13.6842C 5.94872 13.6842 6.15385 13.4737 6.15385 13.1579L 6.15385 9.42105L 9.38461 12.7368C 9.48718 12.8421 9.64103 12.8947 9.74359 12.8947C 9.84615 12.8947 10 12.8421 10.1026 12.7368C 10.3077 12.5263 10.3077 12.3158 10.1026 12.1053L 6.8718 8.94737L 9.23077 8.94737C 10.359 8.94737 11.2821 7.73684 11.2821 6.57895L 11.2821 2.10526C 11.2821 0.947368 10.359 0 9.23077 0ZM 10.2564 6.8421C 10.2564 7.42105 9.79487 7.89474 9.23077 7.89474L 2.05128 7.89474C 1.48718 7.89474 1.02564 7.42105 1.02564 6.8421L 1.02564 2.10526C 1.02564 1.52632 1.48718 1.05263 2.05128 1.05263L 9.23077 1.05263C 9.79487 1.05263 10.2564 1.52632 10.2564 2.10526L 10.2564 6.8421Z"/>
<path id="path6_fill" d="M 6.71795 -4.01547e-07C 6.35898 -4.01547e-07 6.10256 0.263158 6.10256 0.631579C 6.10256 0.736842 6.15385 0.842105 6.15385 0.894737L 4.97436 2.47368C 4.92308 2.47368 4.92308 2.47368 4.8718 2.47368C 4.71795 2.47368 4.61539 2.52632 4.51282 2.63158L 3.07692 1.8421C 3.07692 1.47368 2.82051 1.21053 2.46154 1.21053C 2.10256 1.21053 1.84615 1.47368 1.84615 1.8421C 1.84615 1.94737 1.89744 2.05263 1.89744 2.10526L 0.717948 3.68421C 0.666666 3.68421 0.666666 3.68421 0.615384 3.68421C 0.25641 3.68421 7.82502e-07 3.94737 7.82502e-07 4.31579C 7.82502e-07 4.68421 0.25641 4.94737 0.615384 4.94737C 0.974358 4.94737 1.23077 4.68421 1.23077 4.31579C 1.23077 4.21053 1.17949 4.10526 1.17949 4.05263L 2.35897 2.47368C 2.41026 2.47368 2.41026 2.47368 2.46154 2.47368C 2.61539 2.47368 2.71795 2.42105 2.82051 2.31579L 4.25641 3.10526C 4.25641 3.47368 4.51282 3.73684 4.8718 3.73684C 5.23077 3.73684 5.48718 3.47368 5.48718 3.10526C 5.48718 3 5.4359 2.89474 5.4359 2.84211L 6.61538 1.26316C 6.66667 1.26316 6.66667 1.26316 6.71795 1.26316C 7.07692 1.26316 7.33333 1 7.33333 0.631579C 7.33333 0.315789 7.07692 -4.01547e-07 6.71795 -4.01547e-07Z"/>
</defs>
</svg>
