<svg width="76" height="76" viewBox="0 0 76 76" version="1.1" xmlns="http://www.w3.org/2000/svg" xmlns:xlink="http://www.w3.org/1999/xlink">
<title>Group 37</title>
<desc>Created using Figma</desc>
<g id="Canvas" transform="translate(-22639 2365)">
<g id="Group 37">
<g id="Ellipse">
<use xlink:href="#path0_fill" transform="translate(22639.3 -2364.56)" fill="#F2F8FA"/>
</g>
<g id="Group 36.4">
<g id="Vector">
<mask id="mask0_outline_ins">
<use xlink:href="#path1_fill" fill="white" transform="translate(22687.9 -2319.94)"/>
</mask>
<g mask="url(#mask0_outline_ins)">
<use xlink:href="#path2_stroke_2x" transform="translate(22687.9 -2319.94)"/>
</g>
</g>
<g id="Vector">
<mask id="mask1_outline_ins">
<use xlink:href="#path3_fill" fill="white" transform="translate(22687.9 -2345.19)"/>
</mask>
<g mask="url(#mask1_outline_ins)">
<use xlink:href="#path4_stroke_2x" transform="translate(22687.9 -2345.19)"/>
</g>
</g>
<g id="Vector">
<mask id="mask2_outline_ins">
<use xlink:href="#path5_fill" fill="white" transform="translate(22692 -2345.19)"/>
</mask>
<g mask="url(#mask2_outline_ins)">
<use xlink:href="#path6_stroke_2x" transform="translate(22692 -2345.19)"/>
</g>
</g>
<g id="Vector">
<mask id="mask3_outline_ins">
<use xlink:href="#path7_fill" fill="white" transform="translate(22663.2 -2345.19)"/>
</mask>
<g mask="url(#mask3_outline_ins)">
<use xlink:href="#path8_stroke_2x" transform="translate(22663.2 -2345.19)"/>
</g>
</g>
<g id="Vector">
<mask id="mask4_outline_ins">
<use xlink:href="#path9_fill" fill="white" transform="translate(22653.3 -2345.19)"/>
</mask>
<g mask="url(#mask4_outline_ins)">
<use xlink:href="#path10_stroke_2x" transform="translate(22653.3 -2345.19)"/>
</g>
</g>
<g id="Vector">
<mask id="mask5_outline_ins">
<use xlink:href="#path11_fill" fill="white" transform="translate(22663.2 -2319.94)"/>
</mask>
<g mask="url(#mask5_outline_ins)">
<use xlink:href="#path12_stroke_2x" transform="translate(22663.2 -2319.94)"/>
</g>
</g>
<g id="Vector">
<use xlink:href="#path13_fill" transform="translate(22675 -2328.68)"/>
</g>
<g id="Vector">
<use xlink:href="#path14_fill" transform="translate(22680.4 -2328.09)"/>
</g>
<g id="Vector">
<use xlink:href="#path15_fill" transform="translate(22684.6 -2327.49)"/>
</g>
<g id="Vector">
<use xlink:href="#path16_fill" transform="translate(22671 -2328.09)"/>
</g>
<g id="Vector">
<use xlink:href="#path15_fill" transform="translate(22668.1 -2327.49)"/>
</g>
</g>
</g>
</g>
<defs>
<path id="path0_fill" d="M 75.3846 37.66C 75.3846 58.459 58.5092 75.32 37.6923 75.32C 16.8754 75.32 0 58.459 0 37.66C 0 16.861 16.8754 0 37.6923 0C 58.5092 0 75.3846 16.861 75.3846 37.66Z"/>
<path id="path1_fill" fill-rule="evenodd" d="M 1.10756 0.337142L 0.35486 1.06177C 0.119061 1.28804 3.19035e-07 1.56692 3.19035e-07 1.88936L 3.19035e-07 9.34948C 3.19035e-07 9.65494 0.105701 9.91741 0.318849 10.1414L 1.10175 10.9633C 1.33581 11.21 1.63317 11.3367 1.97815 11.3367L 2.90393 11.3361L 2.90393 -1.03578e-06C 2.61237 -1.03578e-06 2.29584 0.000566486 1.94795 0.000566486C 1.62097 0.000566486 1.33987 0.112569 1.10756 0.337142Z"/>
<path id="path2_stroke_2x" d="M 1.10756 0.337142L 1.6624 0.913472L 1.66358 0.912329L 1.10756 0.337142ZM 0.35486 1.06177L 0.908763 1.639L 0.909698 1.6381L 0.35486 1.06177ZM 0.318849 10.1414L -0.26071 10.6929L -0.260421 10.6932L 0.318849 10.1414ZM 1.10175 10.9633L 1.68204 10.4127L 1.68102 10.4116L 1.10175 10.9633ZM 1.97815 11.3367L 1.97815 12.1367L 1.97864 12.1367L 1.97815 11.3367ZM 2.90393 11.3361L 2.90441 12.1361L 3.70393 12.1356L 3.70393 11.3361L 2.90393 11.3361ZM 2.90393 -1.03578e-06L 3.70393 -1.03578e-06L 3.70393 -0.800001L 2.90393 -0.800001L 2.90393 -1.03578e-06ZM 1.94795 0.000566486L 1.94795 -0.799434L 1.94795 0.000566486ZM 0.552718 -0.239187L -0.199978 0.485442L 0.909698 1.6381L 1.66239 0.91347L 0.552718 -0.239187ZM -0.199042 0.484542C -0.59066 0.860334 -0.8 1.34709 -0.8 1.88936L 0.8 1.88936C 0.8 1.78675 0.828782 1.71575 0.908762 1.639L -0.199042 0.484542ZM -0.8 1.88936L -0.8 9.34948L 0.8 9.34948L 0.8 1.88936L -0.8 1.88936ZM -0.8 9.34948C -0.8 9.8631 -0.613392 10.3222 -0.26071 10.6929L 0.898408 9.58996C 0.824793 9.51259 0.8 9.44678 0.8 9.34948L -0.8 9.34948ZM -0.260421 10.6932L 0.522482 11.5151L 1.68102 10.4116L 0.898119 9.58966L -0.260421 10.6932ZM 0.521463 11.514C 0.908992 11.9224 1.41727 12.1367 1.97815 12.1367L 1.97815 10.5367C 1.84906 10.5367 1.76262 10.4976 1.68204 10.4127L 0.521463 11.514ZM 1.97864 12.1367L 2.90441 12.1361L 2.90344 10.5361L 1.97767 10.5367L 1.97864 12.1367ZM 3.70393 11.3361L 3.70393 -1.03578e-06L 2.10393 -1.03578e-06L 2.10393 11.3361L 3.70393 11.3361ZM 2.90393 -0.800001C 2.75772 -0.800001 2.60531 -0.799859 2.44635 -0.799717C 2.28727 -0.799575 2.1215 -0.799434 1.94795 -0.799434L 1.94795 0.800566C 2.1223 0.800566 2.28873 0.800424 2.44778 0.800282C 2.60695 0.80014 2.75858 0.799999 2.90393 0.799999L 2.90393 -0.800001ZM 1.94795 -0.799434C 1.41781 -0.799434 0.936102 -0.609798 0.551535 -0.238046L 1.66358 0.912329C 1.74364 0.834936 1.82413 0.800566 1.94795 0.800566L 1.94795 -0.799434Z"/>
<path id="path3_fill" fill-rule="evenodd" d="M 1.10233 0.37278L 0.318849 1.1964C 0.105701 1.41984 6.3807e-07 1.68175 6.3807e-07 1.98722L 6.3807e-07 9.38511C 6.3807e-07 9.74432 0.149844 10.0543 0.434429 10.2828L 1.12556 10.8389C 1.34858 11.0182 1.59716 11.1053 1.88639 11.1053C 2.25867 11.1053 2.59495 11.1053 2.90335 11.1059L 2.90335 -2.50314e-07L 1.97815 -2.50314e-07C 1.63433 -2.50314e-07 1.33697 0.126146 1.10233 0.37278Z"/>
<path id="path4_stroke_2x" d="M 1.10233 0.37278L 0.595176 -0.109706L 0.595153 -0.109682L 1.10233 0.37278ZM 0.318849 1.1964L 0.825354 1.67957L 0.826028 1.67886L 0.318849 1.1964ZM 0.434429 10.2828L 0.873231 9.73745L 0.872726 9.73704L 0.434429 10.2828ZM 1.12556 10.8389L 0.686757 11.3843L 0.68693 11.3844L 1.12556 10.8389ZM 2.90335 11.1059L 2.90206 11.8059L 3.60335 11.8072L 3.60335 11.1059L 2.90335 11.1059ZM 2.90335 -2.50314e-07L 3.60335 -2.50314e-07L 3.60335 -0.7L 2.90335 -0.7L 2.90335 -2.50314e-07ZM 0.595153 -0.109682L -0.18833 0.71394L 0.826028 1.67886L 1.60951 0.855241L 0.595153 -0.109682ZM -0.187655 0.713232C -0.523318 1.06511 -0.699999 1.49938 -0.699999 1.98722L 0.700001 1.98722C 0.700001 1.86412 0.73472 1.77458 0.825353 1.67957L -0.187655 0.713232ZM -0.699999 1.98722L -0.699999 9.38511L 0.700001 9.38511L 0.700001 1.98722L -0.699999 1.98722ZM -0.699999 9.38511C -0.699999 9.96011 -0.451079 10.4695 -0.00386871 10.8286L 0.872726 9.73704C 0.750767 9.6391 0.700001 9.52853 0.700001 9.38511L -0.699999 9.38511ZM -0.00437414 10.8282L 0.686757 11.3843L 1.56436 10.2935L 0.873231 9.73745L -0.00437414 10.8282ZM 0.68693 11.3844C 1.0356 11.6648 1.43931 11.8053 1.88639 11.8053L 1.88639 10.4053C 1.75501 10.4053 1.66157 10.3717 1.56419 10.2934L 0.68693 11.3844ZM 1.88639 11.8053C 2.25884 11.8053 2.59443 11.8053 2.90206 11.8059L 2.90463 10.4059C 2.59547 10.4053 2.25851 10.4053 1.88639 10.4053L 1.88639 11.8053ZM 3.60335 11.1059L 3.60335 -2.50314e-07L 2.20335 -2.50314e-07L 2.20335 11.1059L 3.60335 11.1059ZM 2.90335 -0.7L 1.97815 -0.7L 1.97815 0.7L 2.90335 0.7L 2.90335 -0.7ZM 1.97815 -0.7C 1.44574 -0.7 0.964081 -0.497473 0.595176 -0.109706L 1.60949 0.855266C 1.70986 0.749764 1.82292 0.7 1.97815 0.7L 1.97815 -0.7Z"/>
<path id="path5_fill" fill-rule="evenodd" d="M 8.71236 17.8934L 8.71236 17.8866C 8.71236 10.6336 5.10801 -2.50314e-07 1.05529 -2.50314e-07L 6.3807e-07 -2.50314e-07L 6.3807e-07 11.1059C 0.2509 11.1065 0.468114 11.1065 0.645253 11.107C 1.03148 11.1076 1.36368 11.2694 1.59774 11.5698L 2.08909 12.2039C 2.25229 12.4149 2.33069 12.6417 2.33069 12.9053L 2.33069 18.2656L 2.33185 18.2656L 2.33185 23.2255C 2.33185 23.4557 2.27319 23.6531 2.14716 23.8477L 1.59251 24.703C 1.36659 25.0498 1.00534 25.2444 0.584269 25.2455C 0.419906 25.2455 0.223022 25.2455 0.000581104 25.2461L 0.000581104 36.5828L 1.05761 36.5822C 5.10975 36.5822 8.7141 25.3767 8.7141 18.1231L 8.71236 17.8934Z"/>
<path id="path6_stroke_2x" d="M 8.71236 17.8934L 7.91234 17.8934L 7.91238 17.8995L 8.71236 17.8934ZM 6.3807e-07 -2.50314e-07L 6.3807e-07 -0.8L -0.799999 -0.8L -0.799999 -2.50314e-07L 6.3807e-07 -2.50314e-07ZM 6.3807e-07 11.1059L -0.799999 11.1059L -0.799999 11.9041L -0.00180303 11.9059L 6.3807e-07 11.1059ZM 0.645253 11.107L 0.642698 11.907L 0.644081 11.907L 0.645253 11.107ZM 1.59774 11.5698L 2.23012 11.0798L 2.22878 11.078L 1.59774 11.5698ZM 2.08909 12.2039L 2.72188 11.7144L 2.72146 11.7139L 2.08909 12.2039ZM 2.33069 18.2656L 1.53069 18.2656L 1.53069 19.0656L 2.33069 19.0656L 2.33069 18.2656ZM 2.33185 18.2656L 3.13185 18.2656L 3.13185 17.4656L 2.33185 17.4656L 2.33185 18.2656ZM 2.14716 23.8477L 2.81838 24.283L 2.81863 24.2826L 2.14716 23.8477ZM 1.59251 24.703L 2.2628 25.1397L 2.26373 25.1383L 1.59251 24.703ZM 0.584269 25.2455L 0.584269 26.0455L 0.586418 26.0455L 0.584269 25.2455ZM 0.000581104 25.2461L -0.00145332 24.4461L -0.799419 24.4481L -0.799419 25.2461L 0.000581104 25.2461ZM 0.000581104 36.5828L -0.799419 36.5828L -0.799419 37.3832L 0.00100899 37.3828L 0.000581104 36.5828ZM 1.05761 36.5822L 1.05761 35.7822L 1.05718 35.7822L 1.05761 36.5822ZM 8.7141 18.1231L 9.51412 18.1231L 9.51408 18.117L 8.7141 18.1231ZM 9.51236 17.8934L 9.51236 17.8866L 7.91236 17.8866L 7.91236 17.8934L 9.51236 17.8934ZM 9.51236 17.8866C 9.51236 14.1507 8.5889 9.57957 7.14769 5.9296C 6.42735 4.1053 5.56038 2.46645 4.58076 1.26841C 3.61926 0.0925394 2.42951 -0.8 1.05529 -0.8L 1.05529 0.8C 1.70742 0.8 2.48799 1.23666 3.34213 2.28123C 4.17815 3.30365 4.97216 4.77651 5.6595 6.51723C 7.03364 9.99731 7.91236 14.3695 7.91236 17.8866L 9.51236 17.8866ZM 1.05529 -0.8L 6.3807e-07 -0.8L 6.3807e-07 0.8L 1.05529 0.8L 1.05529 -0.8ZM -0.799999 -2.50314e-07L -0.799999 11.1059L 0.800001 11.1059L 0.800001 -2.50314e-07L -0.799999 -2.50314e-07ZM -0.00180303 11.9059C 0.252624 11.9065 0.465046 11.9065 0.642698 11.907L 0.647808 10.307C 0.471181 10.3065 0.249175 10.3065 0.00180431 10.3059L -0.00180303 11.9059ZM 0.644081 11.907C 0.78729 11.9072 0.885928 11.9578 0.966699 12.0615L 2.22878 11.078C 1.84144 10.5809 1.27566 10.308 0.646425 10.307L 0.644081 11.907ZM 0.965361 12.0597L 1.45671 12.6939L 2.72146 11.7139L 2.23012 11.0798L 0.965361 12.0597ZM 1.45629 12.6933C 1.51303 12.7667 1.53069 12.822 1.53069 12.9053L 3.13069 12.9053C 3.13069 12.4614 2.99154 12.063 2.72188 11.7144L 1.45629 12.6933ZM 1.53069 12.9053L 1.53069 18.2656L 3.13069 18.2656L 3.13069 12.9053L 1.53069 12.9053ZM 2.33069 19.0656L 2.33185 19.0656L 2.33185 17.4656L 2.33069 17.4656L 2.33069 19.0656ZM 1.53185 18.2656L 1.53185 23.2255L 3.13185 23.2255L 3.13185 18.2656L 1.53185 18.2656ZM 1.53185 23.2255C 1.53185 23.3 1.51858 23.3466 1.47569 23.4128L 2.81863 24.2826C 3.02781 23.9596 3.13185 23.6114 3.13185 23.2255L 1.53185 23.2255ZM 1.47594 23.4124L 0.921293 24.2678L 2.26373 25.1383L 2.81838 24.283L 1.47594 23.4124ZM 0.922227 24.2663C 0.846349 24.3828 0.738673 24.4451 0.582119 24.4455L 0.586418 26.0455C 1.272 26.0437 1.88682 25.7168 2.2628 25.1397L 0.922227 24.2663ZM 0.584269 24.4455C 0.419938 24.4455 0.222124 24.4455 -0.00145332 24.4461L 0.00261553 26.0461C 0.22392 26.0455 0.419875 26.0455 0.584269 26.0455L 0.584269 24.4455ZM -0.799419 25.2461L -0.799419 36.5828L 0.800581 36.5828L 0.800581 25.2461L -0.799419 25.2461ZM 0.00100899 37.3828L 1.05804 37.3822L 1.05718 35.7822L 0.000153215 35.7828L 0.00100899 37.3828ZM 1.05761 37.3822C 2.44925 37.3822 3.64084 36.4324 4.59425 35.21C 5.57006 33.9589 6.43455 32.2502 7.15333 30.3567C 8.59141 26.5683 9.5141 21.8575 9.5141 18.1231L 7.9141 18.1231C 7.9141 21.6424 7.03461 26.1611 5.65748 29.7889C 4.96866 31.6034 4.17229 33.1494 3.33261 34.226C 2.47054 35.3313 1.69204 35.7822 1.05761 35.7822L 1.05761 37.3822ZM 9.51408 18.117L 9.51234 17.8874L 7.91238 17.8995L 7.91412 18.1292L 9.51408 18.117Z"/>
<path id="path7_fill" fill-rule="evenodd" d="M 1.77836 10.8395L 2.47008 10.2834C 2.75408 10.0549 2.90393 9.74488 2.90393 9.38568L 2.90393 1.98722C 2.90393 1.68175 2.79822 1.41984 2.58507 1.1964L 1.8016 0.37278C 1.56696 0.126146 1.27018 6.04206e-08 0.925191 6.04206e-08L 0 6.04206e-08L 0 11.1053C 0.308397 11.1053 0.644671 11.1053 1.01695 11.1048C 1.30677 11.1053 1.55534 11.0188 1.77836 10.8395Z"/>
<path id="path8_stroke_2x" d="M 1.77836 10.8395L 1.27713 10.216L 1.27707 10.216L 1.77836 10.8395ZM 2.47008 10.2834L 2.97131 10.9069L 2.97161 10.9067L 2.47008 10.2834ZM 2.58507 1.1964L 2.00544 1.74779L 2.00621 1.7486L 2.58507 1.1964ZM 1.8016 0.37278L 2.38123 -0.178603L 2.3812 -0.178633L 1.8016 0.37278ZM 0 6.04206e-08L 0 -0.8L -0.8 -0.8L -0.8 6.04206e-08L 0 6.04206e-08ZM 0 11.1053L -0.8 11.1053L -0.8 11.9053L 0 11.9053L 0 11.1053ZM 1.01695 11.1048L 1.01852 10.3048L 1.01574 10.3048L 1.01695 11.1048ZM 2.2796 11.463L 2.97131 10.9069L 1.96885 9.65989L 1.27713 10.216L 2.2796 11.463ZM 2.97161 10.9067C 3.44101 10.529 3.70393 9.99135 3.70393 9.38568L 2.10393 9.38568C 2.10393 9.49842 2.06716 9.58078 1.96855 9.66014L 2.97161 10.9067ZM 3.70393 9.38568L 3.70393 1.98722L 2.10393 1.98722L 2.10393 9.38568L 3.70393 9.38568ZM 3.70393 1.98722C 3.70393 1.47333 3.5171 1.01443 3.16394 0.644208L 2.00621 1.7486C 2.07935 1.82526 2.10393 1.89018 2.10393 1.98722L 3.70393 1.98722ZM 3.16471 0.645019L 2.38123 -0.178603L 1.22196 0.924164L 2.00544 1.74779L 3.16471 0.645019ZM 2.3812 -0.178633C 1.99312 -0.586562 1.48571 -0.8 0.925191 -0.8L 0.925191 0.8C 1.05465 0.8 1.1408 0.838853 1.22199 0.924193L 2.3812 -0.178633ZM 0.925191 -0.8L 0 -0.8L 0 0.8L 0.925191 0.8L 0.925191 -0.8ZM -0.8 6.04206e-08L -0.8 11.1053L 0.8 11.1053L 0.8 6.04206e-08L -0.8 6.04206e-08ZM 0 11.9053C 0.308355 11.9053 0.645199 11.9053 1.01817 11.9048L 1.01574 10.3048C 0.644144 10.3053 0.308439 10.3053 0 10.3053L 0 11.9053ZM 1.01539 11.9048C 1.48534 11.9057 1.91201 11.7585 2.27966 11.4629L 1.27707 10.216C 1.19868 10.279 1.12819 10.305 1.01852 10.3048L 1.01539 11.9048Z"/>
<path id="path9_fill" fill-rule="evenodd" d="M 0.00116153 17.8861L 0.00116153 17.8929L 4.20949e-08 18.1225C 4.20949e-08 25.3762 3.60377 36.5816 7.65591 36.5816L 8.71294 36.5822L 8.71294 25.2455C 8.4905 25.2449 8.29361 25.2449 8.12925 25.2449C 7.7076 25.2438 7.34635 25.0492 7.12101 24.7025L 6.56636 23.8472C 6.43975 23.6526 6.38167 23.4557 6.38167 23.2249L 6.38167 18.2651L 6.38341 18.2651L 6.38341 12.9047C 6.38341 12.6411 6.46182 12.4137 6.62502 12.2033L 7.11636 11.5692C 7.34926 11.2682 7.68205 11.107 8.06827 11.1065C 8.24599 11.1065 8.4632 11.1059 8.71352 11.1053L 8.71352 5.17891e-07L 7.65823 5.17891e-07C 3.60493 5.17891e-07 0.00116153 10.633 0.00116153 17.8861Z"/>
<path id="path10_stroke_2x" d="M 0.00116153 17.8929L 0.801162 17.8969L 0.801162 17.8929L 0.00116153 17.8929ZM 4.20949e-08 18.1225L -0.8 18.1185L -0.8 18.1225L 4.20949e-08 18.1225ZM 7.65591 36.5816L 7.65634 35.7816L 7.65591 35.7816L 7.65591 36.5816ZM 8.71294 36.5822L 8.71251 37.3822L 9.51294 37.3826L 9.51294 36.5822L 8.71294 36.5822ZM 8.71294 25.2455L 9.51294 25.2455L 9.51294 24.4475L 8.71497 24.4455L 8.71294 25.2455ZM 8.12925 25.2449L 8.1271 26.0449L 8.12925 26.0449L 8.12925 25.2449ZM 7.12101 24.7025L 6.44979 25.1377L 6.45021 25.1384L 7.12101 24.7025ZM 6.56636 23.8472L 7.23758 23.4119L 7.23691 23.4109L 6.56636 23.8472ZM 6.38167 18.2651L 6.38167 17.4651L 5.58167 17.4651L 5.58167 18.2651L 6.38167 18.2651ZM 6.38341 18.2651L 6.38341 19.0651L 7.18341 19.0651L 7.18341 18.2651L 6.38341 18.2651ZM 6.62502 12.2033L 7.25718 12.6936L 7.2574 12.6933L 6.62502 12.2033ZM 7.11636 11.5692L 7.74874 12.0592L 7.74903 12.0588L 7.11636 11.5692ZM 8.06827 11.1065L 8.06827 10.3065L 8.0671 10.3065L 8.06827 11.1065ZM 8.71352 11.1053L 8.71533 11.9053L 9.51352 11.9035L 9.51352 11.1053L 8.71352 11.1053ZM 8.71352 5.17891e-07L 9.51352 5.17891e-07L 9.51352 -0.799999L 8.71352 -0.799999L 8.71352 5.17891e-07ZM -0.798838 17.8861L -0.798838 17.8929L 0.801162 17.8929L 0.801162 17.8861L -0.798838 17.8861ZM -0.798828 17.8888L -0.79999 18.1185L 0.79999 18.1266L 0.801151 17.8969L -0.798828 17.8888ZM -0.8 18.1225C -0.8 21.8569 0.122536 26.5677 1.56047 30.3561C 2.27917 32.2496 3.14359 33.9583 4.11935 35.2094C 5.0727 36.4318 6.26426 37.3816 7.65591 37.3816L 7.65591 35.7816C 7.02149 35.7816 6.24303 35.3308 5.38101 34.2255C 4.54139 33.1489 3.74509 31.6029 3.05634 29.7883C 1.67935 26.1605 0.8 21.6418 0.8 18.1225L -0.8 18.1225ZM 7.65548 37.3816L 8.71251 37.3822L 8.71337 35.7822L 7.65634 35.7816L 7.65548 37.3816ZM 9.51294 36.5822L 9.51294 25.2455L 7.91294 25.2455L 7.91294 36.5822L 9.51294 36.5822ZM 8.71497 24.4455C 8.4914 24.4449 8.29358 24.4449 8.12925 24.4449L 8.12925 26.0449C 8.29364 26.0449 8.4896 26.0449 8.71091 26.0455L 8.71497 24.4455ZM 8.1314 24.4449C 7.97388 24.4445 7.86681 24.3819 7.79181 24.2665L 6.45021 25.1384C 6.8259 25.7165 7.44132 26.0431 8.1271 26.0449L 8.1314 24.4449ZM 7.79223 24.2672L 7.23758 23.4119L 5.89514 24.2824L 6.44979 25.1377L 7.79223 24.2672ZM 7.23691 23.4109C 7.19495 23.3464 7.18167 23.3011 7.18167 23.2249L 5.58167 23.2249C 5.58167 23.6103 5.68455 23.9588 5.8958 24.2835L 7.23691 23.4109ZM 7.18167 23.2249L 7.18167 18.2651L 5.58167 18.2651L 5.58167 23.2249L 7.18167 23.2249ZM 6.38167 19.0651L 6.38341 19.0651L 6.38341 17.4651L 6.38167 17.4651L 6.38167 19.0651ZM 7.18341 18.2651L 7.18341 12.9047L 5.58341 12.9047L 5.58341 18.2651L 7.18341 18.2651ZM 7.18341 12.9047C 7.18341 12.8209 7.20141 12.7655 7.25718 12.6936L 5.99285 11.713C 5.72222 12.062 5.58341 12.4614 5.58341 12.9047L 7.18341 12.9047ZM 7.2574 12.6933L 7.74874 12.0592L 6.48398 11.0792L 5.99264 11.7133L 7.2574 12.6933ZM 7.74903 12.0588C 7.82727 11.9577 7.92475 11.9067 8.06944 11.9065L 8.0671 10.3065C 7.43934 10.3074 6.87124 10.5788 6.48369 11.0796L 7.74903 12.0588ZM 8.06827 11.9065C 8.24715 11.9065 8.46563 11.9059 8.71533 11.9053L 8.71171 10.3053C 8.46077 10.3059 8.24482 10.3065 8.06827 10.3065L 8.06827 11.9065ZM 9.51352 11.1053L 9.51352 5.17891e-07L 7.91352 5.17891e-07L 7.91352 11.1053L 9.51352 11.1053ZM 8.71352 -0.799999L 7.65823 -0.799999L 7.65823 0.800001L 8.71352 0.800001L 8.71352 -0.799999ZM 7.65823 -0.799999C 6.28391 -0.799999 5.0941 0.0924451 4.13253 1.2683C 3.15287 2.46629 2.28592 4.10508 1.56562 5.92932C 0.124464 9.57917 -0.798838 14.1501 -0.798838 17.8861L 0.801162 17.8861C 0.801162 14.369 1.67974 9.99687 3.0538 6.51694C 3.7411 4.7763 4.53509 3.30352 5.37113 2.28117C 6.22526 1.23668 7.00591 0.800001 7.65823 0.800001L 7.65823 -0.799999Z"/>
<path id="path11_fill" fill-rule="evenodd" d="M 1.79521 0.337142C 1.56347 0.113134 1.28237 0.000566486 0.955973 0.000566486C 0.607502 0.000566486 0.290974 -1.03578e-06 4.6969e-07 -1.03578e-06L 4.6969e-07 11.3361L 0.925772 11.3367C 1.27076 11.3367 1.56754 11.2094 1.80218 10.9633L 2.58566 10.1414C 2.7988 9.91741 2.90451 9.65494 2.90451 9.34948L 2.90451 1.88936C 2.90451 1.56692 2.78545 1.28804 2.54965 1.06177L 1.79521 0.337142Z"/>
<path id="path12_stroke_2x" d="M 1.79521 0.337142L 1.23919 0.912337L 1.24104 0.914111L 1.79521 0.337142ZM 4.6969e-07 -1.03578e-06L 4.6969e-07 -0.800001L -0.8 -0.800001L -0.8 -1.03578e-06L 4.6969e-07 -1.03578e-06ZM 4.6969e-07 11.3361L -0.8 11.3361L -0.8 12.1356L -0.000488086 12.1361L 4.6969e-07 11.3361ZM 0.925772 11.3367L 0.925283 12.1367L 0.925772 12.1367L 0.925772 11.3367ZM 1.80218 10.9633L 2.38115 11.5154L 2.38124 11.5153L 1.80218 10.9633ZM 2.58566 10.1414L 3.16472 10.6934L 3.16521 10.6929L 2.58566 10.1414ZM 2.54965 1.06177L 1.99548 1.63874L 1.99574 1.639L 2.54965 1.06177ZM 2.35122 -0.238051C 1.96789 -0.608603 1.48646 -0.799434 0.955973 -0.799434L 0.955973 0.800566C 1.07829 0.800566 1.15906 0.834871 1.23919 0.912334L 2.35122 -0.238051ZM 0.955973 -0.799434C 0.782137 -0.799434 0.616214 -0.799575 0.457139 -0.799717C 0.298186 -0.799859 0.145919 -0.800001 4.6969e-07 -0.800001L 4.6969e-07 0.799999C 0.145056 0.799999 0.296539 0.80014 0.455711 0.800282C 0.614761 0.800424 0.781338 0.800566 0.955973 0.800566L 0.955973 -0.799434ZM -0.8 -1.03578e-06L -0.8 11.3361L 0.8 11.3361L 0.8 -1.03578e-06L -0.8 -1.03578e-06ZM -0.000488086 12.1361L 0.925283 12.1367L 0.92626 10.5367L 0.000489026 10.5361L -0.000488086 12.1361ZM 0.925772 12.1367C 1.48806 12.1367 1.99453 11.9209 2.38115 11.5154L 1.2232 10.4113C 1.14055 10.498 1.05345 10.5367 0.925772 10.5367L 0.925772 12.1367ZM 2.38124 11.5153L 3.16472 10.6934L 2.00659 9.58944L 1.22311 10.4114L 2.38124 11.5153ZM 3.16521 10.6929C 3.51789 10.3222 3.70451 9.8631 3.70451 9.34948L 2.10451 9.34948C 2.10451 9.44678 2.07971 9.51259 2.0061 9.58996L 3.16521 10.6929ZM 3.70451 9.34948L 3.70451 1.88936L 2.10451 1.88936L 2.10451 9.34948L 3.70451 9.34948ZM 3.70451 1.88936C 3.70451 1.34709 3.49517 0.860334 3.10355 0.484542L 1.99574 1.639C 2.07572 1.71575 2.10451 1.78675 2.10451 1.88936L 3.70451 1.88936ZM 3.10382 0.484801L 2.34938 -0.239828L 1.24104 0.914111L 1.99548 1.63874L 3.10382 0.484801Z"/>
<path id="path13_fill" d="M 1.96018 3.89318C 3.04275 3.89318 3.92035 3.02166 3.92035 1.94659C 3.92035 0.871519 3.04275 0 1.96018 0C 0.8776 0 0 0.871519 0 1.94659C 0 3.02166 0.8776 3.89318 1.96018 3.89318Z"/>
<path id="path14_fill" d="M 1.30678 2.59633C 2.0285 2.59633 2.61357 2.01512 2.61357 1.29817C 2.61357 0.581208 2.0285 0 1.30678 0C 0.585066 0 0 0.581208 0 1.29817C 0 2.01512 0.585066 2.59633 1.30678 2.59633Z"/>
<path id="path15_fill" d="M 0.653392 1.29816C 1.01425 1.29816 1.30678 1.00756 1.30678 0.649082C 1.30678 0.290604 1.01425 0 0.653392 0C 0.292533 0 0 0.290604 0 0.649082C 0 1.00756 0.292533 1.29816 0.653392 1.29816Z"/>
<path id="path16_fill" d="M 1.30678 2.59633C 2.0285 2.59633 2.61357 2.01512 2.61357 1.29817C 2.61357 0.581208 2.0285 0 1.30678 0C 0.585067 0 0 0.581208 0 1.29817C 0 2.01512 0.585067 2.59633 1.30678 2.59633Z"/>
</defs>
</svg>
