<svg width="76" height="76" viewBox="0 0 76 76" version="1.1" xmlns="http://www.w3.org/2000/svg" xmlns:xlink="http://www.w3.org/1999/xlink">
<title>Group 35</title>
<desc>Created using Figma</desc>
<g id="Canvas" transform="translate(-22339 2365)">
<g id="Group 35">
<g id="Ellipse">
<use xlink:href="#path0_fill" transform="translate(22339.3 -2364.56)" fill="#F2F8FA"/>
</g>
<g id="Vector">
<mask id="mask0_outline_ins">
<use xlink:href="#path1_fill" fill="white" transform="matrix(1 -5.37043e-17 5.73788e-17 1 22364.7 -2348.24)"/>
</mask>
<g mask="url(#mask0_outline_ins)">
<use xlink:href="#path2_stroke_2x" transform="matrix(1 -5.37043e-17 5.73788e-17 1 22364.7 -2348.24)"/>
</g>
</g>
<g id="Vector">
<use xlink:href="#path3_fill" transform="translate(22356.9 -2333.22)" fill="#F2F8FA"/>
<mask id="mask1_outline_ins">
<use xlink:href="#path3_fill" fill="white" transform="translate(22356.9 -2333.22)"/>
</mask>
<g mask="url(#mask1_outline_ins)">
<use xlink:href="#path4_stroke_2x" transform="translate(22356.9 -2333.22)"/>
</g>
</g>
</g>
</g>
<defs>
<path id="path0_fill" d="M 75.3846 37.66C 75.3846 58.459 58.5092 75.32 37.6923 75.32C 16.8754 75.32 0 58.459 0 37.66C 0 16.861 16.8754 0 37.6923 0C 58.5092 0 75.3846 16.861 75.3846 37.66Z"/>
<path id="path1_fill" d="M 22.0051 19.566C 20.2604 15.842 20.8639 12.7581 20.8639 12.7581C 20.8639 12.7581 17.4466 15.8769 17.9778 20.4546C 18.1565 21.995 18.801 23.743 19.378 25.4716C 18.7842 26.8445 17.7365 28.2218 15.9546 27.9121C 12.5727 27.324 13.7466 24.6162 14.4578 22.2751C 15.1689 19.9337 13.4065 18.0637 13.4065 18.0637C 13.4065 18.0637 11.8179 22.1267 10.4631 18.9624C 9.10825 15.7982 16.1002 12.5279 15.2832 7.82421C 14.4666 3.12049 11.2232 3.20265e-08 11.2232 3.20265e-08C 11.2232 3.20265e-08 13.32 2.92386 11.9643 6.61834C 10.6086 10.3128 7.97049 9.97877 5.51676 14.4664C 3.06302 18.954 6.69995 22.9985 4.96751 23.9768C 1.39719 25.9935 2.06952 18.6933 2.06952 18.6933C 2.06952 18.6933 -2.38311 24.1001 1.77395 32.5787C 6.25658 41.7219 16.7386 39.5894 17.2777 39.4728C 20.4562 39.0835 23.4742 36.9585 25.095 32.8801C 28.1796 25.1164 23.7499 23.2901 22.0051 19.566Z"/>
<path id="path2_stroke_2x" d="M 20.8639 12.7581L 21.8452 12.9502L 22.427 9.97772L 20.1898 12.0195L 20.8639 12.7581ZM 17.9778 20.4546L 18.9711 20.3394L 18.9711 20.3394L 17.9778 20.4546ZM 19.378 25.4716L 20.2959 25.8686L 20.4476 25.5177L 20.3266 25.155L 19.378 25.4716ZM 15.9546 27.9121L 15.7833 28.8973L 15.7834 28.8973L 15.9546 27.9121ZM 14.4578 22.2751L 15.4146 22.5658L 15.4146 22.5658L 14.4578 22.2751ZM 13.4065 18.0637L 14.1342 17.3778L 13.0505 16.228L 12.4751 17.6995L 13.4065 18.0637ZM 15.2832 7.82421L 14.2979 7.99525L 14.2979 7.99534L 15.2832 7.82421ZM 11.2232 3.20265e-08L 11.9165 -0.720631L 10.4105 0.582777L 11.2232 3.20265e-08ZM 5.51676 14.4664L 6.39416 14.9462L 5.51676 14.4664ZM 4.96751 23.9768L 4.4758 23.106L 4.47569 23.1061L 4.96751 23.9768ZM 2.06952 18.6933L 3.06531 18.7851L 3.36332 15.5493L 1.2976 18.0576L 2.06952 18.6933ZM 1.77395 32.5787L 2.67184 32.1385L 2.67183 32.1385L 1.77395 32.5787ZM 17.2777 39.4728L 17.1561 38.4802L 17.1108 38.4857L 17.0662 38.4954L 17.2777 39.4728ZM 25.095 32.8801L 26.0243 33.2494L 26.0244 33.2493L 25.095 32.8801ZM 22.9107 19.1418C 22.1026 17.4171 21.8404 15.8451 21.7787 14.7113C 21.7479 14.1445 21.7674 13.6892 21.7933 13.3823C 21.8062 13.229 21.8207 13.1131 21.8313 13.0394C 21.8365 13.0026 21.8408 12.9764 21.8434 12.9613C 21.8446 12.9537 21.8455 12.949 21.8458 12.9471C 21.846 12.9462 21.8461 12.946 21.846 12.9465C 21.8459 12.9467 21.8458 12.9472 21.8457 12.9478C 21.8457 12.9481 21.8456 12.9484 21.8455 12.9489C 21.8455 12.9491 21.8454 12.9494 21.8454 12.9495C 21.8453 12.9498 21.8452 12.9502 20.8639 12.7581C 19.8825 12.5661 19.8824 12.5665 19.8823 12.5669C 19.8823 12.567 19.8822 12.5674 19.8822 12.5677C 19.882 12.5683 19.8819 12.5689 19.8818 12.5696C 19.8815 12.571 19.8812 12.5725 19.8809 12.5743C 19.8802 12.5778 19.8794 12.5821 19.8785 12.5871C 19.8767 12.5971 19.8744 12.6101 19.8717 12.6261C 19.8662 12.658 19.8592 12.7016 19.8514 12.7564C 19.8357 12.8659 19.8167 13.0201 19.8004 13.2141C 19.7676 13.6018 19.7453 14.1502 19.7817 14.8198C 19.8545 16.1589 20.1629 17.9909 21.0996 19.9903L 22.9107 19.1418ZM 20.8639 12.7581C 20.1898 12.0195 20.1894 12.0198 20.1891 12.0201C 20.189 12.0202 20.1887 12.0205 20.1884 12.0207C 20.1879 12.0212 20.1874 12.0217 20.1868 12.0222C 20.1856 12.0233 20.1842 12.0246 20.1826 12.0261C 20.1794 12.0291 20.1753 12.0328 20.1705 12.0374C 20.1608 12.0464 20.148 12.0585 20.1322 12.0737C 20.1007 12.1041 20.0574 12.1466 20.0041 12.2009C 19.8977 12.3094 19.751 12.4655 19.5791 12.666C 19.2361 13.066 18.7879 13.6479 18.3577 14.3862C 17.4993 15.8589 16.6864 18.001 16.9845 20.5699L 18.9711 20.3394C 18.738 18.3305 19.3681 16.6243 20.0856 15.3933C 20.4433 14.7796 20.8162 14.2958 21.0973 13.9679C 21.2375 13.8045 21.3537 13.6812 21.432 13.6013C 21.4712 13.5614 21.5007 13.5324 21.519 13.5148C 21.5281 13.5061 21.5344 13.5001 21.5377 13.4971C 21.5393 13.4956 21.5401 13.4948 21.5402 13.4947C 21.5402 13.4947 21.5401 13.4949 21.5397 13.4952C 21.5395 13.4954 21.5393 13.4956 21.539 13.4958C 21.5388 13.496 21.5386 13.4962 21.5385 13.4963C 21.5382 13.4965 21.538 13.4968 20.8639 12.7581ZM 16.9844 20.5699C 17.1784 22.2423 17.8737 24.1233 18.4295 25.7883L 20.3266 25.155C 19.7283 23.3628 19.1345 21.7477 18.9711 20.3394L 16.9844 20.5699ZM 18.4602 25.0747C 18.1921 25.6944 17.8569 26.2256 17.4625 26.5624C 17.1035 26.8689 16.6908 27.0251 16.1259 26.9269L 15.7834 28.8973C 17.0003 29.1089 18.0024 28.7313 18.7612 28.0833C 19.4846 27.4657 19.9701 26.6218 20.2959 25.8686L 18.4602 25.0747ZM 16.126 26.9269C 15.4073 26.8019 15.0756 26.5885 14.919 26.4237C 14.7756 26.2727 14.6841 26.0629 14.6705 25.7123C 14.6562 25.3407 14.7335 24.879 14.8826 24.3174C 15.0344 23.7456 15.2229 23.1967 15.4146 22.5658L 13.5009 21.9845C 13.337 22.5241 13.1122 23.1916 12.9495 23.8043C 12.7842 24.4272 12.646 25.1181 12.672 25.7896C 12.6988 26.4821 12.9035 27.2058 13.4689 27.8011C 14.0212 28.3826 14.811 28.7282 15.7833 28.8973L 16.126 26.9269ZM 15.4146 22.5658C 15.8642 21.0855 15.5229 19.7717 15.1064 18.8715C 14.8973 18.4196 14.6628 18.0564 14.4795 17.8043C 14.3873 17.6775 14.3066 17.577 14.2465 17.5053C 14.2163 17.4695 14.1912 17.4407 14.1721 17.4194C 14.1626 17.4087 14.1546 17.3999 14.1482 17.3929C 14.1451 17.3895 14.1423 17.3865 14.1399 17.3839C 14.1388 17.3827 14.1377 17.3815 14.1367 17.3805C 14.1363 17.38 14.1358 17.3795 14.1354 17.3791C 14.1352 17.3788 14.1349 17.3785 14.1348 17.3784C 14.1345 17.3781 14.1342 17.3778 13.4065 18.0637C 12.6788 18.7495 12.6785 18.7493 12.6782 18.749C 12.6781 18.7489 12.6779 18.7486 12.6777 18.7485C 12.6774 18.7481 12.6771 18.7478 12.6769 18.7475C 12.6763 18.747 12.6759 18.7465 12.6756 18.7461C 12.6749 18.7454 12.6746 18.7452 12.6748 18.7453C 12.675 18.7456 12.6768 18.7475 12.68 18.7511C 12.6865 18.7583 12.6985 18.772 12.7152 18.7919C 12.7486 18.8317 12.8001 18.8955 12.862 18.9806C 12.9869 19.1523 13.1486 19.4029 13.2912 19.7113C 13.5782 20.3314 13.7625 21.1233 13.5009 21.9845L 15.4146 22.5658ZM 13.4065 18.0637C 12.4751 17.6995 12.4752 17.6993 12.4753 17.6991C 12.4753 17.699 12.4754 17.6988 12.4755 17.6987C 12.4755 17.6985 12.4756 17.6983 12.4756 17.6982C 12.4757 17.698 12.4757 17.6981 12.4756 17.6984C 12.4754 17.6989 12.4748 17.7004 12.4739 17.7027C 12.472 17.7074 12.4687 17.7156 12.464 17.7269C 12.4546 17.7497 12.4398 17.7849 12.42 17.8299C 12.3802 17.9204 12.3215 18.0482 12.2474 18.1925C 12.0917 18.4958 11.8987 18.8126 11.7045 19.0252C 11.4657 19.2866 11.473 19.1352 11.68 19.1743C 11.869 19.2099 11.6989 19.3082 11.3823 18.5688L 9.54377 19.356C 9.90462 20.1988 10.4411 20.9758 11.3091 21.1396C 12.195 21.3068 12.8534 20.7329 13.1812 20.3741C 13.5534 19.9665 13.8422 19.4652 14.0268 19.1057C 14.1228 18.9185 14.1987 18.7536 14.2511 18.6342C 14.2774 18.5744 14.2981 18.5254 14.3126 18.4901C 14.3199 18.4725 14.3257 18.4583 14.3299 18.4478C 14.332 18.4425 14.3337 18.4382 14.335 18.4349C 14.3357 18.4332 14.3363 18.4318 14.3367 18.4306C 14.337 18.43 14.3372 18.4295 14.3373 18.429C 14.3374 18.4288 14.3376 18.4285 14.3376 18.4284C 14.3377 18.4281 14.3378 18.4278 13.4065 18.0637ZM 11.3823 18.5688C 11.2167 18.1821 11.2536 17.7277 11.6365 17.0293C 12.0327 16.3064 12.6775 15.5406 13.4448 14.6046C 14.1783 13.7099 15 12.6846 15.5749 11.5586C 16.1588 10.4148 16.5208 9.10576 16.2684 7.65307L 14.2979 7.99534C 14.4541 8.89451 14.2485 9.75814 13.7935 10.6493C 13.3295 11.5583 12.6411 12.4303 11.8981 13.3366C 11.1889 14.2017 10.3908 15.1408 9.88261 16.068C 9.36101 17.0197 9.03196 18.1607 9.54377 19.356L 11.3823 18.5688ZM 16.2684 7.65316C 15.8291 5.1225 14.7416 3.03606 13.7788 1.59314C 13.2955 0.868991 12.8383 0.298821 12.4988 -0.0933785C 12.3289 -0.289695 12.1879 -0.442056 12.0872 -0.547466C 12.0369 -0.600189 11.9965 -0.641224 11.9676 -0.670196C 11.9532 -0.684683 11.9416 -0.696161 11.933 -0.70458C 11.9287 -0.708791 11.9252 -0.712237 11.9224 -0.714914C 11.921 -0.716252 11.9198 -0.717398 11.9189 -0.718351C 11.9184 -0.718828 11.9179 -0.719256 11.9175 -0.719636C 11.9173 -0.719826 11.9171 -0.720075 11.917 -0.72017C 11.9167 -0.720406 11.9165 -0.720631 11.2232 3.20265e-08C 10.5299 0.720631 10.5296 0.72043 10.5294 0.720241C 10.5294 0.720194 10.5292 0.720016 10.5291 0.719922C 10.5289 0.719732 10.5288 0.719589 10.5287 0.719493C 10.5285 0.7193 10.5285 0.719294 10.5287 0.719473C 10.529 0.719832 10.5302 0.720933 10.532 0.722771C 10.5358 0.726447 10.5425 0.733066 10.552 0.742582C 10.571 0.761617 10.6011 0.792218 10.641 0.834007C 10.7209 0.917623 10.8397 1.0458 10.9866 1.21552C 11.2808 1.55541 11.6854 2.05934 12.1151 2.70328C 12.9781 3.99654 13.9207 5.8222 14.2979 7.99525L 16.2684 7.65316ZM 11.2232 3.20265e-08C 10.4105 0.582777 10.4103 0.582429 10.41 0.582092C 10.41 0.581994 10.4097 0.581666 10.4096 0.58147C 10.4093 0.581078 10.4091 0.580728 10.4089 0.580421C 10.4084 0.579807 10.4081 0.579363 10.4079 0.57909C 10.4075 0.578543 10.4076 0.578675 10.4082 0.579478C 10.4093 0.581084 10.4123 0.585367 10.4169 0.59226C 10.4262 0.606057 10.4422 0.630248 10.4635 0.664312C 10.5063 0.732529 10.5704 0.839765 10.6455 0.981878C 10.7962 1.26704 10.9884 1.6868 11.1436 2.20881C 11.4534 3.25035 11.6115 4.67701 11.0255 6.27385L 12.9031 6.96283C 13.6728 4.86519 13.4604 2.98268 13.0606 1.63867C 12.8611 0.967909 12.6138 0.425791 12.4137 0.0472806C 12.3134 -0.142444 12.2243 -0.292498 12.1577 -0.398611C 12.1244 -0.451712 12.0966 -0.493946 12.0759 -0.524784C 12.0655 -0.540207 12.0568 -0.552793 12.0501 -0.562477C 12.0467 -0.56732 12.0439 -0.571438 12.0415 -0.574823C 12.0403 -0.576516 12.0392 -0.578026 12.0383 -0.579352C 12.0378 -0.580015 12.0373 -0.580632 12.0369 -0.581203C 12.0367 -0.581488 12.0364 -0.581882 12.0363 -0.582025C 12.0361 -0.582406 12.0358 -0.582777 11.2232 3.20265e-08ZM 11.0255 6.27385C 10.4445 7.85728 9.62662 8.555 8.515 9.47433C 7.35514 10.4336 5.96038 11.5706 4.63935 13.9867L 6.39416 14.9462C 7.52687 12.8745 8.67805 11.9348 9.78961 11.0156C 10.9494 10.0564 12.1285 9.07389 12.9031 6.96283L 11.0255 6.27385ZM 4.63935 13.9867C 3.23224 16.5601 3.59537 18.9982 3.99662 20.7597C 4.21199 21.7052 4.39338 22.3041 4.44416 22.8092C 4.46735 23.0399 4.44622 23.134 4.43939 23.1545C 4.43837 23.1575 4.44304 23.1434 4.45837 23.1247C 4.47388 23.1058 4.48486 23.1009 4.4758 23.106L 5.45922 24.8476C 5.89588 24.601 6.18843 24.231 6.33635 23.7882C 6.47181 23.3827 6.46994 22.9653 6.43413 22.6091C 6.36691 21.9405 6.11726 21.0644 5.94667 20.3155C 5.576 18.6883 5.34753 16.8603 6.39416 14.9462L 4.63935 13.9867ZM 4.47569 23.1061C 4.12779 23.3026 3.92609 23.3308 3.83835 23.329C 3.7758 23.3277 3.7372 23.3133 3.68267 23.2635C 3.50507 23.1014 3.29765 22.6707 3.16436 21.9172C 3.04069 21.2179 3.01327 20.4381 3.0202 19.8136C 3.02361 19.5056 3.03524 19.2443 3.04591 19.0613C 3.05124 18.97 3.0563 18.8986 3.05993 18.8511C 3.06175 18.8274 3.0632 18.8097 3.06415 18.7985C 3.06462 18.7929 3.06496 18.789 3.06516 18.7867C 3.06526 18.7856 3.06533 18.7849 3.06535 18.7846C 3.06537 18.7844 3.06537 18.7844 3.06536 18.7845C 3.06536 18.7845 3.06534 18.7847 3.06534 18.7847C 3.06533 18.7849 3.06531 18.7851 2.06952 18.6933C 1.07374 18.6016 1.07371 18.6019 1.07369 18.6022C 1.07368 18.6023 1.07365 18.6026 1.07362 18.6029C 1.07358 18.6034 1.07352 18.604 1.07345 18.6048C 1.07332 18.6063 1.07314 18.6082 1.07294 18.6106C 1.07252 18.6153 1.07195 18.6218 1.07126 18.6299C 1.06988 18.6463 1.068 18.6693 1.06576 18.6986C 1.06128 18.7571 1.05539 18.8405 1.0493 18.9449C 1.03715 19.1532 1.02415 19.4465 1.02032 19.7914C 1.01276 20.4726 1.0404 21.3918 1.19493 22.2655C 1.33986 23.0849 1.63379 24.1011 2.33427 24.7406C 2.71879 25.0916 3.21341 25.3166 3.79748 25.3286C 4.35635 25.34 4.91465 25.1552 5.45933 24.8475L 4.47569 23.1061ZM 2.06952 18.6933C 1.2976 18.0576 1.2972 18.0581 1.29678 18.0586C 1.29662 18.0588 1.29619 18.0593 1.29587 18.0597C 1.29522 18.0605 1.29451 18.0614 1.29373 18.0624C 1.29217 18.0643 1.29034 18.0665 1.28825 18.0691C 1.28408 18.0743 1.27885 18.0808 1.27262 18.0887C 1.26018 18.1044 1.24373 18.1255 1.22371 18.1519C 1.18366 18.2047 1.12923 18.2788 1.0637 18.3736C 0.932706 18.5631 0.756951 18.8361 0.563019 19.1878C 0.17544 19.8909 -0.287187 20.9133 -0.608185 22.2175C -1.25466 24.8442 -1.3115 28.5572 0.876061 33.0189L 2.67183 32.1385C 0.702334 28.1215 0.793279 24.8919 1.33386 22.6955C 1.60639 21.5882 1.9971 20.7291 2.31449 20.1534C 2.47304 19.8658 2.61267 19.6501 2.70894 19.5108C 2.75704 19.4412 2.79421 19.3909 2.81736 19.3603C 2.82893 19.3451 2.83698 19.3348 2.84113 19.3296C 2.8432 19.3269 2.8443 19.3256 2.84437 19.3255C 2.8444 19.3254 2.84418 19.3257 2.8437 19.3263C 2.84346 19.3266 2.84315 19.327 2.84277 19.3274C 2.84259 19.3277 2.84226 19.3281 2.84216 19.3282C 2.84182 19.3286 2.84145 19.3291 2.06952 18.6933ZM 0.876051 33.0189C 3.2933 37.9493 7.35569 39.8462 10.8244 40.4818C 14.2599 41.1113 17.1639 40.5205 17.4892 40.4501L 17.0662 38.4954C 16.8523 38.5417 14.2458 39.0754 11.1849 38.5145C 8.15715 37.9597 4.73723 36.3512 2.67184 32.1385L 0.876051 33.0189ZM 17.3992 40.4653C 20.9715 40.0278 24.2803 37.6379 26.0243 33.2494L 24.1657 32.5107C 22.6681 36.2792 19.941 38.1391 17.1561 38.4802L 17.3992 40.4653ZM 26.0244 33.2493C 27.652 29.1526 27.3447 26.4538 26.2567 24.2634C 25.7389 23.2207 25.0593 22.3274 24.4577 21.5255C 23.8378 20.6994 23.2966 19.9655 22.9107 19.1418L 21.0996 19.9903C 21.5861 21.0287 22.2529 21.9195 22.8579 22.7259C 23.4811 23.5564 24.0434 24.3032 24.4655 25.153C 25.2575 26.7476 25.6226 28.8438 24.1657 32.5108L 26.0244 33.2493Z"/>
<path id="path3_fill" fill-rule="evenodd" d="M 11.1168 9.88144C 12.4317 8.61851 13.0294 7.24078 12.1926 6.20748C 10.5191 3.91125 6.93307 -2.63299 3.70561 1.15578C 2.27118 2.76314 0.717214 4.94455 0.717214 4.94455C 0.717214 4.94455 0 5.63342 0 7.01116C 0.358607 17.3442 18.528 30.7771 28.8081 28.7105C 30.123 28.3661 30.7207 27.4476 30.7207 27.4476C 30.7207 27.4476 32.5137 25.4958 33.8286 23.7736C 36.9365 19.87 29.4058 18.1479 26.6565 17.1145C 25.4611 16.5405 24.1462 17.459 23.1899 18.9515C 20.9187 22.3959 8.24796 12.8665 11.1168 9.88144Z"/>
<path id="path4_stroke_2x" d="M 11.1168 9.88144L 10.4241 9.16022L 10.4097 9.17408L 10.3958 9.18851L 11.1168 9.88144ZM 12.1926 6.20748L 11.3845 6.79646L 11.3995 6.81702L 11.4155 6.8368L 12.1926 6.20748ZM 3.70561 1.15578L 4.45171 1.82161L 4.45938 1.81301L 4.46685 1.80424L 3.70561 1.15578ZM 0.717214 4.94455L 1.40992 5.66577L 1.4774 5.60096L 1.53169 5.52475L 0.717214 4.94455ZM 0 7.01116L -1 7.01116L -1 7.0285L -0.999398 7.04584L 0 7.01116ZM 28.8081 28.7105L 29.0052 29.6909L 29.0335 29.6852L 29.0615 29.6779L 28.8081 28.7105ZM 30.7207 27.4476L 29.9842 26.771L 29.9279 26.8324L 29.8825 26.9022L 30.7207 27.4476ZM 33.8286 23.7736L 33.0463 23.1507L 33.0399 23.1587L 33.0338 23.1668L 33.8286 23.7736ZM 26.6565 17.1145L 26.2235 18.016L 26.2633 18.0351L 26.3046 18.0506L 26.6565 17.1145ZM 23.1899 18.9515L 24.0248 19.5021L 24.0319 19.491L 23.1899 18.9515ZM 11.8095 10.6027C 12.5277 9.91291 13.1305 9.11916 13.4109 8.27282C 13.7065 7.38028 13.6408 6.40682 12.9698 5.57816L 11.4155 6.8368C 11.5812 7.04144 11.635 7.27349 11.5123 7.64388C 11.3743 8.06046 11.0209 8.58704 10.4241 9.16022L 11.8095 10.6027ZM 13.0008 5.6185C 12.2545 4.59449 10.8175 2.20851 9.22457 0.678538C 8.41965 -0.0945704 7.42802 -0.804896 6.29938 -0.966137C 5.07154 -1.14155 3.92191 -0.640252 2.94436 0.507314L 4.46685 1.80424C 5.10303 1.05742 5.61196 0.955963 6.01653 1.01376C 6.52029 1.08573 7.13493 1.44458 7.83915 2.12097C 9.2645 3.48999 10.4573 5.52424 11.3845 6.79646L 13.0008 5.6185ZM 2.9595 0.489948C 2.2168 1.32219 1.45154 2.29315 0.877659 3.04742C 0.589345 3.42636 0.346537 3.75431 0.175538 3.9879C 0.0899982 4.10475 0.0223186 4.19813 -0.0242208 4.26265C -0.0474933 4.29491 -0.0654882 4.31996 -0.0777957 4.33713C -0.0839497 4.34572 -0.0886827 4.35234 -0.0919434 4.3569C -0.0935738 4.35918 -0.0948362 4.36095 -0.0957242 4.3622C -0.0961682 4.36282 -0.0965186 4.36331 -0.0967746 4.36367C -0.0969027 4.36385 -0.0970071 4.364 -0.0970878 4.36411C -0.0971282 4.36417 -0.097171 4.36423 -0.0971911 4.36425C -0.0972279 4.36431 -0.0972588 4.36435 0.717214 4.94455C 1.53169 5.52475 1.53167 5.52478 1.53165 5.5248C 1.53166 5.52479 1.53165 5.5248 1.53166 5.52479C 1.53167 5.52478 1.53171 5.52472 1.53177 5.52464C 1.53189 5.52447 1.53211 5.52416 1.53242 5.52373C 1.53303 5.52287 1.53402 5.52148 1.53537 5.51959C 1.53808 5.5158 1.54225 5.50997 1.54783 5.50219C 1.55898 5.48662 1.57578 5.46324 1.5978 5.43271C 1.64184 5.37166 1.70677 5.28206 1.78933 5.16929C 1.95452 4.94363 2.18986 4.62576 2.46934 4.25843C 3.03105 3.52016 3.75998 2.59673 4.45171 1.82161L 2.9595 0.489948ZM 0.717214 4.94455C 0.0245029 4.22334 0.024148 4.22368 0.0237906 4.22402C 0.0236676 4.22414 0.023307 4.22449 0.0230611 4.22472C 0.0225691 4.2252 0.0220658 4.22568 0.0215511 4.22618C 0.0205219 4.22718 0.0194474 4.22822 0.0183286 4.22932C 0.016091 4.2315 0.0136755 4.23387 0.0110882 4.23644C 0.00591398 4.24157 4.97997e-05 4.24746 -0.00645554 4.25413C -0.0194628 4.26746 -0.0350554 4.28387 -0.0528392 4.3034C -0.0883802 4.34241 -0.132848 4.394 -0.183024 4.45826C -0.283237 4.5866 -0.407316 4.76685 -0.528401 4.99945C -0.772373 5.46811 -1 6.14202 -1 7.01116L 1 7.01116C 1 6.50256 1.13098 6.14317 1.24562 5.92296C 1.30383 5.81112 1.35906 5.73305 1.39332 5.68917C 1.41039 5.66732 1.42195 5.65433 1.42563 5.65029C 1.42746 5.64828 1.42728 5.64856 1.42477 5.65112C 1.42352 5.6524 1.42168 5.65426 1.41922 5.6567C 1.41799 5.65792 1.41661 5.65929 1.41506 5.6608C 1.41429 5.66155 1.41347 5.66234 1.41262 5.66317C 1.41219 5.66359 1.41175 5.66401 1.4113 5.66444C 1.41108 5.66466 1.41073 5.66499 1.41062 5.6651C 1.41027 5.66543 1.40992 5.66577 0.717214 4.94455ZM -0.999398 7.04584C -0.900335 9.90029 0.417473 12.8669 2.39319 15.6328C 4.37793 18.4113 7.08173 21.0658 10.0846 23.3115C 13.088 25.5576 16.4212 27.4177 19.6831 28.5863C 22.9309 29.7499 26.1901 30.2568 29.0052 29.6909L 28.611 27.7301C 26.2861 28.1975 23.419 27.8003 20.3576 26.7035C 17.3103 25.6118 14.1512 23.8553 11.2824 21.7099C 8.41308 19.564 5.86478 17.052 4.02064 14.4703C 2.16749 11.8759 1.07964 9.28853 0.999398 6.97647L -0.999398 7.04584ZM 29.0615 29.6779C 29.8972 29.4589 30.509 29.0561 30.9134 28.7047C 31.1155 28.529 31.2679 28.3645 31.3736 28.2383C 31.4265 28.175 31.4682 28.1209 31.4988 28.0791C 31.5142 28.0581 31.5268 28.0403 31.5368 28.0258C 31.5418 28.0186 31.5461 28.0122 31.5498 28.0067C 31.5516 28.0039 31.5533 28.0014 31.5548 27.9991C 31.5555 27.998 31.5563 27.9969 31.5569 27.9959C 31.5573 27.9954 31.5576 27.9949 31.5579 27.9944C 31.5581 27.9941 31.5583 27.9938 31.5584 27.9937C 31.5586 27.9933 31.5588 27.993 30.7207 27.4476C 29.8825 26.9022 29.8827 26.9018 29.8829 26.9015C 29.883 26.9014 29.8832 26.901 29.8834 26.9008C 29.8836 26.9004 29.8839 26.9 29.8842 26.8996C 29.8847 26.8988 29.8852 26.898 29.8857 26.8973C 29.8866 26.8959 29.8874 26.8947 29.888 26.8937C 29.8894 26.8917 29.8902 26.8906 29.8905 26.8901C 29.8911 26.8893 29.8896 26.8915 29.886 26.8963C 29.8788 26.9061 29.8635 26.9264 29.8399 26.9546C 29.7924 27.0114 29.7132 27.098 29.6015 27.195C 29.3783 27.389 29.0339 27.6176 28.5547 27.7431L 29.0615 29.6779ZM 30.7207 27.4476C 31.4571 28.1241 31.4571 28.1241 31.4572 28.124C 31.4572 28.124 31.4572 28.1239 31.4573 28.1239C 31.4574 28.1238 31.4575 28.1237 31.4576 28.1235C 31.4579 28.1232 31.4583 28.1228 31.4588 28.1222C 31.4598 28.1211 31.4612 28.1196 31.4631 28.1176C 31.4668 28.1135 31.4722 28.1076 31.4792 28.1C 31.4932 28.0846 31.5137 28.0622 31.5401 28.0332C 31.5929 27.9751 31.6694 27.8907 31.7651 27.7841C 31.9565 27.5712 32.2252 27.2695 32.5355 26.9133C 33.1538 26.2036 33.9469 25.2665 34.6234 24.3805L 33.0338 23.1668C 32.3954 24.0029 31.6345 24.9028 31.0275 25.5995C 30.7252 25.9465 30.4635 26.2404 30.2776 26.4472C 30.1847 26.5506 30.1109 26.6321 30.0605 26.6875C 30.0353 26.7152 30.016 26.7364 30.0031 26.7505C 29.9966 26.7575 29.9918 26.7628 29.9886 26.7663C 29.987 26.768 29.9859 26.7693 29.9851 26.7701C 29.9848 26.7705 29.9845 26.7707 29.9844 26.7709C 29.9843 26.771 29.9842 26.771 29.9842 26.7711C 29.9842 26.7711 29.9842 26.7711 29.9842 26.7711C 29.9842 26.7711 29.9842 26.771 30.7207 27.4476ZM 34.6109 24.3965C 35.5482 23.2192 35.8209 21.993 35.3246 20.8371C 34.8798 19.8011 33.9025 19.0509 32.9342 18.499C 31.9352 17.9295 30.7646 17.4716 29.7062 17.0988C 28.5828 16.7031 27.7027 16.4395 27.0083 16.1785L 26.3046 18.0506C 26.9849 18.3063 28.0771 18.6454 29.0418 18.9852C 30.0715 19.3479 31.1049 19.7583 31.9438 20.2365C 32.8134 20.7322 33.3078 21.2091 33.4868 21.6261C 33.6144 21.9233 33.6629 22.3762 33.0463 23.1507L 34.6109 24.3965ZM 27.0894 16.2131C 26.1223 15.7487 25.141 15.9267 24.3342 16.3916C 23.5518 16.8425 22.8784 17.5841 22.3479 18.4121L 24.0319 19.491C 24.4577 18.8265 24.9199 18.3625 25.3328 18.1245C 25.7214 17.9006 25.9952 17.9063 26.2235 18.016L 27.0894 16.2131ZM 22.3551 18.401C 22.2724 18.5264 22.1289 18.641 21.7888 18.6795C 21.422 18.721 20.9016 18.6588 20.2394 18.4525C 18.9222 18.0421 17.3177 17.1489 15.8267 16.0282C 14.3348 14.9067 13.046 13.6246 12.3116 12.4967C 11.9419 11.929 11.7566 11.4667 11.7089 11.1294C 11.6662 10.8276 11.7348 10.6816 11.8378 10.5744L 10.3958 9.18851C 9.78165 9.82755 9.61863 10.6324 9.72862 11.4096C 9.83358 12.1514 10.1852 12.8964 10.6355 13.588C 11.541 14.9787 13.0239 16.4234 14.625 17.6269C 16.227 18.8311 18.0367 19.861 19.6444 20.3619C 20.4447 20.6113 21.2643 20.7517 22.014 20.6668C 22.7904 20.5788 23.5396 20.2377 24.0248 19.502L 22.3551 18.401Z"/>
</defs>
</svg>
