<svg width="20" height="20" viewBox="0 0 20 20" version="1.1" xmlns="http://www.w3.org/2000/svg" xmlns:xlink="http://www.w3.org/1999/xlink">
<title>telegram</title>
<desc>Created using Figma</desc>
<g id="Canvas" transform="translate(-23399 732)">
<g id="telegram">
<g id="Vector">
<use xlink:href="#path0_fill" transform="translate(23399 -732)"/>
</g>
</g>
</g>
<defs>
<path id="path0_fill" d="M 13.3881 7.09293L 8.93397 11.2332C 8.77746 11.3786 8.67633 11.574 8.64774 11.7857L 8.49617 12.91C 8.47598 13.06 8.26491 13.075 8.22353 12.9295L 7.64002 10.8794C 7.57342 10.6454 7.67051 10.3956 7.87763 10.268L 13.2747 6.94375C 13.3715 6.88417 13.4715 7.01546 13.3881 7.09293ZM 16 0C 18.2091 0 20 1.79086 20 4L 20 16C 20 18.2091 18.2091 20 16 20L 4 20C 1.79086 20 0 18.2091 0 16L 0 4C 0 1.79086 1.79086 0 4 0L 16 0ZM 15.5493 4.80502L 4.21607 9.17702C 3.93667 9.28482 3.93881 9.68092 4.21936 9.78567L 6.98076 10.8165L 8.04971 14.2539C 8.1182 14.4741 8.38754 14.5553 8.56622 14.4095L 10.1055 13.1547C 10.2669 13.0231 10.4965 13.0167 10.665 13.139L 13.4415 15.1548C 13.6327 15.2936 13.9034 15.189 13.9515 14.9577L 15.9851 5.17483C 16.0376 4.92255 15.7898 4.71222 15.5493 4.80502Z"/>
</defs>
</svg>
