<svg width="60" height="60" viewBox="0 0 60 60" version="1.1" xmlns="http://www.w3.org/2000/svg" xmlns:xlink="http://www.w3.org/1999/xlink">
<title>Group 32</title>
<desc>Created using Figma</desc>
<g id="Canvas" transform="translate(-4661 2419)">
<g id="Group 32">
<g id="Ellipse">
<use xlink:href="#path0_fill" transform="translate(4661 -2419)" fill="#FFFFFF"/>
<mask id="mask0_outline_ins">
<use xlink:href="#path0_fill" fill="white" transform="translate(4661 -2419)"/>
</mask>
<g mask="url(#mask0_outline_ins)">
<use xlink:href="#path1_stroke_2x" transform="translate(4661 -2419)"/>
</g>
</g>
<g id="Group 31.1">
<g id="Vector">
<use xlink:href="#path2_fill" transform="translate(4700.1 -2383.06)"/>
</g>
<g id="Vector">
<use xlink:href="#path3_fill" transform="translate(4700.1 -2401)"/>
</g>
<g id="Vector">
<use xlink:href="#path4_fill" transform="translate(4702.93 -2401)"/>
</g>
<g id="Vector">
<use xlink:href="#path5_fill" transform="translate(4679.88 -2401)"/>
</g>
<g id="Vector">
<use xlink:href="#path6_fill" transform="translate(4673 -2401)"/>
</g>
<g id="Vector">
<use xlink:href="#path7_fill" transform="translate(4679.88 -2383.06)"/>
</g>
<g id="Vector">
<use xlink:href="#path8_fill" transform="translate(4689.18 -2389.66)"/>
</g>
<g id="Vector">
<use xlink:href="#path9_fill" transform="translate(4694.13 -2389.11)"/>
</g>
<g id="Vector">
<use xlink:href="#path10_fill" transform="translate(4698.08 -2388.55)"/>
</g>
<g id="Vector">
<use xlink:href="#path11_fill" transform="translate(4685.45 -2389.11)"/>
</g>
<g id="Vector">
<use xlink:href="#path10_fill" transform="translate(4682.71 -2388.55)"/>
</g>
</g>
</g>
</g>
<defs>
<path id="path0_fill" d="M 60 30C 60 46.5685 46.5685 60 30 60C 13.4315 60 0 46.5685 0 30C 0 13.4315 13.4315 0 30 0C 46.5685 0 60 13.4315 60 30Z"/>
<path id="path1_stroke_2x" d="M 59 30C 59 46.0163 46.0163 59 30 59L 30 61C 47.1208 61 61 47.1208 61 30L 59 30ZM 30 59C 13.9837 59 1 46.0163 1 30L -1 30C -1 47.1208 12.8792 61 30 61L 30 59ZM 1 30C 1 13.9837 13.9837 1 30 1L 30 -1C 12.8792 -1 -1 12.8792 -1 30L 1 30ZM 30 1C 46.0163 1 59 13.9837 59 30L 61 30C 61 12.8792 47.1208 -1 30 -1L 30 1Z"/>
<path id="path2_fill" fill-rule="evenodd" d="M 0.771344 0.239605L 0.247138 0.754594C 0.0829188 0.915403 2.22188e-07 1.1136 2.22188e-07 1.34275L 2.22188e-07 6.64462C 2.22188e-07 6.86171 0.0736141 7.04825 0.222058 7.20745L 0.767301 7.79159C 0.930307 7.96687 1.1374 8.05692 1.37766 8.05692L 2.0224 8.05652L 2.0224 -7.36124e-07C 1.81935 -7.36124e-07 1.59891 0.000402599 1.35663 0.000402599C 1.1289 0.000402599 0.933136 0.0800019 0.771344 0.239605Z"/>
<path id="path3_fill" fill-rule="evenodd" d="M 0.767706 0.264932L 0.222059 0.850276C 0.0736143 1.00907 4.44376e-07 1.19521 4.44376e-07 1.4123L 4.44376e-07 6.66995C 4.44376e-07 6.92523 0.104357 7.14554 0.302552 7.30796L 0.783882 7.70314C 0.939203 7.83058 1.11232 7.8925 1.31375 7.8925C 1.57303 7.8925 1.80722 7.8925 2.022 7.8929L 2.022 -1.77897e-07L 1.37766 -1.77897e-07C 1.13821 -1.77897e-07 0.931116 0.0896509 0.767706 0.264932Z"/>
<path id="path4_fill" fill-rule="evenodd" d="M 6.06761 12.7168L 6.06761 12.7119C 6.06761 7.55721 3.55741 -1.77897e-07 0.734942 -1.77897e-07L 4.44376e-07 -1.77897e-07L 4.44376e-07 7.8929C 0.174736 7.8933 0.326012 7.8933 0.449378 7.8937C 0.718358 7.8941 0.949721 8.00908 1.11273 8.22256L 1.45492 8.67322C 1.56858 8.82318 1.62318 8.98439 1.62318 9.17173L 1.62318 12.9813L 1.62399 12.9813L 1.62399 16.5062C 1.62399 16.6698 1.58314 16.8101 1.49536 16.9484L 1.10909 17.5563C 0.951742 17.8027 0.700155 17.941 0.406907 17.9418C 0.292439 17.9418 0.155321 17.9418 0.000404703 17.9422L 0.000404703 25.9992L 0.736559 25.9988C 3.55862 25.9988 6.06883 18.0351 6.06883 12.88L 6.06761 12.7168Z"/>
<path id="path5_fill" fill-rule="evenodd" d="M 1.23852 7.70355L 1.72026 7.30836C 1.91805 7.14594 2.0224 6.92563 2.0224 6.67035L 2.0224 1.4123C 2.0224 1.19521 1.94879 1.00908 1.80034 0.850276L 1.2547 0.264933C 1.09129 0.0896511 0.884599 4.29406e-08 0.644338 4.29406e-08L 0 4.29406e-08L 0 7.89249C 0.214779 7.89249 0.448973 7.8925 0.708245 7.89209C 0.910081 7.8925 1.0832 7.83099 1.23852 7.70355Z"/>
<path id="path6_fill" fill-rule="evenodd" d="M 0.000808932 12.7115L 0.000808932 12.7164L 2.93165e-08 12.8796C 2.93165e-08 18.0347 2.5098 25.9984 5.33186 25.9984L 6.06802 25.9988L 6.06802 17.9418C 5.9131 17.9414 5.77598 17.9414 5.66152 17.9414C 5.36786 17.9406 5.11628 17.8023 4.95934 17.5559L 4.57306 16.948C 4.48488 16.8097 4.44443 16.6698 4.44443 16.5058L 4.44443 12.9809L 4.44565 12.9809L 4.44565 9.17133C 4.44565 8.98398 4.50025 8.82237 4.61391 8.67282L 4.9561 8.22215C 5.1183 8.00828 5.35007 7.8937 5.61905 7.8933C 5.74282 7.8933 5.89409 7.8929 6.06842 7.8925L 6.06842 3.68062e-07L 5.33348 3.68062e-07C 2.51061 3.68062e-07 0.000808932 7.55681 0.000808932 12.7115Z"/>
<path id="path7_fill" fill-rule="evenodd" d="M 1.25025 0.239605C 1.08886 0.0804039 0.893094 0.000402599 0.665775 0.000402599C 0.423087 0.000402599 0.202645 -7.36124e-07 3.2711e-07 -7.36124e-07L 3.2711e-07 8.05652L 0.644742 8.05692C 0.885004 8.05692 1.09169 7.96647 1.2551 7.79159L 1.80075 7.20745C 1.94919 7.04825 2.02281 6.86171 2.02281 6.64462L 2.02281 1.34275C 2.02281 1.1136 1.93989 0.915403 1.77567 0.754594L 1.25025 0.239605Z"/>
<path id="path8_fill" d="M 1.82016 3.6182C 2.82541 3.6182 3.64033 2.80824 3.64033 1.8091C 3.64033 0.809962 2.82541 0 1.82016 0C 0.814914 0 0 0.809962 0 1.8091C 0 2.80824 0.814914 3.6182 1.82016 3.6182Z"/>
<path id="path9_fill" d="M 1.21344 2.41213C 1.88361 2.41213 2.42688 1.87216 2.42688 1.20607C 2.42688 0.539974 1.88361 0 1.21344 0C 0.543276 0 0 0.539974 0 1.20607C 0 1.87216 0.543276 2.41213 1.21344 2.41213Z"/>
<path id="path10_fill" d="M 0.606721 1.20607C 0.941804 1.20607 1.21344 0.936078 1.21344 0.603032C 1.21344 0.269986 0.941804 0 0.606721 0C 0.271638 0 0 0.269986 0 0.603032C 0 0.936078 0.271638 1.20607 0.606721 1.20607Z"/>
<path id="path11_fill" d="M 1.21344 2.41213C 1.88361 2.41213 2.42688 1.87216 2.42688 1.20607C 2.42688 0.539974 1.88361 0 1.21344 0C 0.543277 0 0 0.539974 0 1.20607C 0 1.87216 0.543277 2.41213 1.21344 2.41213Z"/>
</defs>
</svg>
