<svg width="76" height="76" viewBox="0 0 76 76" version="1.1" xmlns="http://www.w3.org/2000/svg" xmlns:xlink="http://www.w3.org/1999/xlink">
<title>tv</title>
<desc>Created using Figma</desc>
<g id="Canvas" transform="translate(-8474 4659)">
<g id="tv">
<g id="Ellipse">
<use xlink:href="#path0_fill" transform="translate(8474 -4659)" fill="#F2F8FA"/>
</g>
<g id="Group 33">
<g id="Group 32">
<g id="Vector">
<use xlink:href="#path1_fill" transform="matrix(-0.862076 0.506779 0.493252 0.869887 8512.23 -4617.06)"/>
</g>
<g id="Vector">
<use xlink:href="#path2_fill" transform="matrix(-0.862076 0.506779 0.493252 0.869887 8508.29 -4624)"/>
</g>
<g id="Vector">
<mask id="mask0_outline_ins">
<use xlink:href="#path3_fill" fill="white" transform="matrix(-0.862076 0.506779 0.493252 0.869887 8507.25 -4623.38)"/>
</mask>
<g mask="url(#mask0_outline_ins)">
<use xlink:href="#path4_stroke_2x" transform="matrix(-0.862076 0.506779 0.493252 0.869887 8507.25 -4623.38)"/>
</g>
</g>
</g>
<g id="noun_1038986_cc">
<g id="Vector">
<use xlink:href="#path5_fill" transform="translate(8498 -4637)"/>
</g>
</g>
</g>
</g>
</g>
<defs>
<path id="path0_fill" d="M 76 38C 76 58.9868 58.9868 76 38 76C 17.0132 76 0 58.9868 0 38C 0 17.0132 17.0132 0 38 0C 58.9868 0 76 17.0132 76 38Z"/>
<path id="path1_fill" fill-rule="evenodd" d="M 0.331197 0.106614L 0.106115 0.335762C 0.0356034 0.407315 9.54023e-08 0.495505 9.54023e-08 0.597468L 9.54023e-08 2.95657C 9.54023e-08 3.05317 0.0316082 3.13617 0.0953467 3.20701L 0.329461 3.46692C 0.399452 3.54492 0.488373 3.58499 0.591535 3.58499L 0.868373 3.58481L 0.868373 -3.27544e-07C 0.781188 -3.27544e-07 0.686535 0.000179139 0.582504 0.000179139C 0.484725 0.000179139 0.400667 0.0355974 0.331197 0.106614Z"/>
<path id="path2_fill" fill-rule="evenodd" d="M 0.329635 0.117884L 0.0953468 0.378337C 0.0316083 0.448995 1.90805e-07 0.531818 1.90805e-07 0.628415L 1.90805e-07 2.96784C 1.90805e-07 3.08143 0.0448084 3.17946 0.129909 3.25173L 0.336581 3.42757C 0.403272 3.48428 0.477605 3.51182 0.564095 3.51182C 0.675421 3.51182 0.775978 3.51182 0.868199 3.512L 0.868199 -7.91564e-08L 0.591535 -7.91564e-08C 0.48872 -7.91564e-08 0.399799 0.0398908 0.329635 0.117884Z"/>
<path id="path3_fill" fill-rule="evenodd" d="M 2.60529 5.65841L 2.60529 5.65627C 2.60529 3.36263 1.52747 0 0.315567 0L 0 0L 0 3.512C 0.0750274 3.51218 0.139982 3.51218 0.192952 3.51236C 0.308446 3.51254 0.407788 3.5637 0.477779 3.65869L 0.624707 3.85921C 0.67351 3.92594 0.696956 3.99767 0.696956 4.08103L 0.696956 5.77612L 0.697303 5.77612L 0.697303 7.34456C 0.697303 7.41737 0.679762 7.4798 0.642075 7.54133L 0.476215 7.8118C 0.408656 7.92146 0.30063 7.98299 0.174716 7.98335C 0.125566 7.98335 0.0666909 7.98335 0.000173579 7.98353L 0.000173579 11.5685L 0.316261 11.5683C 1.52799 11.5683 2.60581 8.02485 2.60581 5.73104L 2.60529 5.65841Z"/>
<path id="path4_stroke_2x" d="M 2.60529 5.65841L 2.10528 5.65841L 2.1053 5.662L 2.60529 5.65841ZM 0 0L 0 -0.5L -0.5 -0.5L -0.5 0L 0 0ZM 0 3.512L -0.5 3.512L -0.5 4.01081L -0.00119211 4.012L 0 3.512ZM 0.192952 3.51236L 0.191264 4.01236L 0.192178 4.01236L 0.192952 3.51236ZM 0.477779 3.65869L 0.881102 3.36317L 0.880305 3.36208L 0.477779 3.65869ZM 0.624707 3.85921L 1.02828 3.56403L 1.02803 3.56369L 0.624707 3.85921ZM 0.696956 5.77612L 0.196956 5.77612L 0.196956 6.27612L 0.696956 6.27612L 0.696956 5.77612ZM 0.697303 5.77612L 1.1973 5.77612L 1.1973 5.27612L 0.697303 5.27612L 0.697303 5.77612ZM 0.642075 7.54133L 1.06831 7.80271L 1.06846 7.80247L 0.642075 7.54133ZM 0.476215 7.8118L 0.901908 8.07407L 0.902455 8.07318L 0.476215 7.8118ZM 0.174716 7.98335L 0.174716 8.48335L 0.176137 8.48335L 0.174716 7.98335ZM 0.000173579 7.98353L -0.00117105 7.48353L -0.499826 7.48487L -0.499826 7.98353L 0.000173579 7.98353ZM 0.000173579 11.5685L -0.499826 11.5685L -0.499826 12.0688L 0.00045568 12.0685L 0.000173579 11.5685ZM 0.316261 11.5683L 0.316261 11.0683L 0.315979 11.0683L 0.316261 11.5683ZM 2.60581 5.73104L 3.10583 5.73104L 3.1058 5.72745L 2.60581 5.73104ZM 3.10529 5.65841L 3.10529 5.65627L 2.10529 5.65627L 2.10529 5.65841L 3.10529 5.65841ZM 3.10529 5.65627C 3.10529 4.44491 2.82338 2.97172 2.3833 1.79312C 2.16357 1.20464 1.89412 0.661445 1.58015 0.255401C 1.28019 -0.13253 0.856364 -0.5 0.315567 -0.5L 0.315567 0.5C 0.38072 0.5 0.546082 0.55286 0.789061 0.867098C 1.01803 1.16322 1.24527 1.60404 1.44648 2.14292C 1.84829 3.21904 2.10529 4.57399 2.10529 5.65627L 3.10529 5.65627ZM 0.315567 -0.5L 0 -0.5L 0 0.5L 0.315567 0.5L 0.315567 -0.5ZM -0.5 0L -0.5 3.512L 0.5 3.512L 0.5 0L -0.5 0ZM -0.00119211 4.012C 0.076166 4.01218 0.137955 4.01218 0.191264 4.01236L 0.194641 3.01236C 0.142008 3.01218 0.0738888 3.01218 0.00119211 3.012L -0.00119211 4.012ZM 0.192178 4.01236C 0.174728 4.01233 0.149815 4.00801 0.123833 3.99465C 0.0981186 3.98143 0.0824963 3.96512 0.0752522 3.95529L 0.880305 3.36208C 0.718987 3.14315 0.472402 3.01279 0.193727 3.01236L 0.192178 4.01236ZM 0.074457 3.9542L 0.221386 4.15473L 1.02803 3.56369L 0.8811 3.36317L 0.074457 3.9542ZM 0.221137 4.15439C 0.217006 4.14874 0.209511 4.13651 0.203755 4.11885C 0.198009 4.10123 0.196956 4.08728 0.196956 4.08103L 1.19696 4.08103C 1.19696 3.89197 1.13999 3.71677 1.02828 3.56403L 0.221137 4.15439ZM 0.196956 4.08103L 0.196956 5.77612L 1.19696 5.77612L 1.19696 4.08103L 0.196956 4.08103ZM 0.696956 6.27612L 0.697303 6.27612L 0.697303 5.27612L 0.696956 5.27612L 0.696956 6.27612ZM 0.197303 5.77612L 0.197303 7.34456L 1.1973 7.34456L 1.1973 5.77612L 0.197303 5.77612ZM 0.197303 7.34456C 0.197303 7.33984 0.198004 7.3278 0.202433 7.31202C 0.206878 7.29619 0.212696 7.28508 0.215688 7.28019L 1.06846 7.80247C 1.15467 7.66171 1.1973 7.5088 1.1973 7.34456L 0.197303 7.34456ZM 0.215835 7.27995L 0.0499757 7.55042L 0.902455 8.07318L 1.06831 7.80271L 0.215835 7.27995ZM 0.0505236 7.54953C 0.0578525 7.53763 0.0735186 7.5191 0.100024 7.50402C 0.126797 7.48878 0.153545 7.48341 0.173295 7.48335L 0.176137 8.48335C 0.480165 8.48248 0.746284 8.32666 0.901907 8.07407L 0.0505236 7.54953ZM 0.174716 7.48335C 0.125587 7.48335 0.0660974 7.48335 -0.00117105 7.48353L 0.00151821 8.48353C 0.0672845 8.48335 0.125545 8.48335 0.174716 8.48335L 0.174716 7.48335ZM -0.499826 7.98353L -0.499826 11.5685L 0.500174 11.5685L 0.500174 7.98353L -0.499826 7.98353ZM 0.00045568 12.0685L 0.316543 12.0683L 0.315979 11.0683L -0.000108521 11.0685L 0.00045568 12.0685ZM 0.316261 12.0683C 0.868299 12.0683 1.29294 11.6751 1.5876 11.2756C 1.89919 10.8531 2.16718 10.2885 2.38603 9.6788C 2.82432 8.45782 3.10581 6.9414 3.10581 5.73104L 2.10581 5.73104C 2.10581 6.81449 1.84839 8.21672 1.44484 9.34094C 1.24277 9.90385 1.01411 10.3684 0.782807 10.682C 0.53457 11.0186 0.370088 11.0683 0.316261 11.0683L 0.316261 12.0683ZM 3.1058 5.72745L 3.10528 5.65483L 2.1053 5.662L 2.10583 5.73463L 3.1058 5.72745Z"/>
<path id="path5_fill" d="M 26.8 7.86844L 1.2 7.86844C 0.55 7.86844 0 8.41799 0 9.06744L 0 28.801C 0 29.4505 0.55 30 1.2 30L 26.8 30C 27.45 30 28 29.4505 28 28.801L 28 9.06744C 28 8.36803 27.45 7.86844 26.8 7.86844ZM 21.55 28.2015L 1.8 28.2015L 1.8 9.61699L 21.55 9.61699L 21.55 28.2015ZM 26.15 19.6586L 23.6 19.6586L 23.6 18.9092L 26.15 18.9092L 26.15 19.6586ZM 24.85 17.6103C 24.15 17.6103 23.55 17.0608 23.55 16.3614C 23.55 15.6619 24.15 15.1124 24.85 15.1124C 25.55 15.1124 26.15 15.6619 26.15 16.3614C 26.15 17.0608 25.55 17.6103 24.85 17.6103ZM 24.85 14.1632C 24.15 14.1632 23.55 13.6137 23.55 12.9142C 23.55 12.2148 24.15 11.6653 24.85 11.6653C 25.55 11.6653 26.15 12.2148 26.15 12.9142C 26.15 13.5637 25.55 14.1632 24.85 14.1632ZM 12.55 7.16903L 5.4 0.474604C 5.3 0.374687 5.3 0.174854 5.4 0.0749376C 5.5 -0.0249792 5.7 -0.0249792 5.8 0.0749376L 12.95 6.76936C 13.25 6.56952 13.6 6.41965 14 6.41965C 14.4 6.41965 14.7 6.51957 15 6.7194L 21.2 1.27394C 21.3 1.17402 21.5 1.17402 21.6 1.27394C 21.7 1.37385 21.7 1.57369 21.6 1.6736L 15.45 7.11907C 15.55 7.26894 15.6 7.41882 15.7 7.56869L 12.4 7.56869C 12.4 7.41882 12.45 7.3189 12.55 7.16903Z"/>
</defs>
</svg>
