<svg width="20" height="20" viewBox="0 0 20 20" version="1.1" xmlns="http://www.w3.org/2000/svg" xmlns:xlink="http://www.w3.org/1999/xlink">
<title>viber</title>
<desc>Created using Figma</desc>
<g id="Canvas" transform="translate(-23360 732)">
<g id="viber">
<g id="Group">
<g id="Vector">
<use xlink:href="#path0_fill" transform="translate(23364.6 -727.659)"/>
</g>
<g id="Vector">
<use xlink:href="#path1_fill" transform="translate(23360 -732)"/>
</g>
</g>
</g>
</g>
<defs>
<path id="path0_fill" d="M 8.42975 0.283391C 6.44349 -0.0944638 4.42915 -0.0944638 2.44245 0.283391C 1.57352 0.476926 0.480327 1.52447 0.266605 2.36708C -0.0888682 3.99742 -0.0888682 5.65015 0.266605 7.2805C 0.480327 8.1231 1.57352 9.17065 2.44245 9.36419C 2.44267 9.36423 2.44289 9.36427 2.44311 9.36432C 2.48181 9.37191 2.51003 9.40544 2.51003 9.44489L 2.51003 11.8332C 2.51003 11.9526 2.65573 12.0114 2.73868 11.925L 3.87312 10.7607C 3.87312 10.7607 4.77712 9.83267 4.93967 9.66581C 4.95555 9.64949 4.9775 9.64067 5.00023 9.64128C 6.1456 9.67301 7.2922 9.5805 8.42975 9.36423C 9.29869 9.1707 10.3923 8.12315 10.6056 7.28054C 10.9615 5.6502 10.9615 3.99747 10.6056 2.36712C 10.3923 1.52447 9.29913 0.476926 8.42975 0.283391ZM 8.46003 7.40211C 8.28625 7.7711 8.03338 8.07808 7.6686 8.27403C 7.56569 8.32932 7.44268 8.34718 7.32652 8.38295C 7.19293 8.3424 7.06562 8.31515 6.94739 8.26608C 5.72228 7.7578 4.59477 7.10206 3.70166 6.09686C 3.19377 5.52526 2.79621 4.87992 2.46022 4.19697C 2.30087 3.8731 2.16658 3.53654 2.02971 3.20217C 1.90485 2.89726 2.08873 2.58225 2.28231 2.35251C 2.46395 2.1369 2.69769 1.97189 2.95082 1.85028C 3.14839 1.75536 3.34329 1.81008 3.48758 1.97755C 3.79952 2.3396 4.08605 2.72018 4.31807 3.13986C 4.46075 3.39799 4.4216 3.71353 4.16303 3.8892C 4.10018 3.9319 4.04291 3.98202 3.98437 4.03025C 3.93302 4.07251 3.8847 4.11521 3.84951 4.17244C 3.78517 4.27711 3.7821 4.40064 3.82353 4.51448C 4.1424 5.39079 4.67987 6.0722 5.56188 6.43922C 5.70306 6.49793 5.84476 6.56631 6.00736 6.54735C 6.27967 6.51553 6.36784 6.21685 6.55865 6.06079C 6.74516 5.90829 6.98351 5.90627 7.18441 6.03341C 7.38537 6.16059 7.58017 6.29711 7.7738 6.43509C 7.96386 6.57052 8.1531 6.70301 8.32842 6.8574C 8.4969 7.00582 8.55496 7.20059 8.46003 7.40211ZM 6.87822 4.54652C 6.80217 4.54788 6.83206 4.54639 6.86098 4.54555C 6.73841 4.54125 6.67174 4.46911 6.65858 4.3518C 6.64897 4.26609 6.64137 4.17924 6.62092 4.09586C 6.58064 3.93164 6.49335 3.77944 6.35524 3.67882C 6.29003 3.63129 6.21612 3.59662 6.13871 3.57432C 6.04036 3.54593 5.93824 3.55374 5.84011 3.52969C 5.73356 3.50362 5.67462 3.4173 5.69134 3.31733C 5.70657 3.22636 5.79509 3.15535 5.89449 3.16255C 6.51577 3.2074 6.95981 3.52859 7.02318 4.26004C 7.02765 4.31164 7.03292 4.36615 7.02147 4.41552C 7.00286 4.49579 6.9455 4.53757 6.88753 4.54516C 6.89227 4.54525 6.89135 4.54564 6.87822 4.54652ZM 6.4919 2.87365C 6.30126 2.7803 6.09509 2.72229 5.8861 2.6877C 5.79478 2.67261 5.70249 2.66344 5.61072 2.65066C 5.49952 2.63522 5.44018 2.56434 5.44541 2.45476C 5.45032 2.35207 5.52536 2.27821 5.63727 2.28453C 6.00503 2.30542 6.36024 2.38489 6.68719 2.55802C 7.35206 2.91012 7.73184 3.46588 7.8427 4.20799C 7.84774 4.2416 7.85577 4.27491 7.85832 4.30866C 7.86464 4.39195 7.86854 4.47538 7.87495 4.58523C 7.87232 4.60524 7.87091 4.65228 7.85924 4.69661C 7.81672 4.85749 7.5728 4.87764 7.51663 4.71526C 7.5 4.66707 7.49749 4.61226 7.49741 4.56039C 7.49683 4.22098 7.42306 3.88192 7.25191 3.58661C 7.07597 3.28319 6.80713 3.02804 6.4919 2.87365ZM 8.54627 5.16715C 8.41782 5.16868 8.36002 5.06121 8.35168 4.94601C 8.33518 4.71798 8.32377 4.48894 8.2923 4.2628C 8.12642 3.06907 7.17454 2.08147 5.98638 1.86955C 5.80759 1.83764 5.62455 1.82926 5.44347 1.81026C 5.32898 1.79823 5.17902 1.7913 5.15365 1.64898C 5.13237 1.52965 5.23309 1.43464 5.34671 1.42854C 5.3776 1.42687 5.40867 1.42828 5.4397 1.42841C 6.97855 1.47155 5.53362 1.43174 5.44383 1.42863C 7.04442 1.47528 8.35857 2.53819 8.6404 4.12105C 8.68846 4.39099 8.70557 4.66699 8.72695 4.94096C 8.7359 5.05616 8.67064 5.16566 8.54627 5.16715Z"/>
<path id="path1_fill" d="M 4 0C 1.79086 0 0 1.79086 0 4L 0 16C 0 18.2091 1.79086 20 4 20L 16 20C 18.2091 20 20 18.2091 20 16L 20 4C 20 1.79086 18.2091 0 16 0L 4 0ZM 16.3252 11.8834L 16.3213 11.8992C 16.0018 13.1907 14.5615 14.5766 13.2388 14.865L 13.2239 14.868C 12.1544 15.0721 11.077 15.1739 10 15.1739C 9.68304 15.1739 9.36605 15.164 9.04924 15.1463L 7.58851 16.6647C 7.2269 17.0412 6.59099 16.7849 6.59099 16.2631L 6.59099 14.8214C 5.31765 14.4578 3.98459 13.1356 3.67831 11.8991L 3.6748 11.8833C 3.27983 10.0796 3.27983 8.25048 3.6748 6.44679L 3.67831 6.43099C 3.99824 5.13943 5.43856 3.75353 6.76083 3.4652L 6.77619 3.46213C 8.91517 3.05399 11.0844 3.05399 13.2239 3.46213L 13.2388 3.4652C 14.5615 3.75353 16.0018 5.13943 16.3213 6.43099L 16.3252 6.44679C 16.7202 8.25053 16.7202 10.0797 16.3252 11.8834Z"/>
</defs>
</svg>
