<svg width="86" height="76" viewBox="0 0 86 76" version="1.1" xmlns="http://www.w3.org/2000/svg" xmlns:xlink="http://www.w3.org/1999/xlink">
<title>31</title>
<desc>Created using Figma</desc>
<g id="Canvas" transform="translate(-22934 2823)">
<g id="31">
<g id="Group">
<g id="Group">
<g id="Vector">
<use xlink:href="#path0_fill" transform="translate(22934 -2823)" fill="#FFFFFF"/>
</g>
</g>
<g id="Group">
<g id="Vector">
<use xlink:href="#path1_fill" transform="translate(22998.6 -2814.78)" fill="#FFFFFF"/>
</g>
</g>
</g>
</g>
</g>
<defs>
<path id="path0_fill" d="M 42.7133 75.1479C 42.377 75.1479 42.0407 75.013 41.7716 74.7432L 6.79378 39.6652C 2.42154 35.2804 0 29.4116 0 23.2055C 0 16.9994 2.42154 11.198 6.79378 6.81323C 11.166 2.42848 16.9508 1.28665e-07 23.1392 1.28665e-07C 29.3276 1.28665e-07 35.1124 2.42848 39.4846 6.81323L 42.7133 10.0512L 45.9421 6.81323C 50.3143 2.42848 56.0991 1.28665e-07 62.2875 1.28665e-07C 68.4759 1.28665e-07 74.2607 2.42848 78.6329 6.81323C 83.0051 11.198 85.4267 16.9994 85.4267 23.2055C 85.4267 29.4116 83.0051 35.2129 78.6329 39.5977L 43.6551 74.6757C 43.386 74.9456 43.0497 75.1479 42.7133 75.1479ZM 23.1392 2.69831C 17.6907 2.69831 12.5113 4.85696 8.6772 8.70205C 4.84309 12.5471 2.6906 17.7414 2.6906 23.2055C 2.6906 28.6695 4.84309 33.8638 8.6772 37.7089L 42.7133 71.8425L 76.7495 37.7089C 80.5836 33.8638 82.7361 28.6695 82.7361 23.2055C 82.7361 17.7414 80.5836 12.5471 76.7495 8.70205C 72.9154 4.85696 67.736 2.69831 62.2875 2.69831C 56.839 2.69831 51.6596 4.85696 47.8255 8.70205L 43.6551 12.8844C 43.1169 13.4241 42.3098 13.4241 41.7716 12.8844L 37.6012 8.70205C 33.7671 4.85696 28.5877 2.69831 23.1392 2.69831Z"/>
<path id="path1_fill" d="M 11.3109 20.585C 11.2437 20.585 11.1764 20.585 11.1091 20.5176C 10.7728 20.3826 10.571 19.9779 10.7055 19.6406C 12.5217 14.5813 11.2436 8.91483 7.4768 5.1372C 5.59338 3.24838 3.17184 1.89922 0.548498 1.35956C 0.212173 1.2921 -0.0568897 0.954814 0.0103754 0.550068C 0.0776405 0.212779 0.413969 -0.0570516 0.81756 0.0104061C 3.70996 0.617526 6.3333 2.03414 8.41851 4.12533C 12.5217 8.24025 13.9343 14.5138 11.9836 19.9779C 11.7818 20.4501 11.58 20.585 11.3109 20.585Z"/>
</defs>
</svg>
