<svg width="83" height="93" viewBox="0 0 83 93" version="1.1" xmlns="http://www.w3.org/2000/svg" xmlns:xlink="http://www.w3.org/1999/xlink">
<title>50</title>
<desc>Created using Figma</desc>
<g id="Canvas" transform="translate(-22637 2831)">
<g id="50">
<g id="Group">
<g id="Group">
<g id="Vector">
<use xlink:href="#path0_fill" transform="translate(22637 -2820.82)" fill="#FFFFFF"/>
</g>
</g>
<g id="Group">
<g id="Vector">
<use xlink:href="#path1_fill" transform="translate(22650.3 -2807.33)" fill="#FFFFFF"/>
</g>
</g>
<g id="Group">
<g id="Vector">
<use xlink:href="#path2_fill" transform="translate(22664 -2793.72)" fill="#FFFFFF"/>
</g>
</g>
<g id="Group">
<g id="Vector">
<use xlink:href="#path3_fill" transform="translate(22671.5 -2822.49)" fill="#FFFFFF"/>
</g>
</g>
<g id="Group">
<g id="Vector">
<use xlink:href="#path4_fill" transform="translate(22698.3 -2831)" fill="#FFFFFF"/>
</g>
</g>
<g id="Group">
<g id="Vector">
<use xlink:href="#path5_fill" transform="translate(22701.3 -2824)" fill="#FFFFFF"/>
</g>
</g>
<g id="Group">
<g id="Vector">
<use xlink:href="#path6_fill" transform="translate(22651.9 -2754.14)" fill="#FFFFFF"/>
</g>
</g>
<g id="Group">
<g id="Vector">
<use xlink:href="#path7_fill" transform="translate(22677.1 -2754)" fill="#FFFFFF"/>
</g>
</g>
</g>
</g>
</g>
<defs>
<path id="path0_fill" d="M 35.9685 72.1087C 34.0026 72.1087 32.0367 71.9631 30.1436 71.5989C 27.5953 71.1619 25.0469 70.5063 22.6441 69.5594C 18.0571 67.7385 14.0525 65.0435 10.5576 61.5474C 3.78616 54.7735 5.17351e-15 45.7417 5.17351e-15 36.0544C 5.17351e-15 26.4399 3.71335 17.4081 10.5576 10.5614C 17.329 3.78753 26.3575 0 36.0413 0C 45.6523 0 54.6809 3.71469 61.5251 10.5614C 68.2965 17.3352 72.0826 26.367 72.0826 36.0544C 72.0826 45.6689 68.3693 54.7007 61.5251 61.5474C 58.0301 65.0435 53.9527 67.7385 49.4385 69.5594C 47.0357 70.5063 44.5602 71.2347 41.939 71.5989C 39.9003 71.9631 37.9344 72.1087 35.9685 72.1087ZM 35.9685 2.98632C 27.1584 2.98632 18.858 6.40967 12.5963 12.6737C 6.33453 18.9376 2.91243 27.2411 2.91243 36.0544C 2.91243 44.8677 6.33453 53.1711 12.5963 59.4351C 15.7999 62.6399 19.5133 65.1164 23.7363 66.7916C 25.9206 67.6657 28.2506 68.3212 30.6533 68.6854C 34.221 69.2681 37.8616 69.2681 41.4293 68.6854C 43.8321 68.3212 46.0892 67.6657 48.3463 66.7916C 52.4965 65.1164 56.2827 62.6399 59.4864 59.4351C 65.7481 53.1711 69.1702 44.8677 69.1702 36.0544C 69.1702 27.2411 65.7481 18.9376 59.4864 12.6737C 53.1518 6.4825 44.8514 2.98632 35.9685 2.98632Z"/>
<path id="path1_fill" d="M 22.6259 45.2865C 16.5826 45.2865 10.9034 42.9557 6.60757 38.6583C -2.20252 29.845 -2.20252 15.4233 6.60757 6.60997C 15.4177 -2.20332 29.8342 -2.20332 38.6443 6.60997C 42.9401 10.9074 45.2701 16.5887 45.2701 22.6341C 45.2701 28.6796 42.9401 34.3609 38.6443 38.6583C 34.4213 42.9557 28.6692 45.2865 22.6259 45.2865ZM 22.6259 1.3657C 17.1651 1.3657 11.7771 3.40514 7.62692 7.55685C -0.600689 15.8603 -0.600689 29.3351 7.62692 37.6386C 11.6315 41.6446 16.9467 43.8297 22.6259 43.8297C 28.3052 43.8297 33.6204 41.6446 37.6249 37.6386C 41.6295 33.6325 43.8139 28.3154 43.8139 22.6341C 43.8139 16.9528 41.6295 11.6357 37.6249 7.62969C 33.5475 3.47797 28.0867 1.3657 22.6259 1.3657Z"/>
<path id="path2_fill" d="M 8.95572 17.9908C 6.62578 17.9908 4.36864 17.1167 2.62119 15.3686C -0.873728 11.8725 -0.873728 6.11832 2.62119 2.62214C 4.29583 0.946882 6.55297 5.55703e-07 8.95572 5.55703e-07C 11.3585 5.55703e-07 13.6156 0.946882 15.2903 2.62214C 18.7852 6.11832 18.7852 11.8725 15.2903 15.3686C 13.6156 17.1167 11.2857 17.9908 8.95572 17.9908ZM 8.95572 1.45674C 6.91702 1.45674 5.02394 2.25795 3.64054 3.64186C 0.728106 6.55534 0.728106 11.3626 3.64054 14.3489C 6.55296 17.2624 11.3585 17.2624 14.3437 14.3489C 17.2561 11.4354 17.2561 6.62818 14.3437 3.64186C 12.8875 2.25795 10.9944 1.45674 8.95572 1.45674Z"/>
<path id="path3_fill" d="M 1.45622 39.2592C 1.09216 39.2592 0.728107 39.1135 0.436864 38.8222C -0.145621 38.2395 -0.145621 37.3654 0.436864 36.7827L 36.7694 0.437023C 37.3519 -0.145674 38.2256 -0.145674 38.8081 0.437023C 39.3906 1.01972 39.3906 1.89377 38.8081 2.47646L 2.47556 38.8222C 2.25713 39.1135 1.82027 39.2592 1.45622 39.2592Z"/>
<path id="path4_fill" d="M 4.47128 17.9009C 4.39846 17.9009 4.25284 17.9009 4.18003 17.9009C 3.67036 17.8281 3.3063 17.4639 3.08787 17.0269L 0.102632 10.0345C -0.1158 9.45181 0.0298167 8.86911 0.39387 8.43209L 8.40305 0.420008C 8.7671 0.0558229 9.20397 -0.0898513 9.71365 0.0558229C 10.2233 0.12866 10.5874 0.492845 10.8058 0.929868L 13.791 7.92223C 14.0095 8.50493 13.8639 9.08762 13.4998 9.52465L 5.49062 17.5367C 5.27219 17.7552 4.90814 17.9009 4.47128 17.9009ZM 3.23349 9.816L 4.98095 13.9677L 10.8058 8.14074L 9.05835 3.98903L 3.23349 9.816Z"/>
<path id="path5_fill" d="M 8.4646 13.8855C 8.24617 13.8855 8.10054 13.8127 7.88211 13.7399L 0.892282 10.8264C 0.455418 10.6079 0.0913665 10.2437 0.0185558 9.73382C -0.054255 9.22396 0.0913665 8.78694 0.382609 8.42275L 8.39179 0.410667C 8.82865 -0.0263556 9.41114 -0.0991924 9.99362 0.119319L 16.9834 3.10564C 17.4203 3.32415 17.7844 3.68834 17.8572 4.1982C 17.93 4.70806 17.7844 5.14508 17.4931 5.50927L 9.48395 13.5213C 9.19271 13.7399 8.82865 13.8855 8.4646 13.8855ZM 4.02315 9.00545L 8.17336 10.7535L 13.9982 4.92657L 9.848 3.17848L 4.02315 9.00545Z"/>
<path id="path6_fill" d="M 9.68383 15.6272L 1.45621 15.6272C 0.946539 15.6272 0.436865 15.3359 0.218433 14.8989C -0.0728102 14.4618 -0.0728102 13.8791 0.218433 13.4421L 7.13545 0.768468C 7.49951 0.112934 8.30042 -0.178415 8.95572 0.112933C 11.14 0.986978 13.47 1.64252 15.8727 2.0067C 16.3096 2.07954 16.7465 2.37089 16.9649 2.80791C 17.1833 3.24493 17.1833 3.75479 16.9649 4.11897L 11.14 14.7532C 10.7032 15.3359 10.1935 15.6272 9.68383 15.6272ZM 3.85897 12.7138L 8.8101 12.7138L 13.2516 4.556C 11.7953 4.26465 10.3391 3.82763 8.95572 3.31777L 3.85897 12.7138Z"/>
<path id="path7_fill" d="M 15.5997 15.4816L 7.29927 15.4816C 6.7896 15.4816 6.27993 15.1902 5.98868 14.7532L 0.163824 4.11898C -0.0546086 3.68195 -0.0546086 3.17209 0.163824 2.80791C 0.382256 2.37088 0.746312 2.07954 1.25599 2.0067C 3.65874 1.64251 5.91587 0.986982 8.17301 0.112936C 8.8283 -0.178412 9.62922 0.112938 9.99327 0.768472L 16.9103 13.4421C 17.1287 13.8791 17.1287 14.4618 16.9103 14.8989C 16.619 15.1902 16.1094 15.4816 15.5997 15.4816ZM 8.17301 12.5681L 13.1241 12.5681L 8.02738 3.17209C 6.64398 3.68195 5.18776 4.04614 3.73155 4.41033L 8.17301 12.5681Z"/>
</defs>
</svg>
