<svg width="91" height="91" viewBox="0 0 91 91" version="1.1" xmlns="http://www.w3.org/2000/svg" xmlns:xlink="http://www.w3.org/1999/xlink">
<title>Group 2</title>
<desc>Created using Figma</desc>
<g id="Canvas" transform="translate(-23238 2831)">
<g id="Group 2">
<g id="Group">
<g id="Vector">
<use xlink:href="#path0_fill" transform="translate(23238.6 -2761.24)" fill="#FFFFFF"/>
</g>
</g>
<g id="Group">
<g id="Vector">
<use xlink:href="#path1_fill" transform="translate(23271.4 -2831)" fill="#FFFFFF"/>
</g>
</g>
<g id="Group">
<g id="Vector">
<use xlink:href="#path2_fill" transform="translate(23254.4 -2822.54)" fill="#FFFFFF"/>
</g>
</g>
<g id="Group">
<g id="Vector">
<use xlink:href="#path3_fill" transform="translate(23290.6 -2822.54)" fill="#FFFFFF"/>
</g>
</g>
<g id="Group">
<g id="Vector">
<use xlink:href="#path4_fill" transform="translate(23300.9 -2791.24)" fill="#FFFFFF"/>
</g>
</g>
<g id="Group">
<g id="Vector">
<use xlink:href="#path5_fill" transform="translate(23238 -2796.03)" fill="#FFFFFF"/>
</g>
</g>
<g id="Group">
<g id="Vector">
<use xlink:href="#path6_fill" transform="translate(23275.5 -2789.58)" fill="#FFFFFF"/>
</g>
</g>
</g>
</g>
<defs>
<path id="path0_fill" d="M 37.5272 21.2353C 19.3365 21.2353 -1.70748e-08 17.151 -1.70748e-08 9.48411C -1.70748e-08 4.46836 7.94946 1.60222 14.6814 0.0258451C 15.1111 -0.0458085 15.5408 0.0258462 15.8989 0.31246C 22.1296 5.11325 29.6493 7.62112 37.5988 7.62112C 45.5483 7.62112 52.9964 5.11325 59.2987 0.31246C 59.6568 0.0258462 60.0865 -0.0458085 60.5162 0.0258451C 67.1765 1.53057 75.1976 4.46836 75.1976 9.48411C 75.0544 17.151 55.7178 21.2353 37.5272 21.2353ZM 14.6814 3.03529C 6.01581 5.11324 2.86467 7.83608 2.86467 9.55576C 2.86467 13.2817 16.0422 18.4408 37.5272 18.4408C 59.0122 18.4408 72.1897 13.2817 72.1897 9.55576C 72.1897 7.83608 69.1102 5.11324 60.3729 3.03529C 53.7126 7.90773 45.8347 10.4873 37.5272 10.4873C 29.2196 10.4873 21.2702 7.90773 14.6814 3.03529Z"/>
<path id="path1_fill" d="M 5.01317 31.7425C 4.65509 31.7425 4.29701 31.5992 4.01054 31.3126C 3.4376 30.7394 3.4376 29.8079 4.01054 29.3063C 5.65772 27.6583 6.58874 25.5087 6.58874 23.2157C 6.58874 20.9228 5.65772 18.7732 4.01054 17.1252L 3.4376 16.6236C 1.21749 14.474 5.46393e-07 11.6079 5.46393e-07 8.52677C 5.46393e-07 5.44567 1.21749 2.57953 3.4376 0.429921C 4.01054 -0.143307 4.94156 -0.143307 5.44287 0.429921C 6.01581 1.00315 6.01581 1.93465 5.44287 2.43622C 3.79569 4.08425 2.86467 6.23386 2.86467 8.52677C 2.86467 10.8197 3.79569 12.9693 5.44287 14.6173L 6.01581 15.1906C 8.23593 17.3402 9.45341 20.2063 9.45341 23.2874C 9.45341 26.3685 8.23593 29.2346 6.01581 31.3843C 5.72934 31.5992 5.37126 31.7425 5.01317 31.7425Z"/>
<path id="path2_fill" d="M 3.8673 23.2874C 3.50922 23.2874 3.15114 23.1441 2.86467 22.8575C 2.29174 22.2843 2.29174 21.3528 2.86467 20.8512C 3.93892 19.7764 4.58347 18.3433 4.58347 16.8386C 4.58347 15.3339 4.01054 13.9008 2.86467 12.826L 2.50659 12.4677C 0.859401 10.8913 -2.73196e-07 8.74173 -2.73196e-07 6.44882C -2.73196e-07 4.1559 0.931018 2.0063 2.50659 0.429921C 3.07952 -0.143307 4.01054 -0.143307 4.51186 0.429921C 5.08479 1.00315 5.08479 1.93465 4.51186 2.43622C 3.43761 3.51102 2.86467 4.94409 2.86467 6.44882C 2.86467 7.95354 3.43761 9.38661 4.51186 10.4614L 4.86994 10.8197C 6.51713 12.3961 7.37653 14.5457 7.37653 16.8386C 7.37653 19.1315 6.44551 21.2811 4.86994 22.8575C 4.58347 23.1441 4.22539 23.2874 3.8673 23.2874Z"/>
<path id="path3_fill" d="M 3.86731 23.2874C 3.50922 23.2874 3.15114 23.1441 2.86467 22.8575C 2.29174 22.2843 2.29174 21.3528 2.86467 20.8512C 3.93892 19.7764 4.51186 18.3433 4.51186 16.8386C 4.51186 15.3339 3.93892 13.9008 2.86467 12.826L 2.50659 12.4677C 0.859401 10.8913 0 8.74173 0 6.44882C 0 4.1559 0.931018 2.0063 2.50659 0.429921C 3.07952 -0.143307 4.01054 -0.143307 4.51186 0.429921C 5.08479 1.00315 5.08479 1.93465 4.51186 2.43622C 3.43761 3.51102 2.86467 4.94409 2.86467 6.44882C 2.86467 7.95354 3.43761 9.38661 4.51186 10.4614L 4.86994 10.8197C 6.51713 12.3961 7.37653 14.5457 7.37653 16.8386C 7.37653 19.1315 6.44551 21.2811 4.86994 22.8575C 4.58348 23.1441 4.22539 23.2874 3.86731 23.2874Z"/>
<path id="path4_fill" d="M 2.31883 29.7418C 2.03236 29.7418 1.67428 29.7418 1.38781 29.7418C 0.814879 29.7418 0.313559 29.3835 0.0987089 28.8103C -0.116141 28.3087 0.0270921 27.6638 0.456793 27.3055C 7.04554 20.7851 10.6264 12.1867 10.6264 3.015C 10.6264 2.51342 10.6264 2.0835 10.6264 1.58193C 10.6264 0.793739 11.1993 0.148855 11.9155 0.0772015C 19.3636 -0.496027 25.2362 2.15515 27.3131 6.95594C 28.3873 9.46381 28.3157 12.33 27.1698 15.1961C 25.1646 20.2118 20.0082 24.7977 13.491 27.4489C 9.76697 28.9536 5.89967 29.7418 2.31883 29.7418ZM 13.4194 2.87169C 13.4194 2.94334 13.4194 2.94335 13.4194 3.015C 13.4194 11.7567 10.3399 20.0685 4.7538 26.804C 7.26039 26.5174 9.83859 25.8725 12.3452 24.8693C 18.2177 22.4331 22.7296 18.4922 24.4484 14.1213C 25.3078 11.9717 25.3794 9.89374 24.5916 8.1024C 23.1593 4.66303 18.9339 2.72838 13.4194 2.87169Z"/>
<path id="path5_fill" d="M 38.1717 45.285C 29.5777 45.285 21.485 42.5622 14.7531 37.4032C 5.37126 30.2378 0 19.4181 0 7.81024C 0 5.58898 0.21485 3.36772 0.572934 1.14646C 0.716168 0.429922 1.2891 -5.46673e-07 2.00527 -5.46673e-07L 74.3382 -5.46673e-07C 75.0544 -5.46673e-07 75.6273 0.501576 75.7705 1.14646C 76.057 2.79449 76.2719 4.51417 76.3435 6.23386C 76.3435 6.73543 76.4151 7.30866 76.4151 7.81024C 76.4151 17.6984 72.4762 27.085 65.3861 34.1071C 64.1686 35.3252 62.8795 36.4 61.662 37.4032C 54.8584 42.5622 46.7657 45.285 38.1717 45.285ZM 3.22275 2.86614C 3.0079 4.51417 2.86467 6.16221 2.86467 7.81024C 2.86467 18.5583 7.80623 28.5181 16.4719 35.1102C 22.7025 39.911 30.2223 42.4189 38.1717 42.4189C 46.1212 42.4189 53.5693 39.911 59.8716 35.1102C 61.0175 34.2504 62.235 33.1756 63.3092 32.1008C 69.898 25.5803 73.4788 16.9819 73.4788 7.81024C 73.4788 7.30866 73.4788 6.87874 73.4788 6.37717C 73.4072 5.23071 73.3356 4.0126 73.1207 2.86614L 3.22275 2.86614Z"/>
<path id="path6_fill" d="M 0.716167 32.3874C 0.286467 32.3874 -5.46393e-07 32.1008 -5.46393e-07 31.6709C -5.46393e-07 31.2409 0.286467 30.9543 0.716167 30.9543C 7.51976 30.9543 13.9653 28.8047 19.3365 24.6488C 20.3392 23.8606 21.3418 23.0008 22.2728 22.0693C 27.8589 16.4803 30.9384 9.1 30.9384 1.36142C 30.9384 1.14646 30.9384 0.931495 30.9384 0.716535C 30.9384 0.286614 31.2249 -5.46673e-07 31.6546 -5.46673e-07C 32.0127 -5.46673e-07 32.3708 0.286614 32.3708 0.716535C 32.3708 0.931495 32.3708 1.14646 32.3708 1.36142C 32.3708 9.52992 29.148 17.2685 23.2755 23.0724C 22.2728 24.0756 21.1986 25.0071 20.1959 25.7953C 14.6098 30.0945 7.87784 32.3874 0.716167 32.3874Z"/>
</defs>
</svg>
