<svg width="35" height="35" viewBox="0 0 35 35" version="1.1" xmlns="http://www.w3.org/2000/svg" xmlns:xlink="http://www.w3.org/1999/xlink">
<title>Group 46</title>
<desc>Created using Figma</desc>
<g id="Canvas" transform="translate(-5746 3764)">
<g id="Group 46">
<g id="Rectangle 2.1">
<mask id="mask0_outline_ins">
<use xlink:href="#path0_fill" fill="white" transform="translate(5746 -3764)"/>
</mask>
<g mask="url(#mask0_outline_ins)">
<use xlink:href="#path1_stroke_2x" transform="translate(5746 -3764)"/>
</g>
</g>
<g id="noun_1139166_cc">
<g id="Vector">
<use xlink:href="#path2_fill" transform="translate(5754 -3754.09)"/>
</g>
<g id="Vector">
<use xlink:href="#path3_fill" transform="translate(5762.56 -3756)"/>
</g>
</g>
</g>
</g>
<defs>
<path id="path0_fill" d="M 0 2C 0 0.895431 0.895431 0 2 0L 33 0C 34.1046 0 35 0.895431 35 2L 35 33C 35 34.1046 34.1046 35 33 35L 2 35C 0.895431 35 0 34.1046 0 33L 0 2Z"/>
<path id="path1_stroke_2x" d="M 2 1L 33 1L 33 -1L 2 -1L 2 1ZM 34 2L 34 33L 36 33L 36 2L 34 2ZM 33 34L 2 34L 2 36L 33 36L 33 34ZM 1 33L 1 2L -1 2L -1 33L 1 33ZM 2 34C 1.44772 34 1 33.5523 1 33L -1 33C -1 34.6569 0.343146 36 2 36L 2 34ZM 34 33C 34 33.5523 33.5523 34 33 34L 33 36C 34.6569 36 36 34.6569 36 33L 34 33ZM 33 1C 33.5523 1 34 1.44772 34 2L 36 2C 36 0.343146 34.6569 -1 33 -1L 33 1ZM 2 -1C 0.343146 -1 -1 0.343146 -1 2L 1 2C 1 1.44772 1.44772 1 2 1L 2 -1Z"/>
<path id="path2_fill" d="M 8.10524 10.3129C 8.59738 10.8182 9.1912 11.1302 9.75183 11.1928C 10.3261 11.2465 10.9325 11.0608 11.603 10.3275C 11.8108 10.1003 12.0384 9.83723 12.4213 9.71156C 12.8042 9.58588 13.2643 9.66388 13.7535 9.92177C 14.6869 10.6162 15.6495 11.3195 16.5677 12.0337C 17.0054 12.4626 17.1181 13.0274 16.9769 13.471C 16.8356 13.9146 16.5331 14.2506 16.2534 14.5319C 14.694 16.1238 12.847 16.8931 11.0342 16.6242C 9.28308 16.3272 7.58853 15.1255 5.71023 13.2852C 4.90287 12.4942 4.27388 11.8779 3.47486 11.095C 1.59656 9.25473 0.370063 7.59446 0.0669129 5.87876C -0.293529 3.75688 0.85698 2.02972 2.20244 0.765184C 2.48954 0.491149 2.83247 0.194683 3.28521 0.056309C 3.73795 -0.0820626 4.31445 0.0283236 4.75217 0.457186C 5.48109 1.35681 6.19891 2.29994 6.90771 3.21443C 7.17092 3.69378 7.25054 4.14457 7.12227 4.51972C 6.99399 4.89488 6.72547 5.11791 6.49355 5.32148C 5.74514 5.9784 5.55559 6.57259 5.61041 7.13519C 5.67433 7.68448 5.99268 8.26637 6.50853 8.74848L 8.10524 10.3129ZM 5.86986 9.37424C 5.26578 8.79928 4.78945 8.06181 4.70726 7.21831C 4.62485 6.37245 4.98416 5.45642 5.88981 4.6615C 6.11041 4.46786 6.23054 4.3341 6.26402 4.23619C 6.29692 4.14001 6.30605 4.00012 6.11934 3.65442L 4.11349 1.08294C 3.8549 0.829592 3.75117 0.837105 3.55466 0.897162C 3.35814 0.957231 3.0878 1.15562 2.83613 1.39582C 1.21951 2.97974 0.711593 4.32129 0.960009 5.72725C 1.20844 7.13319 2.29029 8.68299 4.11349 10.4693C 4.86183 11.2025 5.68465 12.0087 6.34887 12.6595C 8.17207 14.4458 9.75387 15.5057 11.1888 15.7492C 12.6238 15.9925 13.9931 15.4949 15.6097 13.911C 15.8548 13.6644 16.0573 13.3995 16.1186 13.207C 16.1799 13.0145 16.1876 12.9128 15.929 12.6595L 13.3045 10.6942C 12.9516 10.5113 12.8088 10.5202 12.7107 10.5524C 12.6107 10.5852 12.4742 10.7029 12.2766 10.9191C 11.4653 11.8064 10.5303 12.1584 9.667 12.0777C 8.80607 11.9972 8.05339 11.5305 7.46654 10.9386"/>
<path id="path3_fill" d="M 7.31404e-05 0.466695C 0.0130119 0.698398 0.239961 0.89767 0.476439 0.884971C 5.71959 0.884971 9.96029 5.0399 9.96029 10.177C 9.9569 10.4108 10.1733 10.6258 10.4119 10.6258C 10.6505 10.6258 10.8669 10.4108 10.8635 10.177C 10.8635 4.56165 6.20774 1.58711e-05 0.476439 1.58711e-05C 0.205952 -0.00219652 -0.00445202 0.237845 7.31404e-05 0.466695ZM 7.31404e-05 3.12156C 0.0130119 3.35326 0.239961 3.55254 0.476439 3.53984C 4.22307 3.53984 7.25061 6.50614 7.25061 10.177C 7.24722 10.4108 7.46361 10.6258 7.70222 10.6258C 7.94085 10.6258 8.15722 10.4108 8.15383 10.177C 8.15383 6.02789 4.71121 2.65488 0.476439 2.65488C 0.1944 2.65709 -0.0044588 2.9082 7.31404e-05 3.12156Z"/>
</defs>
</svg>
