<svg width="76" height="76" viewBox="0 0 76 76" version="1.1" xmlns="http://www.w3.org/2000/svg" xmlns:xlink="http://www.w3.org/1999/xlink">
<title>crm</title>
<desc>Created using Figma</desc>
<g id="Canvas" transform="translate(-6115 1831)">
<g id="crm">
<g id="Group 31.9">
<g id="Ellipse">
<use xlink:href="#path0_fill" transform="translate(6115 -1831)" fill="#F2F8FA"/>
</g>
</g>
<g id="noun_832916_cc">
<g id="Vector">
<use xlink:href="#path1_fill" transform="translate(6137 -1806)"/>
</g>
</g>
</g>
</g>
<defs>
<path id="path0_fill" d="M 76 38C 76 58.9868 58.9868 76 38 76C 17.0132 76 0 58.9868 0 38C 0 17.0132 17.0132 0 38 0C 58.9868 0 76 17.0132 76 38Z"/>
<path id="path1_fill" d="M 30.8667 23.274C 30.6855 23.1996 30.3421 23.0659 30.3421 23.0659C 30.2004 23.011 29.9981 22.8765 29.8922 22.7669L 29.5825 22.4921C 29.5764 22.486 29.5677 22.4831 29.5565 22.4831C 29.4611 22.4831 29.1876 22.6933 28.8815 22.8991C 28.6713 22.7949 28.4171 22.8772 28.3079 23.0871L 28.2207 23.2557C 28.158 23.2751 28.098 23.2885 28.0443 23.289L 27.9258 23.2896C 27.8723 23.2896 27.8214 23.2892 27.7969 23.2882C 27.7542 23.2868 27.7051 23.2727 27.6563 23.2589L 27.5706 23.0902C 27.4621 22.876 27.2004 22.7913 26.9885 22.9004C 26.9871 22.9011 26.9864 22.9024 26.9851 22.9031C 26.6759 22.6943 26.397 22.4789 26.2999 22.4789C 26.2888 22.4789 26.2802 22.4817 26.274 22.4876L 25.9611 22.7757C 25.8556 22.8852 25.6531 23.0198 25.5115 23.0749C 25.5115 23.0749 25.1895 23.2 25.01 23.2739C 23.8026 23.7714 22.4336 24.3339 23.015 26.6801C 23.3202 27.7765 26.8357 28 27.7607 28C 27.8321 28 28.0444 28 28.1162 28C 29.0414 28 32.5566 27.7765 32.862 26.6801C 33.4434 24.3339 32.0744 23.7714 30.8667 23.274ZM 27.9343 25.3138L 28.2041 26.4013L 27.9431 26.606L 27.6713 26.385L 27.9343 25.3138ZM 25.3379 24.0795C 25.5111 24.0082 25.8218 23.8875 25.8237 23.8868C 26.0098 23.8144 26.2186 23.69 26.3933 23.5516C 26.6178 23.7061 26.8277 23.8407 27.0328 23.9449L 27.2014 24.277C 27.2217 24.317 27.248 24.3481 27.2713 24.3837L 26.8063 26.2775C 26.7407 26.5469 26.8357 26.8247 27.0551 27.0036L 27.1916 27.1144C 25.7355 27.0423 24.1571 26.7159 23.8376 26.3984C 23.4747 24.8471 24.1409 24.5727 25.3379 24.0795ZM 32.0394 26.3984C 31.7212 26.7145 30.1542 27.0398 28.7031 27.1137L 28.8109 27.0291C 29.035 26.8533 29.1364 26.5642 29.0692 26.2932L 28.5966 24.3867C 28.6191 24.3527 28.6445 24.3232 28.6642 24.2852L 28.8461 23.9333C 29.0465 23.8303 29.2514 23.6996 29.4696 23.5503C 29.6429 23.6861 29.848 23.8074 30.0297 23.8777C 30.031 23.8782 30.3638 24.0078 30.5407 24.0804C 31.736 24.5727 32.4022 24.8472 32.0394 26.3984ZM 2.45424 3.54101C 2.45424 3.18274 2.74293 2.89231 3.09915 2.89231C 3.45528 2.89231 3.74398 3.18274 3.74398 3.54101C 3.74398 3.89926 3.45528 4.18969 3.09915 4.18969C 2.74293 4.18969 2.45424 3.89926 2.45424 3.54101ZM 5.32157 3.54101C 5.32157 3.18274 5.61026 2.89231 5.96639 2.89231C 6.32253 2.89231 6.61122 3.18274 6.61122 3.54101C 6.61122 3.89926 6.32253 4.18969 5.96639 4.18969C 5.61026 4.18969 5.32157 3.89926 5.32157 3.54101ZM 8.18881 3.54101C 8.18881 3.18274 8.47751 2.89231 8.83364 2.89231C 9.18986 2.89231 9.47855 3.18274 9.47855 3.54101C 9.47855 3.89926 9.18986 4.18969 8.83364 4.18969C 8.47751 4.18969 8.18881 3.89926 8.18881 3.54101ZM 20.811 25.6155L 2.07461 25.6155C 1.40797 25.6155 0.865405 25.0697 0.865405 24.3991L 0.865405 6.61631L 29.3186 6.61631L 29.3186 15.4687C 28.4101 14.9714 26.9117 14.9892 26.1417 15.778C 26.095 15.8259 26.0419 15.8657 25.9855 15.8953C 25.7532 16.0157 25.0217 16.537 25.1563 18.2488C 25.0836 18.4236 25.0318 18.6746 25.0616 18.9789C 25.0697 19.0656 25.1174 19.539 25.2272 19.8161C 25.2989 19.9916 25.4118 20.1426 25.5551 20.2575C 25.5785 20.381 25.6042 20.4939 25.6319 20.5945C 25.809 21.245 26.6474 22.5366 27.7788 22.5743C 27.8069 22.5754 27.8644 22.5764 27.9276 22.5764L 27.9283 22.5764L 28.0486 22.5757C 29.2111 22.5641 30.0654 21.2576 30.2442 20.5952C 30.276 20.4789 30.3017 20.3612 30.3216 20.2572C 30.4656 20.1416 30.5792 19.9892 30.6512 19.8117C 30.7706 19.5104 30.8145 18.9782 30.8145 18.9782C 30.8145 18.9782 30.8149 18.9782 30.8149 18.9789C 30.8443 18.6773 30.7925 18.4256 30.7209 18.2505C 30.8277 17.025 30.4973 16.3952 30.1841 16.0761L 30.1841 2.08693C 30.1841 0.936176 29.2534 1.30582e-08 28.1094 1.30582e-08L 2.07461 1.30582e-08C 0.930649 1.30582e-08 4.32703e-09 0.936176 4.32703e-09 2.08693L 4.32703e-09 24.3991C 4.32703e-09 25.5498 0.930649 26.486 2.07461 26.486L 20.811 26.486C 21.05 26.486 21.2437 26.2912 21.2437 26.0507C 21.2437 25.8103 21.05 25.6155 20.811 25.6155ZM 29.9525 18.9061C 29.943 19.0255 29.8954 19.3679 29.8487 19.4863C 29.8274 19.5386 29.7902 19.5788 29.7412 19.6022C 29.6124 19.6641 29.5222 19.7862 29.5002 19.928C 29.486 20.0191 29.4556 20.1973 29.4096 20.3657C 29.3001 20.7717 28.6689 21.699 28.0418 21.7051L 27.9259 21.7058C 27.8796 21.7058 27.836 21.7055 27.8109 21.7045C 27.1589 21.6827 26.573 20.7554 26.4662 20.3646C 26.4334 20.2432 26.403 20.096 26.3759 19.9263C 26.3533 19.7845 26.263 19.6631 26.1342 19.6019C 26.0737 19.573 26.043 19.5227 26.0294 19.49C 25.9835 19.3734 25.9361 19.0462 25.9236 18.9024C 25.9233 18.8993 25.9233 18.8963 25.9229 18.8932C 25.9054 18.7133 25.9459 18.6035 25.9581 18.5756C 26.0135 18.4923 26.0392 18.3916 26.0291 18.29C 25.9202 17.2093 26.2127 16.757 26.383 16.6682C 26.5223 16.5958 26.6491 16.5009 26.7596 16.3873C 27.286 15.8487 28.628 15.9201 29.1064 16.3734C 29.1723 16.4356 29.2443 16.4853 29.3186 16.5287L 29.3186 16.5876C 29.3186 16.8281 29.5123 17.0229 29.7513 17.0229C 29.7562 17.0229 29.7601 17.0203 29.765 17.0201C 29.8593 17.2871 29.9125 17.6919 29.848 18.2855C 29.8369 18.3872 29.8619 18.4889 29.917 18.5729C 29.9285 18.5987 29.9714 18.7109 29.9525 18.9061ZM 2.07461 0.870545L 28.1094 0.870545C 28.7761 0.870545 29.3186 1.41617 29.3186 2.08693L 29.3186 5.74577L 0.865405 5.74577L 0.865405 2.08693C 0.865405 1.41617 1.40797 0.870545 2.07461 0.870545ZM 6.93338 15.2825L 10.5333 15.2825C 10.7723 15.2825 10.966 15.0876 10.966 14.8472L 10.966 11.2258C 10.966 10.9854 10.7723 10.7905 10.5333 10.7905L 6.93338 10.7905C 6.69438 10.7905 6.50068 10.9854 6.50068 11.2258L 6.50068 14.8472C 6.50068 15.0876 6.69438 15.2825 6.93338 15.2825ZM 7.36609 11.6611L 10.1006 11.6611L 10.1006 14.4119L 7.36609 14.4119L 7.36609 11.6611ZM 6.50068 17.297C 6.50068 17.0566 6.69438 16.8617 6.93338 16.8617L 9.04585 16.8617C 9.28485 16.8617 9.47855 17.0566 9.47855 17.297C 9.47855 17.5374 9.28485 17.7323 9.04585 17.7323L 7.36609 17.7323L 7.36609 20.4833L 10.1006 20.4833L 10.1006 19.1258C 10.1006 18.8854 10.2943 18.6905 10.5333 18.6905C 10.7723 18.6905 10.966 18.8854 10.966 19.1258L 10.966 20.9186C 10.966 21.159 10.7723 21.3539 10.5333 21.3539L 6.93338 21.3539C 6.69438 21.3539 6.50068 21.159 6.50068 20.9186L 6.50068 17.297ZM 11.4335 17.3415L 9.03875 19.7505C 8.95424 19.8355 8.8437 19.878 8.73282 19.878C 8.62194 19.878 8.5114 19.8355 8.42688 19.7505L 7.52328 18.8415C 7.35425 18.6715 7.35425 18.3961 7.52328 18.226C 7.6923 18.056 7.96612 18.056 8.13515 18.226L 8.73282 18.8272L 10.8216 16.726C 10.9906 16.556 11.2645 16.556 11.4335 16.726C 11.6025 16.8961 11.6025 17.1715 11.4335 17.3415ZM 21.9269 17.9043C 21.9269 18.1448 21.7332 18.3396 21.4942 18.3396L 13.2708 18.3396C 13.0318 18.3396 12.8381 18.1448 12.8381 17.9043C 12.8381 17.6639 13.0318 17.4691 13.2708 17.4691L 21.4942 17.4691C 21.7332 17.4691 21.9269 17.6639 21.9269 17.9043ZM 13.2708 20.1501C 13.0318 20.1501 12.8381 19.9552 12.8381 19.7148C 12.8381 19.4744 13.0318 19.2795 13.2708 19.2795L 18.3253 19.2795C 18.5643 19.2795 18.758 19.4744 18.758 19.7148C 18.758 19.9552 18.5643 20.1501 18.3253 20.1501L 13.2708 20.1501ZM 12.8381 12.1312C 12.8381 11.8908 13.0318 11.6959 13.2708 11.6959L 16.2118 11.6959C 16.4508 11.6959 16.6445 11.8908 16.6445 12.1312C 16.6445 12.3716 16.4508 12.5665 16.2118 12.5665L 13.2708 12.5665C 13.0318 12.5665 12.8381 12.3716 12.8381 12.1312ZM 12.8381 13.9418C 12.8381 13.7014 13.0318 13.5065 13.2708 13.5065L 18.3253 13.5065C 18.5643 13.5065 18.758 13.7014 18.758 13.9418C 18.758 14.1822 18.5643 14.3773 18.3253 14.3773L 13.2708 14.3773C 13.0318 14.3773 12.8381 14.1822 12.8381 13.9418Z"/>
</defs>
</svg>
