<svg width="51" height="50" viewBox="0 0 51 50" version="1.1" xmlns="http://www.w3.org/2000/svg" xmlns:xlink="http://www.w3.org/1999/xlink">
<title>54</title>
<desc>Created using Figma</desc>
<g id="Canvas" transform="translate(-22362 1350)">
<g id="54">
<g id="Group">
<g id="Group">
<g id="Vector">
<use xlink:href="#path0_fill" transform="translate(22410.4 -1331.21)" fill="#303C42"/>
</g>
</g>
<g id="Group">
<g id="Vector">
<use xlink:href="#path0_fill" transform="translate(22362 -1331.21)" fill="#303C42"/>
</g>
</g>
<g id="Group">
<g id="Vector">
<use xlink:href="#path1_fill" transform="translate(22362 -1331.21)" fill="#303C42"/>
</g>
</g>
<g id="Group">
<g id="Vector">
<use xlink:href="#path2_fill" transform="translate(22362.4 -1330.82)" fill="#303C42"/>
</g>
</g>
<g id="Group">
<g id="Vector">
<use xlink:href="#path0_fill" transform="translate(22362 -1331.21)" fill="#303C42"/>
</g>
</g>
<g id="Group">
<g id="Vector">
<use xlink:href="#path0_fill" transform="translate(22410.4 -1331.21)" fill="#303C42"/>
</g>
</g>
<g id="Group">
<g id="Vector">
<use xlink:href="#path3_fill" transform="translate(22362 -1350)" fill="#303C42"/>
</g>
</g>
<g id="Group">
<g id="Vector">
<use xlink:href="#path4_fill" transform="translate(22370.2 -1336.05)" fill="#303C42"/>
</g>
</g>
<g id="Group">
<g id="Vector">
<use xlink:href="#path5_fill" transform="translate(22394.2 -1317.75)" fill="#303C42"/>
</g>
</g>
<g id="Group">
<g id="Vector">
<use xlink:href="#path6_fill" transform="translate(22362.4 -1317.75)" fill="#303C42"/>
</g>
</g>
<g id="Group">
<g id="Vector">
<use xlink:href="#path7_fill" transform="translate(22377 -1330.3)" fill="#303C42"/>
</g>
</g>
<g id="Group">
<g id="Vector">
<use xlink:href="#path8_fill" transform="translate(22377 -1323.65)" fill="#303C42"/>
</g>
</g>
</g>
</g>
</g>
<defs>
<path id="path0_fill" d="M 0.787092 1.57418C 0.354191 1.57418 0 1.21999 0 0.787092C 0 0.354192 0.354191 3.00252e-07 0.787092 3.00252e-07C 1.21999 3.00252e-07 1.57418 0.354192 1.57418 0.787092C 1.57418 1.21999 1.21999 1.57418 0.787092 1.57418Z"/>
<path id="path1_fill" d="M 49.1932 31.2082L 0.787092 31.2082C 0.354191 31.2082 0 30.854 0 30.4211L 0 0.787092C 0 0.354192 0.354191 3.00252e-07 0.787092 3.00252e-07C 1.21999 3.00252e-07 1.57418 0.354192 1.57418 0.787092L 1.57418 29.634L 48.4061 29.634L 48.4061 0.787092C 48.4061 0.354192 48.7603 3.00252e-07 49.1932 3.00252e-07C 49.6261 3.00252e-07 49.9803 0.354192 49.9803 0.787092L 49.9803 30.4211C 49.9803 30.854 49.6261 31.2082 49.1932 31.2082Z"/>
<path id="path2_fill" d="M 24.5866 19.5611C 24.5078 19.5611 24.4291 19.5217 24.3504 19.4824L 0.147357 0.710247C -0.0100617 0.592183 -0.0494162 0.3167 0.0686475 0.159282C 0.186711 0.00186382 0.462193 -0.0374896 0.619612 0.0805742L 24.5866 18.6559L 48.5535 0.0805742C 48.7109 -0.0374896 48.9864 -0.0374908 49.1045 0.159282C 49.2225 0.3167 49.2225 0.592183 49.0257 0.710247L 24.8227 19.4824C 24.744 19.5217 24.6653 19.5611 24.5866 19.5611Z"/>
<path id="path3_fill" d="M 49.2015 20.366C 49.0441 20.366 48.8473 20.3266 48.7292 20.2086L 24.9984 1.79063L 1.26758 20.2086C 0.913393 20.4841 0.441138 20.4054 0.165656 20.0512C -0.109826 19.697 -0.031117 19.2247 0.323074 18.9492L 24.5261 0.177096C 24.8016 -0.0590319 25.1952 -0.0590319 25.51 0.177096L 49.7131 18.9492C 50.0673 19.2247 50.1066 19.697 49.8705 20.0512C 49.6737 20.2479 49.4376 20.366 49.2015 20.366Z"/>
<path id="path4_fill" d="M 16.7651 24.7934C 16.6863 24.7934 16.6076 24.754 16.5289 24.7147L 0.157418 12.0031C 0.0787089 11.9244 -1.50126e-07 11.8064 -1.50126e-07 11.6883L -1.50126e-07 0.393546C -1.50126e-07 0.157419 0.157418 6.00503e-07 0.393546 6.00503e-07L 33.1366 6.00503e-07C 33.3727 6.00503e-07 33.5301 0.157419 33.5301 0.393546L 33.5301 11.7277C 33.5301 11.8457 33.4907 11.9638 33.3727 12.0425L 17.0012 24.7147C 16.9225 24.754 16.8438 24.7934 16.7651 24.7934ZM 0.787092 11.4915L 16.7651 23.8882L 32.743 11.4915L 32.743 0.787092L 0.787092 0.787092L 0.787092 11.4915Z"/>
<path id="path5_fill" d="M 17.0012 17.3554C 16.8831 17.3554 16.8044 17.316 16.7257 17.2373L 0.118063 0.669027C -0.0393552 0.511609 -0.0393552 0.275481 0.118063 0.118063C 0.275481 -0.0393558 0.51161 -0.0393558 0.669028 0.118063L 17.2373 16.6863C 17.3947 16.8438 17.3947 17.0799 17.2373 17.2373C 17.198 17.316 17.0799 17.3554 17.0012 17.3554Z"/>
<path id="path6_fill" d="M 0.393546 17.3554C 0.275482 17.3554 0.196773 17.316 0.118064 17.2373C -0.0393546 17.0799 -0.0393546 16.8438 0.118064 16.6863L 16.6863 0.118063C 16.8438 -0.0393558 17.0799 -0.0393558 17.2373 0.118063C 17.3947 0.275481 17.3947 0.511609 17.2373 0.669027L 0.669028 17.2373C 0.590319 17.316 0.472255 17.3554 0.393546 17.3554Z"/>
<path id="path7_fill" d="M 19.5199 0.787092L 0.393546 0.787092C 0.157419 0.787092 3.00252e-07 0.629673 3.00252e-07 0.393546C 3.00252e-07 0.157418 0.157419 0 0.393546 0L 19.5592 0C 19.7954 0 19.9528 0.157418 19.9528 0.393546C 19.9134 0.629673 19.756 0.787092 19.5199 0.787092Z"/>
<path id="path8_fill" d="M 19.5199 0.787092L 0.393546 0.787092C 0.157419 0.787092 3.00252e-07 0.629674 3.00252e-07 0.393546C 3.00252e-07 0.157419 0.157419 6.00503e-07 0.393546 6.00503e-07L 19.5592 6.00503e-07C 19.7954 6.00503e-07 19.9528 0.157419 19.9528 0.393546C 19.9134 0.590319 19.756 0.787092 19.5199 0.787092Z"/>
</defs>
</svg>
