<svg width="351" height="83" viewBox="0 0 351 83" version="1.1" xmlns="http://www.w3.org/2000/svg" xmlns:xlink="http://www.w3.org/1999/xlink">
<title>every-sun</title>
<desc>Created using Figma</desc>
<g id="Canvas" transform="translate(-24917 4002)">
<g id="every-sun">
<g id="Group">
<g id="Rectangle 7" filter="url(#filter0_d)">
<use xlink:href="#path0_fill" transform="translate(24927 -3992)" fill="#D1021B"/>
</g>
<g id="Rectangle 7.1" filter="url(#filter1_d)">
<use xlink:href="#path0_fill" transform="matrix(1 0 0 -1 24927 -3929)" fill="#D1021B"/>
</g>
</g>
<g id="&#208;&#154;&#208;&#176;&#208;&#182;&#208;&#180;&#208;&#190;&#208;&#181; &#208;&#178;&#208;&#190;&#209;&#129;&#208;&#186;&#209;&#128;&#208;&#181;&#209;&#129;&#208;&#181;&#208;&#189;&#209;&#140;&#208;&#181;">
<use xlink:href="#path1_fill" transform="translate(25002 -3976.74)" fill="#FFFFFF"/>
<use xlink:href="#path2_fill" transform="translate(25002 -3976.74)" fill="#FFFFFF"/>
<use xlink:href="#path3_fill" transform="translate(25002 -3976.74)" fill="#FFFFFF"/>
<use xlink:href="#path4_fill" transform="translate(25002 -3976.74)" fill="#FFFFFF"/>
<use xlink:href="#path5_fill" transform="translate(25002 -3976.74)" fill="#FFFFFF"/>
<use xlink:href="#path6_fill" transform="translate(25002 -3976.74)" fill="#FFFFFF"/>
<use xlink:href="#path7_fill" transform="translate(25002 -3976.74)" fill="#FFFFFF"/>
<use xlink:href="#path8_fill" transform="translate(25002 -3976.74)" fill="#FFFFFF"/>
<use xlink:href="#path9_fill" transform="translate(25002 -3976.74)" fill="#FFFFFF"/>
<use xlink:href="#path10_fill" transform="translate(25002 -3976.74)" fill="#FFFFFF"/>
<use xlink:href="#path11_fill" transform="translate(25002 -3976.74)" fill="#FFFFFF"/>
<use xlink:href="#path12_fill" transform="translate(25002 -3976.74)" fill="#FFFFFF"/>
<use xlink:href="#path13_fill" transform="translate(25002 -3976.74)" fill="#FFFFFF"/>
<use xlink:href="#path14_fill" transform="translate(25002 -3976.74)" fill="#FFFFFF"/>
<use xlink:href="#path15_fill" transform="translate(25002 -3976.74)" fill="#FFFFFF"/>
<use xlink:href="#path16_fill" transform="translate(25002 -3976.74)" fill="#FFFFFF"/>
<use xlink:href="#path17_fill" transform="translate(25002 -3976.74)" fill="#FFFFFF"/>
</g>
<g id="&#208;&#145;&#208;&#181;&#209;&#129;&#208;&#191;&#208;&#187;&#208;&#176;&#209;&#130;&#208;&#189;&#208;&#190;">
<use xlink:href="#path18_fill" transform="translate(25001.1 -3952.71)" fill="#FFFFFF"/>
<use xlink:href="#path19_fill" transform="translate(25001.1 -3952.71)" fill="#FFFFFF"/>
<use xlink:href="#path20_fill" transform="translate(25001.1 -3952.71)" fill="#FFFFFF"/>
<use xlink:href="#path21_fill" transform="translate(25001.1 -3952.71)" fill="#FFFFFF"/>
<use xlink:href="#path22_fill" transform="translate(25001.1 -3952.71)" fill="#FFFFFF"/>
<use xlink:href="#path23_fill" transform="translate(25001.1 -3952.71)" fill="#FFFFFF"/>
<use xlink:href="#path24_fill" transform="translate(25001.1 -3952.71)" fill="#FFFFFF"/>
<use xlink:href="#path25_fill" transform="translate(25001.1 -3952.71)" fill="#FFFFFF"/>
<use xlink:href="#path26_fill" transform="translate(25001.1 -3952.71)" fill="#FFFFFF"/>
</g>
</g>
</g>
<defs>
<filter id="filter0_d" filterUnits="userSpaceOnUse" x="24917" y="-4002" width="351" height="83" color-interpolation-filters="sRGB">
<feFlood flood-opacity="0" result="BackgroundImageFix"/>
<feColorMatrix in="SourceAlpha" type="matrix" values="0 0 0 0 0 0 0 0 0 0 0 0 0 0 0 0 0 0 255 0"/>
<feOffset dx="0" dy="0"/>
<feGaussianBlur stdDeviation="5"/>
<feColorMatrix type="matrix" values="0 0 0 0 0 0 0 0 0 0 0 0 0 0 0 0 0 0 0.45 0"/>
<feBlend mode="normal" in2="BackgroundImageFix" result="effect1_dropShadow"/>
<feBlend mode="normal" in="SourceGraphic" in2="effect1_dropShadow" result="shape"/>
</filter>
<filter id="filter1_d" filterUnits="userSpaceOnUse" x="24917" y="-4002" width="351" height="83" color-interpolation-filters="sRGB">
<feFlood flood-opacity="0" result="BackgroundImageFix"/>
<feColorMatrix in="SourceAlpha" type="matrix" values="0 0 0 0 0 0 0 0 0 0 0 0 0 0 0 0 0 0 255 0"/>
<feOffset dx="0" dy="0"/>
<feGaussianBlur stdDeviation="5"/>
<feColorMatrix type="matrix" values="0 0 0 0 0 0 0 0 0 0 0 0 0 0 0 0 0 0 0.15 0"/>
<feBlend mode="normal" in2="BackgroundImageFix" result="effect1_dropShadow"/>
<feBlend mode="normal" in="SourceGraphic" in2="effect1_dropShadow" result="shape"/>
</filter>
<path id="path0_fill" d="M 0 0L 331 0L 331 63L 64.5 63L 0 0Z"/>
<path id="path1_fill" d="M 4.392 7.2L 1.764 7.2L 1.764 12.744L 0 12.744L 0 0.144L 1.764 0.144L 1.764 5.616L 4.428 5.616L 8.388 0.144L 10.314 0.144L 5.814 6.246L 10.53 12.744L 8.478 12.744L 4.392 7.2Z"/>
<path id="path2_fill" d="M 20.3892 9.594L 13.6932 9.594L 12.3072 12.744L 10.4532 12.744L 16.1592 0.144L 17.9412 0.144L 23.6652 12.744L 21.7752 12.744L 20.3892 9.594ZM 19.7592 8.154L 17.0412 1.98L 14.3232 8.154L 19.7592 8.154Z"/>
<path id="path3_fill" d="M 35.8262 7.2L 33.4322 7.2L 33.4322 12.744L 31.6682 12.744L 31.6682 7.2L 29.2562 7.2L 25.7282 12.744L 23.6222 12.744L 27.7802 6.192L 23.9282 0.144L 25.8542 0.144L 29.2202 5.616L 31.6682 5.616L 31.6682 0.144L 33.4322 0.144L 33.4322 5.616L 35.8442 5.616L 39.2282 0.144L 41.1542 0.144L 37.3022 6.228L 41.4602 12.744L 39.3542 12.744L 35.8262 7.2Z"/>
<path id="path4_fill" d="M 55.6173 11.178L 55.6173 15.498L 53.9433 15.498L 53.9433 12.744L 43.5753 12.744L 43.5573 15.498L 41.8833 15.498L 41.9013 11.178L 42.5133 11.178C 43.3053 11.13 43.8633 10.506 44.1873 9.306C 44.5113 8.094 44.7093 6.39 44.7813 4.194L 44.9073 0.144L 53.7633 0.144L 53.7633 11.178L 55.6173 11.178ZM 46.3653 4.356C 46.3053 6.132 46.1613 7.602 45.9333 8.766C 45.7173 9.93 45.3633 10.734 44.8713 11.178L 51.9813 11.178L 51.9813 1.71L 46.4553 1.71L 46.3653 4.356Z"/>
<path id="path5_fill" d="M 63.7481 12.888C 62.4761 12.888 61.3301 12.612 60.3101 12.06C 59.2901 11.496 58.4861 10.722 57.8981 9.738C 57.3221 8.754 57.0341 7.656 57.0341 6.444C 57.0341 5.232 57.3221 4.134 57.8981 3.15C 58.4861 2.166 59.2901 1.398 60.3101 0.846C 61.3301 0.282 62.4761 0 63.7481 0C 65.0081 0 66.1481 0.282 67.1681 0.846C 68.1881 1.398 68.9861 2.166 69.5621 3.15C 70.1381 4.122 70.4261 5.22 70.4261 6.444C 70.4261 7.668 70.1381 8.772 69.5621 9.756C 68.9861 10.728 68.1881 11.496 67.1681 12.06C 66.1481 12.612 65.0081 12.888 63.7481 12.888ZM 63.7481 11.286C 64.6721 11.286 65.5001 11.076 66.2321 10.656C 66.9761 10.236 67.5581 9.66 67.9781 8.928C 68.4101 8.184 68.6261 7.356 68.6261 6.444C 68.6261 5.532 68.4101 4.71 67.9781 3.978C 67.5581 3.234 66.9761 2.652 66.2321 2.232C 65.5001 1.812 64.6721 1.602 63.7481 1.602C 62.8241 1.602 61.9841 1.812 61.2281 2.232C 60.4841 2.652 59.8961 3.234 59.4641 3.978C 59.0441 4.71 58.8341 5.532 58.8341 6.444C 58.8341 7.356 59.0441 8.184 59.4641 8.928C 59.8961 9.66 60.4841 10.236 61.2281 10.656C 61.9841 11.076 62.8241 11.286 63.7481 11.286Z"/>
<path id="path6_fill" d="M 82.4799 11.178L 82.4799 12.744L 73.3359 12.744L 73.3359 0.144L 82.2279 0.144L 82.2279 1.71L 75.1359 1.71L 75.1359 5.58L 81.4539 5.58L 81.4539 7.11L 75.1359 7.11L 75.1359 11.178L 82.4799 11.178Z"/>
<path id="path7_fill" d="M 97.9886 6.21C 98.8406 6.414 99.4826 6.78 99.9146 7.308C 100.359 7.824 100.581 8.49 100.581 9.306C 100.581 10.398 100.179 11.244 99.3746 11.844C 98.5826 12.444 97.4246 12.744 95.9006 12.744L 90.1406 12.744L 90.1406 0.144L 95.5586 0.144C 96.9386 0.144 98.0126 0.426 98.7806 0.99C 99.5606 1.542 99.9506 2.34 99.9506 3.384C 99.9506 4.068 99.7766 4.65 99.4286 5.13C 99.0926 5.61 98.6126 5.97 97.9886 6.21ZM 91.9226 5.688L 95.4326 5.688C 96.3086 5.688 96.9746 5.514 97.4306 5.166C 97.8986 4.818 98.1326 4.308 98.1326 3.636C 98.1326 2.964 97.8986 2.454 97.4306 2.106C 96.9626 1.746 96.2966 1.566 95.4326 1.566L 91.9226 1.566L 91.9226 5.688ZM 95.8646 11.322C 97.7966 11.322 98.7626 10.602 98.7626 9.162C 98.7626 8.442 98.5166 7.914 98.0246 7.578C 97.5446 7.23 96.8246 7.056 95.8646 7.056L 91.9226 7.056L 91.9226 11.322L 95.8646 11.322Z"/>
<path id="path8_fill" d="M 109.258 12.888C 107.986 12.888 106.84 12.612 105.82 12.06C 104.8 11.496 103.996 10.722 103.408 9.738C 102.832 8.754 102.544 7.656 102.544 6.444C 102.544 5.232 102.832 4.134 103.408 3.15C 103.996 2.166 104.8 1.398 105.82 0.846C 106.84 0.282 107.986 0 109.258 0C 110.518 0 111.658 0.282 112.678 0.846C 113.698 1.398 114.496 2.166 115.072 3.15C 115.648 4.122 115.936 5.22 115.936 6.444C 115.936 7.668 115.648 8.772 115.072 9.756C 114.496 10.728 113.698 11.496 112.678 12.06C 111.658 12.612 110.518 12.888 109.258 12.888ZM 109.258 11.286C 110.182 11.286 111.01 11.076 111.742 10.656C 112.486 10.236 113.068 9.66 113.488 8.928C 113.92 8.184 114.136 7.356 114.136 6.444C 114.136 5.532 113.92 4.71 113.488 3.978C 113.068 3.234 112.486 2.652 111.742 2.232C 111.01 1.812 110.182 1.602 109.258 1.602C 108.334 1.602 107.494 1.812 106.738 2.232C 105.994 2.652 105.406 3.234 104.974 3.978C 104.554 4.71 104.344 5.532 104.344 6.444C 104.344 7.356 104.554 8.184 104.974 8.928C 105.406 9.66 105.994 10.236 106.738 10.656C 107.494 11.076 108.334 11.286 109.258 11.286Z"/>
<path id="path9_fill" d="M 124.48 12.888C 123.22 12.888 122.08 12.612 121.06 12.06C 120.052 11.496 119.26 10.728 118.684 9.756C 118.108 8.772 117.82 7.668 117.82 6.444C 117.82 5.22 118.108 4.122 118.684 3.15C 119.26 2.166 120.058 1.398 121.078 0.846C 122.098 0.282 123.238 0 124.498 0C 125.482 0 126.382 0.167999 127.198 0.504C 128.014 0.828 128.71 1.314 129.286 1.962L 128.116 3.096C 127.168 2.1 125.986 1.602 124.57 1.602C 123.634 1.602 122.788 1.812 122.032 2.232C 121.276 2.652 120.682 3.234 120.25 3.978C 119.83 4.71 119.62 5.532 119.62 6.444C 119.62 7.356 119.83 8.184 120.25 8.928C 120.682 9.66 121.276 10.236 122.032 10.656C 122.788 11.076 123.634 11.286 124.57 11.286C 125.974 11.286 127.156 10.782 128.116 9.774L 129.286 10.908C 128.71 11.556 128.008 12.048 127.18 12.384C 126.364 12.72 125.464 12.888 124.48 12.888Z"/>
<path id="path10_fill" d="M 136.158 7.2L 133.53 7.2L 133.53 12.744L 131.766 12.744L 131.766 0.144L 133.53 0.144L 133.53 5.616L 136.194 5.616L 140.154 0.144L 142.08 0.144L 137.58 6.246L 142.296 12.744L 140.244 12.744L 136.158 7.2Z"/>
<path id="path11_fill" d="M 149.055 0.144C 150.687 0.144 151.971 0.534 152.907 1.314C 153.843 2.094 154.311 3.168 154.311 4.536C 154.311 5.904 153.843 6.978 152.907 7.758C 151.971 8.538 150.687 8.928 149.055 8.928L 145.941 8.928L 145.941 12.744L 144.141 12.744L 144.141 0.144L 149.055 0.144ZM 149.001 7.362C 150.141 7.362 151.011 7.122 151.611 6.642C 152.211 6.15 152.511 5.448 152.511 4.536C 152.511 3.624 152.211 2.928 151.611 2.448C 151.011 1.956 150.141 1.71 149.001 1.71L 145.941 1.71L 145.941 7.362L 149.001 7.362Z"/>
<path id="path12_fill" d="M 165.958 11.178L 165.958 12.744L 156.814 12.744L 156.814 0.144L 165.706 0.144L 165.706 1.71L 158.614 1.71L 158.614 5.58L 164.932 5.58L 164.932 7.11L 158.614 7.11L 158.614 11.178L 165.958 11.178Z"/>
<path id="path13_fill" d="M 174.366 12.888C 173.106 12.888 171.966 12.612 170.946 12.06C 169.938 11.496 169.146 10.728 168.57 9.756C 167.994 8.772 167.706 7.668 167.706 6.444C 167.706 5.22 167.994 4.122 168.57 3.15C 169.146 2.166 169.944 1.398 170.964 0.846C 171.984 0.282 173.124 0 174.384 0C 175.368 0 176.268 0.167999 177.084 0.504C 177.9 0.828 178.596 1.314 179.172 1.962L 178.002 3.096C 177.054 2.1 175.872 1.602 174.456 1.602C 173.52 1.602 172.674 1.812 171.918 2.232C 171.162 2.652 170.568 3.234 170.136 3.978C 169.716 4.71 169.506 5.532 169.506 6.444C 169.506 7.356 169.716 8.184 170.136 8.928C 170.568 9.66 171.162 10.236 171.918 10.656C 172.674 11.076 173.52 11.286 174.456 11.286C 175.86 11.286 177.042 10.782 178.002 9.774L 179.172 10.908C 178.596 11.556 177.894 12.048 177.066 12.384C 176.25 12.72 175.35 12.888 174.366 12.888Z"/>
<path id="path14_fill" d="M 190.796 11.178L 190.796 12.744L 181.652 12.744L 181.652 0.144L 190.544 0.144L 190.544 1.71L 183.452 1.71L 183.452 5.58L 189.77 5.58L 189.77 7.11L 183.452 7.11L 183.452 11.178L 190.796 11.178Z"/>
<path id="path15_fill" d="M 204.459 0.144L 204.459 12.744L 202.659 12.744L 202.659 7.128L 195.423 7.128L 195.423 12.744L 193.623 12.744L 193.623 0.144L 195.423 0.144L 195.423 5.562L 202.659 5.562L 202.659 0.144L 204.459 0.144Z"/>
<path id="path16_fill" d="M 213.915 4.536C 215.415 4.536 216.561 4.872 217.353 5.544C 218.157 6.216 218.559 7.206 218.559 8.514C 218.559 9.894 218.127 10.944 217.263 11.664C 216.411 12.384 215.187 12.744 213.591 12.744L 208.389 12.744L 208.389 0.144L 210.171 0.144L 210.171 4.536L 213.915 4.536ZM 213.519 11.322C 214.563 11.322 215.361 11.088 215.913 10.62C 216.477 10.14 216.759 9.45 216.759 8.55C 216.759 6.822 215.679 5.958 213.519 5.958L 210.171 5.958L 210.171 11.322L 213.519 11.322Z"/>
<path id="path17_fill" d="M 230.365 11.178L 230.365 12.744L 221.221 12.744L 221.221 0.144L 230.113 0.144L 230.113 1.71L 223.021 1.71L 223.021 5.58L 229.339 5.58L 229.339 7.11L 223.021 7.11L 223.021 11.178L 230.365 11.178Z"/>
<path id="path18_fill" d="M 0 0.21L 8.775 0.21L 8.775 2.505L 2.925 2.505L 2.925 4.2L 5.64 4.2C 6.91 4.2 7.885 4.47 8.565 5.01C 9.245 5.55 9.585 6.325 9.585 7.335C 9.585 8.395 9.205 9.225 8.445 9.825C 7.685 10.415 6.62 10.71 5.25 10.71L 0 10.71L 0 0.21ZM 5.055 8.58C 5.555 8.58 5.935 8.48 6.195 8.28C 6.455 8.08 6.585 7.795 6.585 7.425C 6.585 6.685 6.075 6.315 5.055 6.315L 2.925 6.315L 2.925 8.58L 5.055 8.58Z"/>
<path id="path19_fill" d="M 19.5482 8.415L 19.5482 10.71L 11.1182 10.71L 11.1182 0.21L 19.3532 0.21L 19.3532 2.505L 14.0582 2.505L 14.0582 4.275L 18.7232 4.275L 18.7232 6.495L 14.0582 6.495L 14.0582 8.415L 19.5482 8.415Z"/>
<path id="path20_fill" d="M 26.3406 10.92C 25.2406 10.92 24.2506 10.69 23.3706 10.23C 22.5006 9.76 21.8156 9.11 21.3156 8.28C 20.8156 7.45 20.5656 6.51 20.5656 5.46C 20.5656 4.41 20.8156 3.47 21.3156 2.64C 21.8156 1.81 22.5006 1.165 23.3706 0.705C 24.2506 0.235 25.2406 0 26.3406 0C 27.3006 0 28.1656 0.17 28.9356 0.51C 29.7056 0.85 30.3456 1.34 30.8556 1.98L 28.9656 3.69C 28.2856 2.87 27.4606 2.46 26.4906 2.46C 25.9206 2.46 25.4106 2.585 24.9606 2.835C 24.5206 3.085 24.1756 3.44 23.9256 3.9C 23.6856 4.35 23.5656 4.87 23.5656 5.46C 23.5656 6.05 23.6856 6.575 23.9256 7.035C 24.1756 7.485 24.5206 7.835 24.9606 8.085C 25.4106 8.335 25.9206 8.46 26.4906 8.46C 27.4606 8.46 28.2856 8.05 28.9656 7.23L 30.8556 8.94C 30.3456 9.58 29.7056 10.07 28.9356 10.41C 28.1656 10.75 27.3006 10.92 26.3406 10.92Z"/>
<path id="path21_fill" d="M 42.0523 0.21L 42.0523 10.71L 39.1123 10.71L 39.1123 2.565L 35.1223 2.565L 35.1223 10.71L 32.1973 10.71L 32.1973 0.21L 42.0523 0.21Z"/>
<path id="path22_fill" d="M 54.0626 0.21L 54.0626 10.71L 51.1376 10.71L 51.1376 2.565L 48.1226 2.565L 48.0626 4.275C 48.0126 5.775 47.8876 6.995 47.6876 7.935C 47.4976 8.875 47.1676 9.605 46.6976 10.125C 46.2276 10.635 45.5626 10.89 44.7026 10.89C 44.3026 10.89 43.8526 10.83 43.3526 10.71L 43.5176 8.28C 43.6476 8.31 43.7826 8.325 43.9226 8.325C 44.3126 8.325 44.6126 8.17 44.8226 7.86C 45.0326 7.55 45.1826 7.12 45.2726 6.57C 45.3626 6.01 45.4226 5.285 45.4526 4.395L 45.6026 0.21L 54.0626 0.21Z"/>
<path id="path23_fill" d="M 63.5536 8.67L 59.1136 8.67L 58.2886 10.71L 55.2586 10.71L 59.8936 0.21L 62.8186 0.21L 67.4686 10.71L 64.3786 10.71L 63.5536 8.67ZM 62.6836 6.48L 61.3336 3.12L 59.9836 6.48L 62.6836 6.48Z"/>
<path id="path24_fill" d="M 76.6045 2.565L 73.3945 2.565L 73.3945 10.71L 70.4695 10.71L 70.4695 2.565L 67.2445 2.565L 67.2445 0.21L 76.6045 0.21L 76.6045 2.565Z"/>
<path id="path25_fill" d="M 87.9636 0.21L 87.9636 10.71L 84.9936 10.71L 84.9936 6.615L 80.9436 6.615L 80.9436 10.71L 77.9736 10.71L 77.9736 0.21L 80.9436 0.21L 80.9436 4.155L 84.9936 4.155L 84.9936 0.21L 87.9636 0.21Z"/>
<path id="path26_fill" d="M 95.3797 10.92C 94.2697 10.92 93.2697 10.685 92.3797 10.215C 91.4997 9.745 90.8047 9.095 90.2947 8.265C 89.7947 7.435 89.5447 6.5 89.5447 5.46C 89.5447 4.42 89.7947 3.485 90.2947 2.655C 90.8047 1.825 91.4997 1.175 92.3797 0.705C 93.2697 0.235 94.2697 0 95.3797 0C 96.4897 0 97.4847 0.235 98.3647 0.705C 99.2547 1.175 99.9497 1.825 100.45 2.655C 100.96 3.485 101.215 4.42 101.215 5.46C 101.215 6.5 100.96 7.435 100.45 8.265C 99.9497 9.095 99.2547 9.745 98.3647 10.215C 97.4847 10.685 96.4897 10.92 95.3797 10.92ZM 95.3797 8.46C 95.9097 8.46 96.3897 8.335 96.8197 8.085C 97.2497 7.835 97.5897 7.485 97.8397 7.035C 98.0897 6.575 98.2147 6.05 98.2147 5.46C 98.2147 4.87 98.0897 4.35 97.8397 3.9C 97.5897 3.44 97.2497 3.085 96.8197 2.835C 96.3897 2.585 95.9097 2.46 95.3797 2.46C 94.8497 2.46 94.3697 2.585 93.9397 2.835C 93.5097 3.085 93.1697 3.44 92.9197 3.9C 92.6697 4.35 92.5447 4.87 92.5447 5.46C 92.5447 6.05 92.6697 6.575 92.9197 7.035C 93.1697 7.485 93.5097 7.835 93.9397 8.085C 94.3697 8.335 94.8497 8.46 95.3797 8.46Z"/>
</defs>
</svg>
