<svg width="250" height="66" viewBox="0 0 250 66" version="1.1" xmlns="http://www.w3.org/2000/svg" xmlns:xlink="http://www.w3.org/1999/xlink">
<title>Group 46</title>
<desc>Created using Figma</desc>
<g id="Canvas" transform="translate(-4966 -1387)">
<g id="Group 46">
<g id="noun_1146595_cc">
<g id="Vector">
<use xlink:href="#path0_fill" transform="translate(5066 1389)" fill="#D0021B"/>
</g>
</g>
<g id="Group 45">
<g id="Group">
<g id="Rectangle 5">
<use xlink:href="#path1_fill" transform="translate(4966 1387)" fill="#D0021B"/>
</g>
</g>
<g id="&#208;&#179;. &#208;&#154;&#208;&#184;&#208;&#181;&#208;&#178; &#209;&#131;&#208;&#187;. &#208;&#164;&#208;&#184;&#208;&#187;&#208;&#176;&#209;&#130;&#208;&#190;&#208;&#178;&#208;&#176; 2/1">
<use xlink:href="#path2_fill" transform="translate(4997 1402)" fill="#FFFFFF"/>
</g>
</g>
</g>
</g>
<defs>
<path id="path0_fill" d="M 45.6965 10.8C 40.9965 3.9 33.4965 7.62939e-07 25.0965 7.62939e-07C 16.6965 7.62939e-07 9.19647 3.9 4.49647 10.8C -0.203534 17.6 -1.30353 26.2 1.59647 33.8C 2.39647 35.8 3.59647 37.9 5.19647 39.8L 25.0965 63.1L 44.8965 39.8C 46.4965 37.9 47.7965 35.9 48.4965 33.8C 51.4965 26.2 50.3965 17.6 45.6965 10.8ZM 25.0965 33C 19.4965 33 14.8965 28.5 14.8965 23C 14.8965 17.5 19.4965 13 25.0965 13C 30.6965 13 35.2965 17.5 35.2965 23C 35.2965 28.5 30.6965 33 25.0965 33Z"/>
<path id="path1_fill" d="M 0 3C 0 1.34315 1.34315 0 3 0L 247 0C 248.657 0 250 1.34315 250 3L 250 47C 250 48.6569 248.657 50 247 50L 3 50C 1.34315 50 0 48.6569 0 47L 0 3Z"/>
<path id="path2_fill" d="M 6.74219 8.57812L 3.41406 8.57812L 3.41406 15L 0.773438 15L 0.773438 6.54688L 6.74219 6.54688L 6.74219 8.57812ZM 9.15625 12.4453C 9.57292 12.4453 9.91927 12.5703 10.1953 12.8203C 10.4714 13.0651 10.6094 13.3802 10.6094 13.7656C 10.6094 14.151 10.4714 14.4688 10.1953 14.7188C 9.91927 14.9635 9.57292 15.0859 9.15625 15.0859C 8.73438 15.0859 8.38542 14.9609 8.10938 14.7109C 7.83854 14.4609 7.70312 14.1458 7.70312 13.7656C 7.70312 13.3854 7.83854 13.0703 8.10938 12.8203C 8.38542 12.5703 8.73438 12.4453 9.15625 12.4453ZM 20.5 10.5L 19.2031 10.5L 19.2031 15L 16.4609 15L 16.4609 3.625L 19.2031 3.625L 19.2031 8.02344L 20.2578 8.02344L 22.4453 3.625L 25.7656 3.625L 22.6406 8.875L 26.1562 15L 22.9141 15L 20.5 10.5ZM 31.6328 6.54688L 34.2734 6.54688L 34.2734 15L 31.6328 15L 31.6328 10.0781L 29.3125 15L 26.6641 15L 26.6641 6.54688L 29.3125 6.54688L 29.3125 11.4531L 31.6328 6.54688ZM 39.7734 15.1562C 38.4766 15.1562 37.4271 14.7708 36.625 14C 35.8229 13.224 35.4219 12.2161 35.4219 10.9766L 35.4219 10.7578C 35.4219 9.89323 35.5807 9.13021 35.8984 8.46875C 36.2214 7.80729 36.6901 7.29688 37.3047 6.9375C 37.9193 6.57292 38.6484 6.39062 39.4922 6.39062C 40.6797 6.39062 41.6172 6.76042 42.3047 7.5C 42.9922 8.23438 43.3359 9.26042 43.3359 10.5781L 43.3359 11.6016L 38.1016 11.6016C 38.1953 12.0755 38.401 12.4479 38.7188 12.7188C 39.0365 12.9896 39.4479 13.125 39.9531 13.125C 40.7865 13.125 41.4375 12.8333 41.9062 12.25L 43.1094 13.6719C 42.7812 14.125 42.3151 14.487 41.7109 14.7578C 41.112 15.0234 40.4661 15.1562 39.7734 15.1562ZM 39.4766 8.42188C 38.7057 8.42188 38.2474 8.93229 38.1016 9.95312L 40.7578 9.95312L 40.7578 9.75C 40.7682 9.32812 40.6615 9.0026 40.4375 8.77344C 40.2135 8.53906 39.8932 8.42188 39.4766 8.42188ZM 44.5781 15L 44.5781 6.54688L 48.2031 6.54688C 49.3646 6.54688 50.2526 6.75 50.8672 7.15625C 51.487 7.5625 51.7969 8.14844 51.7969 8.91406C 51.7969 9.30469 51.6615 9.65625 51.3906 9.96875C 51.1198 10.276 50.724 10.513 50.2031 10.6797C 50.875 10.7943 51.3932 11.0182 51.7578 11.3516C 52.1224 11.6797 52.3047 12.0911 52.3047 12.5859C 52.3047 13.3828 52.0026 13.9844 51.3984 14.3906C 50.7995 14.7917 49.9349 14.9948 48.8047 15L 44.5781 15ZM 47.2188 11.5547L 47.2188 12.9844L 48.7578 12.9844C 49.0859 12.9844 49.3203 12.9271 49.4609 12.8125C 49.6016 12.6979 49.6719 12.5234 49.6719 12.2891C 49.6719 11.8203 49.401 11.5755 48.8594 11.5547L 47.2188 11.5547ZM 47.2188 9.92969L 48.3047 9.92969C 48.6224 9.92969 48.8438 9.8776 48.9688 9.77344C 49.099 9.66406 49.1641 9.50521 49.1641 9.29688C 49.1641 9.02604 49.0859 8.83594 48.9297 8.72656C 48.7734 8.61719 48.5312 8.5625 48.2031 8.5625L 47.2188 8.5625L 47.2188 9.92969ZM 60.75 11.3125L 62.1562 6.54688L 64.9766 6.54688L 61.5312 16.4141L 61.3828 16.7734C 60.8932 17.8672 60.0286 18.4141 58.7891 18.4141C 58.4453 18.4141 58.0833 18.362 57.7031 18.2578L 57.7031 16.375L 58.0469 16.375C 58.4167 16.375 58.6979 16.3203 58.8906 16.2109C 59.0885 16.1068 59.2344 15.9167 59.3281 15.6406L 59.5391 15.0781L 56.6016 6.54688L 59.4141 6.54688L 60.75 11.3125ZM 72.8906 6.54688L 72.8906 15L 70.2578 15L 70.2578 8.57812L 68.6797 8.57812L 68.5391 11.1641C 68.4401 12.4453 68.151 13.4036 67.6719 14.0391C 67.1927 14.6745 66.4818 14.9948 65.5391 15L 64.7109 15L 64.6797 12.9844L 64.9531 12.9531C 65.3021 12.9115 65.5599 12.6797 65.7266 12.2578C 65.8984 11.8307 66.0078 11.1875 66.0547 10.3281L 66.2188 6.54688L 72.8906 6.54688ZM 75.9531 12.4453C 76.3698 12.4453 76.7161 12.5703 76.9922 12.8203C 77.2682 13.0651 77.4062 13.3802 77.4062 13.7656C 77.4062 14.151 77.2682 14.4688 76.9922 14.7188C 76.7161 14.9635 76.3698 15.0859 75.9531 15.0859C 75.5312 15.0859 75.1823 14.9609 74.9062 14.7109C 74.6354 14.4609 74.5 14.1458 74.5 13.7656C 74.5 13.3854 74.6354 13.0703 74.9062 12.8203C 75.1823 12.5703 75.5312 12.4453 75.9531 12.4453ZM 90.4609 4.59375C 91.9401 4.59375 93.1172 5.03646 93.9922 5.92188C 94.8724 6.80208 95.3125 7.95573 95.3125 9.38281C 95.3125 10.0807 95.1953 10.7161 94.9609 11.2891C 94.7318 11.8568 94.4089 12.3411 93.9922 12.7422C 93.112 13.6016 91.9349 14.0312 90.4609 14.0312L 90.4609 15.4688L 87.8203 15.4688L 87.8203 14.0312C 86.3255 14.0312 85.138 13.6016 84.2578 12.7422C 83.3776 11.8828 82.9375 10.7682 82.9375 9.39844C 82.9375 8.67448 83.0547 8.01823 83.2891 7.42969C 83.5234 6.84115 83.8516 6.33854 84.2734 5.92188C 85.1589 5.03646 86.3411 4.59375 87.8203 4.59375L 87.8203 3.15625L 90.4609 3.15625L 90.4609 4.59375ZM 87.7188 6.79688C 87.0365 6.79688 86.4974 7.02604 86.1016 7.48438C 85.7109 7.94271 85.5156 8.58073 85.5156 9.39844C 85.5156 10.1484 85.7135 10.7422 86.1094 11.1797C 86.5052 11.612 87.0755 11.8281 87.8203 11.8281L 87.8203 6.79688L 87.7188 6.79688ZM 90.4609 6.79688L 90.4609 11.8281L 90.5781 11.8281C 91.2292 11.8281 91.75 11.6146 92.1406 11.1875C 92.5365 10.7552 92.7344 10.1536 92.7344 9.38281C 92.7344 8.58073 92.5417 7.95052 92.1562 7.49219C 91.776 7.02865 91.2109 6.79688 90.4609 6.79688ZM 101.477 6.54688L 104.117 6.54688L 104.117 15L 101.477 15L 101.477 10.0781L 99.1562 15L 96.5078 15L 96.5078 6.54688L 99.1562 6.54688L 99.1562 11.4531L 101.477 6.54688ZM 113.078 6.54688L 113.078 15L 110.445 15L 110.445 8.57812L 108.867 8.57812L 108.727 11.1641C 108.628 12.4453 108.339 13.4036 107.859 14.0391C 107.38 14.6745 106.669 14.9948 105.727 15L 104.898 15L 104.867 12.9844L 105.141 12.9531C 105.49 12.9115 105.747 12.6797 105.914 12.2578C 106.086 11.8307 106.195 11.1875 106.242 10.3281L 106.406 6.54688L 113.078 6.54688ZM 119.273 15C 119.18 14.8281 119.096 14.5755 119.023 14.2422C 118.539 14.8516 117.862 15.1562 116.992 15.1562C 116.195 15.1562 115.518 14.9167 114.961 14.4375C 114.404 13.9531 114.125 13.3464 114.125 12.6172C 114.125 11.7005 114.464 11.0078 115.141 10.5391C 115.818 10.0703 116.802 9.83594 118.094 9.83594L 118.906 9.83594L 118.906 9.39062C 118.906 8.61458 118.57 8.22656 117.898 8.22656C 117.273 8.22656 116.961 8.53385 116.961 9.14844L 114.328 9.14844C 114.328 8.33073 114.674 7.66667 115.367 7.15625C 116.065 6.64583 116.953 6.39062 118.031 6.39062C 119.109 6.39062 119.961 6.65365 120.586 7.17969C 121.211 7.70573 121.531 8.42708 121.547 9.34375L 121.547 13.0859C 121.557 13.862 121.677 14.4557 121.906 14.8672L 121.906 15L 119.273 15ZM 117.625 13.2812C 117.953 13.2812 118.224 13.2109 118.438 13.0703C 118.656 12.9297 118.812 12.7708 118.906 12.5938L 118.906 11.2422L 118.141 11.2422C 117.224 11.2422 116.766 11.6536 116.766 12.4766C 116.766 12.7161 116.846 12.9115 117.008 13.0625C 117.169 13.2083 117.375 13.2812 117.625 13.2812ZM 130.289 8.5625L 127.625 8.5625L 127.625 15L 124.977 15L 124.977 8.5625L 122.352 8.5625L 122.352 6.54688L 130.289 6.54688L 130.289 8.5625ZM 130.711 10.6953C 130.711 9.85156 130.875 9.10156 131.203 8.44531C 131.531 7.78385 132.003 7.27604 132.617 6.92188C 133.232 6.56771 133.953 6.39062 134.781 6.39062C 136.047 6.39062 137.044 6.78385 137.773 7.57031C 138.503 8.35156 138.867 9.41667 138.867 10.7656L 138.867 10.8594C 138.867 12.1771 138.5 13.224 137.766 14C 137.036 14.7708 136.047 15.1562 134.797 15.1562C 133.594 15.1562 132.628 14.7969 131.898 14.0781C 131.169 13.3542 130.776 12.375 130.719 11.1406L 130.711 10.6953ZM 133.344 10.8594C 133.344 11.6406 133.466 12.2135 133.711 12.5781C 133.956 12.9427 134.318 13.125 134.797 13.125C 135.734 13.125 136.214 12.4036 136.234 10.9609L 136.234 10.6953C 136.234 9.17969 135.75 8.42188 134.781 8.42188C 133.901 8.42188 133.424 9.07552 133.352 10.3828L 133.344 10.8594ZM 140.203 15L 140.203 6.54688L 143.828 6.54688C 144.99 6.54688 145.878 6.75 146.492 7.15625C 147.112 7.5625 147.422 8.14844 147.422 8.91406C 147.422 9.30469 147.286 9.65625 147.016 9.96875C 146.745 10.276 146.349 10.513 145.828 10.6797C 146.5 10.7943 147.018 11.0182 147.383 11.3516C 147.747 11.6797 147.93 12.0911 147.93 12.5859C 147.93 13.3828 147.628 13.9844 147.023 14.3906C 146.424 14.7917 145.56 14.9948 144.43 15L 140.203 15ZM 142.844 11.5547L 142.844 12.9844L 144.383 12.9844C 144.711 12.9844 144.945 12.9271 145.086 12.8125C 145.227 12.6979 145.297 12.5234 145.297 12.2891C 145.297 11.8203 145.026 11.5755 144.484 11.5547L 142.844 11.5547ZM 142.844 9.92969L 143.93 9.92969C 144.247 9.92969 144.469 9.8776 144.594 9.77344C 144.724 9.66406 144.789 9.50521 144.789 9.29688C 144.789 9.02604 144.711 8.83594 144.555 8.72656C 144.398 8.61719 144.156 8.5625 143.828 8.5625L 142.844 8.5625L 142.844 9.92969ZM 153.773 15C 153.68 14.8281 153.596 14.5755 153.523 14.2422C 153.039 14.8516 152.362 15.1562 151.492 15.1562C 150.695 15.1562 150.018 14.9167 149.461 14.4375C 148.904 13.9531 148.625 13.3464 148.625 12.6172C 148.625 11.7005 148.964 11.0078 149.641 10.5391C 150.318 10.0703 151.302 9.83594 152.594 9.83594L 153.406 9.83594L 153.406 9.39062C 153.406 8.61458 153.07 8.22656 152.398 8.22656C 151.773 8.22656 151.461 8.53385 151.461 9.14844L 148.828 9.14844C 148.828 8.33073 149.174 7.66667 149.867 7.15625C 150.565 6.64583 151.453 6.39062 152.531 6.39062C 153.609 6.39062 154.461 6.65365 155.086 7.17969C 155.711 7.70573 156.031 8.42708 156.047 9.34375L 156.047 13.0859C 156.057 13.862 156.177 14.4557 156.406 14.8672L 156.406 15L 153.773 15ZM 152.125 13.2812C 152.453 13.2812 152.724 13.2109 152.938 13.0703C 153.156 12.9297 153.312 12.7708 153.406 12.5938L 153.406 11.2422L 152.641 11.2422C 151.724 11.2422 151.266 11.6536 151.266 12.4766C 151.266 12.7161 151.346 12.9115 151.508 13.0625C 151.669 13.2083 151.875 13.2812 152.125 13.2812ZM 169.391 15L 161.453 15L 161.453 13.2812L 165.109 9.4375C 166.01 8.41146 166.461 7.59635 166.461 6.99219C 166.461 6.5026 166.354 6.13021 166.141 5.875C 165.927 5.61979 165.617 5.49219 165.211 5.49219C 164.81 5.49219 164.484 5.66406 164.234 6.00781C 163.984 6.34635 163.859 6.77083 163.859 7.28125L 161.219 7.28125C 161.219 6.58333 161.393 5.9401 161.742 5.35156C 162.091 4.75781 162.576 4.29427 163.195 3.96094C 163.815 3.6276 164.508 3.46094 165.273 3.46094C 166.503 3.46094 167.448 3.74479 168.109 4.3125C 168.776 4.88021 169.109 5.69531 169.109 6.75781C 169.109 7.20573 169.026 7.64323 168.859 8.07031C 168.693 8.49219 168.432 8.9375 168.078 9.40625C 167.729 9.86979 167.164 10.4922 166.383 11.2734L 164.914 12.9688L 169.391 12.9688L 169.391 15ZM 171.664 15.9766L 169.797 15.9766L 173.68 3.625L 175.555 3.625L 171.664 15.9766ZM 182.18 15L 179.539 15L 179.539 6.59375L 176.945 7.35156L 176.945 5.35156L 181.938 3.625L 182.18 3.625L 182.18 15Z"/>
</defs>
</svg>
