<?xml version="1.0" encoding="utf-8"?>
<!-- Generator: Adobe Illustrator 17.0.0, SVG Export Plug-In . SVG Version: 6.00 Build 0)  -->
<!DOCTYPE svg PUBLIC "-//W3C//DTD SVG 1.1//EN" "http://www.w3.org/Graphics/SVG/1.1/DTD/svg11.dtd">
<svg version="1.1" id="Слой_1" xmlns="http://www.w3.org/2000/svg" xmlns:xlink="http://www.w3.org/1999/xlink" x="0px" y="0px"
	 width="250px" height="66px" viewBox="0 0 250 66" enable-background="new 0 0 250 66" xml:space="preserve">
<g id="Canvas" transform="translate(-4966 -1387)">
	<g id="Group_46">
		<path id="path0_fill" fill="#D0021B" d="M5111.696,1399.8c-4.7-6.9-12.2-10.8-20.6-10.8c-8.4,0-15.9,3.9-20.6,10.8
						c-4.7,6.8-5.8,15.4-2.9,23c0.8,2,2,4.1,3.6,6l19.9,23.3l19.8-23.3c1.6-1.9,2.9-3.9,3.6-6
						C5117.497,1415.2,5116.396,1406.6,5111.696,1399.8z M5091.097,1422c-5.6,0-10.2-4.5-10.2-10s4.6-10,10.2-10
						c5.6,0,10.2,4.5,10.2,10S5096.696,1422,5091.097,1422z"/>
		<g id="Group_45">
			<path id="path1_fill" fill="#D0021B" d="M4966,1390c0-1.657,1.343-3,3-3h244c1.657,0,3,1.343,3,3v44c0,1.657-1.343,3-3,3h-244
							c-1.657,0-3-1.343-3-3V1390z"/>
			<g>
				<path fill="#FFFFFF" d="M4988.203,1408.615v1.342h-2.736v5.209h-1.787v-6.551H4988.203z"/>
				<path fill="#FFFFFF" d="M4989.164,1414.328c0-0.328,0.088-0.576,0.264-0.744s0.432-0.252,0.768-0.252
					c0.324,0,0.575,0.086,0.753,0.258s0.267,0.418,0.267,0.738c0,0.309-0.09,0.552-0.27,0.729s-0.43,0.267-0.75,0.267
					c-0.328,0-0.582-0.087-0.762-0.261S4989.164,1414.644,4989.164,1414.328z"/>
				<path fill="#FFFFFF" d="M4995.076,1413.654h0.662c0.566-1.133,1.014-2.265,1.342-3.396s0.572-2.351,0.732-3.659h4.992v7.055
					h1.143v4.008h-1.752v-2.496h-5.367v2.496h-1.752V1413.654z M4999.254,1408.111c-0.125,0.895-0.333,1.842-0.624,2.842
					s-0.618,1.9-0.981,2.701h3.346v-5.543H4999.254z"/>
				<path fill="#FFFFFF" d="M5006.912,1408.615v2.52h2.496v-2.52h1.787v6.551h-1.787v-2.701h-2.496v2.701h-1.787v-6.551H5006.912z"
					/>
				<path fill="#FFFFFF" d="M5016.035,1415.283c-1.055,0-1.879-0.291-2.473-0.873s-0.891-1.406-0.891-2.473
					c0-1.098,0.274-1.946,0.823-2.546s1.308-0.899,2.276-0.899c0.926,0,1.646,0.264,2.162,0.791s0.773,1.256,0.773,2.186v0.867
					h-4.225c0.02,0.508,0.17,0.904,0.451,1.189s0.676,0.428,1.184,0.428c0.395,0,0.768-0.041,1.119-0.123s0.719-0.213,1.102-0.393
					v1.383c-0.312,0.156-0.646,0.272-1.002,0.349S5016.547,1415.283,5016.035,1415.283z M5015.783,1409.763
					c-0.379,0-0.676,0.12-0.891,0.36s-0.338,0.581-0.369,1.022h2.508c-0.008-0.441-0.123-0.782-0.346-1.022
					S5016.162,1409.763,5015.783,1409.763z"/>
				<path fill="#FFFFFF" d="M5026.113,1408.615v6.551h-1.793v-5.209h-2.373v5.209h-1.787v-6.551H5026.113z"/>
				<path fill="#FFFFFF" d="M5031.58,1415.283c-0.77,0-1.373-0.279-1.811-0.838h-0.094c0.062,0.547,0.094,0.863,0.094,0.949v2.654
					h-1.787v-9.434h1.453l0.252,0.85h0.082c0.418-0.648,1.037-0.973,1.857-0.973c0.773,0,1.379,0.299,1.816,0.896
					s0.656,1.428,0.656,2.49c0,0.699-0.103,1.307-0.308,1.822s-0.497,0.908-0.876,1.178S5032.092,1415.283,5031.58,1415.283z
					 M5031.053,1409.921c-0.441,0-0.764,0.136-0.967,0.407s-0.309,0.72-0.316,1.345v0.193c0,0.703,0.104,1.207,0.313,1.512
					s0.54,0.457,0.993,0.457c0.801,0,1.201-0.66,1.201-1.98c0-0.645-0.099-1.128-0.296-1.45S5031.475,1409.921,5031.053,1409.921z"
					/>
				<path fill="#FFFFFF" d="M5037.328,1413.906c-0.203,0.789-0.547,1.725-1.031,2.807h-1.289c0.254-1.039,0.451-2.02,0.592-2.941
					h1.641L5037.328,1413.906z"/>
				<path fill="#FFFFFF" d="M5041.236,1408.615h1.957l1.236,3.686c0.105,0.32,0.178,0.699,0.217,1.137h0.035
					c0.043-0.402,0.127-0.781,0.252-1.137l1.213-3.686h1.916l-2.771,7.389c-0.254,0.684-0.616,1.195-1.087,1.535
					s-1.021,0.51-1.649,0.51c-0.309,0-0.611-0.033-0.908-0.1v-1.418c0.215,0.051,0.449,0.076,0.703,0.076
					c0.316,0,0.593-0.097,0.829-0.29s0.421-0.485,0.554-0.876l0.105-0.322L5041.236,1408.615z"/>
				<path fill="#FFFFFF" d="M5054.865,1415.166h-1.787v-5.209h-1.646c-0.125,1.465-0.277,2.558-0.457,3.278
					s-0.419,1.242-0.718,1.564s-0.69,0.483-1.175,0.483c-0.414,0-0.754-0.062-1.02-0.188v-1.43c0.191,0.078,0.383,0.117,0.574,0.117
					c0.223,0,0.409-0.16,0.56-0.48s0.285-0.854,0.404-1.603s0.222-1.776,0.308-3.085h4.957V1415.166z"/>
				<path fill="#FFFFFF" d="M5056.488,1414.328c0-0.328,0.088-0.576,0.264-0.744s0.432-0.252,0.768-0.252
					c0.324,0,0.575,0.086,0.753,0.258s0.267,0.418,0.267,0.738c0,0.309-0.09,0.552-0.27,0.729s-0.43,0.267-0.75,0.267
					c-0.328,0-0.582-0.087-0.762-0.261S5056.488,1414.644,5056.488,1414.328z"/>
				<path fill="#FFFFFF" d="M5067.059,1407.988c-0.684,0-1.213,0.257-1.588,0.771s-0.562,1.229-0.562,2.147
					c0,1.91,0.717,2.865,2.15,2.865c0.602,0,1.33-0.15,2.186-0.451v1.523c-0.703,0.293-1.488,0.439-2.355,0.439
					c-1.246,0-2.199-0.378-2.859-1.134s-0.99-1.841-0.99-3.255c0-0.891,0.162-1.671,0.486-2.341s0.79-1.184,1.397-1.541
					s1.319-0.536,2.136-0.536c0.832,0,1.668,0.201,2.508,0.604l-0.586,1.477c-0.32-0.152-0.643-0.285-0.967-0.398
					S5067.371,1407.988,5067.059,1407.988z"/>
				<path fill="#FFFFFF" d="M5072.654,1408.615v2.59c0,0.273-0.045,0.941-0.135,2.004l3.023-4.594h2.15v6.551h-1.729v-2.613
					c0-0.465,0.039-1.121,0.117-1.969l-3.012,4.582h-2.145v-6.551H5072.654z"/>
				<path fill="#FFFFFF" d="M5087.824,1415.166h-1.67v-5.162l-0.094,0.363c-0.211,0.824-0.4,1.447-0.568,1.869l-1.16,2.93h-1.271
					l-1.178-2.953c-0.168-0.43-0.348-1.033-0.539-1.811l-0.111-0.398v5.162h-1.664v-6.551h2.461l1.125,2.795
					c0.117,0.301,0.226,0.646,0.325,1.037s0.167,0.725,0.202,1.002c0.129-0.586,0.229-1.007,0.302-1.263s0.151-0.491,0.237-0.706
					s0.475-1.17,1.166-2.865h2.438V1415.166z"/>
				<path fill="#FFFFFF" d="M5094.486,1408.58c1.094,0.09,1.951,0.428,2.572,1.014s0.932,1.352,0.932,2.297
					c0,0.965-0.307,1.737-0.92,2.317s-1.475,0.915-2.584,1.005v2.836h-1.658v-2.836c-1.105-0.102-1.97-0.448-2.593-1.04
					s-0.935-1.353-0.935-2.282c0-0.988,0.301-1.769,0.902-2.341s1.477-0.896,2.625-0.97v-2.531h1.658V1408.58z M5091.141,1411.89
					c0,0.551,0.15,0.999,0.451,1.345s0.713,0.554,1.236,0.624v-3.938c-0.504,0.066-0.911,0.279-1.222,0.639
					S5091.141,1411.363,5091.141,1411.89z M5096.156,1411.89c0-0.516-0.146-0.95-0.439-1.304s-0.703-0.567-1.23-0.642v3.914
					c0.52-0.07,0.928-0.279,1.225-0.627S5096.156,1412.437,5096.156,1411.89z"/>
				<path fill="#FFFFFF" d="M5102.432,1415.283c-1.055,0-1.879-0.291-2.473-0.873s-0.891-1.406-0.891-2.473
					c0-1.098,0.274-1.946,0.823-2.546s1.308-0.899,2.276-0.899c0.926,0,1.646,0.264,2.162,0.791s0.773,1.256,0.773,2.186v0.867
					h-4.225c0.02,0.508,0.17,0.904,0.451,1.189s0.676,0.428,1.184,0.428c0.395,0,0.768-0.041,1.119-0.123s0.719-0.213,1.102-0.393
					v1.383c-0.312,0.156-0.646,0.272-1.002,0.349S5102.943,1415.283,5102.432,1415.283z M5102.18,1409.763
					c-0.379,0-0.676,0.12-0.891,0.36s-0.338,0.581-0.369,1.022h2.508c-0.008-0.441-0.123-0.782-0.346-1.022
					S5102.559,1409.763,5102.18,1409.763z"/>
				<path fill="#FFFFFF" d="M5110.154,1415.283c-0.77,0-1.373-0.279-1.811-0.838h-0.094c0.062,0.547,0.094,0.863,0.094,0.949v2.654
					h-1.787v-9.434h1.453l0.252,0.85h0.082c0.418-0.648,1.037-0.973,1.857-0.973c0.773,0,1.379,0.299,1.816,0.896
					s0.656,1.428,0.656,2.49c0,0.699-0.103,1.307-0.308,1.822s-0.497,0.908-0.876,1.178S5110.666,1415.283,5110.154,1415.283z
					 M5109.627,1409.921c-0.441,0-0.764,0.136-0.967,0.407s-0.309,0.72-0.316,1.345v0.193c0,0.703,0.104,1.207,0.313,1.512
					s0.54,0.457,0.993,0.457c0.801,0,1.201-0.66,1.201-1.98c0-0.645-0.099-1.128-0.296-1.45S5110.049,1409.921,5109.627,1409.921z"
					/>
				<path fill="#FFFFFF" d="M5120.104,1411.878c0,1.066-0.281,1.9-0.844,2.502s-1.346,0.902-2.35,0.902
					c-0.629,0-1.184-0.138-1.664-0.413s-0.85-0.671-1.107-1.187s-0.387-1.117-0.387-1.805c0-1.07,0.279-1.902,0.838-2.496
					s1.344-0.891,2.355-0.891c0.629,0,1.184,0.137,1.664,0.41s0.85,0.666,1.107,1.178S5120.104,1411.191,5120.104,1411.878z
					 M5115.574,1411.878c0,0.648,0.106,1.139,0.319,1.471s0.56,0.498,1.04,0.498c0.477,0,0.819-0.165,1.028-0.495
					s0.313-0.821,0.313-1.474c0-0.648-0.105-1.135-0.316-1.459s-0.557-0.486-1.037-0.486c-0.477,0-0.82,0.161-1.031,0.483
					S5115.574,1411.226,5115.574,1411.878z"/>
				<path fill="#FFFFFF" d="M5127.533,1408.615v6.551h-1.793v-5.209h-2.373v5.209h-1.787v-6.551H5127.533z"/>
				<path fill="#FFFFFF" d="M5135.355,1411.878c0,1.066-0.281,1.9-0.844,2.502s-1.346,0.902-2.35,0.902
					c-0.629,0-1.184-0.138-1.664-0.413s-0.85-0.671-1.107-1.187s-0.387-1.117-0.387-1.805c0-1.07,0.279-1.902,0.838-2.496
					s1.344-0.891,2.355-0.891c0.629,0,1.184,0.137,1.664,0.41s0.85,0.666,1.107,1.178S5135.355,1411.191,5135.355,1411.878z
					 M5130.826,1411.878c0,0.648,0.106,1.139,0.319,1.471s0.56,0.498,1.04,0.498c0.477,0,0.819-0.165,1.028-0.495
					s0.313-0.821,0.313-1.474c0-0.648-0.105-1.135-0.316-1.459s-0.557-0.486-1.037-0.486c-0.477,0-0.82,0.161-1.031,0.483
					S5130.826,1411.226,5130.826,1411.878z"/>
				<path fill="#FFFFFF" d="M5142.697,1415.166h-1.787v-5.209h-1.646c-0.125,1.465-0.277,2.558-0.457,3.278
					s-0.419,1.242-0.718,1.564s-0.69,0.483-1.175,0.483c-0.414,0-0.754-0.062-1.02-0.188v-1.43c0.191,0.078,0.383,0.117,0.574,0.117
					c0.223,0,0.409-0.16,0.56-0.48s0.285-0.854,0.404-1.603s0.222-1.776,0.308-3.085h4.957V1415.166z"/>
				<path fill="#FFFFFF" d="M5146.359,1411.146h1.26c1.008,0,1.754,0.16,2.238,0.48s0.727,0.805,0.727,1.453
					c0,1.391-0.965,2.086-2.895,2.086h-3.117v-6.551h1.787V1411.146z M5148.797,1413.103c0-0.254-0.102-0.438-0.305-0.551
					s-0.506-0.17-0.908-0.17h-1.225v1.547h1.248C5148.4,1413.929,5148.797,1413.654,5148.797,1413.103z"/>
				<path fill="#FFFFFF" d="M5154.598,1415.283c-2.039,0-3.059-1.119-3.059-3.357c0-1.113,0.277-1.964,0.832-2.552
					s1.35-0.882,2.385-0.882c0.758,0,1.438,0.148,2.039,0.445l-0.527,1.383c-0.281-0.113-0.543-0.206-0.785-0.278
					s-0.484-0.108-0.727-0.108c-0.93,0-1.395,0.66-1.395,1.98c0,1.281,0.465,1.922,1.395,1.922c0.344,0,0.662-0.046,0.955-0.138
					s0.586-0.235,0.879-0.431v1.529c-0.289,0.184-0.581,0.311-0.876,0.381S5155.047,1415.283,5154.598,1415.283z"/>
				<path fill="#FFFFFF" d="M5162.402,1408.615h1.969l-2.596,3.141l2.824,3.41h-2.027l-2.678-3.322v3.322h-1.787v-6.551h1.787v3.182
					L5162.402,1408.615z"/>
				<path fill="#FFFFFF" d="M5169.697,1415.166l-0.346-0.891h-0.047c-0.301,0.379-0.61,0.642-0.929,0.788s-0.733,0.22-1.245,0.22
					c-0.629,0-1.124-0.18-1.485-0.539s-0.542-0.871-0.542-1.535c0-0.695,0.243-1.208,0.729-1.538s1.22-0.513,2.2-0.548l1.137-0.035
					v-0.287c0-0.664-0.34-0.996-1.02-0.996c-0.523,0-1.139,0.158-1.846,0.475l-0.592-1.207c0.754-0.395,1.59-0.592,2.508-0.592
					c0.879,0,1.553,0.191,2.021,0.574s0.703,0.965,0.703,1.746v4.365H5169.697z M5169.17,1412.13l-0.691,0.023
					c-0.52,0.016-0.906,0.109-1.16,0.281s-0.381,0.434-0.381,0.785c0,0.504,0.289,0.756,0.867,0.756
					c0.414,0,0.745-0.119,0.993-0.357s0.372-0.555,0.372-0.949V1412.13z"/>
				<path fill="#FFFFFF" d="M5173.781,1415.166h-1.934l1.764-2.59c-0.422-0.176-0.741-0.43-0.958-0.762s-0.325-0.723-0.325-1.172
					c0-0.633,0.237-1.129,0.712-1.488s1.122-0.539,1.942-0.539h3.047v6.551h-1.787v-2.438h-0.984L5173.781,1415.166z
					 M5174.08,1410.654c0,0.273,0.107,0.487,0.322,0.642s0.496,0.231,0.844,0.231h0.996v-1.652h-1.225
					c-0.293,0-0.522,0.071-0.688,0.214S5174.08,1410.419,5174.08,1410.654z"/>
				<path fill="#FFFFFF" d="M5181.65,1413.906c-0.203,0.789-0.547,1.725-1.031,2.807h-1.289c0.254-1.039,0.451-2.02,0.592-2.941
					h1.641L5181.65,1413.906z"/>
				<path fill="#FFFFFF" d="M5192.027,1415.166h-5.988v-1.26l2.15-2.174c0.637-0.652,1.053-1.104,1.248-1.356s0.336-0.485,0.422-0.7
					s0.129-0.438,0.129-0.668c0-0.344-0.095-0.6-0.284-0.768s-0.442-0.252-0.759-0.252c-0.332,0-0.654,0.076-0.967,0.229
					s-0.639,0.369-0.979,0.65l-0.984-1.166c0.422-0.359,0.771-0.613,1.049-0.762s0.58-0.263,0.908-0.343s0.695-0.12,1.102-0.12
					c0.535,0,1.008,0.098,1.418,0.293s0.729,0.469,0.955,0.82s0.34,0.754,0.34,1.207c0,0.395-0.069,0.765-0.208,1.11
					s-0.354,0.7-0.645,1.063s-0.804,0.881-1.538,1.553l-1.102,1.037v0.082h3.732V1415.166z"/>
				<path fill="#FFFFFF" d="M5197.365,1415.166h-1.811v-4.957l0.018-0.814l0.029-0.891c-0.301,0.301-0.51,0.498-0.627,0.592
					l-0.984,0.791l-0.873-1.09l2.76-2.197h1.488V1415.166z"/>
			</g>
		</g>
	</g>
</g>
</svg>
