<svg width="60" height="60" viewBox="0 0 60 60" version="1.1" xmlns="http://www.w3.org/2000/svg" xmlns:xlink="http://www.w3.org/1999/xlink">
<title>Group 42</title>
<desc>Created using Figma</desc>
<g id="Canvas" transform="translate(-5151 743)">
<g id="Group 42">
<g id="Group 31.10">
<g id="Ellipse">
<use xlink:href="#path0_fill" transform="translate(5151 -743)" fill="#FFFFFF"/>
<mask id="mask0_outline_ins">
<use xlink:href="#path0_fill" fill="white" transform="translate(5151 -743)"/>
</mask>
<g mask="url(#mask0_outline_ins)">
<use xlink:href="#path1_stroke_2x" transform="translate(5151 -743)"/>
</g>
</g>
</g>
<g id="noun_185866_cc">
<g id="Group">
<g id="Group">
<g id="Vector">
<use xlink:href="#path2_fill" transform="translate(5164 -724)"/>
</g>
<g id="Vector">
<use xlink:href="#path3_fill" transform="translate(5164 -719.875)"/>
</g>
<g id="Vector">
<use xlink:href="#path4_fill" transform="translate(5168.25 -710.25)"/>
</g>
<g id="Vector">
<use xlink:href="#path5_fill" transform="translate(5168.25 -707.5)"/>
</g>
</g>
<g id="Vector">
<use xlink:href="#path6_fill" transform="translate(5185.25 -712.999)"/>
</g>
<g id="Vector">
<use xlink:href="#path7_fill" transform="translate(5182.42 -713)"/>
</g>
<g id="Vector">
<use xlink:href="#path7_fill" transform="translate(5189.5 -708.875)"/>
</g>
</g>
</g>
</g>
</g>
<defs>
<path id="path0_fill" d="M 60 30C 60 46.5685 46.5685 60 30 60C 13.4315 60 0 46.5685 0 30C 0 13.4315 13.4315 0 30 0C 46.5685 0 60 13.4315 60 30Z"/>
<path id="path1_stroke_2x" d="M 59 30C 59 46.0163 46.0163 59 30 59L 30 61C 47.1208 61 61 47.1208 61 30L 59 30ZM 30 59C 13.9837 59 1 46.0163 1 30L -1 30C -1 47.1208 12.8792 61 30 61L 30 59ZM 1 30C 1 13.9837 13.9837 1 30 1L 30 -1C 12.8792 -1 -1 12.8792 -1 30L 1 30ZM 30 1C 46.0163 1 59 13.9837 59 30L 61 30C 61 12.8792 47.1208 -1 30 -1L 30 1Z"/>
<path id="path2_fill" d="M 30.4583 22L 3.54167 22C 1.58808 22 0 20.4573 0 18.5625L 0 3.4375C 0 1.54275 1.58808 0 3.54167 0L 30.4583 0C 32.4119 0 34 1.54275 34 3.4375L 34 18.5625C 34 20.4573 32.4119 22 30.4583 22ZM 3.54167 1.375C 2.37008 1.375 1.41667 2.30037 1.41667 3.4375L 1.41667 18.5625C 1.41667 19.6996 2.37008 20.625 3.54167 20.625L 30.4583 20.625C 31.6299 20.625 32.5833 19.6996 32.5833 18.5625L 32.5833 3.4375C 32.5833 2.30037 31.6299 1.375 30.4583 1.375L 3.54167 1.375Z"/>
<path id="path3_fill" d="M 33.2917 5.5L 0.708333 5.5C 0.317333 5.5 0 5.192 0 4.8125L 0 0.6875C 0 0.308 0.317333 0 0.708333 0L 33.2917 0C 33.6827 0 34 0.308 34 0.6875L 34 4.8125C 34 5.192 33.6827 5.5 33.2917 5.5ZM 1.41667 4.125L 32.5833 4.125L 32.5833 1.375L 1.41667 1.375L 1.41667 4.125Z"/>
<path id="path4_fill" d="M 6.375 1.375L 0.708333 1.375C 0.317333 1.375 0 1.067 0 0.6875C 0 0.308 0.317333 0 0.708333 0L 6.375 0C 6.766 0 7.08333 0.308 7.08333 0.6875C 7.08333 1.067 6.766 1.375 6.375 1.375Z"/>
<path id="path5_fill" d="M 10.625 1.375L 0.708333 1.375C 0.317333 1.375 0 1.067 0 0.6875C 0 0.308 0.317333 0 0.708333 0L 10.625 0C 11.016 0 11.3333 0.308 11.3333 0.6875C 11.3333 1.067 11.016 1.375 10.625 1.375Z"/>
<path id="path6_fill" d="M 0.708631 8.24928C 0.583964 8.24928 0.457881 8.21766 0.344547 8.15166C 0.00879722 7.95641 -0.100286 7.53428 0.100881 7.20841L 4.35088 0.333408C 4.55346 0.00753282 4.99121 -0.0969678 5.32271 0.0982822C 5.65846 0.293532 5.76755 0.715658 5.56638 1.04153L 1.31638 7.91653C 1.18321 8.13103 0.948047 8.24928 0.708631 8.24928Z"/>
<path id="path7_fill" d="M 2.125 4.125C 0.953417 4.125 0 3.19963 0 2.0625C 0 0.925375 0.953417 0 2.125 0C 3.29658 0 4.25 0.925375 4.25 2.0625C 4.25 3.19963 3.29658 4.125 2.125 4.125ZM 2.125 1.375C 1.73542 1.375 1.41667 1.683 1.41667 2.0625C 1.41667 2.442 1.73542 2.75 2.125 2.75C 2.51458 2.75 2.83333 2.442 2.83333 2.0625C 2.83333 1.683 2.51458 1.375 2.125 1.375Z"/>
</defs>
</svg>
