<svg width="60" height="60" viewBox="0 0 60 60" version="1.1" xmlns="http://www.w3.org/2000/svg" xmlns:xlink="http://www.w3.org/1999/xlink">
<title>Group 33</title>
<desc>Created using Figma</desc>
<g id="Canvas" transform="translate(-4661 1022)">
<g id="Group 33">
<g id="Group 31.7">
<g id="Ellipse">
<use xlink:href="#path0_fill" transform="translate(4661 -1022)" fill="#FFFFFF"/>
<mask id="mask0_outline_ins">
<use xlink:href="#path0_fill" fill="white" transform="translate(4661 -1022)"/>
</mask>
<g mask="url(#mask0_outline_ins)">
<use xlink:href="#path1_stroke_2x" transform="translate(4661 -1022)"/>
</g>
</g>
</g>
<g id="noun_965747_cc">
<g id="Group">
<g id="Vector">
<use xlink:href="#path2_fill" transform="matrix(6.12323e-17 -1 1 6.12323e-17 4680 -975)"/>
</g>
<g id="Vector">
<use xlink:href="#path3_fill" transform="matrix(6.12323e-17 -1 1 6.12323e-17 4683.36 -978.565)"/>
</g>
</g>
</g>
</g>
</g>
<defs>
<path id="path0_fill" d="M 60 30C 60 46.5685 46.5685 60 30 60C 13.4315 60 0 46.5685 0 30C 0 13.4315 13.4315 0 30 0C 46.5685 0 60 13.4315 60 30Z"/>
<path id="path1_stroke_2x" d="M 59 30C 59 46.0163 46.0163 59 30 59L 30 61C 47.1208 61 61 47.1208 61 30L 59 30ZM 30 59C 13.9837 59 1 46.0163 1 30L -1 30C -1 47.1208 12.8792 61 30 61L 30 59ZM 1 30C 1 13.9837 13.9837 1 30 1L 30 -1C 12.8792 -1 -1 12.8792 -1 30L 1 30ZM 30 1C 46.0163 1 59 13.9837 59 30L 61 30C 61 12.8792 47.1208 -1 30 -1L 30 1Z"/>
<path id="path2_fill" fill-rule="evenodd" d="M 27.595 1.13249e-05L 1.70599 0.114604C 1.70562 0.114649 1.70525 0.114697 1.70488 0.114744C 0.801659 0.121115 0.0817559 0.905346 0.0757701 1.8359C 0.0757695 1.83635 0.0757695 1.83684 0.0757701 1.83729L 1.28606e-07 20.2894C 1.28606e-07 21.2192 0.721362 22.0057 1.62533 22C 1.62569 22 1.62609 22 1.62645 22L 32.3141 21.8577C 32.315 21.8577 32.3155 21.8577 32.3164 21.8577C 33.2169 21.8577 33.9411 21.0728 33.9421 20.1401C 33.9421 20.1397 33.9421 20.1401 33.9421 20.1401L 34 6.8039C 34.0005 6.68474 33.9556 6.57006 33.875 6.48419L 27.9193 0.14079C 27.8774 0.096081 27.827 0.0605586 27.7712 0.036381C 27.7155 0.0122033 27.6555 -0.000133325 27.595 0.000123232L 27.595 1.13249e-05ZM 27.4074 0.91759L 33.1043 6.9857L 33.0472 20.1379C 33.0472 20.5888 32.7037 20.9407 32.3141 20.9407C 32.3135 20.9407 32.3129 20.9407 32.3123 20.9407L 1.62146 21.083C 1.62108 21.083 1.62071 21.083 1.62034 21.083C 1.22419 21.0875 0.894975 20.7442 0.894908 20.2893C 0.894904 20.2892 0.894908 20.2892 0.894908 20.2892L 0.97054 1.83978L 0.97054 1.83886C 0.97394 1.38514 1.3134 1.03273 1.71009 1.02927L 1.71121 1.02927L 27.4076 0.915519L 27.4074 0.91759Z"/>
<path id="path3_fill" fill-rule="evenodd" d="M 1.31422 3.75395e-05C 0.705877 -0.00454615 0.196964 0.487234 0.18183 1.10299C 0.181757 1.10776 0.181757 1.11252 0.18183 1.11729L 0.125909 5.18531C 0.123302 5.2139 0.123302 5.24267 0.125909 5.27126L 0.0560087 10.342C 0.043578 10.4034 0.043578 10.4668 0.0560087 10.5282L 8.81344e-05 14.453C -0.00393815 14.7028 0.130562 14.9156 0.265711 15.0402C 0.401799 15.1657 0.550217 15.2389 0.699095 15.2981C 0.996857 15.4165 1.30426 15.4699 1.56586 15.4699L 14.134 15.4415C 14.1387 15.4416 14.1433 15.4416 14.148 15.4415L 19.2647 15.4273C 19.4536 15.4273 19.6234 15.4273 19.81 15.37C 19.9965 15.3142 20.1988 15.1493 20.2993 14.9546C 20.5001 14.5654 20.4575 14.2024 20.453 13.5365C 20.4323 10.7888 20.4165 8.03528 20.3971 5.28592C 20.3972 5.28115 20.3972 5.27639 20.3971 5.27162C 20.3971 5.26209 20.3972 5.25251 20.3971 5.24297C 20.4044 5.19552 20.4044 5.14719 20.3971 5.09973C 20.3878 3.77757 20.3791 2.45358 20.3692 1.13197C 20.3674 0.505868 19.8433 0.014844 19.2368 0.0146973L 14.148 0.0146973C 14.1205 0.00719246 14.0925 0.00240875 14.0641 0.000401236C 14.0405 0.00324199 14.0171 0.00801922 13.9942 0.0146973L 1.31422 0.000401236L 1.31422 3.75395e-05ZM 1.31422 0.916776L 6.01155 0.916776L 6.01155 4.82724L 1.02064 4.76994L 1.07656 1.13164C 1.07969 1.02465 1.16784 0.915003 1.31422 0.916776ZM 6.90628 0.916776L 13.6307 0.931073L 13.6307 5.0564C 13.6281 5.08498 13.6281 5.11376 13.6307 5.14234L 13.6307 5.21396L 13.6307 10.3563C 13.6296 10.3754 13.6296 10.3945 13.6307 10.4136L 13.6307 10.442C 13.6296 10.4611 13.6296 10.4802 13.6307 10.4993L 13.6447 14.5243L 6.90626 14.5386L 6.90626 10.5708C 6.90692 10.5565 6.90692 10.5421 6.90626 10.5277C 6.91869 10.4663 6.91869 10.4029 6.90626 10.3415L 6.90626 5.28513C 6.9109 5.24709 6.9109 5.20859 6.90626 5.17054L 6.90626 0.916301L 6.90628 0.916776ZM 14.5255 0.931073L 19.2368 0.931073C 19.3862 0.931073 19.4744 1.03484 19.4744 1.13161C 19.4835 2.33406 19.4938 3.53821 19.5024 4.74127L 14.5255 4.68397L 14.5255 0.931073ZM 14.5255 5.60071L 19.5024 5.65801C 19.5126 7.10462 19.5201 8.55161 19.5304 9.99822L 14.5255 9.98401L 14.5255 5.60082L 14.5255 5.60071ZM 1.02064 5.68666L 6.01155 5.74395L 6.01155 9.98387L 0.964718 9.96966L 1.02064 5.68677L 1.02064 5.68666ZM 0.950738 10.8863L 6.01155 10.9005L 6.01155 14.5388L 1.56586 14.553L 1.55191 14.553C 1.43443 14.5528 1.18681 14.5044 1.02066 14.4384C 0.966785 14.4169 0.92305 14.399 0.89484 14.3811L 0.95076 10.886L 0.950738 10.8863ZM 14.5255 10.9005L 19.5443 10.9147C 19.5506 11.7883 19.5517 12.6627 19.5583 13.536C 19.5619 14.0914 19.5275 14.4114 19.5164 14.4957C 19.4679 14.5021 19.3842 14.509 19.2647 14.5099L 14.5255 14.5241L 14.5255 10.9001L 14.5255 10.9005Z"/>
</defs>
</svg>
