<svg width="60" height="60" viewBox="0 0 60 60" version="1.1" xmlns="http://www.w3.org/2000/svg" xmlns:xlink="http://www.w3.org/1999/xlink">
<title>Group 33</title>
<desc>Created using Figma</desc>
<g id="Canvas" transform="translate(-4661 2279)">
<g id="Group 33">
<g id="Group 31.2">
<g id="Ellipse">
<use xlink:href="#path0_fill" transform="translate(4661 -2279)" fill="#FFFFFF"/>
<mask id="mask0_outline_ins">
<use xlink:href="#path0_fill" fill="white" transform="translate(4661 -2279)"/>
</mask>
<g mask="url(#mask0_outline_ins)">
<use xlink:href="#path1_stroke_2x" transform="translate(4661 -2279)"/>
</g>
</g>
</g>
<g id="noun_147556_cc">
<g id="Group">
<g id="Vector">
<use xlink:href="#path2_fill" transform="translate(4676 -2257.94)"/>
<mask id="mask1_outline_ins">
<use xlink:href="#path2_fill" fill="white" transform="translate(4676 -2257.94)"/>
</mask>
<g mask="url(#mask1_outline_ins)">
<use xlink:href="#path3_stroke_2x" transform="translate(4676 -2257.94)"/>
</g>
</g>
<g id="Vector">
<use xlink:href="#path4_fill" transform="translate(4676 -2249.87)"/>
<mask id="mask2_outline_ins">
<use xlink:href="#path4_fill" fill="white" transform="translate(4676 -2249.87)"/>
</mask>
<g mask="url(#mask2_outline_ins)">
<use xlink:href="#path5_stroke_2x" transform="translate(4676 -2249.87)"/>
</g>
</g>
<g id="Vector">
<use xlink:href="#path6_fill" transform="translate(4676 -2241.79)"/>
<mask id="mask3_outline_ins">
<use xlink:href="#path6_fill" fill="white" transform="translate(4676 -2241.79)"/>
</mask>
<g mask="url(#mask3_outline_ins)">
<use xlink:href="#path7_stroke_2x" transform="translate(4676 -2241.79)"/>
</g>
</g>
<g id="Vector">
<use xlink:href="#path8_fill" transform="translate(4680.34 -2263)"/>
<mask id="mask4_outline_ins">
<use xlink:href="#path8_fill" fill="white" transform="translate(4680.34 -2263)"/>
</mask>
<g mask="url(#mask4_outline_ins)">
<use xlink:href="#path9_stroke_2x" transform="translate(4680.34 -2263)"/>
</g>
</g>
</g>
</g>
</g>
</g>
<defs>
<path id="path0_fill" d="M 60 30C 60 46.5685 46.5685 60 30 60C 13.4315 60 0 46.5685 0 30C 0 13.4315 13.4315 0 30 0C 46.5685 0 60 13.4315 60 30Z"/>
<path id="path1_stroke_2x" d="M 59 30C 59 46.0163 46.0163 59 30 59L 30 61C 47.1208 61 61 47.1208 61 30L 59 30ZM 30 59C 13.9837 59 1 46.0163 1 30L -1 30C -1 47.1208 12.8792 61 30 61L 30 59ZM 1 30C 1 13.9837 13.9837 1 30 1L 30 -1C 12.8792 -1 -1 12.8792 -1 30L 1 30ZM 30 1C 46.0163 1 59 13.9837 59 30L 61 30C 61 12.8792 47.1208 -1 30 -1L 30 1Z"/>
<path id="path2_fill" d="M 6.02546 2.69198L 1.35265 2.69198C 0.614843 2.69198 0 2.08017 0 1.34599C 0 0.611815 0.614843 -1.55592e-07 1.35265 -1.55592e-07L 6.02546 -1.55592e-07C 6.76327 -1.55592e-07 7.37811 0.611815 7.37811 1.34599C 7.37811 2.12096 6.76327 2.69198 6.02546 2.69198Z"/>
<path id="path3_stroke_2x" d="M 6.02546 1.69198L 1.35265 1.69198L 1.35265 3.69198L 6.02546 3.69198L 6.02546 1.69198ZM 1.35265 1.69198C 1.16247 1.69198 1 1.52323 1 1.34599L -1 1.34599C -1 2.6371 0.0672192 3.69198 1.35265 3.69198L 1.35265 1.69198ZM 1 1.34599C 1 1.16875 1.16247 1 1.35265 1L 1.35265 -1C 0.0672185 -1 -1 0.0548809 -1 1.34599L 1 1.34599ZM 1.35265 1L 6.02546 1L 6.02546 -1L 1.35265 -1L 1.35265 1ZM 6.02546 1C 6.21565 1 6.37811 1.16875 6.37811 1.34599L 8.37811 1.34599C 8.37811 0.0548808 7.31089 -1 6.02546 -1L 6.02546 1ZM 6.37811 1.34599C 6.37811 1.45913 6.33669 1.53872 6.28061 1.59336C 6.22132 1.65113 6.13353 1.69198 6.02546 1.69198L 6.02546 3.69198C 7.29089 3.69198 8.37811 2.69758 8.37811 1.34599L 6.37811 1.34599Z"/>
<path id="path4_fill" d="M 6.02546 2.69198L 1.35265 2.69198C 0.614843 2.69198 0 2.08017 0 1.34599C 0 0.611814 0.614843 3.11185e-07 1.35265 3.11185e-07L 6.02546 3.11185e-07C 6.76327 3.11185e-07 7.37811 0.611814 7.37811 1.34599C 7.37811 2.08017 6.76327 2.69198 6.02546 2.69198Z"/>
<path id="path5_stroke_2x" d="M 6.02546 1.69198L 1.35265 1.69198L 1.35265 3.69198L 6.02546 3.69198L 6.02546 1.69198ZM 1.35265 1.69198C 1.16247 1.69198 1 1.52323 1 1.34599L -1 1.34599C -1 2.6371 0.0672191 3.69198 1.35265 3.69198L 1.35265 1.69198ZM 1 1.34599C 1 1.16875 1.16247 1 1.35265 1L 1.35265 -1C 0.0672192 -1 -1 0.0548799 -1 1.34599L 1 1.34599ZM 1.35265 1L 6.02546 1L 6.02546 -1L 1.35265 -1L 1.35265 1ZM 6.02546 1C 6.21565 1 6.37811 1.16875 6.37811 1.34599L 8.37811 1.34599C 8.37811 0.0548798 7.31089 -1 6.02546 -1L 6.02546 1ZM 6.37811 1.34599C 6.37811 1.52323 6.21565 1.69198 6.02546 1.69198L 6.02546 3.69198C 7.31089 3.69198 8.37811 2.6371 8.37811 1.34599L 6.37811 1.34599Z"/>
<path id="path6_fill" d="M 6.02546 2.69198L 1.35265 2.69198C 0.614843 2.69198 0 2.08017 0 1.34599C 0 0.611814 0.614843 -2.89814e-15 1.35265 -2.89814e-15L 6.02546 -2.89814e-15C 6.76327 -2.89814e-15 7.37811 0.611814 7.37811 1.34599C 7.37811 2.08017 6.76327 2.69198 6.02546 2.69198Z"/>
<path id="path7_stroke_2x" d="M 6.02546 1.69198L 1.35265 1.69198L 1.35265 3.69198L 6.02546 3.69198L 6.02546 1.69198ZM 1.35265 1.69198C 1.16247 1.69198 1 1.52323 1 1.34599L -1 1.34599C -1 2.6371 0.0672192 3.69198 1.35265 3.69198L 1.35265 1.69198ZM 1 1.34599C 1 1.16875 1.16247 1 1.35265 1L 1.35265 -1C 0.0672192 -1 -1 0.0548796 -1 1.34599L 1 1.34599ZM 1.35265 1L 6.02546 1L 6.02546 -1L 1.35265 -1L 1.35265 1ZM 6.02546 1C 6.21565 1 6.37811 1.16875 6.37811 1.34599L 8.37811 1.34599C 8.37811 0.0548795 7.31089 -1 6.02546 -1L 6.02546 1ZM 6.37811 1.34599C 6.37811 1.52323 6.21565 1.69198 6.02546 1.69198L 6.02546 3.69198C 7.31089 3.69198 8.37811 2.6371 8.37811 1.34599L 6.37811 1.34599Z"/>
<path id="path8_fill" d="M 23.7739 0L 1.10672 0C 0.573853 0 0.122968 0.448664 0.122968 0.978903L 0.122968 2.81435C 0.122968 3.14065 0.409895 3.42616 0.737811 3.42616L 1.59859 3.42616C 3.1152 3.42616 4.46786 4.52743 4.6728 6.03657C 4.91874 7.87201 3.48411 9.42194 1.68057 9.42194L 0.696822 9.42194C 0.368906 9.42194 0.0819791 9.70745 0.0819791 10.0338L 0.0819791 10.9311C 0.0819791 11.2574 0.368906 11.5429 0.696822 11.5429L 1.5576 11.5429C 3.07421 11.5429 4.42687 12.6442 4.63181 14.1533C 4.87775 15.9887 3.44312 17.5387 1.63958 17.5387L 0.655832 17.5387C 0.327916 17.5387 0.0409894 17.8242 0.0409894 18.1505L 0.0409894 18.9662C 0.0409894 19.2925 0.327916 19.5781 0.655832 19.5781L 1.51661 19.5781C 3.03322 19.5781 4.38588 20.6793 4.59083 22.1885C 4.83676 24.0239 3.40213 25.5738 1.59859 25.5738L 0.614843 25.5738C 0.286927 25.5738 1.56363e-07 25.8594 1.56363e-07 26.1857L 1.56363e-07 28.0211C 1.56363e-07 28.5513 0.450885 29 0.983748 29L 23.651 29C 24.1838 29 24.6347 28.5513 24.6347 28.0211L 24.6347 0.978903C 24.7577 0.448664 24.3068 0 23.7739 0ZM 11.887 4.40506C 12.2969 4.2827 12.7067 4.20113 12.9937 4.16034C 13.2806 4.11955 13.6085 4.2827 13.7315 4.609L 14.7152 6.9339C 14.8792 7.30098 14.7562 7.74965 14.4283 7.87201C 14.1004 7.99437 13.8135 8.11674 13.5265 8.2391C 13.4446 8.27989 13.3626 8.2391 13.3626 8.15753L 11.805 4.56821C 11.764 4.52743 11.805 4.44585 11.887 4.40506ZM 18.6092 24.4726C 17.9124 24.7581 17.2566 24.9212 16.8467 24.7173C 12.6658 22.5963 7.50108 10.5232 8.85373 6.03657C 8.9767 5.5879 9.55056 5.22082 10.2474 4.9353C 10.3294 4.89452 10.4113 4.9353 10.4113 5.01688L 12.2559 9.34037C 12.2559 9.38115 12.2559 9.42194 12.2559 9.42194C 11.0262 12.5218 13.6905 18.6807 16.7647 19.9451C 16.8057 19.9451 16.8057 19.9859 16.8467 20.0267L 18.6912 24.2686C 18.7322 24.3502 18.6912 24.4318 18.6092 24.4726ZM 21.0686 23.045C 20.8227 23.2082 20.4948 23.4121 20.1259 23.6568C 20.0439 23.6976 19.9619 23.6568 19.9209 23.5752L 18.4043 19.9859C 18.3633 19.9044 18.4043 19.8228 18.4863 19.8228C 18.7732 19.7004 19.0601 19.5781 19.388 19.4149C 19.716 19.2518 20.0849 19.4557 20.2488 19.8228L 21.2326 22.1477C 21.3965 22.5148 21.3145 22.8411 21.0686 23.045Z"/>
<path id="path9_stroke_2x" d="M 4.6728 6.03657L 5.66395 5.90376L 5.66371 5.902L 4.6728 6.03657ZM 4.63181 14.1533L 5.62296 14.0205L 5.62272 14.0187L 4.63181 14.1533ZM 4.59083 22.1885L 5.58197 22.0557L 5.58173 22.0539L 4.59083 22.1885ZM 24.6347 0.978903L 23.6605 0.752987L 23.6347 0.864466L 23.6347 0.978903L 24.6347 0.978903ZM 11.887 4.40506L 11.6009 3.44685L 11.5185 3.47145L 11.4415 3.50976L 11.887 4.40506ZM 13.7315 4.609L 12.7957 4.96165L 12.8028 4.98032L 12.8105 4.99869L 13.7315 4.609ZM 14.7152 6.9339L 13.7943 7.32358L 13.7981 7.33269L 13.8022 7.34171L 14.7152 6.9339ZM 13.5265 8.2391L 13.1343 7.31925L 13.1073 7.33074L 13.0811 7.34379L 13.5265 8.2391ZM 13.3626 8.15753L 14.3626 8.15753L 14.3626 7.9499L 14.2799 7.75944L 13.3626 8.15753ZM 11.805 4.56821L 12.7223 4.17013L 12.6461 3.99445L 12.5103 3.85936L 11.805 4.56821ZM 18.6092 24.4726L 18.9884 25.3979L 19.0221 25.3841L 19.0547 25.3679L 18.6092 24.4726ZM 16.8467 24.7173L 16.3943 25.6091L 16.4012 25.6126L 16.8467 24.7173ZM 8.85373 6.03657L 9.81117 6.32522L 9.81482 6.3131L 9.81817 6.3009L 8.85373 6.03657ZM 10.2474 4.9353L 10.6265 5.86064L 10.6602 5.84683L 10.6928 5.83061L 10.2474 4.9353ZM 10.4113 5.01688L 9.41134 5.01688L 9.41134 5.22128L 9.49155 5.40929L 10.4113 5.01688ZM 12.2559 9.34037L 13.2559 9.34037L 13.2559 9.13596L 13.1757 8.94796L 12.2559 9.34037ZM 12.2559 9.42194L 13.1854 9.79068L 13.2559 9.61304L 13.2559 9.42194L 12.2559 9.42194ZM 16.7647 19.9451L 16.3843 20.87L 16.5671 20.9451L 16.7647 20.9451L 16.7647 19.9451ZM 16.8467 20.0267L 17.7637 19.628L 17.6875 19.4527L 17.552 19.3179L 16.8467 20.0267ZM 18.6912 24.2686L 17.7742 24.6674L 17.7852 24.6928L 17.7977 24.7176L 18.6912 24.2686ZM 21.0686 23.045L 21.6214 23.8783L 21.6659 23.8488L 21.7069 23.8148L 21.0686 23.045ZM 20.1259 23.6568L 20.5713 24.5521L 20.6269 24.5245L 20.6787 24.4901L 20.1259 23.6568ZM 19.9209 23.5752L 18.9998 23.9645L 19.0126 23.9948L 19.0274 24.0242L 19.9209 23.5752ZM 18.4043 19.9859L 19.3254 19.5967L 19.3126 19.5664L 19.2978 19.537L 18.4043 19.9859ZM 18.4863 19.8228L 18.4863 20.8228L 18.6906 20.8228L 18.8785 20.7426L 18.4863 19.8228ZM 20.2488 19.8228L 21.1698 19.4331L 21.1659 19.424L 21.1619 19.415L 20.2488 19.8228ZM 21.2326 22.1477L 20.3116 22.5374L 20.3155 22.5465L 20.3195 22.5555L 21.2326 22.1477ZM 23.7739 -1L 1.10672 -1L 1.10672 1L 23.7739 1L 23.7739 -1ZM 1.10672 -1C 0.0262298 -1 -0.877032 -0.108271 -0.877032 0.978903L 1.12297 0.978903C 1.12297 0.989201 1.12062 0.996828 1.11913 1.00025C 1.11799 1.00288 1.11795 1.00187 1.12038 0.999462C 1.1228 0.997054 1.12431 0.996595 1.1229 0.997202C 1.12073 0.998135 1.11488 1 1.10672 1L 1.10672 -1ZM -0.877032 0.978903L -0.877032 2.81435L 1.12297 2.81435L 1.12297 0.978903L -0.877032 0.978903ZM -0.877032 2.81435C -0.877032 3.69758 -0.137729 4.42616 0.737811 4.42616L 0.737811 2.42616C 0.866434 2.42616 0.959109 2.48036 1.01278 2.53377C 1.0664 2.58712 1.12297 2.68157 1.12297 2.81435L -0.877032 2.81435ZM 0.737811 4.42616L 1.59859 4.42616L 1.59859 2.42616L 0.737811 2.42616L 0.737811 4.42616ZM 1.59859 4.42616C 2.65103 4.42616 3.54902 5.19268 3.6819 6.17114L 5.66371 5.902C 5.38669 3.86217 3.57938 2.42616 1.59859 2.42616L 1.59859 4.42616ZM 3.68166 6.16937C 3.84394 7.38049 2.90419 8.42194 1.68057 8.42194L 1.68057 10.4219C 4.06403 10.4219 5.99354 8.36354 5.66395 5.90376L 3.68166 6.16937ZM 1.68057 8.42194L 0.696822 8.42194L 0.696822 10.4219L 1.68057 10.4219L 1.68057 8.42194ZM 0.696822 8.42194C -0.178718 8.42194 -0.918021 9.15052 -0.918021 10.0338L 1.08198 10.0338C 1.08198 10.1665 1.02541 10.261 0.971791 10.3143C 0.91812 10.3677 0.825445 10.4219 0.696822 10.4219L 0.696822 8.42194ZM -0.918021 10.0338L -0.918021 10.9311L 1.08198 10.9311L 1.08198 10.0338L -0.918021 10.0338ZM -0.918021 10.9311C -0.918021 11.8143 -0.178718 12.5429 0.696822 12.5429L 0.696822 10.5429C 0.825445 10.5429 0.91812 10.5971 0.971791 10.6505C 1.02541 10.7039 1.08198 10.7983 1.08198 10.9311L -0.918021 10.9311ZM 0.696822 12.5429L 1.5576 12.5429L 1.5576 10.5429L 0.696822 10.5429L 0.696822 12.5429ZM 1.5576 12.5429C 2.61004 12.5429 3.50803 13.3094 3.64091 14.2879L 5.62272 14.0187C 5.3457 11.9789 3.53839 10.5429 1.5576 10.5429L 1.5576 12.5429ZM 3.64067 14.2861C 3.80295 15.4972 2.8632 16.5387 1.63958 16.5387L 1.63958 18.5387C 4.02304 18.5387 5.95255 16.4803 5.62296 14.0205L 3.64067 14.2861ZM 1.63958 16.5387L 0.655832 16.5387L 0.655832 18.5387L 1.63958 18.5387L 1.63958 16.5387ZM 0.655832 16.5387C -0.219708 16.5387 -0.959011 17.2673 -0.959011 18.1505L 1.04099 18.1505C 1.04099 18.2833 0.984417 18.3777 0.930801 18.4311C 0.87713 18.4845 0.784455 18.5387 0.655832 18.5387L 0.655832 16.5387ZM -0.959011 18.1505L -0.959011 18.9662L 1.04099 18.9662L 1.04099 18.1505L -0.959011 18.1505ZM -0.959011 18.9662C -0.959011 19.8495 -0.219708 20.5781 0.655832 20.5781L 0.655832 18.5781C 0.784455 18.5781 0.87713 18.6323 0.930801 18.6857C 0.984417 18.739 1.04099 18.8335 1.04099 18.9662L -0.959011 18.9662ZM 0.655832 20.5781L 1.51661 20.5781L 1.51661 18.5781L 0.655832 18.5781L 0.655832 20.5781ZM 1.51661 20.5781C 2.56905 20.5781 3.46704 21.3446 3.59992 22.323L 5.58173 22.0539C 5.30471 20.0141 3.4974 18.5781 1.51661 18.5781L 1.51661 20.5781ZM 3.59968 22.3213C 3.76196 23.5324 2.82221 24.5738 1.59859 24.5738L 1.59859 26.5738C 3.98205 26.5738 5.91156 24.5154 5.58197 22.0557L 3.59968 22.3213ZM 1.59859 24.5738L 0.614843 24.5738L 0.614843 26.5738L 1.59859 26.5738L 1.59859 24.5738ZM 0.614843 24.5738C -0.260694 24.5738 -1 25.3024 -1 26.1857L 1 26.1857C 1 26.3184 0.943428 26.4129 0.889811 26.4662C 0.836139 26.5196 0.743464 26.5738 0.614843 26.5738L 0.614843 24.5738ZM -1 26.1857L -1 28.0211L 1 28.0211L 1 26.1857L -1 26.1857ZM -1 28.0211C -1 29.1083 -0.0967401 30 0.983748 30L 0.983748 28C 0.991911 28 0.997757 28.0019 0.999929 28.0028C 1.00134 28.0034 0.99983 28.0029 0.99741 28.0005C 0.994986 27.9981 0.995025 27.9971 0.996166 27.9998C 0.997649 28.0032 1 28.0108 1 28.0211L -1 28.0211ZM 0.983748 30L 23.651 30L 23.651 28L 0.983748 28L 0.983748 30ZM 23.651 30C 24.7314 30 25.6347 29.1083 25.6347 28.0211L 23.6347 28.0211C 23.6347 28.0108 23.637 28.0032 23.6385 27.9998C 23.6397 27.9971 23.6397 27.9981 23.6373 28.0005C 23.6349 28.0029 23.6334 28.0034 23.6348 28.0028C 23.6369 28.0019 23.6428 28 23.651 28L 23.651 30ZM 25.6347 28.0211L 25.6347 0.978903L 23.6347 0.978903L 23.6347 28.0211L 25.6347 28.0211ZM 25.6088 1.20482C 25.9109 -0.0975265 24.7925 -1 23.7739 -1L 23.7739 1C 23.7635 1 23.7413 0.997084 23.7139 0.967194C 23.6981 0.949983 23.6779 0.920276 23.6654 0.876838C 23.6523 0.830752 23.6529 0.785987 23.6605 0.752987L 25.6088 1.20482ZM 12.173 5.36328C 12.5377 5.25325 12.8748 5.18691 13.1344 5.15038L 12.8529 3.17029C 12.5387 3.21534 12.056 3.31215 11.6009 3.44685L 12.173 5.36328ZM 13.1344 5.15038C 13.046 5.16295 12.9761 5.14293 12.9262 5.11426C 12.87 5.082 12.8208 5.02807 12.7957 4.96165L 14.6672 4.25636C 14.371 3.47032 13.5808 3.06683 12.8529 3.17029L 13.1344 5.15038ZM 12.8105 4.99869L 13.7943 7.32358L 15.6362 6.54421L 14.6524 4.21931L 12.8105 4.99869ZM 13.8022 7.34171C 13.7873 7.3084 13.7807 7.26723 13.7972 7.21127C 13.8141 7.15435 13.8849 7.00745 14.0787 6.93511L 14.7779 8.80891C 15.2997 8.61421 15.5959 8.1818 15.7152 7.77818C 15.8004 7.43969 15.7697 6.88447 15.6283 6.52608L 13.8022 7.34171ZM 14.0787 6.93511C 13.7294 7.06576 13.4212 7.19689 13.1343 7.31925L 13.9188 9.15895C 14.2057 9.03658 14.4714 8.92299 14.7779 8.80891L 14.0787 6.93511ZM 13.0811 7.34379C 13.275 7.24732 13.5667 7.20334 13.8593 7.34889C 14.1761 7.50652 14.3626 7.82762 14.3626 8.15753L 12.3626 8.15753C 12.3626 8.569 12.5901 8.95129 12.9684 9.1395C 13.3224 9.31565 13.6961 9.27167 13.972 9.13441L 13.0811 7.34379ZM 14.2799 7.75944L 12.7223 4.17013L 10.8876 4.9663L 12.4452 8.55561L 14.2799 7.75944ZM 12.5103 3.85936C 12.9198 4.26683 12.7801 4.76313 12.6934 4.93561C 12.5978 5.12591 12.4556 5.23908 12.3324 5.30037L 11.4415 3.50976C 11.2363 3.61183 11.0327 3.78619 10.9063 4.03766C 10.7889 4.27132 10.6491 4.82881 11.0996 5.27706L 12.5103 3.85936ZM 18.2301 23.5472C 17.9122 23.6775 17.6518 23.7591 17.4541 23.7924C 17.2382 23.8288 17.2211 23.7866 17.2921 23.822L 16.4012 25.6126C 16.8822 25.8519 17.398 25.8301 17.7867 25.7646C 18.1639 25.698 18.608 25.5531 18.9884 25.3979L 18.2301 23.5472ZM 17.2991 23.8255C 16.4773 23.4086 15.4862 22.4217 14.4628 20.9608C 13.4439 19.5095 12.4983 17.752 11.6945 15.8707C 10.8889 13.9902 10.2707 12.0927 9.92461 10.3538C 9.57472 8.60493 9.54535 7.20693 9.81117 6.32522L 7.8963 5.74792C 7.4858 7.10952 7.59476 8.90316 7.96347 10.7461C 8.33593 12.5991 9.01666 14.6937 9.85573 16.6574C 10.6966 18.6204 11.7416 20.5592 12.8247 22.1084C 13.9033 23.6479 15.1256 24.9655 16.3943 25.6091L 17.2991 23.8255ZM 9.81817 6.3009C 9.79487 6.38592 9.76723 6.35024 9.93347 6.22617C 10.0859 6.11244 10.3187 5.98675 10.6265 5.86064L 9.86823 4.00997C 9.48058 4.16979 9.05198 4.39279 8.73726 4.62334C 8.41162 4.86636 8.03557 5.23856 7.8893 5.77224L 9.81817 6.3009ZM 10.6928 5.83061C 10.4989 5.92708 10.2072 5.97106 9.91465 5.82551C 9.59785 5.66789 9.41134 5.34679 9.41134 5.01688L 11.4113 5.01688C 11.4113 4.60539 11.1838 4.22311 10.8055 4.0349C 10.4515 3.85875 10.0778 3.90274 9.80193 4.04L 10.6928 5.83061ZM 9.49155 5.40929L 11.3361 9.73278L 13.1757 8.94796L 11.3311 4.62447L 9.49155 5.40929ZM 11.2559 9.34037C 11.2559 9.36076 11.2559 9.38115 11.2559 9.39645C 11.2559 9.4041 11.2559 9.41047 11.2559 9.41493C 11.2559 9.41716 11.2559 9.41891 11.2559 9.42011C 11.2559 9.42071 11.2559 9.42116 11.2559 9.42147C 11.2559 9.42163 11.2559 9.42174 11.2559 9.42182C 11.2559 9.42186 11.2559 9.42189 11.2559 9.42191C 11.2559 9.42192 11.2559 9.42193 11.2559 9.42193C 11.2559 9.42194 11.2559 9.42194 11.2559 9.42194L 11.2559 9.42194C 11.2559 9.42194 11.2559 9.42194 12.2559 9.42194C 13.2559 9.42194 13.2559 9.42194 13.2559 9.42194L 13.2559 9.42194C 13.2559 9.42194 13.2559 9.42194 13.2559 9.42193C 13.2559 9.42193 13.2559 9.42192 13.2559 9.42191C 13.2559 9.42189 13.2559 9.42186 13.2559 9.42182C 13.2559 9.42174 13.2559 9.42163 13.2559 9.42147C 13.2559 9.42116 13.2559 9.42071 13.2559 9.42011C 13.2559 9.41891 13.2559 9.41716 13.2559 9.41493C 13.2559 9.41047 13.2559 9.4041 13.2559 9.39645C 13.2559 9.38115 13.2559 9.36076 13.2559 9.34037L 11.2559 9.34037ZM 11.3263 9.0532C 10.5648 10.9729 11.0446 13.5968 11.9777 15.7669C 12.9112 17.9381 14.4852 20.0889 16.3843 20.87L 17.1451 19.0203C 15.97 18.537 14.6747 16.9762 13.815 14.9768C 12.9548 12.9763 12.7172 10.9709 13.1854 9.79068L 11.3263 9.0532ZM 16.7647 20.9451C 16.5907 20.9451 16.3946 20.8961 16.2175 20.7727C 16.0681 20.6687 15.9896 20.5492 15.9749 20.5272C 15.9116 20.4327 16.0272 20.622 16.1413 20.7356L 17.552 19.3179C 17.6252 19.3907 17.7203 19.5391 17.6365 19.414C 17.6115 19.3768 17.5228 19.2446 17.3606 19.1316C 17.1707 18.9993 16.9592 18.9451 16.7647 18.9451L 16.7647 20.9451ZM 15.9296 20.4255L 17.7742 24.6674L 19.6083 23.8699L 17.7637 19.628L 15.9296 20.4255ZM 17.7977 24.7176C 17.6875 24.4983 17.6747 24.23 17.7779 23.9903C 17.8723 23.7713 18.0326 23.6425 18.1638 23.5773L 19.0547 25.3679C 19.2678 25.2618 19.4897 25.0719 19.6148 24.7815C 19.7487 24.4705 19.736 24.1206 19.5848 23.8197L 17.7977 24.7176ZM 20.5158 22.2117C 20.2822 22.3668 19.9542 22.5708 19.573 22.8235L 20.6787 24.4901C 21.0353 24.2534 21.3632 24.0495 21.6214 23.8783L 20.5158 22.2117ZM 19.6804 22.7615C 19.8979 22.6533 20.163 22.6409 20.4003 22.7421C 20.618 22.8349 20.7479 22.9937 20.8144 23.1263L 19.0274 24.0242C 19.1349 24.2383 19.3262 24.4583 19.6157 24.5818C 19.9247 24.7135 20.2718 24.7011 20.5713 24.5521L 19.6804 22.7615ZM 20.8421 23.186L 19.3254 19.5967L 17.4831 20.3752L 18.9998 23.9645L 20.8421 23.186ZM 19.2978 19.537C 19.3961 19.7325 19.441 20.0277 19.2927 20.3228C 19.1328 20.6411 18.8108 20.8228 18.4863 20.8228L 18.4863 18.8228C 18.0798 18.8228 17.6963 19.0453 17.5056 19.4248C 17.3266 19.781 17.3715 20.1578 17.5108 20.4349L 19.2978 19.537ZM 18.8785 20.7426C 19.1655 20.6203 19.4792 20.486 19.8335 20.3102L 18.9426 18.5196C 18.6411 18.6701 18.3809 18.7806 18.094 18.9029L 18.8785 20.7426ZM 19.8335 20.3102C 19.687 20.3831 19.53 20.3628 19.4345 20.3153C 19.3551 20.2758 19.3361 20.2315 19.3358 20.2306L 21.1619 19.415C 20.863 18.7458 19.9698 18.0085 18.9426 18.5196L 19.8335 20.3102ZM 19.3279 20.2125L 20.3116 22.5374L 22.1535 21.758L 21.1698 19.4331L 19.3279 20.2125ZM 20.3195 22.5555C 20.3305 22.5802 20.3075 22.5421 20.3239 22.4605C 20.341 22.3754 20.388 22.3103 20.4303 22.2752L 21.7069 23.8148C 22.3372 23.2921 22.4711 22.4685 22.1456 21.7399L 20.3195 22.5555Z"/>
</defs>
</svg>
