<svg width="76" height="76" viewBox="0 0 76 76" version="1.1" xmlns="http://www.w3.org/2000/svg" xmlns:xlink="http://www.w3.org/1999/xlink">
<title>Group 2</title>
<desc>Created using Figma</desc>
<g id="Canvas" transform="translate(-22939 2365)">
<g id="Group 2">
<g id="Group 35">
<g id="Ellipse">
<use xlink:href="#path0_fill" transform="translate(22939.3 -2364.56)" fill="#F2F8FA"/>
</g>
</g>
<g id="Group">
<g id="Vector">
<mask id="mask0_outline_ins">
<use xlink:href="#path1_fill" fill="white" transform="translate(22959.8 -2336.52)"/>
</mask>
<g mask="url(#mask0_outline_ins)">
<use xlink:href="#path2_stroke_2x" transform="translate(22959.8 -2336.52)"/>
</g>
</g>
<g id="Vector">
<mask id="mask1_outline_ins">
<use xlink:href="#path3_fill" fill="white" transform="translate(22959.8 -2327.83)"/>
</mask>
<g mask="url(#mask1_outline_ins)">
<use xlink:href="#path4_stroke_2x" transform="translate(22959.8 -2327.83)"/>
</g>
</g>
<g id="Vector">
<mask id="mask2_outline_ins">
<use xlink:href="#path5_fill" fill="white" transform="translate(22959.8 -2319.14)"/>
</mask>
<g mask="url(#mask2_outline_ins)">
<use xlink:href="#path6_stroke_2x" transform="translate(22959.8 -2319.14)"/>
</g>
</g>
<g id="Vector">
<mask id="mask3_outline_ins">
<use xlink:href="#path7_fill" fill="white" transform="translate(22964.4 -2341.96)"/>
</mask>
<g mask="url(#mask3_outline_ins)">
<use xlink:href="#path8_stroke_2x" transform="translate(22964.4 -2341.96)"/>
</g>
</g>
</g>
</g>
</g>
<defs>
<path id="path0_fill" d="M 75.3846 37.66C 75.3846 58.459 58.5092 75.32 37.6923 75.32C 16.8754 75.32 0 58.459 0 37.66C 0 16.861 16.8754 0 37.6923 0C 58.5092 0 75.3846 16.861 75.3846 37.66Z"/>
<path id="path1_fill" d="M 6.48896 2.89755L 1.4567 2.89755C 0.662138 2.89755 0 2.23902 0 1.44878C 0 0.658535 0.662138 -1.67474e-07 1.4567 -1.67474e-07L 6.48896 -1.67474e-07C 7.28352 -1.67474e-07 7.94566 0.658535 7.94566 1.44878C 7.94566 2.28292 7.28352 2.89755 6.48896 2.89755Z"/>
<path id="path2_stroke_2x" d="M 6.48896 1.89755L 1.4567 1.89755L 1.4567 3.89755L 6.48896 3.89755L 6.48896 1.89755ZM 1.4567 1.89755C 1.20927 1.89755 1 1.6816 1 1.44878L -1 1.44878C -1 2.79644 0.115006 3.89755 1.4567 3.89755L 1.4567 1.89755ZM 1 1.44878C 1 1.21596 1.20927 1 1.4567 1L 1.4567 -1C 0.115005 -1 -1 0.101113 -1 1.44878L 1 1.44878ZM 1.4567 1L 6.48896 1L 6.48896 -1L 1.4567 -1L 1.4567 1ZM 6.48896 1C 6.73639 1 6.94566 1.21596 6.94566 1.44878L 8.94566 1.44878C 8.94566 0.101113 7.83065 -1 6.48896 -1L 6.48896 1ZM 6.94566 1.44878C 6.94566 1.70581 6.75639 1.89755 6.48896 1.89755L 6.48896 3.89755C 7.81065 3.89755 8.94566 2.86003 8.94566 1.44878L 6.94566 1.44878Z"/>
<path id="path3_fill" d="M 6.48896 2.89755L 1.4567 2.89755C 0.662138 2.89755 0 2.23902 0 1.44878C 0 0.658535 0.662138 3.34948e-07 1.4567 3.34948e-07L 6.48896 3.34948e-07C 7.28352 3.34948e-07 7.94566 0.658535 7.94566 1.44878C 7.94566 2.23902 7.28352 2.89755 6.48896 2.89755Z"/>
<path id="path4_stroke_2x" d="M 6.48896 1.89755L 1.4567 1.89755L 1.4567 3.89755L 6.48896 3.89755L 6.48896 1.89755ZM 1.4567 1.89755C 1.20927 1.89755 1 1.6816 1 1.44878L -1 1.44878C -1 2.79644 0.115006 3.89755 1.4567 3.89755L 1.4567 1.89755ZM 1 1.44878C 1 1.21596 1.20927 1 1.4567 1L 1.4567 -1C 0.115006 -1 -1 0.101112 -1 1.44878L 1 1.44878ZM 1.4567 1L 6.48896 1L 6.48896 -1L 1.4567 -1L 1.4567 1ZM 6.48896 1C 6.73639 1 6.94566 1.21596 6.94566 1.44878L 8.94566 1.44878C 8.94566 0.101112 7.83065 -1 6.48896 -1L 6.48896 1ZM 6.94566 1.44878C 6.94566 1.6816 6.73639 1.89755 6.48896 1.89755L 6.48896 3.89755C 7.83065 3.89755 8.94566 2.79644 8.94566 1.44878L 6.94566 1.44878Z"/>
<path id="path5_fill" d="M 6.48896 2.89755L 1.4567 2.89755C 0.662138 2.89755 0 2.23902 0 1.44878C 0 0.658534 0.662138 -3.11945e-15 1.4567 -3.11945e-15L 6.48896 -3.11945e-15C 7.28352 -3.11945e-15 7.94566 0.658534 7.94566 1.44878C 7.94566 2.23902 7.28352 2.89755 6.48896 2.89755Z"/>
<path id="path6_stroke_2x" d="M 6.48896 1.89755L 1.4567 1.89755L 1.4567 3.89755L 6.48896 3.89755L 6.48896 1.89755ZM 1.4567 1.89755C 1.20927 1.89755 1 1.68159 1 1.44878L -1 1.44878C -1 2.79644 0.115006 3.89755 1.4567 3.89755L 1.4567 1.89755ZM 1 1.44878C 1 1.21596 1.20927 1 1.4567 1L 1.4567 -1C 0.115006 -1 -1 0.101111 -1 1.44878L 1 1.44878ZM 1.4567 1L 6.48896 1L 6.48896 -1L 1.4567 -1L 1.4567 1ZM 6.48896 1C 6.73639 1 6.94566 1.21596 6.94566 1.44878L 8.94566 1.44878C 8.94566 0.101111 7.83065 -1 6.48896 -1L 6.48896 1ZM 6.94566 1.44878C 6.94566 1.68159 6.73639 1.89755 6.48896 1.89755L 6.48896 3.89755C 7.83065 3.89755 8.94566 2.79644 8.94566 1.44878L 6.94566 1.44878Z"/>
<path id="path7_fill" d="M 25.6027 0L 1.19185 0C 0.617996 0 0.132427 0.482762 0.132427 1.0533L 0.132427 3.02824C 0.132427 3.37934 0.441425 3.68655 0.794566 3.68655L 1.72156 3.68655C 3.35483 3.68655 4.81154 4.87151 5.03225 6.49535C 5.29711 8.47028 3.75212 10.138 1.80984 10.138L 0.750423 10.138C 0.397283 10.138 0.0882852 10.4452 0.0882852 10.7963L 0.0882852 11.7618C 0.0882852 12.1129 0.397283 12.4202 0.750423 12.4202L 1.67742 12.4202C 3.31069 12.4202 4.7674 13.6051 4.98811 15.229C 5.25296 17.2039 3.70797 18.8716 1.7657 18.8716L 0.706281 18.8716C 0.35314 18.8716 0.0441425 19.1788 0.0441425 19.5299L 0.0441425 20.4077C 0.0441425 20.7588 0.35314 21.066 0.706281 21.066L 1.63327 21.066C 3.26655 21.066 4.72325 22.251 4.94397 23.8748C 5.20882 25.8497 3.66383 27.5175 1.72156 27.5175L 0.662138 27.5175C 0.308998 27.5175 1.6839e-07 27.8247 1.6839e-07 28.1758L 1.6839e-07 30.1507C 1.6839e-07 30.7212 0.485568 31.204 1.05942 31.204L 25.4703 31.204C 26.0441 31.204 26.5297 30.7212 26.5297 30.1507L 26.5297 1.0533C 26.6621 0.482762 26.1765 0 25.6027 0ZM 12.8013 4.73985C 13.2428 4.60819 13.6842 4.52041 13.9932 4.47652C 14.3022 4.43264 14.6553 4.60819 14.7878 4.95929L 15.8472 7.46087C 16.0237 7.85586 15.8913 8.33862 15.5382 8.47028C 15.185 8.60195 14.876 8.73361 14.567 8.86527C 14.4788 8.90916 14.3905 8.86527 14.3905 8.7775L 12.7131 4.9154C 12.6689 4.87151 12.7131 4.78374 12.8013 4.73985ZM 20.0407 26.3325C 19.2903 26.6397 18.584 26.8153 18.1426 26.5958C 13.64 24.3137 8.07809 11.323 9.53479 6.49535C 9.66722 6.01259 10.2852 5.6176 11.0356 5.31039C 11.1239 5.2665 11.2122 5.31039 11.2122 5.39816L 13.1986 10.0502C 13.1986 10.0941 13.1986 10.138 13.1986 10.138C 11.8743 13.4735 14.7436 20.1005 18.0543 21.461C 18.0984 21.461 18.0984 21.5049 18.1426 21.5488L 20.129 26.1131C 20.1731 26.2008 20.129 26.2886 20.0407 26.3325ZM 22.6893 24.7964C 22.4244 24.972 22.0713 25.1914 21.674 25.4547C 21.5857 25.4986 21.4974 25.4547 21.4533 25.367L 19.82 21.5049C 19.7759 21.4171 19.82 21.3293 19.9083 21.3293C 20.2173 21.1977 20.5263 21.066 20.8794 20.8904C 21.2326 20.7149 21.6299 20.9343 21.8064 21.3293L 22.8658 23.8309C 23.0424 24.2259 22.9541 24.577 22.6893 24.7964Z"/>
<path id="path8_stroke_2x" d="M 5.03225 6.49535L 6.02338 6.36243L 6.02314 6.36067L 5.03225 6.49535ZM 4.98811 15.229L 5.97924 15.096L 5.979 15.0943L 4.98811 15.229ZM 4.94397 23.8748L 5.93509 23.7419L 5.93485 23.7401L 4.94397 23.8748ZM 26.5297 1.0533L 25.5556 0.8272L 25.5297 0.938767L 25.5297 1.0533L 26.5297 1.0533ZM 12.8013 4.73985L 12.5155 3.78157L 12.4332 3.80613L 12.3562 3.84439L 12.8013 4.73985ZM 14.7878 4.95929L 13.8521 5.3122L 13.8591 5.33087L 13.8669 5.34926L 14.7878 4.95929ZM 15.8472 7.46087L 14.9263 7.85084L 14.9302 7.85995L 14.9342 7.86898L 15.8472 7.46087ZM 14.567 8.86527L 14.175 7.9453L 14.1481 7.95678L 14.1219 7.96981L 14.567 8.86527ZM 14.3905 8.7775L 15.3905 8.7775L 15.3905 8.56971L 15.3077 8.37912L 14.3905 8.7775ZM 12.7131 4.9154L 13.6303 4.51702L 13.554 4.34131L 13.4181 4.20625L 12.7131 4.9154ZM 20.0407 26.3325L 20.4196 27.2579L 20.4533 27.2442L 20.4859 27.2279L 20.0407 26.3325ZM 18.1426 26.5958L 17.6905 27.4878L 17.6974 27.4913L 18.1426 26.5958ZM 9.53479 6.49535L 10.4922 6.78423L 10.4958 6.7721L 10.4992 6.75989L 9.53479 6.49535ZM 11.0356 5.31039L 11.4145 6.23584L 11.4482 6.22205L 11.4808 6.20585L 11.0356 5.31039ZM 11.2122 5.39816L 10.2122 5.39816L 10.2122 5.60272L 10.2925 5.79086L 11.2122 5.39816ZM 13.1986 10.0502L 14.1986 10.0502L 14.1986 9.84567L 14.1183 9.65754L 13.1986 10.0502ZM 13.1986 10.138L 14.128 10.507L 14.1986 10.3293L 14.1986 10.138L 13.1986 10.138ZM 18.0543 21.461L 17.6742 22.3859L 17.8568 22.461L 18.0543 22.461L 18.0543 21.461ZM 18.1426 21.5488L 19.0595 21.1497L 18.9832 20.9744L 18.8476 20.8396L 18.1426 21.5488ZM 20.129 26.1131L 19.2121 26.5121L 19.2232 26.5376L 19.2356 26.5623L 20.129 26.1131ZM 22.6893 24.7964L 23.2417 25.63L 23.2862 25.6005L 23.3273 25.5665L 22.6893 24.7964ZM 21.674 25.4547L 22.1191 26.3502L 22.1747 26.3226L 22.2265 26.2883L 21.674 25.4547ZM 21.4533 25.367L 20.5323 25.7565L 20.5451 25.7868L 20.5599 25.8163L 21.4533 25.367ZM 19.82 21.5049L 20.741 21.1154L 20.7282 21.085L 20.7134 21.0556L 19.82 21.5049ZM 19.9083 21.3293L 19.9083 22.3293L 20.1125 22.3293L 20.3003 22.2493L 19.9083 21.3293ZM 21.8064 21.3293L 22.7272 20.9393L 22.7234 20.9302L 22.7194 20.9212L 21.8064 21.3293ZM 22.8658 23.8309L 21.945 24.2209L 21.9489 24.23L 21.9529 24.239L 22.8658 23.8309ZM 25.6027 -1L 1.19185 -1L 1.19185 1L 25.6027 1L 25.6027 -1ZM 1.19185 -1C 0.071183 -1 -0.867572 -0.0749783 -0.867572 1.0533L 1.13243 1.0533C 1.13243 1.05309 1.13243 1.05275 1.1326 1.05195C 1.13279 1.05107 1.13328 1.04918 1.13453 1.04631C 1.13721 1.04013 1.14271 1.03108 1.152 1.02185C 1.1725 1.00147 1.18922 1 1.19185 1L 1.19185 -1ZM -0.867572 1.0533L -0.867572 3.02824L 1.13243 3.02824L 1.13243 1.0533L -0.867572 1.0533ZM -0.867572 3.02824C -0.867572 3.93708 -0.105388 4.68655 0.794566 4.68655L 0.794566 2.68655C 0.910288 2.68655 0.991049 2.73509 1.03612 2.7799C 1.08113 2.82465 1.13243 2.90757 1.13243 3.02824L -0.867572 3.02824ZM 0.794566 4.68655L 1.72156 4.68655L 1.72156 2.68655L 0.794566 2.68655L 0.794566 4.68655ZM 1.72156 4.68655C 2.89136 4.68655 3.89286 5.53745 4.04136 6.63003L 6.02314 6.36067C 5.73022 4.20557 3.81831 2.68655 1.72156 2.68655L 1.72156 4.68655ZM 4.04112 6.62827C 4.22212 7.97787 3.17314 9.13801 1.80984 9.13801L 1.80984 11.138C 4.33109 11.138 6.37209 8.96269 6.02338 6.36243L 4.04112 6.62827ZM 1.80984 9.13801L 0.750423 9.13801L 0.750423 11.138L 1.80984 11.138L 1.80984 9.13801ZM 0.750423 9.13801C -0.14953 9.13801 -0.911715 9.88748 -0.911715 10.7963L 1.08829 10.7963C 1.08829 10.917 1.03699 10.9999 0.991982 11.0447C 0.946907 11.0895 0.866146 11.138 0.750423 11.138L 0.750423 9.13801ZM -0.911715 10.7963L -0.911715 11.7618L 1.08829 11.7618L 1.08829 10.7963L -0.911715 10.7963ZM -0.911715 11.7618C -0.911715 12.6707 -0.14953 13.4202 0.750423 13.4202L 0.750423 11.4202C 0.866146 11.4202 0.946907 11.4687 0.991982 11.5135C 1.03699 11.5583 1.08829 11.6412 1.08829 11.7618L -0.911715 11.7618ZM 0.750423 13.4202L 1.67742 13.4202L 1.67742 11.4202L 0.750423 11.4202L 0.750423 13.4202ZM 1.67742 13.4202C 2.84722 13.4202 3.84872 14.2711 3.99722 15.3636L 5.979 15.0943C 5.68608 12.9392 3.77417 11.4202 1.67742 11.4202L 1.67742 13.4202ZM 3.99698 15.3619C 4.17797 16.7115 3.129 17.8716 1.7657 17.8716L 1.7657 19.8716C 4.28695 19.8716 6.32795 17.6963 5.97924 15.096L 3.99698 15.3619ZM 1.7657 17.8716L 0.706281 17.8716L 0.706281 19.8716L 1.7657 19.8716L 1.7657 17.8716ZM 0.706281 17.8716C -0.193673 17.8716 -0.955858 18.6211 -0.955858 19.5299L 1.04414 19.5299C 1.04414 19.6506 0.992849 19.7335 0.947839 19.7783C 0.902764 19.8231 0.822003 19.8716 0.706281 19.8716L 0.706281 17.8716ZM -0.955858 19.5299L -0.955858 20.4077L 1.04414 20.4077L 1.04414 19.5299L -0.955858 19.5299ZM -0.955858 20.4077C -0.955858 21.3165 -0.193673 22.066 0.706281 22.066L 0.706281 20.066C 0.822003 20.066 0.902764 20.1145 0.947839 20.1593C 0.992849 20.2041 1.04414 20.287 1.04414 20.4077L -0.955858 20.4077ZM 0.706281 22.066L 1.63327 22.066L 1.63327 20.066L 0.706281 20.066L 0.706281 22.066ZM 1.63327 22.066C 2.80308 22.066 3.80457 22.9169 3.95308 24.0095L 5.93485 23.7401C 5.64193 21.585 3.73002 20.066 1.63327 20.066L 1.63327 22.066ZM 3.95284 24.0077C 4.13383 25.3573 3.08486 26.5175 1.72156 26.5175L 1.72156 28.5175C 4.2428 28.5175 6.28381 26.3421 5.93509 23.7419L 3.95284 24.0077ZM 1.72156 26.5175L 0.662138 26.5175L 0.662138 28.5175L 1.72156 28.5175L 1.72156 26.5175ZM 0.662138 26.5175C -0.237812 26.5175 -1 27.2669 -1 28.1758L 1 28.1758C 1 28.2964 0.948706 28.3793 0.903695 28.4241C 0.85862 28.4689 0.777859 28.5175 0.662138 28.5175L 0.662138 26.5175ZM -1 28.1758L -1 30.1507L 1 30.1507L 1 28.1758L -1 28.1758ZM -1 30.1507C -1 31.279 -0.0612461 32.204 1.05942 32.204L 1.05942 30.204C 1.0568 30.204 1.04007 30.2025 1.01957 30.1821C 1.01029 30.1729 1.00478 30.1639 1.0021 30.1577C 1.00085 30.1548 1.00036 30.1529 1.00017 30.152C 1 30.1513 1 30.1509 1 30.1507L -1 30.1507ZM 1.05942 32.204L 25.4703 32.204L 25.4703 30.204L 1.05942 30.204L 1.05942 32.204ZM 25.4703 32.204C 26.5909 32.204 27.5297 31.279 27.5297 30.1507L 25.5297 30.1507C 25.5297 30.1509 25.5297 30.1513 25.5295 30.152C 25.5293 30.1529 25.5288 30.1548 25.5276 30.1577C 25.5249 30.1639 25.5194 30.1729 25.5101 30.1821C 25.4896 30.2025 25.4729 30.204 25.4703 30.204L 25.4703 32.204ZM 27.5297 30.1507L 27.5297 1.0533L 25.5297 1.0533L 25.5297 30.1507L 27.5297 30.1507ZM 27.5038 1.2794C 27.8157 -0.0643281 26.6611 -1 25.6027 -1L 25.6027 1C 25.613 1 25.6099 1.00584 25.595 0.989595C 25.5854 0.979201 25.5698 0.957511 25.5599 0.922827C 25.5492 0.885484 25.5502 0.850259 25.5556 0.8272L 27.5038 1.2794ZM 13.0872 5.69813C 13.4764 5.58204 13.8689 5.50422 14.1338 5.46659L 13.8526 3.48646C 13.4995 3.5366 13.0091 3.63433 12.5155 3.78157L 13.0872 5.69813ZM 14.1338 5.46659C 14.0567 5.47754 13.9988 5.45995 13.9591 5.43722C 13.9132 5.41089 13.8725 5.36635 13.8521 5.3122L 15.7234 4.60638C 15.4175 3.79528 14.6018 3.38004 13.8526 3.48646L 14.1338 5.46659ZM 13.8669 5.34926L 14.9263 7.85084L 16.768 7.0709L 15.7086 4.56932L 13.8669 5.34926ZM 14.9342 7.86898C 14.9255 7.84949 14.9197 7.82361 14.9324 7.78065C 14.9454 7.73664 15.0078 7.6008 15.1888 7.53329L 15.8875 9.40728C 16.4217 9.2081 16.7269 8.76505 16.8502 8.348C 16.9733 7.93199 16.9454 7.46724 16.7601 7.05277L 14.9342 7.86898ZM 15.1888 7.53329C 14.8113 7.67406 14.4824 7.81436 14.175 7.9453L 14.959 9.78524C 15.2697 9.65286 15.5588 9.52983 15.8875 9.40728L 15.1888 7.53329ZM 14.1219 7.96981C 14.3125 7.87505 14.6008 7.83115 14.8908 7.9753C 15.2051 8.13155 15.3905 8.45024 15.3905 8.7775L 13.3905 8.7775C 13.3905 9.19253 13.62 9.57705 14.0005 9.76622C 14.3567 9.94329 14.7333 9.89938 15.0122 9.76073L 14.1219 7.96981ZM 15.3077 8.37912L 13.6303 4.51702L 11.7958 5.31377L 13.4733 9.17587L 15.3077 8.37912ZM 13.4181 4.20625C 13.8265 4.61223 13.6866 5.10658 13.6009 5.27691C 13.5064 5.46493 13.3664 5.57568 13.2465 5.63531L 12.3562 3.84439C 12.148 3.9479 11.9418 4.12448 11.8141 4.37834C 11.6954 4.6145 11.5555 5.17468 12.008 5.62455L 13.4181 4.20625ZM 19.6619 25.407C 19.3172 25.5481 19.0307 25.6383 18.8096 25.6755C 18.5704 25.7159 18.5326 25.6729 18.5877 25.7004L 17.6974 27.4913C 18.194 27.7381 18.7301 27.7171 19.1419 27.6477C 19.572 27.5753 20.0138 27.4241 20.4196 27.2579L 19.6619 25.407ZM 18.5947 25.7038C 17.6925 25.2466 16.6163 24.172 15.512 22.5971C 14.4274 21.0503 13.3874 19.1247 12.5232 17.1065C 11.659 15.0883 10.9834 13.0072 10.6126 11.1554C 10.2351 9.27011 10.2004 7.751 10.4922 6.78423L 8.57743 6.20647C 8.14079 7.6535 8.25514 9.56859 8.65151 11.5481C 9.0546 13.5612 9.77769 15.7756 10.6847 17.8938C 11.5917 20.012 12.6954 22.0637 13.8745 23.7453C 15.0339 25.3989 16.3414 26.804 17.6905 27.4878L 18.5947 25.7038ZM 10.4992 6.75989C 10.4805 6.82802 10.466 6.77681 10.6512 6.6387C 10.8226 6.51095 11.0799 6.37282 11.4145 6.23584L 10.6568 4.38493C 10.241 4.55516 9.81408 4.76813 9.45569 5.03537C 9.1112 5.29225 8.72153 5.67992 8.57042 6.23081L 10.4992 6.75989ZM 11.4808 6.20585C 11.2902 6.3006 11.0019 6.34451 10.7119 6.20036C 10.3976 6.04411 10.2122 5.72543 10.2122 5.39816L 12.2122 5.39816C 12.2122 4.98312 11.9827 4.5986 11.6022 4.40944C 11.246 4.23237 10.8694 4.27628 10.5905 4.41493L 11.4808 6.20585ZM 10.2925 5.79086L 12.279 10.4429L 14.1183 9.65754L 12.1319 5.00547L 10.2925 5.79086ZM 12.1986 10.0502C 12.1986 10.0503 12.1986 10.0504 12.1986 10.0505C 12.1986 10.0506 12.1986 10.0507 12.1986 10.0507C 12.1986 10.0508 12.1986 10.0509 12.1986 10.051C 12.1986 10.0511 12.1986 10.0512 12.1986 10.0513C 12.1986 10.0513 12.1986 10.0514 12.1986 10.0515C 12.1986 10.0516 12.1986 10.0517 12.1986 10.0518C 12.1986 10.0519 12.1986 10.0519 12.1986 10.052C 12.1986 10.0521 12.1986 10.0522 12.1986 10.0523C 12.1986 10.0524 12.1986 10.0525 12.1986 10.0525C 12.1986 10.0526 12.1986 10.0527 12.1986 10.0528C 12.1986 10.0529 12.1986 10.053 12.1986 10.0531C 12.1986 10.0531 12.1986 10.0532 12.1986 10.0533C 12.1986 10.0534 12.1986 10.0535 12.1986 10.0536C 12.1986 10.0537 12.1986 10.0537 12.1986 10.0538C 12.1986 10.0539 12.1986 10.054 12.1986 10.0541C 12.1986 10.0542 12.1986 10.0543 12.1986 10.0543C 12.1986 10.0544 12.1986 10.0545 12.1986 10.0546C 12.1986 10.0547 12.1986 10.0548 12.1986 10.0549C 12.1986 10.0549 12.1986 10.055 12.1986 10.0551C 12.1986 10.0552 12.1986 10.0553 12.1986 10.0554C 12.1986 10.0555 12.1986 10.0555 12.1986 10.0556C 12.1986 10.0557 12.1986 10.0558 12.1986 10.0559C 12.1986 10.056 12.1986 10.0561 12.1986 10.0561C 12.1986 10.0562 12.1986 10.0563 12.1986 10.0564C 12.1986 10.0565 12.1986 10.0566 12.1986 10.0567C 12.1986 10.0567 12.1986 10.0568 12.1986 10.0569C 12.1986 10.057 12.1986 10.0571 12.1986 10.0572C 12.1986 10.0573 12.1986 10.0573 12.1986 10.0574C 12.1986 10.0575 12.1986 10.0576 12.1986 10.0577C 12.1986 10.0578 12.1986 10.0579 12.1986 10.0579C 12.1986 10.058 12.1986 10.0581 12.1986 10.0582C 12.1986 10.0583 12.1986 10.0584 12.1986 10.0585C 12.1986 10.0585 12.1986 10.0586 12.1986 10.0587C 12.1986 10.0588 12.1986 10.0589 12.1986 10.059C 12.1986 10.059 12.1986 10.0591 12.1986 10.0592C 12.1986 10.0593 12.1986 10.0594 12.1986 10.0595C 12.1986 10.0596 12.1986 10.0596 12.1986 10.0597C 12.1986 10.0598 12.1986 10.0599 12.1986 10.06C 12.1986 10.0601 12.1986 10.0602 12.1986 10.0602C 12.1986 10.0603 12.1986 10.0604 12.1986 10.0605C 12.1986 10.0606 12.1986 10.0607 12.1986 10.0608C 12.1986 10.0608 12.1986 10.0609 12.1986 10.061C 12.1986 10.0611 12.1986 10.0612 12.1986 10.0613C 12.1986 10.0614 12.1986 10.0614 12.1986 10.0615C 12.1986 10.0616 12.1986 10.0617 12.1986 10.0618C 12.1986 10.0619 12.1986 10.0619 12.1986 10.062C 12.1986 10.0621 12.1986 10.0622 12.1986 10.0623C 12.1986 10.0624 12.1986 10.0625 12.1986 10.0625C 12.1986 10.0626 12.1986 10.0627 12.1986 10.0628C 12.1986 10.0629 12.1986 10.063 12.1986 10.0631C 12.1986 10.0631 12.1986 10.0632 12.1986 10.0633C 12.1986 10.0634 12.1986 10.0635 12.1986 10.0636C 12.1986 10.0636 12.1986 10.0637 12.1986 10.0638C 12.1986 10.0639 12.1986 10.064 12.1986 10.0641C 12.1986 10.0642 12.1986 10.0642 12.1986 10.0643C 12.1986 10.0644 12.1986 10.0645 12.1986 10.0646C 12.1986 10.0647 12.1986 10.0647 12.1986 10.0648C 12.1986 10.0649 12.1986 10.065 12.1986 10.0651C 12.1986 10.0652 12.1986 10.0653 12.1986 10.0653C 12.1986 10.0654 12.1986 10.0655 12.1986 10.0656C 12.1986 10.0657 12.1986 10.0658 12.1986 10.0658C 12.1986 10.0659 12.1986 10.066 12.1986 10.0661C 12.1986 10.0662 12.1986 10.0663 12.1986 10.0664C 12.1986 10.0664 12.1986 10.0665 12.1986 10.0666C 12.1986 10.0667 12.1986 10.0668 12.1986 10.0669C 12.1986 10.0669 12.1986 10.067 12.1986 10.0671C 12.1986 10.0672 12.1986 10.0673 12.1986 10.0674C 12.1986 10.0674 12.1986 10.0675 12.1986 10.0676C 12.1986 10.0677 12.1986 10.0678 12.1986 10.0679C 12.1986 10.068 12.1986 10.068 12.1986 10.0681C 12.1986 10.0682 12.1986 10.0683 12.1986 10.0684C 12.1986 10.0685 12.1986 10.0685 12.1986 10.0686C 12.1986 10.0687 12.1986 10.0688 12.1986 10.0689C 12.1986 10.069 12.1986 10.069 12.1986 10.0691C 12.1986 10.0692 12.1986 10.0693 12.1986 10.0694C 12.1986 10.0695 12.1986 10.0695 12.1986 10.0696C 12.1986 10.0697 12.1986 10.0698 12.1986 10.0699C 12.1986 10.07 12.1986 10.0701 12.1986 10.0701C 12.1986 10.0702 12.1986 10.0703 12.1986 10.0704C 12.1986 10.0705 12.1986 10.0706 12.1986 10.0706C 12.1986 10.0707 12.1986 10.0708 12.1986 10.0709C 12.1986 10.071 12.1986 10.0711 12.1986 10.0711C 12.1986 10.0712 12.1986 10.0713 12.1986 10.0714C 12.1986 10.0715 12.1986 10.0716 12.1986 10.0716C 12.1986 10.0717 12.1986 10.0718 12.1986 10.0719C 12.1986 10.072 12.1986 10.0721 12.1986 10.0721C 12.1986 10.0722 12.1986 10.0723 12.1986 10.0724C 12.1986 10.0725 12.1986 10.0726 12.1986 10.0726C 12.1986 10.0727 12.1986 10.0728 12.1986 10.0729C 12.1986 10.073 12.1986 10.0731 12.1986 10.0731C 12.1986 10.0732 12.1986 10.0733 12.1986 10.0734C 12.1986 10.0735 12.1986 10.0736 12.1986 10.0736C 12.1986 10.0737 12.1986 10.0738 12.1986 10.0739C 12.1986 10.074 12.1986 10.0741 12.1986 10.0741C 12.1986 10.0742 12.1986 10.0743 12.1986 10.0744C 12.1986 10.0745 12.1986 10.0745 12.1986 10.0746C 12.1986 10.0747 12.1986 10.0748 12.1986 10.0749C 12.1986 10.075 12.1986 10.075 12.1986 10.0751C 12.1986 10.0752 12.1986 10.0753 12.1986 10.0754C 12.1986 10.0755 12.1986 10.0755 12.1986 10.0756C 12.1986 10.0757 12.1986 10.0758 12.1986 10.0759C 12.1986 10.076 12.1986 10.076 12.1986 10.0761C 12.1986 10.0762 12.1986 10.0763 12.1986 10.0764C 12.1986 10.0764 12.1986 10.0765 12.1986 10.0766C 12.1986 10.0767 12.1986 10.0768 12.1986 10.0769C 12.1986 10.0769 12.1986 10.077 12.1986 10.0771C 12.1986 10.0772 12.1986 10.0773 12.1986 10.0773C 12.1986 10.0774 12.1986 10.0775 12.1986 10.0776C 12.1986 10.0777 12.1986 10.0778 12.1986 10.0778C 12.1986 10.0779 12.1986 10.078 12.1986 10.0781C 12.1986 10.0782 12.1986 10.0782 12.1986 10.0783C 12.1986 10.0784 12.1986 10.0785 12.1986 10.0786C 12.1986 10.0787 12.1986 10.0787 12.1986 10.0788C 12.1986 10.0789 12.1986 10.079 12.1986 10.0791C 12.1986 10.0791 12.1986 10.0792 12.1986 10.0793C 12.1986 10.0794 12.1986 10.0795 12.1986 10.0796C 12.1986 10.0796 12.1986 10.0797 12.1986 10.0798C 12.1986 10.0799 12.1986 10.08 12.1986 10.08C 12.1986 10.0801 12.1986 10.0802 12.1986 10.0803C 12.1986 10.0804 12.1986 10.0804 12.1986 10.0805C 12.1986 10.0806 12.1986 10.0807 12.1986 10.0808C 12.1986 10.0809 12.1986 10.0809 12.1986 10.081C 12.1986 10.0811 12.1986 10.0812 12.1986 10.0813C 12.1986 10.0813 12.1986 10.0814 12.1986 10.0815C 12.1986 10.0816 12.1986 10.0817 12.1986 10.0817C 12.1986 10.0818 12.1986 10.0819 12.1986 10.082C 12.1986 10.0821 12.1986 10.0821 12.1986 10.0822C 12.1986 10.0823 12.1986 10.0824 12.1986 10.0825C 12.1986 10.0825 12.1986 10.0826 12.1986 10.0827C 12.1986 10.0828 12.1986 10.0829 12.1986 10.0829C 12.1986 10.083 12.1986 10.0831 12.1986 10.0832C 12.1986 10.0833 12.1986 10.0833 12.1986 10.0834C 12.1986 10.0835 12.1986 10.0836 12.1986 10.0837C 12.1986 10.0837 12.1986 10.0838 12.1986 10.0839C 12.1986 10.084 12.1986 10.0841 12.1986 10.0841C 12.1986 10.0842 12.1986 10.0843 12.1986 10.0844C 12.1986 10.0845 12.1986 10.0845 12.1986 10.0846C 12.1986 10.0847 12.1986 10.0848 12.1986 10.0849C 12.1986 10.0849 12.1986 10.085 12.1986 10.0851C 12.1986 10.0852 12.1986 10.0853 12.1986 10.0853C 12.1986 10.0854 12.1986 10.0855 12.1986 10.0856C 12.1986 10.0857 12.1986 10.0857 12.1986 10.0858C 12.1986 10.0859 12.1986 10.086 12.1986 10.0861C 12.1986 10.0861 12.1986 10.0862 12.1986 10.0863C 12.1986 10.0864 12.1986 10.0864 12.1986 10.0865C 12.1986 10.0866 12.1986 10.0867 12.1986 10.0868C 12.1986 10.0868 12.1986 10.0869 12.1986 10.087C 12.1986 10.0871 12.1986 10.0872 12.1986 10.0872C 12.1986 10.0873 12.1986 10.0874 12.1986 10.0875C 12.1986 10.0875 12.1986 10.0876 12.1986 10.0877C 12.1986 10.0878 12.1986 10.0879 12.1986 10.0879C 12.1986 10.088 12.1986 10.0881 12.1986 10.0882C 12.1986 10.0883 12.1986 10.0883 12.1986 10.0884C 12.1986 10.0885 12.1986 10.0886 12.1986 10.0886C 12.1986 10.0887 12.1986 10.0888 12.1986 10.0889C 12.1986 10.089 12.1986 10.089 12.1986 10.0891C 12.1986 10.0892 12.1986 10.0893 12.1986 10.0893C 12.1986 10.0894 12.1986 10.0895 12.1986 10.0896C 12.1986 10.0897 12.1986 10.0897 12.1986 10.0898C 12.1986 10.0899 12.1986 10.09 12.1986 10.09C 12.1986 10.0901 12.1986 10.0902 12.1986 10.0903C 12.1986 10.0903 12.1986 10.0904 12.1986 10.0905C 12.1986 10.0906 12.1986 10.0907 12.1986 10.0907C 12.1986 10.0908 12.1986 10.0909 12.1986 10.091C 12.1986 10.091 12.1986 10.0911 12.1986 10.0912C 12.1986 10.0913 12.1986 10.0913 12.1986 10.0914C 12.1986 10.0915 12.1986 10.0916 12.1986 10.0917C 12.1986 10.0917 12.1986 10.0918 12.1986 10.0919C 12.1986 10.092 12.1986 10.092 12.1986 10.0921C 12.1986 10.0922 12.1986 10.0923 12.1986 10.0923C 12.1986 10.0924 12.1986 10.0925 12.1986 10.0926C 12.1986 10.0926 12.1986 10.0927 12.1986 10.0928C 12.1986 10.0929 12.1986 10.093 12.1986 10.093C 12.1986 10.0931 12.1986 10.0932 12.1986 10.0933C 12.1986 10.0933 12.1986 10.0934 12.1986 10.0935C 12.1986 10.0936 12.1986 10.0936 12.1986 10.0937C 12.1986 10.0938 12.1986 10.0939 12.1986 10.0939C 12.1986 10.094 12.1986 10.0941 12.1986 10.0942C 12.1986 10.0942 12.1986 10.0943 12.1986 10.0944C 12.1986 10.0945 12.1986 10.0945 12.1986 10.0946C 12.1986 10.0947 12.1986 10.0948 12.1986 10.0948C 12.1986 10.0949 12.1986 10.095 12.1986 10.0951C 12.1986 10.0951 12.1986 10.0952 12.1986 10.0953C 12.1986 10.0954 12.1986 10.0954 12.1986 10.0955C 12.1986 10.0956 12.1986 10.0957 12.1986 10.0957C 12.1986 10.0958 12.1986 10.0959 12.1986 10.096C 12.1986 10.096 12.1986 10.0961 12.1986 10.0962C 12.1986 10.0963 12.1986 10.0963 12.1986 10.0964C 12.1986 10.0965 12.1986 10.0966 12.1986 10.0966C 12.1986 10.0967 12.1986 10.0968 12.1986 10.0969C 12.1986 10.0969 12.1986 10.097 12.1986 10.0971C 12.1986 10.0971 12.1986 10.0972 12.1986 10.0973C 12.1986 10.0974 12.1986 10.0974 12.1986 10.0975C 12.1986 10.0976 12.1986 10.0977 12.1986 10.0977C 12.1986 10.0978 12.1986 10.0979 12.1986 10.098C 12.1986 10.098 12.1986 10.0981 12.1986 10.0982C 12.1986 10.0982 12.1986 10.0983 12.1986 10.0984C 12.1986 10.0985 12.1986 10.0985 12.1986 10.0986C 12.1986 10.0987 12.1986 10.0988 12.1986 10.0988C 12.1986 10.0989 12.1986 10.099 12.1986 10.099C 12.1986 10.0991 12.1986 10.0992 12.1986 10.0993C 12.1986 10.0993 12.1986 10.0994 12.1986 10.0995C 12.1986 10.0996 12.1986 10.0996 12.1986 10.0997C 12.1986 10.0998 12.1986 10.0998 12.1986 10.0999C 12.1986 10.1 12.1986 10.1001 12.1986 10.1001C 12.1986 10.1002 12.1986 10.1003 12.1986 10.1003C 12.1986 10.1004 12.1986 10.1005 12.1986 10.1006C 12.1986 10.1006 12.1986 10.1007 12.1986 10.1008C 12.1986 10.1009 12.1986 10.1009 12.1986 10.101C 12.1986 10.1011 12.1986 10.1011 12.1986 10.1012C 12.1986 10.1013 12.1986 10.1013 12.1986 10.1014C 12.1986 10.1015 12.1986 10.1016 12.1986 10.1016C 12.1986 10.1017 12.1986 10.1018 12.1986 10.1018C 12.1986 10.1019 12.1986 10.102 12.1986 10.1021C 12.1986 10.1021 12.1986 10.1022 12.1986 10.1023C 12.1986 10.1023 12.1986 10.1024 12.1986 10.1025C 12.1986 10.1026 12.1986 10.1026 12.1986 10.1027C 12.1986 10.1028 12.1986 10.1028 12.1986 10.1029C 12.1986 10.103 12.1986 10.103 12.1986 10.1031C 12.1986 10.1032 12.1986 10.1033 12.1986 10.1033C 12.1986 10.1034 12.1986 10.1035 12.1986 10.1035C 12.1986 10.1036 12.1986 10.1037 12.1986 10.1037C 12.1986 10.1038 12.1986 10.1039 12.1986 10.104C 12.1986 10.104 12.1986 10.1041 12.1986 10.1042C 12.1986 10.1042 12.1986 10.1043 12.1986 10.1044C 12.1986 10.1044 12.1986 10.1045 12.1986 10.1046C 12.1986 10.1046 12.1986 10.1047 12.1986 10.1048C 12.1986 10.1049 12.1986 10.1049 12.1986 10.105C 12.1986 10.1051 12.1986 10.1051 12.1986 10.1052C 12.1986 10.1053 12.1986 10.1053 12.1986 10.1054C 12.1986 10.1055 12.1986 10.1055 12.1986 10.1056C 12.1986 10.1057 12.1986 10.1057 12.1986 10.1058C 12.1986 10.1059 12.1986 10.1059 12.1986 10.106C 12.1986 10.1061 12.1986 10.1062 12.1986 10.1062C 12.1986 10.1063 12.1986 10.1064 12.1986 10.1064C 12.1986 10.1065 12.1986 10.1066 12.1986 10.1066C 12.1986 10.1067 12.1986 10.1068 12.1986 10.1068C 12.1986 10.1069 12.1986 10.107 12.1986 10.107C 12.1986 10.1071 12.1986 10.1072 12.1986 10.1072C 12.1986 10.1073 12.1986 10.1074 12.1986 10.1074C 12.1986 10.1075 12.1986 10.1076 12.1986 10.1076C 12.1986 10.1077 12.1986 10.1078 12.1986 10.1078C 12.1986 10.1079 12.1986 10.108 12.1986 10.108C 12.1986 10.1081 12.1986 10.1082 12.1986 10.1082C 12.1986 10.1083 12.1986 10.1084 12.1986 10.1084C 12.1986 10.1085 12.1986 10.1086 12.1986 10.1086C 12.1986 10.1087 12.1986 10.1088 12.1986 10.1088C 12.1986 10.1089 12.1986 10.109 12.1986 10.109C 12.1986 10.1091 12.1986 10.1092 12.1986 10.1092C 12.1986 10.1093 12.1986 10.1093 12.1986 10.1094C 12.1986 10.1095 12.1986 10.1095 12.1986 10.1096C 12.1986 10.1097 12.1986 10.1097 12.1986 10.1098C 12.1986 10.1099 12.1986 10.1099 12.1986 10.11C 12.1986 10.1101 12.1986 10.1101 12.1986 10.1102C 12.1986 10.1103 12.1986 10.1103 12.1986 10.1104C 12.1986 10.1105 12.1986 10.1105 12.1986 10.1106C 12.1986 10.1106 12.1986 10.1107 12.1986 10.1108C 12.1986 10.1108 12.1986 10.1109 12.1986 10.111C 12.1986 10.111 12.1986 10.1111 12.1986 10.1112C 12.1986 10.1112 12.1986 10.1113 12.1986 10.1113C 12.1986 10.1114 12.1986 10.1115 12.1986 10.1115C 12.1986 10.1116 12.1986 10.1117 12.1986 10.1117C 12.1986 10.1118 12.1986 10.1119 12.1986 10.1119C 12.1986 10.112 12.1986 10.112 12.1986 10.1121C 12.1986 10.1122 12.1986 10.1122 12.1986 10.1123C 12.1986 10.1124 12.1986 10.1124 12.1986 10.1125C 12.1986 10.1125 12.1986 10.1126 12.1986 10.1127C 12.1986 10.1127 12.1986 10.1128 12.1986 10.1129C 12.1986 10.1129 12.1986 10.113 12.1986 10.113C 12.1986 10.1131 12.1986 10.1132 12.1986 10.1132C 12.1986 10.1133 12.1986 10.1134 12.1986 10.1134C 12.1986 10.1135 12.1986 10.1135 12.1986 10.1136C 12.1986 10.1137 12.1986 10.1137 12.1986 10.1138C 12.1986 10.1138 12.1986 10.1139 12.1986 10.114C 12.1986 10.114 12.1986 10.1141 12.1986 10.1142C 12.1986 10.1142 12.1986 10.1143 12.1986 10.1143C 12.1986 10.1144 12.1986 10.1145 12.1986 10.1145C 12.1986 10.1146 12.1986 10.1146 12.1986 10.1147C 12.1986 10.1148 12.1986 10.1148 12.1986 10.1149C 12.1986 10.1149 12.1986 10.115 12.1986 10.1151C 12.1986 10.1151 12.1986 10.1152 12.1986 10.1152C 12.1986 10.1153 12.1986 10.1154 12.1986 10.1154C 12.1986 10.1155 12.1986 10.1155 12.1986 10.1156C 12.1986 10.1157 12.1986 10.1157 12.1986 10.1158C 12.1986 10.1158 12.1986 10.1159 12.1986 10.116C 12.1986 10.116 12.1986 10.1161 12.1986 10.1161C 12.1986 10.1162 12.1986 10.1162 12.1986 10.1163C 12.1986 10.1164 12.1986 10.1164 12.1986 10.1165C 12.1986 10.1165 12.1986 10.1166 12.1986 10.1167C 12.1986 10.1167 12.1986 10.1168 12.1986 10.1168C 12.1986 10.1169 12.1986 10.117 12.1986 10.117C 12.1986 10.1171 12.1986 10.1171 12.1986 10.1172C 12.1986 10.1172 12.1986 10.1173 12.1986 10.1174C 12.1986 10.1174 12.1986 10.1175 12.1986 10.1175C 12.1986 10.1176 12.1986 10.1176 12.1986 10.1177C 12.1986 10.1178 12.1986 10.1178 12.1986 10.1179C 12.1986 10.1179 12.1986 10.118 12.1986 10.118C 12.1986 10.1181 12.1986 10.1182 12.1986 10.1182C 12.1986 10.1183 12.1986 10.1183 12.1986 10.1184C 12.1986 10.1184 12.1986 10.1185 12.1986 10.1186C 12.1986 10.1186 12.1986 10.1187 12.1986 10.1187C 12.1986 10.1188 12.1986 10.1188 12.1986 10.1189C 12.1986 10.1189 12.1986 10.119 12.1986 10.1191C 12.1986 10.1191 12.1986 10.1192 12.1986 10.1192C 12.1986 10.1193 12.1986 10.1193 12.1986 10.1194C 12.1986 10.1194 12.1986 10.1195 12.1986 10.1196C 12.1986 10.1196 12.1986 10.1197 12.1986 10.1197C 12.1986 10.1198 12.1986 10.1198 12.1986 10.1199C 12.1986 10.1199 12.1986 10.12 12.1986 10.12C 12.1986 10.1201 12.1986 10.1202 12.1986 10.1202C 12.1986 10.1203 12.1986 10.1203 12.1986 10.1204C 12.1986 10.1204 12.1986 10.1205 12.1986 10.1205C 12.1986 10.1206 12.1986 10.1206 12.1986 10.1207C 12.1986 10.1207 12.1986 10.1208 12.1986 10.1209C 12.1986 10.1209 12.1986 10.121 12.1986 10.121C 12.1986 10.1211 12.1986 10.1211 12.1986 10.1212C 12.1986 10.1212 12.1986 10.1213 12.1986 10.1213C 12.1986 10.1214 12.1986 10.1214 12.1986 10.1215C 12.1986 10.1215 12.1986 10.1216 12.1986 10.1217C 12.1986 10.1217 12.1986 10.1218 12.1986 10.1218C 12.1986 10.1219 12.1986 10.1219 12.1986 10.122C 12.1986 10.122 12.1986 10.1221 12.1986 10.1221C 12.1986 10.1222 12.1986 10.1222 12.1986 10.1223C 12.1986 10.1223 12.1986 10.1224 12.1986 10.1224C 12.1986 10.1225 12.1986 10.1225 12.1986 10.1226C 12.1986 10.1226 12.1986 10.1227 12.1986 10.1227C 12.1986 10.1228 12.1986 10.1228 12.1986 10.1229C 12.1986 10.1229 12.1986 10.123 12.1986 10.123C 12.1986 10.1231 12.1986 10.1231 12.1986 10.1232C 12.1986 10.1232 12.1986 10.1233 12.1986 10.1233C 12.1986 10.1234 12.1986 10.1234 12.1986 10.1235C 12.1986 10.1235 12.1986 10.1236 12.1986 10.1236C 12.1986 10.1237 12.1986 10.1237 12.1986 10.1238C 12.1986 10.1238 12.1986 10.1239 12.1986 10.1239C 12.1986 10.124 12.1986 10.124 12.1986 10.1241C 12.1986 10.1241 12.1986 10.1242 12.1986 10.1242C 12.1986 10.1243 12.1986 10.1243 12.1986 10.1244C 12.1986 10.1244 12.1986 10.1245 12.1986 10.1245C 12.1986 10.1246 12.1986 10.1246 12.1986 10.1247C 12.1986 10.1247 12.1986 10.1248 12.1986 10.1248C 12.1986 10.1249 12.1986 10.1249 12.1986 10.125C 12.1986 10.125 12.1986 10.1251 12.1986 10.1251C 12.1986 10.1251 12.1986 10.1252 12.1986 10.1252C 12.1986 10.1253 12.1986 10.1253 12.1986 10.1254C 12.1986 10.1254 12.1986 10.1255 12.1986 10.1255C 12.1986 10.1256 12.1986 10.1256 12.1986 10.1257C 12.1986 10.1257 12.1986 10.1258 12.1986 10.1258C 12.1986 10.1259 12.1986 10.1259 12.1986 10.1259C 12.1986 10.126 12.1986 10.126 12.1986 10.1261C 12.1986 10.1261 12.1986 10.1262 12.1986 10.1262C 12.1986 10.1263 12.1986 10.1263 12.1986 10.1264C 12.1986 10.1264 12.1986 10.1264 12.1986 10.1265C 12.1986 10.1265 12.1986 10.1266 12.1986 10.1266C 12.1986 10.1267 12.1986 10.1267 12.1986 10.1268C 12.1986 10.1268 12.1986 10.1269 12.1986 10.1269C 12.1986 10.1269 12.1986 10.127 12.1986 10.127C 12.1986 10.1271 12.1986 10.1271 12.1986 10.1272C 12.1986 10.1272 12.1986 10.1272 12.1986 10.1273C 12.1986 10.1273 12.1986 10.1274 12.1986 10.1274C 12.1986 10.1275 12.1986 10.1275 12.1986 10.1276C 12.1986 10.1276 12.1986 10.1276 12.1986 10.1277C 12.1986 10.1277 12.1986 10.1278 12.1986 10.1278C 12.1986 10.1279 12.1986 10.1279 12.1986 10.1279C 12.1986 10.128 12.1986 10.128 12.1986 10.1281C 12.1986 10.1281 12.1986 10.1282 12.1986 10.1282C 12.1986 10.1282 12.1986 10.1283 12.1986 10.1283C 12.1986 10.1284 12.1986 10.1284 12.1986 10.1284C 12.1986 10.1285 12.1986 10.1285 12.1986 10.1286C 12.1986 10.1286 12.1986 10.1287 12.1986 10.1287C 12.1986 10.1287 12.1986 10.1288 12.1986 10.1288C 12.1986 10.1289 12.1986 10.1289 12.1986 10.1289C 12.1986 10.129 12.1986 10.129 12.1986 10.1291C 12.1986 10.1291 12.1986 10.1291 12.1986 10.1292C 12.1986 10.1292 12.1986 10.1293 12.1986 10.1293C 12.1986 10.1293 12.1986 10.1294 12.1986 10.1294C 12.1986 10.1295 12.1986 10.1295 12.1986 10.1295C 12.1986 10.1296 12.1986 10.1296 12.1986 10.1297C 12.1986 10.1297 12.1986 10.1297 12.1986 10.1298C 12.1986 10.1298 12.1986 10.1299 12.1986 10.1299C 12.1986 10.1299 12.1986 10.13 12.1986 10.13C 12.1986 10.13 12.1986 10.1301 12.1986 10.1301C 12.1986 10.1302 12.1986 10.1302 12.1986 10.1302C 12.1986 10.1303 12.1986 10.1303 12.1986 10.1304C 12.1986 10.1304 12.1986 10.1304 12.1986 10.1305C 12.1986 10.1305 12.1986 10.1305 12.1986 10.1306C 12.1986 10.1306 12.1986 10.1307 12.1986 10.1307C 12.1986 10.1307 12.1986 10.1308 12.1986 10.1308C 12.1986 10.1308 12.1986 10.1309 12.1986 10.1309C 12.1986 10.1309 12.1986 10.131 12.1986 10.131C 12.1986 10.1311 12.1986 10.1311 12.1986 10.1311C 12.1986 10.1312 12.1986 10.1312 12.1986 10.1312C 12.1986 10.1313 12.1986 10.1313 12.1986 10.1313C 12.1986 10.1314 12.1986 10.1314 12.1986 10.1314C 12.1986 10.1315 12.1986 10.1315 12.1986 10.1316C 12.1986 10.1316 12.1986 10.1316 12.1986 10.1317C 12.1986 10.1317 12.1986 10.1317 12.1986 10.1318C 12.1986 10.1318 12.1986 10.1318 12.1986 10.1319C 12.1986 10.1319 12.1986 10.1319 12.1986 10.132C 12.1986 10.132 12.1986 10.132 12.1986 10.1321C 12.1986 10.1321 12.1986 10.1321 12.1986 10.1322C 12.1986 10.1322 12.1986 10.1322 12.1986 10.1323C 12.1986 10.1323 12.1986 10.1323 12.1986 10.1324C 12.1986 10.1324 12.1986 10.1324 12.1986 10.1325C 12.1986 10.1325 12.1986 10.1325 12.1986 10.1326C 12.1986 10.1326 12.1986 10.1326 12.1986 10.1327C 12.1986 10.1327 12.1986 10.1327 12.1986 10.1328C 12.1986 10.1328 12.1986 10.1328 12.1986 10.1328C 12.1986 10.1329 12.1986 10.1329 12.1986 10.1329C 12.1986 10.133 12.1986 10.133 12.1986 10.133C 12.1986 10.1331 12.1986 10.1331 12.1986 10.1331C 12.1986 10.1332 12.1986 10.1332 12.1986 10.1332C 12.1986 10.1333 12.1986 10.1333 12.1986 10.1333C 12.1986 10.1333 12.1986 10.1334 12.1986 10.1334C 12.1986 10.1334 12.1986 10.1335 12.1986 10.1335C 12.1986 10.1335 12.1986 10.1336 12.1986 10.1336C 12.1986 10.1336 12.1986 10.1336 12.1986 10.1337C 12.1986 10.1337 12.1986 10.1337 12.1986 10.1338C 12.1986 10.1338 12.1986 10.1338 12.1986 10.1338C 12.1986 10.1339 12.1986 10.1339 12.1986 10.1339C 12.1986 10.134 12.1986 10.134 12.1986 10.134C 12.1986 10.134 12.1986 10.1341 12.1986 10.1341C 12.1986 10.1341 12.1986 10.1342 12.1986 10.1342C 12.1986 10.1342 12.1986 10.1342 12.1986 10.1343C 12.1986 10.1343 12.1986 10.1343 12.1986 10.1343C 12.1986 10.1344 12.1986 10.1344 12.1986 10.1344C 12.1986 10.1344 12.1986 10.1345 12.1986 10.1345C 12.1986 10.1345 12.1986 10.1346 12.1986 10.1346C 12.1986 10.1346 12.1986 10.1346 12.1986 10.1347C 12.1986 10.1347 12.1986 10.1347 12.1986 10.1347C 12.1986 10.1348 12.1986 10.1348 12.1986 10.1348C 12.1986 10.1348 12.1986 10.1349 12.1986 10.1349C 12.1986 10.1349 12.1986 10.1349 12.1986 10.135C 12.1986 10.135 12.1986 10.135 12.1986 10.135C 12.1986 10.1351 12.1986 10.1351 12.1986 10.1351C 12.1986 10.1351 12.1986 10.1352 12.1986 10.1352C 12.1986 10.1352 12.1986 10.1352 12.1986 10.1353C 12.1986 10.1353 12.1986 10.1353 12.1986 10.1353C 12.1986 10.1353 12.1986 10.1354 12.1986 10.1354C 12.1986 10.1354 12.1986 10.1354 12.1986 10.1355C 12.1986 10.1355 12.1986 10.1355 12.1986 10.1355C 12.1986 10.1355 12.1986 10.1356 12.1986 10.1356C 12.1986 10.1356 12.1986 10.1356 12.1986 10.1357C 12.1986 10.1357 12.1986 10.1357 12.1986 10.1357C 12.1986 10.1357 12.1986 10.1358 12.1986 10.1358C 12.1986 10.1358 12.1986 10.1358 12.1986 10.1359C 12.1986 10.1359 12.1986 10.1359 12.1986 10.1359C 12.1986 10.1359 12.1986 10.136 12.1986 10.136C 12.1986 10.136 12.1986 10.136 12.1986 10.136C 12.1986 10.1361 12.1986 10.1361 12.1986 10.1361C 12.1986 10.1361 12.1986 10.1361 12.1986 10.1362C 12.1986 10.1362 12.1986 10.1362 12.1986 10.1362C 12.1986 10.1362 12.1986 10.1363 12.1986 10.1363C 12.1986 10.1363 12.1986 10.1363 12.1986 10.1363C 12.1986 10.1363 12.1986 10.1364 12.1986 10.1364C 12.1986 10.1364 12.1986 10.1364 12.1986 10.1364C 12.1986 10.1365 12.1986 10.1365 12.1986 10.1365C 12.1986 10.1365 12.1986 10.1365 12.1986 10.1365C 12.1986 10.1366 12.1986 10.1366 12.1986 10.1366C 12.1986 10.1366 12.1986 10.1366 12.1986 10.1366C 12.1986 10.1367 12.1986 10.1367 12.1986 10.1367C 12.1986 10.1367 12.1986 10.1367 12.1986 10.1367C 12.1986 10.1368 12.1986 10.1368 12.1986 10.1368C 12.1986 10.1368 12.1986 10.1368 12.1986 10.1368C 12.1986 10.1369 12.1986 10.1369 12.1986 10.1369C 12.1986 10.1369 12.1986 10.1369 12.1986 10.1369C 12.1986 10.1369 12.1986 10.137 12.1986 10.137C 12.1986 10.137 12.1986 10.137 12.1986 10.137C 12.1986 10.137 12.1986 10.1371 12.1986 10.1371C 12.1986 10.1371 12.1986 10.1371 12.1986 10.1371C 12.1986 10.1371 12.1986 10.1371 12.1986 10.1371C 12.1986 10.1372 12.1986 10.1372 12.1986 10.1372C 12.1986 10.1372 12.1986 10.1372 12.1986 10.1372C 12.1986 10.1372 12.1986 10.1373 12.1986 10.1373C 12.1986 10.1373 12.1986 10.1373 12.1986 10.1373C 12.1986 10.1373 12.1986 10.1373 12.1986 10.1373C 12.1986 10.1374 12.1986 10.1374 12.1986 10.1374C 12.1986 10.1374 12.1986 10.1374 12.1986 10.1374C 12.1986 10.1374 12.1986 10.1374 12.1986 10.1374C 12.1986 10.1375 12.1986 10.1375 12.1986 10.1375C 12.1986 10.1375 12.1986 10.1375 12.1986 10.1375C 12.1986 10.1375 12.1986 10.1375 12.1986 10.1375C 12.1986 10.1375 12.1986 10.1376 12.1986 10.1376C 12.1986 10.1376 12.1986 10.1376 12.1986 10.1376C 12.1986 10.1376 12.1986 10.1376 12.1986 10.1376C 12.1986 10.1376 12.1986 10.1376 12.1986 10.1376C 12.1986 10.1377 12.1986 10.1377 12.1986 10.1377C 12.1986 10.1377 12.1986 10.1377 12.1986 10.1377C 12.1986 10.1377 12.1986 10.1377 12.1986 10.1377C 12.1986 10.1377 12.1986 10.1377 12.1986 10.1377C 12.1986 10.1378 12.1986 10.1378 12.1986 10.1378C 12.1986 10.1378 12.1986 10.1378 12.1986 10.1378C 12.1986 10.1378 12.1986 10.1378 12.1986 10.1378C 12.1986 10.1378 12.1986 10.1378 12.1986 10.1378C 12.1986 10.1378 12.1986 10.1378 12.1986 10.1378C 12.1986 10.1379 12.1986 10.1379 12.1986 10.1379C 12.1986 10.1379 12.1986 10.1379 12.1986 10.1379C 12.1986 10.1379 12.1986 10.1379 12.1986 10.1379C 12.1986 10.1379 12.1986 10.1379 12.1986 10.1379C 12.1986 10.1379 12.1986 10.1379 12.1986 10.1379C 12.1986 10.1379 12.1986 10.1379 12.1986 10.1379C 12.1986 10.1379 12.1986 10.1379 12.1986 10.1379C 12.1986 10.138 12.1986 10.138 12.1986 10.138C 12.1986 10.138 12.1986 10.138 12.1986 10.138C 12.1986 10.138 12.1986 10.138 12.1986 10.138C 12.1986 10.138 12.1986 10.138 12.1986 10.138C 12.1986 10.138 12.1986 10.138 12.1986 10.138C 12.1986 10.138 12.1986 10.138 12.1986 10.138C 12.1986 10.138 12.1986 10.138 12.1986 10.138C 12.1986 10.138 12.1986 10.138 12.1986 10.138C 12.1986 10.138 12.1986 10.138 12.1986 10.138L 12.1986 10.138C 12.1986 10.138 12.1986 10.138 13.1986 10.138C 14.1986 10.138 14.1986 10.138 14.1986 10.138L 14.1986 10.138C 14.1986 10.138 14.1986 10.138 14.1986 10.138C 14.1986 10.138 14.1986 10.138 14.1986 10.138C 14.1986 10.138 14.1986 10.138 14.1986 10.138C 14.1986 10.138 14.1986 10.138 14.1986 10.138C 14.1986 10.138 14.1986 10.138 14.1986 10.138C 14.1986 10.138 14.1986 10.138 14.1986 10.138C 14.1986 10.138 14.1986 10.138 14.1986 10.138C 14.1986 10.138 14.1986 10.138 14.1986 10.138C 14.1986 10.138 14.1986 10.138 14.1986 10.1379C 14.1986 10.1379 14.1986 10.1379 14.1986 10.1379C 14.1986 10.1379 14.1986 10.1379 14.1986 10.1379C 14.1986 10.1379 14.1986 10.1379 14.1986 10.1379C 14.1986 10.1379 14.1986 10.1379 14.1986 10.1379C 14.1986 10.1379 14.1986 10.1379 14.1986 10.1379C 14.1986 10.1379 14.1986 10.1379 14.1986 10.1379C 14.1986 10.1379 14.1986 10.1379 14.1986 10.1378C 14.1986 10.1378 14.1986 10.1378 14.1986 10.1378C 14.1986 10.1378 14.1986 10.1378 14.1986 10.1378C 14.1986 10.1378 14.1986 10.1378 14.1986 10.1378C 14.1986 10.1378 14.1986 10.1378 14.1986 10.1378C 14.1986 10.1378 14.1986 10.1378 14.1986 10.1377C 14.1986 10.1377 14.1986 10.1377 14.1986 10.1377C 14.1986 10.1377 14.1986 10.1377 14.1986 10.1377C 14.1986 10.1377 14.1986 10.1377 14.1986 10.1377C 14.1986 10.1377 14.1986 10.1377 14.1986 10.1376C 14.1986 10.1376 14.1986 10.1376 14.1986 10.1376C 14.1986 10.1376 14.1986 10.1376 14.1986 10.1376C 14.1986 10.1376 14.1986 10.1376 14.1986 10.1376C 14.1986 10.1376 14.1986 10.1375 14.1986 10.1375C 14.1986 10.1375 14.1986 10.1375 14.1986 10.1375C 14.1986 10.1375 14.1986 10.1375 14.1986 10.1375C 14.1986 10.1375 14.1986 10.1375 14.1986 10.1374C 14.1986 10.1374 14.1986 10.1374 14.1986 10.1374C 14.1986 10.1374 14.1986 10.1374 14.1986 10.1374C 14.1986 10.1374 14.1986 10.1374 14.1986 10.1373C 14.1986 10.1373 14.1986 10.1373 14.1986 10.1373C 14.1986 10.1373 14.1986 10.1373 14.1986 10.1373C 14.1986 10.1373 14.1986 10.1372 14.1986 10.1372C 14.1986 10.1372 14.1986 10.1372 14.1986 10.1372C 14.1986 10.1372 14.1986 10.1372 14.1986 10.1371C 14.1986 10.1371 14.1986 10.1371 14.1986 10.1371C 14.1986 10.1371 14.1986 10.1371 14.1986 10.1371C 14.1986 10.1371 14.1986 10.137 14.1986 10.137C 14.1986 10.137 14.1986 10.137 14.1986 10.137C 14.1986 10.137 14.1986 10.1369 14.1986 10.1369C 14.1986 10.1369 14.1986 10.1369 14.1986 10.1369C 14.1986 10.1369 14.1986 10.1369 14.1986 10.1368C 14.1986 10.1368 14.1986 10.1368 14.1986 10.1368C 14.1986 10.1368 14.1986 10.1368 14.1986 10.1367C 14.1986 10.1367 14.1986 10.1367 14.1986 10.1367C 14.1986 10.1367 14.1986 10.1367 14.1986 10.1366C 14.1986 10.1366 14.1986 10.1366 14.1986 10.1366C 14.1986 10.1366 14.1986 10.1366 14.1986 10.1365C 14.1986 10.1365 14.1986 10.1365 14.1986 10.1365C 14.1986 10.1365 14.1986 10.1365 14.1986 10.1364C 14.1986 10.1364 14.1986 10.1364 14.1986 10.1364C 14.1986 10.1364 14.1986 10.1363 14.1986 10.1363C 14.1986 10.1363 14.1986 10.1363 14.1986 10.1363C 14.1986 10.1363 14.1986 10.1362 14.1986 10.1362C 14.1986 10.1362 14.1986 10.1362 14.1986 10.1362C 14.1986 10.1361 14.1986 10.1361 14.1986 10.1361C 14.1986 10.1361 14.1986 10.1361 14.1986 10.136C 14.1986 10.136 14.1986 10.136 14.1986 10.136C 14.1986 10.136 14.1986 10.1359 14.1986 10.1359C 14.1986 10.1359 14.1986 10.1359 14.1986 10.1359C 14.1986 10.1358 14.1986 10.1358 14.1986 10.1358C 14.1986 10.1358 14.1986 10.1357 14.1986 10.1357C 14.1986 10.1357 14.1986 10.1357 14.1986 10.1357C 14.1986 10.1356 14.1986 10.1356 14.1986 10.1356C 14.1986 10.1356 14.1986 10.1355 14.1986 10.1355C 14.1986 10.1355 14.1986 10.1355 14.1986 10.1355C 14.1986 10.1354 14.1986 10.1354 14.1986 10.1354C 14.1986 10.1354 14.1986 10.1353 14.1986 10.1353C 14.1986 10.1353 14.1986 10.1353 14.1986 10.1353C 14.1986 10.1352 14.1986 10.1352 14.1986 10.1352C 14.1986 10.1352 14.1986 10.1351 14.1986 10.1351C 14.1986 10.1351 14.1986 10.1351 14.1986 10.135C 14.1986 10.135 14.1986 10.135 14.1986 10.135C 14.1986 10.1349 14.1986 10.1349 14.1986 10.1349C 14.1986 10.1349 14.1986 10.1348 14.1986 10.1348C 14.1986 10.1348 14.1986 10.1348 14.1986 10.1347C 14.1986 10.1347 14.1986 10.1347 14.1986 10.1347C 14.1986 10.1346 14.1986 10.1346 14.1986 10.1346C 14.1986 10.1346 14.1986 10.1345 14.1986 10.1345C 14.1986 10.1345 14.1986 10.1344 14.1986 10.1344C 14.1986 10.1344 14.1986 10.1344 14.1986 10.1343C 14.1986 10.1343 14.1986 10.1343 14.1986 10.1343C 14.1986 10.1342 14.1986 10.1342 14.1986 10.1342C 14.1986 10.1342 14.1986 10.1341 14.1986 10.1341C 14.1986 10.1341 14.1986 10.134 14.1986 10.134C 14.1986 10.134 14.1986 10.134 14.1986 10.1339C 14.1986 10.1339 14.1986 10.1339 14.1986 10.1338C 14.1986 10.1338 14.1986 10.1338 14.1986 10.1338C 14.1986 10.1337 14.1986 10.1337 14.1986 10.1337C 14.1986 10.1336 14.1986 10.1336 14.1986 10.1336C 14.1986 10.1336 14.1986 10.1335 14.1986 10.1335C 14.1986 10.1335 14.1986 10.1334 14.1986 10.1334C 14.1986 10.1334 14.1986 10.1333 14.1986 10.1333C 14.1986 10.1333 14.1986 10.1333 14.1986 10.1332C 14.1986 10.1332 14.1986 10.1332 14.1986 10.1331C 14.1986 10.1331 14.1986 10.1331 14.1986 10.133C 14.1986 10.133 14.1986 10.133 14.1986 10.1329C 14.1986 10.1329 14.1986 10.1329 14.1986 10.1328C 14.1986 10.1328 14.1986 10.1328 14.1986 10.1328C 14.1986 10.1327 14.1986 10.1327 14.1986 10.1327C 14.1986 10.1326 14.1986 10.1326 14.1986 10.1326C 14.1986 10.1325 14.1986 10.1325 14.1986 10.1325C 14.1986 10.1324 14.1986 10.1324 14.1986 10.1324C 14.1986 10.1323 14.1986 10.1323 14.1986 10.1323C 14.1986 10.1322 14.1986 10.1322 14.1986 10.1322C 14.1986 10.1321 14.1986 10.1321 14.1986 10.1321C 14.1986 10.132 14.1986 10.132 14.1986 10.132C 14.1986 10.1319 14.1986 10.1319 14.1986 10.1319C 14.1986 10.1318 14.1986 10.1318 14.1986 10.1318C 14.1986 10.1317 14.1986 10.1317 14.1986 10.1317C 14.1986 10.1316 14.1986 10.1316 14.1986 10.1316C 14.1986 10.1315 14.1986 10.1315 14.1986 10.1314C 14.1986 10.1314 14.1986 10.1314 14.1986 10.1313C 14.1986 10.1313 14.1986 10.1313 14.1986 10.1312C 14.1986 10.1312 14.1986 10.1312 14.1986 10.1311C 14.1986 10.1311 14.1986 10.1311 14.1986 10.131C 14.1986 10.131 14.1986 10.1309 14.1986 10.1309C 14.1986 10.1309 14.1986 10.1308 14.1986 10.1308C 14.1986 10.1308 14.1986 10.1307 14.1986 10.1307C 14.1986 10.1307 14.1986 10.1306 14.1986 10.1306C 14.1986 10.1305 14.1986 10.1305 14.1986 10.1305C 14.1986 10.1304 14.1986 10.1304 14.1986 10.1304C 14.1986 10.1303 14.1986 10.1303 14.1986 10.1302C 14.1986 10.1302 14.1986 10.1302 14.1986 10.1301C 14.1986 10.1301 14.1986 10.13 14.1986 10.13C 14.1986 10.13 14.1986 10.1299 14.1986 10.1299C 14.1986 10.1299 14.1986 10.1298 14.1986 10.1298C 14.1986 10.1297 14.1986 10.1297 14.1986 10.1297C 14.1986 10.1296 14.1986 10.1296 14.1986 10.1295C 14.1986 10.1295 14.1986 10.1295 14.1986 10.1294C 14.1986 10.1294 14.1986 10.1293 14.1986 10.1293C 14.1986 10.1293 14.1986 10.1292 14.1986 10.1292C 14.1986 10.1291 14.1986 10.1291 14.1986 10.1291C 14.1986 10.129 14.1986 10.129 14.1986 10.1289C 14.1986 10.1289 14.1986 10.1289 14.1986 10.1288C 14.1986 10.1288 14.1986 10.1287 14.1986 10.1287C 14.1986 10.1287 14.1986 10.1286 14.1986 10.1286C 14.1986 10.1285 14.1986 10.1285 14.1986 10.1284C 14.1986 10.1284 14.1986 10.1284 14.1986 10.1283C 14.1986 10.1283 14.1986 10.1282 14.1986 10.1282C 14.1986 10.1282 14.1986 10.1281 14.1986 10.1281C 14.1986 10.128 14.1986 10.128 14.1986 10.1279C 14.1986 10.1279 14.1986 10.1279 14.1986 10.1278C 14.1986 10.1278 14.1986 10.1277 14.1986 10.1277C 14.1986 10.1276 14.1986 10.1276 14.1986 10.1276C 14.1986 10.1275 14.1986 10.1275 14.1986 10.1274C 14.1986 10.1274 14.1986 10.1273 14.1986 10.1273C 14.1986 10.1272 14.1986 10.1272 14.1986 10.1272C 14.1986 10.1271 14.1986 10.1271 14.1986 10.127C 14.1986 10.127 14.1986 10.1269 14.1986 10.1269C 14.1986 10.1269 14.1986 10.1268 14.1986 10.1268C 14.1986 10.1267 14.1986 10.1267 14.1986 10.1266C 14.1986 10.1266 14.1986 10.1265 14.1986 10.1265C 14.1986 10.1264 14.1986 10.1264 14.1986 10.1264C 14.1986 10.1263 14.1986 10.1263 14.1986 10.1262C 14.1986 10.1262 14.1986 10.1261 14.1986 10.1261C 14.1986 10.126 14.1986 10.126 14.1986 10.1259C 14.1986 10.1259 14.1986 10.1259 14.1986 10.1258C 14.1986 10.1258 14.1986 10.1257 14.1986 10.1257C 14.1986 10.1256 14.1986 10.1256 14.1986 10.1255C 14.1986 10.1255 14.1986 10.1254 14.1986 10.1254C 14.1986 10.1253 14.1986 10.1253 14.1986 10.1252C 14.1986 10.1252 14.1986 10.1251 14.1986 10.1251C 14.1986 10.1251 14.1986 10.125 14.1986 10.125C 14.1986 10.1249 14.1986 10.1249 14.1986 10.1248C 14.1986 10.1248 14.1986 10.1247 14.1986 10.1247C 14.1986 10.1246 14.1986 10.1246 14.1986 10.1245C 14.1986 10.1245 14.1986 10.1244 14.1986 10.1244C 14.1986 10.1243 14.1986 10.1243 14.1986 10.1242C 14.1986 10.1242 14.1986 10.1241 14.1986 10.1241C 14.1986 10.124 14.1986 10.124 14.1986 10.1239C 14.1986 10.1239 14.1986 10.1238 14.1986 10.1238C 14.1986 10.1237 14.1986 10.1237 14.1986 10.1236C 14.1986 10.1236 14.1986 10.1235 14.1986 10.1235C 14.1986 10.1234 14.1986 10.1234 14.1986 10.1233C 14.1986 10.1233 14.1986 10.1232 14.1986 10.1232C 14.1986 10.1231 14.1986 10.1231 14.1986 10.123C 14.1986 10.123 14.1986 10.1229 14.1986 10.1229C 14.1986 10.1228 14.1986 10.1228 14.1986 10.1227C 14.1986 10.1227 14.1986 10.1226 14.1986 10.1226C 14.1986 10.1225 14.1986 10.1225 14.1986 10.1224C 14.1986 10.1224 14.1986 10.1223 14.1986 10.1223C 14.1986 10.1222 14.1986 10.1222 14.1986 10.1221C 14.1986 10.1221 14.1986 10.122 14.1986 10.122C 14.1986 10.1219 14.1986 10.1219 14.1986 10.1218C 14.1986 10.1218 14.1986 10.1217 14.1986 10.1217C 14.1986 10.1216 14.1986 10.1215 14.1986 10.1215C 14.1986 10.1214 14.1986 10.1214 14.1986 10.1213C 14.1986 10.1213 14.1986 10.1212 14.1986 10.1212C 14.1986 10.1211 14.1986 10.1211 14.1986 10.121C 14.1986 10.121 14.1986 10.1209 14.1986 10.1209C 14.1986 10.1208 14.1986 10.1207 14.1986 10.1207C 14.1986 10.1206 14.1986 10.1206 14.1986 10.1205C 14.1986 10.1205 14.1986 10.1204 14.1986 10.1204C 14.1986 10.1203 14.1986 10.1203 14.1986 10.1202C 14.1986 10.1202 14.1986 10.1201 14.1986 10.12C 14.1986 10.12 14.1986 10.1199 14.1986 10.1199C 14.1986 10.1198 14.1986 10.1198 14.1986 10.1197C 14.1986 10.1197 14.1986 10.1196 14.1986 10.1196C 14.1986 10.1195 14.1986 10.1194 14.1986 10.1194C 14.1986 10.1193 14.1986 10.1193 14.1986 10.1192C 14.1986 10.1192 14.1986 10.1191 14.1986 10.1191C 14.1986 10.119 14.1986 10.1189 14.1986 10.1189C 14.1986 10.1188 14.1986 10.1188 14.1986 10.1187C 14.1986 10.1187 14.1986 10.1186 14.1986 10.1186C 14.1986 10.1185 14.1986 10.1184 14.1986 10.1184C 14.1986 10.1183 14.1986 10.1183 14.1986 10.1182C 14.1986 10.1182 14.1986 10.1181 14.1986 10.118C 14.1986 10.118 14.1986 10.1179 14.1986 10.1179C 14.1986 10.1178 14.1986 10.1178 14.1986 10.1177C 14.1986 10.1176 14.1986 10.1176 14.1986 10.1175C 14.1986 10.1175 14.1986 10.1174 14.1986 10.1174C 14.1986 10.1173 14.1986 10.1172 14.1986 10.1172C 14.1986 10.1171 14.1986 10.1171 14.1986 10.117C 14.1986 10.117 14.1986 10.1169 14.1986 10.1168C 14.1986 10.1168 14.1986 10.1167 14.1986 10.1167C 14.1986 10.1166 14.1986 10.1165 14.1986 10.1165C 14.1986 10.1164 14.1986 10.1164 14.1986 10.1163C 14.1986 10.1162 14.1986 10.1162 14.1986 10.1161C 14.1986 10.1161 14.1986 10.116 14.1986 10.116C 14.1986 10.1159 14.1986 10.1158 14.1986 10.1158C 14.1986 10.1157 14.1986 10.1157 14.1986 10.1156C 14.1986 10.1155 14.1986 10.1155 14.1986 10.1154C 14.1986 10.1154 14.1986 10.1153 14.1986 10.1152C 14.1986 10.1152 14.1986 10.1151 14.1986 10.1151C 14.1986 10.115 14.1986 10.1149 14.1986 10.1149C 14.1986 10.1148 14.1986 10.1148 14.1986 10.1147C 14.1986 10.1146 14.1986 10.1146 14.1986 10.1145C 14.1986 10.1145 14.1986 10.1144 14.1986 10.1143C 14.1986 10.1143 14.1986 10.1142 14.1986 10.1142C 14.1986 10.1141 14.1986 10.114 14.1986 10.114C 14.1986 10.1139 14.1986 10.1138 14.1986 10.1138C 14.1986 10.1137 14.1986 10.1137 14.1986 10.1136C 14.1986 10.1135 14.1986 10.1135 14.1986 10.1134C 14.1986 10.1134 14.1986 10.1133 14.1986 10.1132C 14.1986 10.1132 14.1986 10.1131 14.1986 10.113C 14.1986 10.113 14.1986 10.1129 14.1986 10.1129C 14.1986 10.1128 14.1986 10.1127 14.1986 10.1127C 14.1986 10.1126 14.1986 10.1125 14.1986 10.1125C 14.1986 10.1124 14.1986 10.1124 14.1986 10.1123C 14.1986 10.1122 14.1986 10.1122 14.1986 10.1121C 14.1986 10.112 14.1986 10.112 14.1986 10.1119C 14.1986 10.1119 14.1986 10.1118 14.1986 10.1117C 14.1986 10.1117 14.1986 10.1116 14.1986 10.1115C 14.1986 10.1115 14.1986 10.1114 14.1986 10.1113C 14.1986 10.1113 14.1986 10.1112 14.1986 10.1112C 14.1986 10.1111 14.1986 10.111 14.1986 10.111C 14.1986 10.1109 14.1986 10.1108 14.1986 10.1108C 14.1986 10.1107 14.1986 10.1106 14.1986 10.1106C 14.1986 10.1105 14.1986 10.1105 14.1986 10.1104C 14.1986 10.1103 14.1986 10.1103 14.1986 10.1102C 14.1986 10.1101 14.1986 10.1101 14.1986 10.11C 14.1986 10.1099 14.1986 10.1099 14.1986 10.1098C 14.1986 10.1097 14.1986 10.1097 14.1986 10.1096C 14.1986 10.1095 14.1986 10.1095 14.1986 10.1094C 14.1986 10.1093 14.1986 10.1093 14.1986 10.1092C 14.1986 10.1092 14.1986 10.1091 14.1986 10.109C 14.1986 10.109 14.1986 10.1089 14.1986 10.1088C 14.1986 10.1088 14.1986 10.1087 14.1986 10.1086C 14.1986 10.1086 14.1986 10.1085 14.1986 10.1084C 14.1986 10.1084 14.1986 10.1083 14.1986 10.1082C 14.1986 10.1082 14.1986 10.1081 14.1986 10.108C 14.1986 10.108 14.1986 10.1079 14.1986 10.1078C 14.1986 10.1078 14.1986 10.1077 14.1986 10.1076C 14.1986 10.1076 14.1986 10.1075 14.1986 10.1074C 14.1986 10.1074 14.1986 10.1073 14.1986 10.1072C 14.1986 10.1072 14.1986 10.1071 14.1986 10.107C 14.1986 10.107 14.1986 10.1069 14.1986 10.1068C 14.1986 10.1068 14.1986 10.1067 14.1986 10.1066C 14.1986 10.1066 14.1986 10.1065 14.1986 10.1064C 14.1986 10.1064 14.1986 10.1063 14.1986 10.1062C 14.1986 10.1062 14.1986 10.1061 14.1986 10.106C 14.1986 10.1059 14.1986 10.1059 14.1986 10.1058C 14.1986 10.1057 14.1986 10.1057 14.1986 10.1056C 14.1986 10.1055 14.1986 10.1055 14.1986 10.1054C 14.1986 10.1053 14.1986 10.1053 14.1986 10.1052C 14.1986 10.1051 14.1986 10.1051 14.1986 10.105C 14.1986 10.1049 14.1986 10.1049 14.1986 10.1048C 14.1986 10.1047 14.1986 10.1046 14.1986 10.1046C 14.1986 10.1045 14.1986 10.1044 14.1986 10.1044C 14.1986 10.1043 14.1986 10.1042 14.1986 10.1042C 14.1986 10.1041 14.1986 10.104 14.1986 10.104C 14.1986 10.1039 14.1986 10.1038 14.1986 10.1037C 14.1986 10.1037 14.1986 10.1036 14.1986 10.1035C 14.1986 10.1035 14.1986 10.1034 14.1986 10.1033C 14.1986 10.1033 14.1986 10.1032 14.1986 10.1031C 14.1986 10.103 14.1986 10.103 14.1986 10.1029C 14.1986 10.1028 14.1986 10.1028 14.1986 10.1027C 14.1986 10.1026 14.1986 10.1026 14.1986 10.1025C 14.1986 10.1024 14.1986 10.1023 14.1986 10.1023C 14.1986 10.1022 14.1986 10.1021 14.1986 10.1021C 14.1986 10.102 14.1986 10.1019 14.1986 10.1018C 14.1986 10.1018 14.1986 10.1017 14.1986 10.1016C 14.1986 10.1016 14.1986 10.1015 14.1986 10.1014C 14.1986 10.1013 14.1986 10.1013 14.1986 10.1012C 14.1986 10.1011 14.1986 10.1011 14.1986 10.101C 14.1986 10.1009 14.1986 10.1009 14.1986 10.1008C 14.1986 10.1007 14.1986 10.1006 14.1986 10.1006C 14.1986 10.1005 14.1986 10.1004 14.1986 10.1003C 14.1986 10.1003 14.1986 10.1002 14.1986 10.1001C 14.1986 10.1001 14.1986 10.1 14.1986 10.0999C 14.1986 10.0998 14.1986 10.0998 14.1986 10.0997C 14.1986 10.0996 14.1986 10.0996 14.1986 10.0995C 14.1986 10.0994 14.1986 10.0993 14.1986 10.0993C 14.1986 10.0992 14.1986 10.0991 14.1986 10.099C 14.1986 10.099 14.1986 10.0989 14.1986 10.0988C 14.1986 10.0988 14.1986 10.0987 14.1986 10.0986C 14.1986 10.0985 14.1986 10.0985 14.1986 10.0984C 14.1986 10.0983 14.1986 10.0982 14.1986 10.0982C 14.1986 10.0981 14.1986 10.098 14.1986 10.098C 14.1986 10.0979 14.1986 10.0978 14.1986 10.0977C 14.1986 10.0977 14.1986 10.0976 14.1986 10.0975C 14.1986 10.0974 14.1986 10.0974 14.1986 10.0973C 14.1986 10.0972 14.1986 10.0971 14.1986 10.0971C 14.1986 10.097 14.1986 10.0969 14.1986 10.0969C 14.1986 10.0968 14.1986 10.0967 14.1986 10.0966C 14.1986 10.0966 14.1986 10.0965 14.1986 10.0964C 14.1986 10.0963 14.1986 10.0963 14.1986 10.0962C 14.1986 10.0961 14.1986 10.096 14.1986 10.096C 14.1986 10.0959 14.1986 10.0958 14.1986 10.0957C 14.1986 10.0957 14.1986 10.0956 14.1986 10.0955C 14.1986 10.0954 14.1986 10.0954 14.1986 10.0953C 14.1986 10.0952 14.1986 10.0951 14.1986 10.0951C 14.1986 10.095 14.1986 10.0949 14.1986 10.0948C 14.1986 10.0948 14.1986 10.0947 14.1986 10.0946C 14.1986 10.0945 14.1986 10.0945 14.1986 10.0944C 14.1986 10.0943 14.1986 10.0942 14.1986 10.0942C 14.1986 10.0941 14.1986 10.094 14.1986 10.0939C 14.1986 10.0939 14.1986 10.0938 14.1986 10.0937C 14.1986 10.0936 14.1986 10.0936 14.1986 10.0935C 14.1986 10.0934 14.1986 10.0933 14.1986 10.0933C 14.1986 10.0932 14.1986 10.0931 14.1986 10.093C 14.1986 10.093 14.1986 10.0929 14.1986 10.0928C 14.1986 10.0927 14.1986 10.0926 14.1986 10.0926C 14.1986 10.0925 14.1986 10.0924 14.1986 10.0923C 14.1986 10.0923 14.1986 10.0922 14.1986 10.0921C 14.1986 10.092 14.1986 10.092 14.1986 10.0919C 14.1986 10.0918 14.1986 10.0917 14.1986 10.0917C 14.1986 10.0916 14.1986 10.0915 14.1986 10.0914C 14.1986 10.0913 14.1986 10.0913 14.1986 10.0912C 14.1986 10.0911 14.1986 10.091 14.1986 10.091C 14.1986 10.0909 14.1986 10.0908 14.1986 10.0907C 14.1986 10.0907 14.1986 10.0906 14.1986 10.0905C 14.1986 10.0904 14.1986 10.0903 14.1986 10.0903C 14.1986 10.0902 14.1986 10.0901 14.1986 10.09C 14.1986 10.09 14.1986 10.0899 14.1986 10.0898C 14.1986 10.0897 14.1986 10.0897 14.1986 10.0896C 14.1986 10.0895 14.1986 10.0894 14.1986 10.0893C 14.1986 10.0893 14.1986 10.0892 14.1986 10.0891C 14.1986 10.089 14.1986 10.089 14.1986 10.0889C 14.1986 10.0888 14.1986 10.0887 14.1986 10.0886C 14.1986 10.0886 14.1986 10.0885 14.1986 10.0884C 14.1986 10.0883 14.1986 10.0883 14.1986 10.0882C 14.1986 10.0881 14.1986 10.088 14.1986 10.0879C 14.1986 10.0879 14.1986 10.0878 14.1986 10.0877C 14.1986 10.0876 14.1986 10.0875 14.1986 10.0875C 14.1986 10.0874 14.1986 10.0873 14.1986 10.0872C 14.1986 10.0872 14.1986 10.0871 14.1986 10.087C 14.1986 10.0869 14.1986 10.0868 14.1986 10.0868C 14.1986 10.0867 14.1986 10.0866 14.1986 10.0865C 14.1986 10.0864 14.1986 10.0864 14.1986 10.0863C 14.1986 10.0862 14.1986 10.0861 14.1986 10.0861C 14.1986 10.086 14.1986 10.0859 14.1986 10.0858C 14.1986 10.0857 14.1986 10.0857 14.1986 10.0856C 14.1986 10.0855 14.1986 10.0854 14.1986 10.0853C 14.1986 10.0853 14.1986 10.0852 14.1986 10.0851C 14.1986 10.085 14.1986 10.0849 14.1986 10.0849C 14.1986 10.0848 14.1986 10.0847 14.1986 10.0846C 14.1986 10.0845 14.1986 10.0845 14.1986 10.0844C 14.1986 10.0843 14.1986 10.0842 14.1986 10.0841C 14.1986 10.0841 14.1986 10.084 14.1986 10.0839C 14.1986 10.0838 14.1986 10.0837 14.1986 10.0837C 14.1986 10.0836 14.1986 10.0835 14.1986 10.0834C 14.1986 10.0833 14.1986 10.0833 14.1986 10.0832C 14.1986 10.0831 14.1986 10.083 14.1986 10.0829C 14.1986 10.0829 14.1986 10.0828 14.1986 10.0827C 14.1986 10.0826 14.1986 10.0825 14.1986 10.0825C 14.1986 10.0824 14.1986 10.0823 14.1986 10.0822C 14.1986 10.0821 14.1986 10.0821 14.1986 10.082C 14.1986 10.0819 14.1986 10.0818 14.1986 10.0817C 14.1986 10.0817 14.1986 10.0816 14.1986 10.0815C 14.1986 10.0814 14.1986 10.0813 14.1986 10.0813C 14.1986 10.0812 14.1986 10.0811 14.1986 10.081C 14.1986 10.0809 14.1986 10.0809 14.1986 10.0808C 14.1986 10.0807 14.1986 10.0806 14.1986 10.0805C 14.1986 10.0804 14.1986 10.0804 14.1986 10.0803C 14.1986 10.0802 14.1986 10.0801 14.1986 10.08C 14.1986 10.08 14.1986 10.0799 14.1986 10.0798C 14.1986 10.0797 14.1986 10.0796 14.1986 10.0796C 14.1986 10.0795 14.1986 10.0794 14.1986 10.0793C 14.1986 10.0792 14.1986 10.0791 14.1986 10.0791C 14.1986 10.079 14.1986 10.0789 14.1986 10.0788C 14.1986 10.0787 14.1986 10.0787 14.1986 10.0786C 14.1986 10.0785 14.1986 10.0784 14.1986 10.0783C 14.1986 10.0782 14.1986 10.0782 14.1986 10.0781C 14.1986 10.078 14.1986 10.0779 14.1986 10.0778C 14.1986 10.0778 14.1986 10.0777 14.1986 10.0776C 14.1986 10.0775 14.1986 10.0774 14.1986 10.0773C 14.1986 10.0773 14.1986 10.0772 14.1986 10.0771C 14.1986 10.077 14.1986 10.0769 14.1986 10.0769C 14.1986 10.0768 14.1986 10.0767 14.1986 10.0766C 14.1986 10.0765 14.1986 10.0764 14.1986 10.0764C 14.1986 10.0763 14.1986 10.0762 14.1986 10.0761C 14.1986 10.076 14.1986 10.076 14.1986 10.0759C 14.1986 10.0758 14.1986 10.0757 14.1986 10.0756C 14.1986 10.0755 14.1986 10.0755 14.1986 10.0754C 14.1986 10.0753 14.1986 10.0752 14.1986 10.0751C 14.1986 10.075 14.1986 10.075 14.1986 10.0749C 14.1986 10.0748 14.1986 10.0747 14.1986 10.0746C 14.1986 10.0745 14.1986 10.0745 14.1986 10.0744C 14.1986 10.0743 14.1986 10.0742 14.1986 10.0741C 14.1986 10.0741 14.1986 10.074 14.1986 10.0739C 14.1986 10.0738 14.1986 10.0737 14.1986 10.0736C 14.1986 10.0736 14.1986 10.0735 14.1986 10.0734C 14.1986 10.0733 14.1986 10.0732 14.1986 10.0731C 14.1986 10.0731 14.1986 10.073 14.1986 10.0729C 14.1986 10.0728 14.1986 10.0727 14.1986 10.0726C 14.1986 10.0726 14.1986 10.0725 14.1986 10.0724C 14.1986 10.0723 14.1986 10.0722 14.1986 10.0721C 14.1986 10.0721 14.1986 10.072 14.1986 10.0719C 14.1986 10.0718 14.1986 10.0717 14.1986 10.0716C 14.1986 10.0716 14.1986 10.0715 14.1986 10.0714C 14.1986 10.0713 14.1986 10.0712 14.1986 10.0711C 14.1986 10.0711 14.1986 10.071 14.1986 10.0709C 14.1986 10.0708 14.1986 10.0707 14.1986 10.0706C 14.1986 10.0706 14.1986 10.0705 14.1986 10.0704C 14.1986 10.0703 14.1986 10.0702 14.1986 10.0701C 14.1986 10.0701 14.1986 10.07 14.1986 10.0699C 14.1986 10.0698 14.1986 10.0697 14.1986 10.0696C 14.1986 10.0695 14.1986 10.0695 14.1986 10.0694C 14.1986 10.0693 14.1986 10.0692 14.1986 10.0691C 14.1986 10.069 14.1986 10.069 14.1986 10.0689C 14.1986 10.0688 14.1986 10.0687 14.1986 10.0686C 14.1986 10.0685 14.1986 10.0685 14.1986 10.0684C 14.1986 10.0683 14.1986 10.0682 14.1986 10.0681C 14.1986 10.068 14.1986 10.068 14.1986 10.0679C 14.1986 10.0678 14.1986 10.0677 14.1986 10.0676C 14.1986 10.0675 14.1986 10.0674 14.1986 10.0674C 14.1986 10.0673 14.1986 10.0672 14.1986 10.0671C 14.1986 10.067 14.1986 10.0669 14.1986 10.0669C 14.1986 10.0668 14.1986 10.0667 14.1986 10.0666C 14.1986 10.0665 14.1986 10.0664 14.1986 10.0664C 14.1986 10.0663 14.1986 10.0662 14.1986 10.0661C 14.1986 10.066 14.1986 10.0659 14.1986 10.0658C 14.1986 10.0658 14.1986 10.0657 14.1986 10.0656C 14.1986 10.0655 14.1986 10.0654 14.1986 10.0653C 14.1986 10.0653 14.1986 10.0652 14.1986 10.0651C 14.1986 10.065 14.1986 10.0649 14.1986 10.0648C 14.1986 10.0647 14.1986 10.0647 14.1986 10.0646C 14.1986 10.0645 14.1986 10.0644 14.1986 10.0643C 14.1986 10.0642 14.1986 10.0642 14.1986 10.0641C 14.1986 10.064 14.1986 10.0639 14.1986 10.0638C 14.1986 10.0637 14.1986 10.0636 14.1986 10.0636C 14.1986 10.0635 14.1986 10.0634 14.1986 10.0633C 14.1986 10.0632 14.1986 10.0631 14.1986 10.0631C 14.1986 10.063 14.1986 10.0629 14.1986 10.0628C 14.1986 10.0627 14.1986 10.0626 14.1986 10.0625C 14.1986 10.0625 14.1986 10.0624 14.1986 10.0623C 14.1986 10.0622 14.1986 10.0621 14.1986 10.062C 14.1986 10.0619 14.1986 10.0619 14.1986 10.0618C 14.1986 10.0617 14.1986 10.0616 14.1986 10.0615C 14.1986 10.0614 14.1986 10.0614 14.1986 10.0613C 14.1986 10.0612 14.1986 10.0611 14.1986 10.061C 14.1986 10.0609 14.1986 10.0608 14.1986 10.0608C 14.1986 10.0607 14.1986 10.0606 14.1986 10.0605C 14.1986 10.0604 14.1986 10.0603 14.1986 10.0602C 14.1986 10.0602 14.1986 10.0601 14.1986 10.06C 14.1986 10.0599 14.1986 10.0598 14.1986 10.0597C 14.1986 10.0596 14.1986 10.0596 14.1986 10.0595C 14.1986 10.0594 14.1986 10.0593 14.1986 10.0592C 14.1986 10.0591 14.1986 10.059 14.1986 10.059C 14.1986 10.0589 14.1986 10.0588 14.1986 10.0587C 14.1986 10.0586 14.1986 10.0585 14.1986 10.0585C 14.1986 10.0584 14.1986 10.0583 14.1986 10.0582C 14.1986 10.0581 14.1986 10.058 14.1986 10.0579C 14.1986 10.0579 14.1986 10.0578 14.1986 10.0577C 14.1986 10.0576 14.1986 10.0575 14.1986 10.0574C 14.1986 10.0573 14.1986 10.0573 14.1986 10.0572C 14.1986 10.0571 14.1986 10.057 14.1986 10.0569C 14.1986 10.0568 14.1986 10.0567 14.1986 10.0567C 14.1986 10.0566 14.1986 10.0565 14.1986 10.0564C 14.1986 10.0563 14.1986 10.0562 14.1986 10.0561C 14.1986 10.0561 14.1986 10.056 14.1986 10.0559C 14.1986 10.0558 14.1986 10.0557 14.1986 10.0556C 14.1986 10.0555 14.1986 10.0555 14.1986 10.0554C 14.1986 10.0553 14.1986 10.0552 14.1986 10.0551C 14.1986 10.055 14.1986 10.0549 14.1986 10.0549C 14.1986 10.0548 14.1986 10.0547 14.1986 10.0546C 14.1986 10.0545 14.1986 10.0544 14.1986 10.0543C 14.1986 10.0543 14.1986 10.0542 14.1986 10.0541C 14.1986 10.054 14.1986 10.0539 14.1986 10.0538C 14.1986 10.0537 14.1986 10.0537 14.1986 10.0536C 14.1986 10.0535 14.1986 10.0534 14.1986 10.0533C 14.1986 10.0532 14.1986 10.0531 14.1986 10.0531C 14.1986 10.053 14.1986 10.0529 14.1986 10.0528C 14.1986 10.0527 14.1986 10.0526 14.1986 10.0525C 14.1986 10.0525 14.1986 10.0524 14.1986 10.0523C 14.1986 10.0522 14.1986 10.0521 14.1986 10.052C 14.1986 10.0519 14.1986 10.0519 14.1986 10.0518C 14.1986 10.0517 14.1986 10.0516 14.1986 10.0515C 14.1986 10.0514 14.1986 10.0513 14.1986 10.0513C 14.1986 10.0512 14.1986 10.0511 14.1986 10.051C 14.1986 10.0509 14.1986 10.0508 14.1986 10.0507C 14.1986 10.0507 14.1986 10.0506 14.1986 10.0505C 14.1986 10.0504 14.1986 10.0503 14.1986 10.0502L 12.1986 10.0502ZM 12.2692 9.769C 11.8553 10.8114 11.794 12.034 11.9403 13.2432C 12.0879 14.4632 12.4551 15.7394 12.9698 16.9354C 13.4845 18.1315 14.159 19.2757 14.9415 20.2235C 15.7169 21.1627 16.6421 21.9618 17.6742 22.3859L 18.4344 20.536C 17.8111 20.2799 17.1362 19.7404 16.4838 18.9502C 15.8386 18.1686 15.2578 17.1925 14.8069 16.1448C 14.356 15.097 14.0472 14.006 13.9258 13.0029C 13.8031 11.9889 13.8798 11.1324 14.128 10.507L 12.2692 9.769ZM 18.0543 22.461C 17.8813 22.461 17.6859 22.4122 17.5093 22.2893C 17.3604 22.1857 17.2822 22.0667 17.2679 22.0453C 17.259 22.032 17.2516 22.02 17.2577 22.0297C 17.2605 22.0343 17.2718 22.0525 17.2858 22.0735C 17.3167 22.1195 17.3659 22.1867 17.4375 22.2579L 18.8476 20.8396C 18.9193 20.9108 19.0137 21.0577 18.929 20.9315C 18.9036 20.8936 18.8145 20.761 18.6517 20.6477C 18.4613 20.5152 18.2494 20.461 18.0543 20.461L 18.0543 22.461ZM 17.2257 21.9478L 19.2121 26.5121L 21.0459 25.714L 19.0595 21.1497L 17.2257 21.9478ZM 19.2356 26.5623C 19.1268 26.3459 19.114 26.0805 19.2162 25.8434C 19.3095 25.6269 19.4677 25.5006 19.5956 25.437L 20.4859 27.2279C 20.7021 27.1205 20.9264 26.9283 21.0528 26.6351C 21.1882 26.3212 21.1754 25.9679 21.0224 25.6638L 19.2356 26.5623ZM 22.1368 23.9629C 22.0123 24.0454 21.8658 24.1391 21.6914 24.2509C 21.5199 24.361 21.3269 24.4851 21.1215 24.6212L 22.2265 26.2883C 22.4184 26.161 22.6006 26.0438 22.7712 25.9344C 22.9389 25.8268 23.1014 25.723 23.2417 25.63L 22.1368 23.9629ZM 21.2289 24.5593C 21.443 24.4528 21.7048 24.4404 21.9391 24.5403C 22.154 24.6318 22.2815 24.7881 22.3467 24.9177L 20.5599 25.8163C 20.6692 26.0336 20.8629 26.2557 21.1551 26.3802C 21.4667 26.513 21.8167 26.5006 22.1191 26.3502L 21.2289 24.5593ZM 22.3743 24.9775L 20.741 21.1154L 18.899 21.8944L 20.5323 25.7565L 22.3743 24.9775ZM 20.7134 21.0556C 20.8103 21.2482 20.8552 21.5405 20.7079 21.8335C 20.5489 22.1496 20.2292 22.3293 19.9083 22.3293L 19.9083 20.3293C 19.4991 20.3293 19.1132 20.5529 18.9211 20.9349C 18.7407 21.2936 18.7856 21.6738 18.9266 21.9542L 20.7134 21.0556ZM 20.3003 22.2493C 20.6081 22.1181 20.942 21.9761 21.3246 21.7859L 20.4343 19.995C 20.1106 20.1559 19.8265 20.2772 19.5163 20.4093L 20.3003 22.2493ZM 21.3246 21.7859C 21.2677 21.8142 21.1981 21.8308 21.1255 21.8291C 21.0554 21.8275 21.0004 21.8095 20.964 21.7914C 20.8965 21.7578 20.8877 21.7244 20.8935 21.7374L 22.7194 20.9212C 22.4075 20.2237 21.486 19.4722 20.4343 19.995L 21.3246 21.7859ZM 20.8856 21.7193L 21.945 24.2209L 23.7867 23.4409L 22.7272 20.9393L 20.8856 21.7193ZM 21.9529 24.239C 21.9702 24.2776 21.9486 24.2525 21.9627 24.1823C 21.9693 24.1494 21.9822 24.1165 22.0002 24.0869C 22.0181 24.0578 22.0372 24.0381 22.0513 24.0264L 23.3273 25.5665C 23.9767 25.0284 24.1172 24.1797 23.7788 23.4228L 21.9529 24.239Z"/>
</defs>
</svg>
