<svg width="60" height="60" viewBox="0 0 60 60" version="1.1" xmlns="http://www.w3.org/2000/svg" xmlns:xlink="http://www.w3.org/1999/xlink">
<title>Group 41</title>
<desc>Created using Figma</desc>
<g id="Canvas" transform="translate(-4661 743)">
<g id="Group 41">
<g id="Group 31.8">
<g id="Ellipse">
<use xlink:href="#path0_fill" transform="translate(4661 -743)" fill="#FFFFFF"/>
<mask id="mask0_outline_ins">
<use xlink:href="#path0_fill" fill="white" transform="translate(4661 -743)"/>
</mask>
<g mask="url(#mask0_outline_ins)">
<use xlink:href="#path1_stroke_2x" transform="translate(4661 -743)"/>
</g>
</g>
</g>
<g id="Group 40">
<g id="Vector">
<use xlink:href="#path2_fill" transform="translate(4675 -729)"/>
</g>
<g id="Vector">
<use xlink:href="#path3_fill" transform="translate(4675.67 -725)"/>
</g>
<g id="Vector">
<use xlink:href="#path3_fill" transform="translate(4675.67 -702.333)"/>
</g>
<g id="Vector">
<use xlink:href="#path4_fill" transform="translate(4683 -727)"/>
</g>
<g id="Vector">
<use xlink:href="#path4_fill" transform="translate(4683 -700.333)"/>
</g>
<g id="Vector">
<use xlink:href="#path5_fill" transform="translate(4680.33 -727)"/>
</g>
<g id="Vector">
<use xlink:href="#path6_fill" transform="translate(4687.67 -722.333)"/>
</g>
<g id="Vector">
<use xlink:href="#path7_fill" transform="translate(4692.33 -719.667)"/>
</g>
<g id="Vector">
<use xlink:href="#path8_fill" transform="translate(4699 -714.333)"/>
</g>
<g id="Vector">
<use xlink:href="#path9_fill" transform="matrix(0.524003 -0.851717 0.851717 0.524003 4694.43 -711.349)"/>
</g>
</g>
</g>
</g>
<defs>
<path id="path0_fill" d="M 60 30C 60 46.5685 46.5685 60 30 60C 13.4315 60 0 46.5685 0 30C 0 13.4315 13.4315 0 30 0C 46.5685 0 60 13.4315 60 30Z"/>
<path id="path1_stroke_2x" d="M 59 30C 59 46.0163 46.0163 59 30 59L 30 61C 47.1208 61 61 47.1208 61 30L 59 30ZM 30 59C 13.9837 59 1 46.0163 1 30L -1 30C -1 47.1208 12.8792 61 30 61L 30 59ZM 1 30C 1 13.9837 13.9837 1 30 1L 30 -1C 12.8792 -1 -1 12.8792 -1 30L 1 30ZM 30 1C 46.0163 1 59 13.9837 59 30L 61 30C 61 12.8792 47.1208 -1 30 -1L 30 1Z"/>
<path id="path2_fill" d="M 18 32L 2 32C 0.897133 32 0 31.1029 0 30L 0 2C 0 0.897139 0.897133 0 2 0L 18 0C 19.1029 0 20 0.897139 20 2L 20 7.33367L 18.6667 7.33367L 18.6667 2C 18.6667 1.63247 18.3675 1.33333 18 1.33333L 2 1.33333C 1.63247 1.33333 1.33333 1.63247 1.33333 2L 1.33333 30C 1.33333 30.3675 1.63247 30.6667 2 30.6667L 18 30.6667C 18.3675 30.6667 18.6667 30.3675 18.6667 30L 18.6667 20.6667L 20 20.6667L 20 30C 20 31.1029 19.1029 32 18 32Z"/>
<path id="path3_fill" d="M 18.6667 0L 0 0L 0 1.33333L 18.6667 1.33333L 18.6667 0Z"/>
<path id="path4_fill" d="M 4 0L 0 0L 0 1.33333L 4 1.33333L 4 0Z"/>
<path id="path5_fill" d="M 1.33333 0L 0 0L 0 1.33333L 1.33333 1.33333L 1.33333 0Z"/>
<path id="path6_fill" d="M 2.66667 18.9427L 2.66667 14.6667L 2 14.6667C 0.897133 14.6667 0 13.7695 0 12.6667L 0 2C 0 0.897139 0.897133 0 2 0L 17.3333 0C 18.4362 0 19.3333 0.897139 19.3333 2L 19.3333 12.6667C 19.3333 13.7695 18.4362 14.6667 17.3333 14.6667L 6.94267 14.6667L 2.66667 18.9427ZM 2 1.33333C 1.63247 1.33333 1.33333 1.63247 1.33333 2L 1.33333 12.6667C 1.33333 13.0342 1.63247 13.3333 2 13.3333L 4 13.3333L 4 15.7239L 6.3906 13.3333L 17.3333 13.3333C 17.7008 13.3333 18 13.0342 18 12.6667L 18 2C 18 1.63247 17.7008 1.33333 17.3333 1.33333L 2 1.33333Z"/>
<path id="path7_fill" d="M 2 4C 0.897133 4 0 3.10287 0 2C 0 0.897139 0.897133 0 2 0C 3.10287 0 4 0.897139 4 2C 4 3.10287 3.10287 4 2 4ZM 2 1.33333C 1.63247 1.33333 1.33333 1.63247 1.33333 2C 1.33333 2.36754 1.63247 2.66667 2 2.66667C 2.36747 2.66667 2.66667 2.36754 2.66667 2C 2.66667 1.63247 2.36747 1.33333 2 1.33333Z"/>
<path id="path8_fill" d="M 2 4C 0.897133 4 0 3.10287 0 2C 0 0.897138 0.897133 0 2 0C 3.10287 0 4 0.897138 4 2C 4 3.10287 3.10287 4 2 4ZM 2 1.33333C 1.63247 1.33333 1.33333 1.63247 1.33333 2C 1.33333 2.36754 1.63247 2.66667 2 2.66667C 2.36747 2.66667 2.66667 2.36754 2.66667 2C 2.66667 1.63247 2.36747 1.33333 2 1.33333Z"/>
<path id="path9_fill" d="M 10.1762 0L 0 0L 0 1.33307L 10.1762 1.33307L 10.1762 0Z"/>
</defs>
</svg>
