<svg width="60" height="60" viewBox="0 0 60 60" version="1.1" xmlns="http://www.w3.org/2000/svg" xmlns:xlink="http://www.w3.org/1999/xlink">
<title>Group 36</title>
<desc>Created using Figma</desc>
<g id="Canvas" transform="translate(-4661 1856)">
<g id="Group 36">
<g id="Ellipse">
<use xlink:href="#path0_fill" transform="translate(4661 -1856)" fill="#FFFFFF"/>
<mask id="mask0_outline_ins">
<use xlink:href="#path0_fill" fill="white" transform="translate(4661 -1856)"/>
</mask>
<g mask="url(#mask0_outline_ins)">
<use xlink:href="#path1_stroke_2x" transform="translate(4661 -1856)"/>
</g>
</g>
<g id="Group 33">
<g id="Group 32">
<g id="Vector">
<use xlink:href="#path2_fill" transform="matrix(-0.862076 0.506779 0.493252 0.869887 4691.23 -1822.06)"/>
</g>
<g id="Vector">
<use xlink:href="#path3_fill" transform="matrix(-0.862076 0.506779 0.493252 0.869887 4687.29 -1829)"/>
</g>
<g id="Vector">
<use xlink:href="#path4_fill" transform="matrix(-0.862076 0.506779 0.493252 0.869887 4686.25 -1828.38)"/>
</g>
</g>
<g id="noun_1038986_cc">
<g id="Vector">
<use xlink:href="#path5_fill" transform="translate(4677 -1842)"/>
</g>
</g>
</g>
</g>
</g>
<defs>
<path id="path0_fill" d="M 60 30C 60 46.5685 46.5685 60 30 60C 13.4315 60 0 46.5685 0 30C 0 13.4315 13.4315 0 30 0C 46.5685 0 60 13.4315 60 30Z"/>
<path id="path1_stroke_2x" d="M 59 30C 59 46.0163 46.0163 59 30 59L 30 61C 47.1208 61 61 47.1208 61 30L 59 30ZM 30 59C 13.9837 59 1 46.0163 1 30L -1 30C -1 47.1208 12.8792 61 30 61L 30 59ZM 1 30C 1 13.9837 13.9837 1 30 1L 30 -1C 12.8792 -1 -1 12.8792 -1 30L 1 30ZM 30 1C 46.0163 1 59 13.9837 59 30L 61 30C 61 12.8792 47.1208 -1 30 -1L 30 1Z"/>
<path id="path2_fill" fill-rule="evenodd" d="M 0.331197 0.106614L 0.106115 0.335762C 0.0356034 0.407315 9.54023e-08 0.495505 9.54023e-08 0.597468L 9.54023e-08 2.95657C 9.54023e-08 3.05317 0.0316082 3.13617 0.0953467 3.20701L 0.329461 3.46692C 0.399452 3.54492 0.488373 3.58499 0.591535 3.58499L 0.868373 3.58481L 0.868373 -3.27544e-07C 0.781188 -3.27544e-07 0.686535 0.000179139 0.582504 0.000179139C 0.484725 0.000179139 0.400667 0.0355974 0.331197 0.106614Z"/>
<path id="path3_fill" fill-rule="evenodd" d="M 0.329635 0.117884L 0.0953468 0.378337C 0.0316082 0.448995 1.90805e-07 0.531818 1.90805e-07 0.628415L 1.90805e-07 2.96784C 1.90805e-07 3.08143 0.0448084 3.17946 0.129909 3.25173L 0.336581 3.42757C 0.403272 3.48428 0.477605 3.51182 0.564095 3.51182C 0.675421 3.51182 0.775978 3.51182 0.868199 3.512L 0.868199 -7.91564e-08L 0.591535 -7.91564e-08C 0.48872 -7.91564e-08 0.399799 0.0398908 0.329635 0.117884Z"/>
<path id="path4_fill" fill-rule="evenodd" d="M 2.60529 5.65841L 2.60529 5.65627C 2.60529 3.36263 1.52747 -7.91564e-08 0.315567 -7.91564e-08L 1.90805e-07 -7.91564e-08L 1.90805e-07 3.512C 0.0750276 3.51218 0.139982 3.51218 0.192953 3.51236C 0.308446 3.51254 0.407788 3.5637 0.477779 3.65869L 0.624708 3.85921C 0.67351 3.92594 0.696956 3.99767 0.696956 4.08103L 0.696956 5.77612L 0.697303 5.77612L 0.697303 7.34456C 0.697303 7.41737 0.679762 7.47979 0.642075 7.54133L 0.476215 7.8118C 0.408656 7.92146 0.30063 7.98299 0.174716 7.98335C 0.125566 7.98335 0.0666911 7.98335 0.00017377 7.98353L 0.00017377 11.5685L 0.316261 11.5683C 1.52799 11.5683 2.60581 8.02485 2.60581 5.73104L 2.60529 5.65841Z"/>
<path id="path5_fill" d="M 26.8 7.86844L 1.2 7.86844C 0.55 7.86844 0 8.41799 0 9.06744L 0 28.801C 0 29.4505 0.55 30 1.2 30L 26.8 30C 27.45 30 28 29.4505 28 28.801L 28 9.06744C 28 8.36803 27.45 7.86844 26.8 7.86844ZM 21.55 28.2015L 1.8 28.2015L 1.8 9.61699L 21.55 9.61699L 21.55 28.2015ZM 26.15 19.6586L 23.6 19.6586L 23.6 18.9092L 26.15 18.9092L 26.15 19.6586ZM 24.85 17.6103C 24.15 17.6103 23.55 17.0608 23.55 16.3614C 23.55 15.6619 24.15 15.1124 24.85 15.1124C 25.55 15.1124 26.15 15.6619 26.15 16.3614C 26.15 17.0608 25.55 17.6103 24.85 17.6103ZM 24.85 14.1632C 24.15 14.1632 23.55 13.6137 23.55 12.9142C 23.55 12.2148 24.15 11.6653 24.85 11.6653C 25.55 11.6653 26.15 12.2148 26.15 12.9142C 26.15 13.5637 25.55 14.1632 24.85 14.1632ZM 12.55 7.16903L 5.4 0.474604C 5.3 0.374688 5.3 0.174855 5.4 0.0749379C 5.5 -0.0249788 5.7 -0.0249788 5.8 0.0749379L 12.95 6.76936C 13.25 6.56952 13.6 6.41965 14 6.41965C 14.4 6.41965 14.7 6.51957 15 6.7194L 21.2 1.27394C 21.3 1.17402 21.5 1.17402 21.6 1.27394C 21.7 1.37386 21.7 1.57369 21.6 1.67361L 15.45 7.11907C 15.55 7.26894 15.6 7.41882 15.7 7.56869L 12.4 7.56869C 12.4 7.41882 12.45 7.3189 12.55 7.16903Z"/>
</defs>
</svg>
